<svg id="svg" xmlns="http://www.w3.org/2000/svg" xmlns:xlink="http://www.w3.org/1999/xlink" width="400" height="141.4528055676381" viewBox="0, 0, 400,141.4528055676381"><g id="svgg"><path id="path0" d="M92.752 1.763 C 84.941 3.059,78.762 9.476,77.738 17.355 L 77.529 18.965 67.580 18.965 L 57.632 18.965 57.429 18.158 C 55.969 12.361,47.903 12.360,46.443 18.157 L 46.240 18.962 35.865 19.007 L 25.489 19.052 25.445 32.022 L 25.400 44.993 23.792 45.202 C 10.147 46.976,3.214 63.346,11.729 73.684 C 12.123 74.163,12.556 74.696,12.691 74.870 C 12.916 75.160,12.550 75.573,8.270 79.855 C 3.772 84.355,3.185 85.080,4.039 85.080 C 4.161 85.080,6.350 82.992,8.904 80.439 C 13.163 76.182,13.574 75.818,13.864 76.043 C 14.038 76.178,14.572 76.611,15.050 77.005 C 17.130 78.718,20.725 80.193,23.792 80.592 L 25.400 80.801 25.445 93.771 L 25.489 106.742 35.882 106.787 L 46.275 106.832 46.377 107.309 C 47.712 113.552,56.159 113.552,57.494 107.308 L 57.597 106.830 111.486 106.786 L 165.376 106.742 165.421 95.911 L 165.466 85.080 168.944 85.080 L 172.423 85.080 172.423 62.897 L 172.423 40.713 168.944 40.713 L 165.466 40.713 165.421 29.883 L 165.376 19.052 139.357 19.008 L 113.337 18.964 113.128 17.355 C 111.835 7.409,102.370 0.166,92.752 1.763 M97.782 2.621 C 112.365 4.972,117.480 23.143,106.171 32.425 C 93.207 43.065,74.346 30.331,79.338 14.307 C 81.751 6.561,89.959 1.360,97.782 2.621 M94.125 12.919 C 94.032 13.134,92.930 15.933,91.676 19.139 C 90.422 22.344,89.354 25.070,89.303 25.195 C 89.233 25.369,89.430 25.410,90.141 25.369 L 91.071 25.315 91.776 23.401 L 92.481 21.488 95.156 21.488 L 97.831 21.488 98.568 23.401 L 99.305 25.315 100.301 25.368 C 100.852 25.397,101.269 25.350,101.235 25.262 C 101.202 25.175,100.000 22.275,98.565 18.819 L 95.955 12.535 95.125 12.531 C 94.428 12.528,94.267 12.590,94.125 12.919 M259.156 13.977 C 257.108 14.658,255.746 16.108,255.230 18.154 L 255.027 18.962 244.651 19.007 L 234.276 19.052 234.231 32.022 L 234.187 44.993 232.578 45.202 C 218.933 46.976,212.000 63.346,220.516 73.684 C 220.910 74.163,221.343 74.696,221.478 74.870 C 221.703 75.160,221.336 75.573,217.057 79.855 C 212.559 84.355,211.971 85.080,212.825 85.080 C 212.947 85.080,215.137 82.992,217.691 80.439 C 221.949 76.182,222.361 75.818,222.651 76.043 C 222.824 76.178,223.358 76.611,223.836 77.005 C 225.916 78.718,229.511 80.193,232.578 80.592 L 234.187 80.801 234.231 93.771 L 234.276 106.742 244.669 106.787 L 255.061 106.832 255.164 107.309 C 256.499 113.553,264.945 113.552,266.281 107.308 L 266.383 106.829 276.349 106.829 L 286.315 106.829 286.524 108.438 C 287.808 118.310,296.996 125.441,306.637 124.048 C 314.557 122.903,320.900 116.419,321.906 108.439 L 322.109 106.830 348.136 106.786 L 374.163 106.742 374.207 95.911 L 374.252 85.080 377.731 85.080 L 381.209 85.080 381.209 62.897 L 381.209 40.713 377.731 40.713 L 374.252 40.713 374.207 29.883 L 374.163 19.052 320.290 19.008 L 266.418 18.964 266.215 18.158 C 265.429 15.037,262.028 13.023,259.156 13.977 M97.085 19.704 C 97.085 19.776,96.186 19.835,95.086 19.835 L 93.087 19.835 93.546 18.660 C 93.798 18.014,94.247 16.776,94.543 15.908 L 95.082 14.330 96.083 16.952 C 96.633 18.394,97.084 19.632,97.085 19.704 M53.650 14.969 C 54.909 15.440,56.072 16.672,56.446 17.931 C 57.854 22.673,52.290 26.205,48.701 22.848 C 44.914 19.305,48.782 13.147,53.650 14.969 M262.437 14.969 C 263.696 15.440,264.859 16.672,265.233 17.931 C 266.641 22.673,261.077 26.205,257.487 22.848 C 253.700 19.305,257.569 13.147,262.437 14.969 M46.377 20.313 C 47.713 26.558,56.158 26.558,57.495 20.313 L 57.597 19.835 67.563 19.835 L 77.529 19.835 77.738 21.444 C 79.021 31.316,88.209 38.447,97.851 37.053 C 105.771 35.908,112.114 29.424,113.120 21.444 L 113.322 19.835 138.958 19.835 L 164.593 19.835 164.593 30.274 L 164.593 40.713 161.114 40.713 L 157.634 40.713 157.634 62.897 L 157.634 85.080 161.114 85.080 L 164.593 85.080 164.593 95.520 L 164.593 105.959 111.112 105.959 L 57.632 105.959 57.429 105.153 C 55.969 99.355,47.903 99.355,46.443 105.153 L 46.240 105.959 36.256 105.959 L 26.272 105.959 26.272 93.373 L 26.272 80.787 27.882 80.584 C 41.754 78.835,48.411 62.612,39.696 51.793 L 38.740 50.606 40.421 48.924 L 42.102 47.243 43.481 48.613 C 44.305 49.432,44.956 49.946,45.099 49.891 C 45.477 49.746,48.134 41.104,47.879 40.850 C 47.627 40.598,39.161 43.260,39.016 43.637 C 38.962 43.778,39.470 44.424,40.254 45.212 L 41.583 46.549 39.855 48.271 L 38.126 49.992 36.941 49.037 C 34.468 47.046,31.102 45.620,27.882 45.202 L 26.272 44.993 26.272 32.414 L 26.272 19.835 36.273 19.835 L 46.274 19.835 46.377 20.313 M255.163 20.313 C 256.499 26.558,264.945 26.558,266.281 20.313 L 266.383 19.835 319.882 19.835 L 373.380 19.835 373.380 30.274 L 373.380 40.713 369.900 40.713 L 366.420 40.713 366.420 62.897 L 366.420 85.080 369.900 85.080 L 373.380 85.080 373.380 95.520 L 373.380 105.959 347.752 105.959 L 322.123 105.959 321.914 104.350 C 320.754 95.424,313.063 88.563,304.219 88.563 C 295.386 88.563,287.683 95.436,286.524 104.350 L 286.315 105.959 276.366 105.959 L 266.418 105.959 266.215 105.153 C 264.755 99.355,256.689 99.355,255.229 105.153 L 255.026 105.959 245.042 105.959 L 235.059 105.959 235.059 93.373 L 235.059 80.787 236.668 80.584 C 250.540 78.835,257.197 62.612,248.483 51.793 L 247.526 50.606 249.208 48.924 L 250.889 47.243 252.267 48.613 C 253.091 49.432,253.742 49.946,253.886 49.891 C 254.263 49.746,256.920 41.104,256.665 40.850 C 256.413 40.598,247.947 43.260,247.802 43.637 C 247.749 43.778,248.256 44.424,249.040 45.212 L 250.369 46.549 248.641 48.271 L 246.913 49.992 245.727 49.037 C 243.255 47.046,239.888 45.620,236.668 45.202 L 235.059 44.993 235.059 32.414 L 235.059 19.835 245.060 19.835 L 255.061 19.835 255.163 20.313 M151.630 27.869 C 151.582 27.996,151.524 43.223,151.500 61.708 L 151.457 95.316 149.706 91.112 C 147.994 87.000,147.414 86.072,147.246 87.168 C 147.158 87.745,151.640 98.043,151.979 98.043 C 152.319 98.043,156.801 87.745,156.712 87.168 C 156.544 86.072,155.965 87.000,154.252 91.112 L 152.501 95.316 152.414 61.536 C 152.332 29.520,152.311 27.753,152.022 27.697 C 151.854 27.665,151.678 27.742,151.630 27.869 M360.416 27.869 C 360.368 27.996,360.310 43.223,360.286 61.708 L 360.244 95.316 358.492 91.112 C 356.780 87.000,356.201 86.072,356.033 87.168 C 355.944 87.745,360.426 98.043,360.766 98.043 C 361.105 98.043,365.587 87.745,365.499 87.168 C 365.330 86.072,364.751 87.000,363.039 91.112 L 361.288 95.316 361.201 61.536 C 361.118 29.520,361.098 27.753,360.809 27.697 C 360.641 27.665,360.464 27.742,360.416 27.869 M106.373 38.878 C 106.210 39.302,106.321 39.362,110.631 41.152 L 114.810 42.888 94.073 42.975 C 73.481 43.062,73.336 43.065,73.336 43.410 C 73.336 43.756,73.481 43.759,94.070 43.845 L 114.803 43.932 110.599 45.683 C 106.487 47.396,105.559 47.975,106.655 48.143 C 107.232 48.232,117.529 43.750,117.529 43.410 C 117.529 43.150,116.486 42.649,112.223 40.864 C 106.605 38.511,106.525 38.484,106.373 38.878 M171.553 62.897 L 171.553 84.211 165.028 84.211 L 158.504 84.211 158.504 62.897 L 158.504 41.583 165.028 41.583 L 171.553 41.583 171.553 62.897 M380.339 62.897 L 380.339 84.211 373.815 84.211 L 367.290 84.211 367.290 62.897 L 367.290 41.583 373.815 41.583 L 380.339 41.583 380.339 62.897 M28.186 46.118 C 31.394 46.633,37.408 49.569,37.408 50.619 C 37.408 50.896,13.562 74.525,13.432 74.376 C 8.418 68.594,7.492 61.222,10.981 54.847 C 14.333 48.719,21.561 45.052,28.186 46.118 M236.973 46.118 C 240.181 46.633,246.194 49.569,246.194 50.619 C 246.194 50.896,222.348 74.525,222.219 74.376 C 217.204 68.594,216.278 61.222,219.767 54.847 C 223.120 48.719,230.348 45.052,236.973 46.118 M89.430 52.188 C 89.430 57.644,90.248 58.892,93.622 58.586 C 96.220 58.351,96.630 57.577,96.708 52.762 L 96.768 49.065 96.157 49.065 L 95.546 49.065 95.485 52.501 C 95.406 56.999,95.091 57.568,92.788 57.377 C 90.941 57.224,90.658 56.522,90.652 52.066 L 90.648 49.065 90.039 49.065 L 89.430 49.065 89.430 52.188 M39.083 52.414 C 47.180 62.560,41.176 77.582,28.186 79.676 C 23.451 80.439,18.463 78.861,14.359 75.302 C 14.210 75.173,37.838 51.327,38.115 51.327 C 38.170 51.327,38.606 51.816,39.083 52.414 M247.869 52.414 C 255.966 62.560,249.962 77.582,236.973 79.676 C 232.237 80.439,227.249 78.861,223.145 75.302 C 222.996 75.173,246.625 51.327,246.902 51.327 C 246.957 51.327,247.392 51.816,247.869 52.414 M100.411 55.288 C 99.991 56.410,99.461 57.824,99.234 58.429 L 98.820 59.528 99.287 59.472 C 99.677 59.426,99.803 59.273,100.044 58.547 L 100.333 57.677 101.637 57.627 L 102.940 57.577 103.268 58.540 C 103.561 59.403,103.647 59.504,104.084 59.504 C 104.566 59.504,104.569 59.498,104.339 58.939 C 104.211 58.628,103.648 57.218,103.087 55.807 C 101.718 52.358,101.521 52.319,100.411 55.288 M102.143 55.452 C 102.376 56.094,102.592 56.681,102.624 56.757 C 102.656 56.832,102.212 56.894,101.636 56.894 L 100.590 56.894 101.013 55.854 C 101.245 55.282,101.435 54.694,101.435 54.549 C 101.435 53.958,101.743 54.351,102.143 55.452 M48.195 60.887 C 48.195 66.344,49.013 67.592,52.386 67.286 C 54.985 67.050,55.395 66.276,55.473 61.462 L 55.532 57.764 54.921 57.764 L 54.311 57.764 54.250 61.201 C 54.171 65.699,53.856 66.268,51.552 66.077 C 49.706 65.923,49.423 65.221,49.417 60.766 L 49.413 57.764 48.804 57.764 L 48.195 57.764 48.195 60.887 M132.927 60.887 C 132.927 66.344,133.745 67.592,137.119 67.286 C 139.717 67.050,140.127 66.276,140.205 61.462 L 140.265 57.764 139.654 57.764 L 139.043 57.764 138.982 61.201 C 138.903 65.699,138.588 66.268,136.285 66.077 C 134.438 65.923,134.156 65.221,134.149 60.766 L 134.145 57.764 133.536 57.764 L 132.927 57.764 132.927 60.887 M179.382 58.286 L 179.382 58.808 181.926 58.808 C 184.402 58.808,184.464 58.817,184.232 59.142 C 184.100 59.326,182.838 60.939,181.427 62.726 C 179.262 65.468,178.860 66.069,178.860 66.568 L 178.860 67.160 182.514 67.160 L 186.168 67.160 186.168 66.642 L 186.168 66.124 183.227 66.076 L 180.287 66.029 183.140 62.462 C 185.511 59.499,185.993 58.800,185.994 58.330 L 185.994 57.764 182.688 57.764 L 179.382 57.764 179.382 58.286 M256.981 60.887 C 256.981 66.344,257.799 67.592,261.173 67.286 C 263.771 67.050,264.181 66.276,264.259 61.462 L 264.319 57.764 263.708 57.764 L 263.097 57.764 263.036 61.201 C 262.957 65.699,262.642 66.268,260.339 66.077 C 258.492 65.923,258.210 65.221,258.203 60.766 L 258.199 57.764 257.590 57.764 L 256.981 57.764 256.981 60.887 M341.714 60.887 C 341.714 66.344,342.532 67.592,345.905 67.286 C 348.504 67.050,348.914 66.276,348.991 61.462 L 349.051 57.764 348.440 57.764 L 347.830 57.764 347.769 61.201 C 347.689 65.699,347.375 66.268,345.071 66.077 C 343.224 65.923,342.942 65.221,342.936 60.766 L 342.932 57.764 342.323 57.764 L 341.714 57.764 341.714 60.887 M388.169 58.286 L 388.169 58.808 390.713 58.808 C 393.188 58.808,393.250 58.817,393.018 59.142 C 392.887 59.326,391.625 60.939,390.213 62.726 C 388.048 65.468,387.647 66.069,387.647 66.568 L 387.647 67.160 391.301 67.160 L 394.954 67.160 394.954 66.642 L 394.954 66.124 392.014 66.076 L 389.073 66.029 391.927 62.462 C 394.297 59.499,394.780 58.800,394.780 58.330 L 394.780 57.764 391.475 57.764 L 388.169 57.764 388.169 58.286 M59.896 62.788 C 58.789 63.796,58.610 64.456,59.601 63.871 C 59.941 63.670,60.255 63.506,60.297 63.506 C 60.339 63.506,60.374 64.563,60.374 65.855 L 60.374 68.204 60.809 68.204 L 61.244 68.204 61.244 65.072 C 61.244 61.488,61.272 61.534,59.896 62.788 M143.367 62.288 C 143.367 62.613,143.483 62.636,145.108 62.636 L 146.848 62.636 144.934 65.055 C 142.378 68.283,142.363 68.204,145.542 68.204 C 147.935 68.204,148.064 68.186,148.064 67.861 C 148.064 67.543,147.921 67.515,146.062 67.470 L 144.060 67.421 145.971 65.072 C 148.533 61.921,148.535 61.940,145.629 61.940 C 143.483 61.940,143.367 61.958,143.367 62.288 M268.682 62.788 C 267.576 63.796,267.396 64.456,268.388 63.871 C 268.728 63.670,269.041 63.506,269.083 63.506 C 269.126 63.506,269.161 64.563,269.161 65.855 L 269.161 68.204 269.595 68.204 L 270.030 68.204 270.030 65.072 C 270.030 61.488,270.058 61.534,268.682 62.788 M352.153 62.288 C 352.153 62.613,352.269 62.636,353.894 62.636 L 355.635 62.636 353.720 65.055 C 351.165 68.283,351.149 68.204,354.328 68.204 C 356.721 68.204,356.851 68.186,356.851 67.861 C 356.851 67.543,356.707 67.515,354.849 67.470 L 352.846 67.421 354.757 65.072 C 357.320 61.921,357.322 61.940,354.415 61.940 C 352.269 61.940,352.153 61.958,352.153 62.288 M306.568 89.615 C 322.646 92.207,326.505 113.366,312.333 121.219 C 299.091 128.557,283.603 115.815,288.124 101.302 C 290.537 93.555,298.746 88.354,306.568 89.615 M302.912 99.913 C 302.819 100.128,301.716 102.927,300.462 106.133 C 299.208 109.339,298.140 112.064,298.090 112.189 C 298.019 112.363,298.216 112.404,298.928 112.363 L 299.858 112.310 300.562 110.396 L 301.267 108.482 303.942 108.482 L 306.617 108.482 307.354 110.396 L 308.091 112.310 309.087 112.362 C 309.639 112.392,310.056 112.344,310.022 112.256 C 309.988 112.169,308.786 109.270,307.351 105.813 L 304.741 99.529 303.911 99.525 C 303.214 99.522,303.054 99.584,302.912 99.913 M305.871 106.699 C 305.872 106.770,304.972 106.829,303.873 106.829 L 301.873 106.829 302.332 105.655 C 302.585 105.009,303.034 103.770,303.330 102.902 L 303.868 101.325 304.869 103.946 C 305.420 105.388,305.871 106.627,305.871 106.699 M53.650 101.963 C 54.909 102.434,56.072 103.666,56.446 104.925 C 57.854 109.667,52.290 113.199,48.701 109.842 C 44.914 106.300,48.782 100.142,53.650 101.963 M262.437 101.963 C 263.696 102.434,264.859 103.666,265.233 104.925 C 266.641 109.667,261.077 113.199,257.487 109.842 C 253.700 106.300,257.569 100.142,262.437 101.963 M257.037 125.924 C 257.943 127.151,258.716 127.178,259.652 126.016 L 260.322 125.185 259.743 125.127 C 259.278 125.081,259.083 125.168,258.762 125.562 L 258.361 126.055 258.005 125.576 C 257.734 125.213,257.501 125.098,257.037 125.098 L 256.426 125.098 257.037 125.924 M265.192 125.408 C 266.208 126.792,266.262 126.838,266.888 126.829 C 267.413 126.822,267.608 126.696,268.163 126.003 L 268.818 125.185 268.253 125.127 C 267.805 125.082,267.606 125.171,267.287 125.562 C 266.896 126.043,266.377 125.858,266.377 125.239 C 266.377 125.161,266.059 125.098,265.671 125.098 C 265.025 125.098,264.984 125.124,265.192 125.408 M293.380 125.885 C 292.718 127.247,293.450 127.297,294.563 125.968 L 295.291 125.098 294.527 125.098 C 293.792 125.098,293.747 125.129,293.380 125.885 M332.179 125.885 C 331.708 126.855,331.708 126.838,332.199 126.838 C 332.568 126.838,332.888 126.566,333.786 125.489 L 334.112 125.098 333.337 125.098 C 332.590 125.098,332.548 125.126,332.179 125.885 M256.894 127.437 C 255.258 128.041,254.637 130.038,255.715 131.230 C 256.170 131.733,257.080 132.143,258.507 132.487 C 260.831 133.048,261.637 134.140,260.537 135.240 C 259.322 136.455,256.964 135.973,256.203 134.354 C 255.733 133.354,254.665 133.220,254.884 134.189 C 255.571 137.222,260.327 138.041,261.821 135.384 C 262.903 133.457,261.936 132.098,258.907 131.287 C 257.150 130.817,256.543 130.507,256.381 129.997 C 255.772 128.078,259.841 127.532,260.627 129.427 C 260.920 130.135,261.853 130.237,261.853 129.560 C 261.853 127.883,258.997 126.660,256.894 127.437 M274.338 127.424 C 269.591 129.186,270.758 136.850,275.772 136.839 C 278.614 136.833,280.196 135.123,280.196 132.057 C 280.196 128.580,277.331 126.314,274.338 127.424 M59.678 132.057 L 59.678 136.755 60.284 136.755 L 60.890 136.755 60.936 132.797 L 60.983 128.839 62.276 132.797 L 63.569 136.755 64.135 136.755 C 64.571 136.755,64.727 136.666,64.816 136.364 C 64.880 136.148,65.453 134.367,66.089 132.405 L 67.247 128.839 67.293 132.797 L 67.340 136.755 67.946 136.755 L 68.552 136.755 68.552 132.057 L 68.552 127.360 67.633 127.360 L 66.714 127.360 65.523 131.144 C 64.867 133.225,64.282 134.981,64.223 135.046 C 64.163 135.111,63.567 133.408,62.897 131.262 L 61.679 127.360 60.679 127.360 L 59.678 127.360 59.678 132.057 M70.291 130.483 C 70.291 135.939,71.109 137.187,74.483 136.881 C 77.081 136.646,77.491 135.872,77.569 131.057 L 77.629 127.360 77.018 127.360 L 76.407 127.360 76.347 130.796 C 76.267 135.294,75.952 135.863,73.649 135.672 C 71.802 135.519,71.520 134.816,71.514 130.361 L 71.509 127.360 70.900 127.360 L 70.291 127.360 70.291 130.483 M79.513 132.057 L 79.513 136.755 82.384 136.755 L 85.254 136.755 85.254 136.233 L 85.254 135.711 82.993 135.711 L 80.731 135.711 80.731 131.535 L 80.731 127.360 80.122 127.360 L 79.513 127.360 79.513 132.057 M84.732 127.882 L 84.732 128.404 86.298 128.404 L 87.864 128.404 87.864 132.579 L 87.864 136.755 88.473 136.755 L 89.082 136.755 89.082 132.579 L 89.082 128.404 90.648 128.404 L 92.214 128.404 92.214 127.882 L 92.214 127.360 88.473 127.360 L 84.732 127.360 84.732 127.882 M93.606 132.057 L 93.606 136.755 94.215 136.755 L 94.824 136.755 94.824 132.057 L 94.824 127.360 94.215 127.360 L 93.606 127.360 93.606 132.057 M96.738 132.057 L 96.738 136.755 97.343 136.755 L 97.949 136.755 97.996 132.797 L 98.043 128.839 99.336 132.797 L 100.629 136.755 101.194 136.755 C 101.631 136.755,101.786 136.666,101.876 136.364 C 101.940 136.148,102.513 134.367,103.149 132.405 L 104.306 128.839 104.353 132.797 L 104.400 136.755 105.005 136.755 L 105.611 136.755 105.611 132.057 L 105.611 127.360 104.692 127.360 L 103.774 127.360 102.582 131.144 C 101.927 133.225,101.342 134.981,101.283 135.046 C 101.223 135.111,100.626 133.408,99.957 131.262 L 98.739 127.360 97.738 127.360 L 96.738 127.360 96.738 132.057 M107.351 132.057 L 107.351 136.755 110.831 136.755 L 114.311 136.755 114.311 136.233 L 114.311 135.711 111.440 135.711 L 108.569 135.711 108.569 134.058 L 108.569 132.405 111.179 132.405 L 113.789 132.405 113.789 131.883 L 113.789 131.361 111.179 131.361 L 108.569 131.361 108.569 129.883 L 108.569 128.404 111.353 128.404 L 114.137 128.404 114.137 127.882 L 114.137 127.360 110.744 127.360 L 107.351 127.360 107.351 132.057 M115.181 127.882 L 115.181 128.404 116.746 128.404 L 118.312 128.404 118.312 132.579 L 118.312 136.755 118.921 136.755 L 119.530 136.755 119.530 132.579 L 119.530 128.404 121.096 128.404 L 122.662 128.404 122.662 127.882 L 122.662 127.360 118.921 127.360 L 115.181 127.360 115.181 127.882 M123.880 132.043 L 123.880 136.755 124.489 136.755 L 125.098 136.755 125.098 134.648 L 125.098 132.541 126.387 132.606 C 127.966 132.686,128.081 132.778,129.483 135.059 L 130.525 136.755 131.302 136.755 C 131.875 136.755,132.044 136.698,131.950 136.538 C 131.008 134.943,129.566 132.910,129.259 132.746 C 128.884 132.545,128.904 132.520,129.751 132.118 C 130.874 131.584,131.258 131.012,131.260 129.865 C 131.265 127.855,130.560 127.463,126.803 127.389 L 123.880 127.330 123.880 132.043 M230.883 132.057 L 230.883 136.755 231.492 136.755 L 232.101 136.755 232.101 135.051 L 232.101 133.346 232.761 132.702 C 233.607 131.875,233.365 131.709,235.239 134.406 L 236.871 136.755 237.704 136.755 L 238.538 136.755 236.830 134.448 C 235.890 133.179,234.977 131.921,234.801 131.652 L 234.480 131.163 236.376 129.261 L 238.272 127.360 237.494 127.360 C 236.728 127.360,236.680 127.396,234.409 129.663 L 232.101 131.966 232.101 129.663 L 232.101 127.360 231.492 127.360 L 230.883 127.360 230.883 132.057 M239.582 132.057 L 239.582 136.755 242.453 136.755 L 245.324 136.755 245.324 136.233 L 245.324 135.711 243.062 135.711 L 240.800 135.711 240.800 131.535 L 240.800 127.360 240.191 127.360 L 239.582 127.360 239.582 132.057 M246.542 132.057 L 246.542 136.755 250.022 136.755 L 253.502 136.755 253.502 136.233 L 253.502 135.711 250.631 135.711 L 247.760 135.711 247.760 134.058 L 247.760 132.405 250.370 132.405 L 252.980 132.405 252.980 131.883 L 252.980 131.361 250.370 131.361 L 247.760 131.361 247.760 129.883 L 247.760 128.404 250.544 128.404 L 253.328 128.404 253.328 127.882 L 253.328 127.360 249.935 127.360 L 246.542 127.360 246.542 132.057 M263.071 127.882 L 263.071 128.404 264.637 128.404 L 266.203 128.404 266.203 132.579 L 266.203 136.755 266.812 136.755 L 267.421 136.755 267.421 132.579 L 267.421 128.404 268.987 128.404 L 270.552 128.404 270.552 127.882 L 270.552 127.360 266.812 127.360 L 263.071 127.360 263.071 127.882 M282.528 132.057 L 284.372 136.772 284.984 136.720 L 285.596 136.668 287.383 132.150 C 289.439 126.949,289.337 127.360,288.583 127.360 L 287.996 127.360 286.644 130.970 C 285.901 132.956,285.219 134.776,285.129 135.015 C 284.987 135.392,284.771 134.911,283.527 131.448 L 282.089 127.447 281.386 127.394 L 280.683 127.342 282.528 132.057 M289.517 127.464 C 289.517 127.522,290.300 128.767,291.257 130.231 L 292.997 132.892 292.997 134.824 L 292.997 136.755 293.606 136.755 L 294.215 136.755 294.215 134.703 L 294.215 132.651 295.955 130.108 C 297.964 127.170,297.891 127.360,297.014 127.360 L 296.333 127.360 294.971 129.550 C 293.842 131.366,293.579 131.690,293.433 131.444 C 291.379 127.966,290.899 127.360,290.201 127.360 C 289.825 127.360,289.517 127.407,289.517 127.464 M302.404 131.228 C 301.598 133.359,300.795 135.474,300.622 135.929 L 300.306 136.755 300.975 136.755 L 301.644 136.755 302.147 135.276 L 302.649 133.797 304.578 133.797 L 306.508 133.797 307.070 135.276 L 307.632 136.755 308.318 136.755 C 308.695 136.755,309.004 136.736,309.004 136.712 C 309.004 136.688,308.155 134.593,307.117 132.057 L 305.231 127.447 304.551 127.400 L 303.871 127.353 302.404 131.228 M309.874 132.057 L 309.874 136.755 310.480 136.755 L 311.085 136.755 311.132 132.797 L 311.179 128.839 312.472 132.797 L 313.765 136.755 314.331 136.755 C 314.767 136.755,314.923 136.666,315.012 136.364 C 315.076 136.148,315.649 134.367,316.285 132.405 L 317.442 128.839 317.489 132.797 L 317.536 136.755 318.142 136.755 L 318.747 136.755 318.747 132.057 L 318.747 127.360 317.829 127.360 L 316.910 127.360 315.718 131.144 C 315.063 133.225,314.478 134.981,314.419 135.046 C 314.359 135.111,313.763 133.408,313.093 131.262 L 311.875 127.360 310.874 127.360 L 309.874 127.360 309.874 132.057 M320.487 132.042 L 320.487 136.755 321.096 136.755 L 321.705 136.755 321.705 134.841 L 321.705 132.927 323.281 132.927 C 326.825 132.927,328.360 131.424,327.337 128.955 C 326.793 127.644,326.295 127.458,323.140 127.388 L 320.487 127.328 320.487 132.042 M329.187 132.057 L 329.187 136.755 332.666 136.755 L 336.146 136.755 336.146 136.233 L 336.146 135.711 333.275 135.711 L 330.405 135.711 330.405 134.058 L 330.405 132.405 333.014 132.405 L 335.624 132.405 335.624 131.883 L 335.624 131.361 333.014 131.361 L 330.405 131.361 330.405 129.883 L 330.405 128.404 333.188 128.404 L 335.972 128.404 335.972 127.882 L 335.972 127.360 332.579 127.360 L 329.187 127.360 329.187 132.057 M337.886 132.043 L 337.886 136.755 338.495 136.755 L 339.104 136.755 339.104 134.648 L 339.104 132.541 340.393 132.606 C 341.972 132.686,342.087 132.778,343.489 135.059 L 344.531 136.755 345.308 136.755 C 345.881 136.755,346.051 136.698,345.956 136.538 C 345.014 134.943,343.572 132.910,343.265 132.746 C 342.891 132.545,342.910 132.520,343.757 132.118 C 344.880 131.584,345.264 131.012,345.266 129.865 C 345.271 127.855,344.566 127.463,340.809 127.389 L 337.886 127.330 337.886 132.043 M347.281 132.057 L 347.281 136.755 347.887 136.755 L 348.493 136.755 348.540 132.797 L 348.586 128.839 349.879 132.797 L 351.173 136.755 351.738 136.755 C 352.174 136.755,352.330 136.666,352.420 136.364 C 352.483 136.148,353.056 134.367,353.693 132.405 L 354.850 128.839 354.897 132.797 L 354.943 136.755 355.549 136.755 L 356.155 136.755 356.155 132.057 L 356.155 127.360 355.236 127.360 L 354.317 127.360 353.126 131.144 C 352.471 133.225,351.886 134.981,351.826 135.046 C 351.767 135.111,351.170 133.408,350.500 131.262 L 349.282 127.360 348.282 127.360 L 347.281 127.360 347.281 132.057 M357.895 132.057 L 357.895 136.755 361.375 136.755 L 364.854 136.755 364.854 136.233 L 364.854 135.711 361.983 135.711 L 359.113 135.711 359.113 134.058 L 359.113 132.405 361.722 132.405 L 364.332 132.405 364.332 131.883 L 364.332 131.361 361.722 131.361 L 359.113 131.361 359.113 129.883 L 359.113 128.404 361.896 128.404 L 364.680 128.404 364.680 127.882 L 364.680 127.360 361.288 127.360 L 357.895 127.360 357.895 132.057 M365.724 127.882 L 365.724 128.404 367.290 128.404 L 368.856 128.404 368.856 132.579 L 368.856 136.755 369.465 136.755 L 370.074 136.755 370.074 132.579 L 370.074 128.404 371.640 128.404 L 373.206 128.404 373.206 127.882 L 373.206 127.360 369.465 127.360 L 365.724 127.360 365.724 127.882 M374.424 132.043 L 374.424 136.755 375.033 136.755 L 375.642 136.755 375.642 134.648 L 375.642 132.541 376.931 132.606 C 378.509 132.686,378.625 132.778,380.027 135.059 L 381.069 136.755 381.845 136.755 C 382.419 136.755,382.588 136.698,382.493 136.538 C 381.552 134.943,380.109 132.910,379.803 132.746 C 379.428 132.545,379.448 132.520,380.294 132.118 C 381.418 131.584,381.801 131.012,381.804 129.865 C 381.808 127.855,381.104 127.463,377.346 127.389 L 374.424 127.330 374.424 132.043 M277.605 128.832 C 279.691 130.422,279.262 134.818,276.935 135.700 C 274.188 136.740,271.915 133.901,272.835 130.579 C 273.430 128.429,275.894 127.527,277.605 128.832 M129.261 128.658 C 130.125 129.105,130.260 130.332,129.521 131.027 C 129.110 131.413,128.907 131.453,127.085 131.507 L 125.098 131.565 125.098 129.985 L 125.098 128.404 126.933 128.404 C 128.204 128.404,128.920 128.482,129.261 128.658 M325.424 128.569 C 326.377 128.932,326.604 130.543,325.814 131.334 C 325.382 131.766,325.232 131.800,323.528 131.856 L 321.705 131.915 321.705 130.159 L 321.705 128.404 323.347 128.404 C 324.250 128.404,325.184 128.478,325.424 128.569 M343.267 128.658 C 344.131 129.105,344.266 130.332,343.527 131.027 C 343.116 131.413,342.913 131.453,341.091 131.507 L 339.104 131.565 339.104 129.985 L 339.104 128.404 340.939 128.404 C 342.210 128.404,342.926 128.482,343.267 128.658 M379.805 128.658 C 380.669 129.105,380.803 130.332,380.065 131.027 C 379.654 131.413,379.451 131.453,377.629 131.507 L 375.642 131.565 375.642 129.985 L 375.642 128.404 377.477 128.404 C 378.748 128.404,379.464 128.482,379.805 128.658 M306.046 132.700 C 306.046 132.729,305.381 132.753,304.567 132.753 C 303.754 132.753,303.088 132.721,303.088 132.681 C 303.088 132.642,303.351 131.917,303.671 131.072 C 303.992 130.226,304.311 129.300,304.381 129.013 C 304.486 128.584,306.046 132.040,306.046 132.700 " stroke="none" fill="#000000" fill-rule="evenodd"></path></g></svg>
