<svg id="svg" xmlns="http://www.w3.org/2000/svg" xmlns:xlink="http://www.w3.org/1999/xlink" width="400" height="92.7" viewBox="0, 0, 400,92.7"><g id="svgg"><path id="path0" d="M144.468 1.043 C 143.364 1.584,143.081 2.107,143.005 3.750 L 142.950 4.950 142.250 5.000 L 141.550 5.050 141.550 5.800 L 141.550 6.550 142.250 6.600 L 142.950 6.650 143.000 10.950 L 143.050 15.250 143.784 15.280 C 144.894 15.324,144.807 15.696,144.800 10.960 C 144.797 8.700,144.795 6.795,144.797 6.729 C 144.799 6.645,145.085 6.599,145.725 6.579 L 146.650 6.550 146.650 5.800 L 146.650 5.050 145.725 5.021 C 145.090 5.001,144.797 4.955,144.790 4.871 C 144.632 2.918,144.908 2.480,146.350 2.400 L 147.250 2.350 147.341 1.710 C 147.464 0.848,147.392 0.799,146.006 0.803 C 145.103 0.806,144.880 0.840,144.468 1.043 M1.667 6.367 C 1.630 6.403,1.600 24.471,1.600 46.517 L 1.600 86.600 68.125 86.575 L 134.650 86.550 134.670 80.050 L 134.690 73.550 138.311 73.524 C 142.367 73.494,142.300 73.483,142.300 74.184 C 142.300 74.585,142.609 75.287,142.903 75.552 C 143.011 75.651,143.100 75.786,143.100 75.854 C 143.100 76.019,143.974 76.900,144.137 76.900 C 144.208 76.900,144.371 77.013,144.500 77.150 C 144.629 77.287,144.812 77.400,144.905 77.400 C 144.999 77.400,145.132 77.468,145.200 77.550 C 145.275 77.640,145.493 77.700,145.747 77.700 C 146.547 77.700,146.500 77.315,146.500 83.933 L 146.500 89.800 140.912 89.800 C 136.067 89.800,135.308 89.820,135.200 89.950 C 135.132 90.032,135.000 90.100,134.907 90.100 C 134.162 90.100,133.826 91.495,134.430 92.080 L 134.760 92.400 147.172 92.400 L 159.585 92.400 159.892 92.092 C 160.541 91.444,160.136 90.112,159.287 90.103 C 159.143 90.101,158.969 90.033,158.901 89.951 C 158.794 89.823,158.012 89.798,153.313 89.776 L 147.850 89.750 147.824 83.970 C 147.795 77.351,147.750 77.709,148.614 77.703 C 148.933 77.701,149.097 77.653,149.136 77.550 C 149.168 77.468,149.277 77.400,149.379 77.400 C 149.482 77.400,149.671 77.288,149.800 77.150 C 149.929 77.013,150.111 76.900,150.204 76.900 C 150.400 76.900,151.300 75.974,151.300 75.772 C 151.300 75.696,151.413 75.529,151.550 75.400 C 151.688 75.271,151.800 75.087,151.800 74.991 C 151.800 74.895,151.854 74.799,151.921 74.776 C 151.994 74.752,152.032 74.579,152.018 74.338 C 152.000 74.031,152.048 73.890,152.229 73.719 L 152.464 73.499 160.157 73.524 L 167.850 73.550 167.850 73.969 C 167.850 74.200,167.906 74.445,167.975 74.514 C 168.044 74.583,168.100 74.760,168.100 74.908 C 168.100 75.055,168.168 75.232,168.250 75.300 C 168.333 75.368,168.400 75.501,168.400 75.595 C 168.400 75.688,168.512 75.871,168.650 76.000 C 168.787 76.129,168.900 76.293,168.900 76.364 C 168.900 76.540,169.749 77.400,169.922 77.400 C 169.999 77.400,170.192 77.535,170.350 77.700 C 170.508 77.865,170.716 78.000,170.813 78.000 C 170.909 78.000,171.016 78.045,171.050 78.100 C 171.084 78.155,171.194 78.200,171.295 78.200 C 171.396 78.200,171.505 78.267,171.536 78.350 C 171.578 78.460,171.752 78.500,172.191 78.500 C 172.519 78.500,172.816 78.545,172.850 78.600 C 172.930 78.730,173.870 78.730,173.950 78.600 C 173.984 78.545,174.251 78.500,174.544 78.500 C 174.894 78.500,175.118 78.449,175.200 78.350 C 175.268 78.267,175.476 78.200,175.662 78.200 C 175.848 78.200,176.000 78.155,176.000 78.100 C 176.000 78.045,176.082 78.000,176.181 78.000 C 176.281 78.000,176.492 77.865,176.650 77.700 C 176.808 77.535,177.010 77.400,177.098 77.400 C 177.300 77.400,178.100 76.594,178.100 76.390 C 178.100 76.306,178.235 76.108,178.400 75.950 C 178.565 75.792,178.700 75.581,178.700 75.481 C 178.700 75.382,178.745 75.300,178.800 75.300 C 178.855 75.300,178.900 75.148,178.900 74.962 C 178.900 74.776,178.968 74.568,179.050 74.500 C 179.140 74.425,179.200 74.207,179.200 73.953 C 179.200 73.451,179.424 73.200,179.871 73.200 C 180.038 73.200,180.232 73.133,180.300 73.050 C 180.368 72.968,180.551 72.900,180.706 72.900 C 180.861 72.900,181.016 72.855,181.050 72.800 C 181.084 72.745,181.239 72.700,181.394 72.700 C 181.549 72.700,181.732 72.632,181.800 72.550 C 181.868 72.467,182.076 72.400,182.262 72.400 C 182.448 72.400,182.600 72.355,182.600 72.300 C 182.600 72.245,182.797 72.200,183.038 72.200 C 183.305 72.200,183.524 72.142,183.600 72.050 C 183.668 71.968,183.871 71.900,184.050 71.900 C 184.229 71.900,184.432 71.833,184.500 71.750 C 184.568 71.668,184.751 71.600,184.906 71.600 C 185.061 71.600,185.216 71.555,185.250 71.500 C 185.284 71.445,185.439 71.400,185.594 71.400 C 185.749 71.400,185.932 71.333,186.000 71.250 C 186.068 71.168,186.257 71.100,186.419 71.100 C 186.582 71.100,186.782 71.032,186.864 70.950 C 186.947 70.867,187.188 70.800,187.401 70.800 C 187.614 70.800,187.816 70.755,187.850 70.700 C 187.884 70.645,188.061 70.600,188.244 70.600 C 188.426 70.600,188.632 70.533,188.700 70.450 C 188.768 70.367,188.951 70.300,189.106 70.300 C 189.261 70.300,189.416 70.255,189.450 70.200 C 189.484 70.145,189.639 70.100,189.794 70.100 C 189.949 70.100,190.132 70.033,190.200 69.950 C 190.268 69.868,190.472 69.800,190.652 69.800 C 190.850 69.800,191.001 69.741,191.036 69.650 C 191.077 69.544,191.242 69.500,191.597 69.500 C 191.874 69.500,192.100 69.455,192.100 69.400 C 192.100 69.345,192.252 69.300,192.438 69.300 C 192.624 69.300,192.832 69.233,192.900 69.150 C 192.968 69.068,193.148 69.000,193.300 69.000 C 193.452 69.000,193.632 68.932,193.700 68.850 C 193.768 68.767,193.951 68.700,194.106 68.700 C 194.261 68.700,194.416 68.655,194.450 68.600 C 194.484 68.545,194.641 68.500,194.799 68.500 C 194.957 68.500,195.153 68.432,195.236 68.350 C 195.321 68.265,195.565 68.200,195.800 68.200 C 196.035 68.200,196.279 68.135,196.364 68.050 C 196.447 67.968,196.643 67.900,196.801 67.900 C 196.959 67.900,197.116 67.855,197.150 67.800 C 197.184 67.745,197.339 67.700,197.494 67.700 C 197.649 67.700,197.832 67.633,197.900 67.550 C 197.968 67.468,198.151 67.400,198.306 67.400 C 198.461 67.400,198.616 67.355,198.650 67.300 C 198.684 67.245,198.841 67.200,198.999 67.200 C 199.157 67.200,199.353 67.132,199.436 67.050 C 199.518 66.967,199.763 66.900,199.981 66.900 C 200.210 66.900,200.428 66.837,200.500 66.750 C 200.568 66.668,200.774 66.600,200.956 66.600 C 201.139 66.600,201.316 66.555,201.350 66.500 C 201.384 66.445,201.539 66.400,201.694 66.400 C 201.849 66.400,202.032 66.333,202.100 66.250 C 202.168 66.168,202.348 66.100,202.500 66.100 C 202.652 66.100,202.832 66.033,202.900 65.950 C 202.968 65.867,203.176 65.800,203.362 65.800 C 203.548 65.800,203.700 65.755,203.700 65.700 C 203.700 65.645,203.897 65.600,204.138 65.600 C 204.405 65.600,204.624 65.542,204.700 65.450 C 204.768 65.368,204.971 65.300,205.150 65.300 C 205.329 65.300,205.532 65.233,205.600 65.150 C 205.668 65.067,205.851 65.000,206.006 65.000 C 206.161 65.000,206.316 64.955,206.350 64.900 C 206.384 64.845,206.539 64.800,206.694 64.800 C 206.849 64.800,207.032 64.733,207.100 64.650 C 207.168 64.568,207.376 64.500,207.562 64.500 C 207.748 64.500,207.900 64.455,207.900 64.400 C 207.900 64.345,208.097 64.300,208.338 64.300 C 208.605 64.300,208.824 64.242,208.900 64.150 C 208.968 64.067,209.171 64.000,209.350 64.000 C 209.529 64.000,209.732 63.933,209.800 63.850 C 209.868 63.768,210.051 63.700,210.206 63.700 C 210.361 63.700,210.516 63.655,210.550 63.600 C 210.584 63.545,210.739 63.500,210.894 63.500 C 211.049 63.500,211.232 63.432,211.300 63.350 C 211.368 63.267,211.557 63.200,211.719 63.200 C 211.882 63.200,212.082 63.133,212.164 63.050 C 212.247 62.968,212.488 62.900,212.701 62.900 C 212.914 62.900,213.116 62.855,213.150 62.800 C 213.184 62.745,213.361 62.700,213.544 62.700 C 213.726 62.700,213.932 62.633,214.000 62.550 C 214.068 62.468,214.251 62.400,214.406 62.400 C 214.561 62.400,214.716 62.355,214.750 62.300 C 214.784 62.245,214.939 62.200,215.094 62.200 C 215.249 62.200,215.432 62.132,215.500 62.050 C 215.568 61.967,215.772 61.900,215.952 61.900 C 216.150 61.900,216.301 61.841,216.336 61.750 C 216.375 61.648,216.536 61.600,216.841 61.600 C 217.087 61.600,217.316 61.555,217.350 61.500 C 217.384 61.445,217.541 61.400,217.699 61.400 C 217.857 61.400,218.053 61.333,218.136 61.250 C 218.218 61.168,218.418 61.100,218.581 61.100 C 218.743 61.100,218.932 61.032,219.000 60.950 C 219.068 60.867,219.245 60.800,219.392 60.800 C 219.540 60.800,219.708 60.752,219.767 60.693 C 219.995 60.465,220.550 60.625,220.550 60.919 C 220.550 61.068,220.606 61.245,220.675 61.314 C 220.744 61.383,220.800 61.590,220.800 61.773 C 220.800 61.977,220.858 62.129,220.950 62.164 C 221.032 62.195,221.100 62.299,221.100 62.393 C 221.100 62.488,221.213 62.671,221.350 62.800 C 221.487 62.929,221.600 63.107,221.600 63.196 C 221.600 63.401,222.505 64.300,222.711 64.300 C 222.796 64.300,222.971 64.412,223.100 64.550 C 223.229 64.688,223.417 64.800,223.517 64.800 C 223.618 64.800,223.700 64.845,223.700 64.900 C 223.700 64.955,223.784 65.000,223.888 65.000 C 223.991 65.000,224.132 65.068,224.200 65.150 C 224.284 65.252,224.510 65.300,224.900 65.300 C 225.290 65.300,225.516 65.348,225.600 65.450 C 225.762 65.645,226.438 65.645,226.600 65.450 C 226.684 65.348,226.910 65.300,227.300 65.300 C 227.690 65.300,227.916 65.252,228.000 65.150 C 228.068 65.068,228.251 65.000,228.406 65.000 C 228.561 65.000,228.716 64.955,228.750 64.900 C 228.784 64.845,228.893 64.800,228.992 64.800 C 229.091 64.800,229.256 64.688,229.360 64.550 C 229.463 64.412,229.617 64.300,229.702 64.300 C 229.881 64.300,230.800 63.401,230.800 63.226 C 230.800 63.162,230.904 63.005,231.031 62.878 C 231.323 62.586,231.600 62.036,231.600 61.747 C 231.600 61.625,231.665 61.470,231.745 61.404 C 231.825 61.338,231.903 61.074,231.920 60.817 L 231.950 60.350 239.624 60.324 C 248.377 60.295,247.700 60.226,247.700 61.150 C 247.700 61.397,247.744 61.600,247.798 61.600 C 247.852 61.600,247.923 61.708,247.957 61.841 C 247.990 61.973,248.126 62.183,248.258 62.308 C 248.391 62.433,248.500 62.608,248.500 62.697 C 248.500 62.900,249.305 63.700,249.510 63.700 C 249.594 63.700,249.792 63.835,249.950 64.000 C 250.108 64.165,250.319 64.300,250.419 64.300 C 250.518 64.300,250.600 64.345,250.600 64.400 C 250.600 64.455,250.791 64.501,251.025 64.503 C 251.290 64.505,251.535 64.577,251.675 64.694 L 251.900 64.882 251.900 77.341 L 251.900 89.800 246.312 89.800 C 241.467 89.800,240.708 89.820,240.600 89.950 C 240.532 90.032,240.400 90.100,240.307 90.100 C 239.562 90.100,239.226 91.495,239.830 92.080 L 240.160 92.400 252.572 92.400 L 264.985 92.400 265.292 92.092 C 265.941 91.444,265.536 90.112,264.687 90.103 C 264.543 90.101,264.369 90.033,264.301 89.951 C 264.194 89.823,263.412 89.798,258.713 89.776 L 253.250 89.750 253.225 77.357 L 253.199 64.964 253.417 64.732 C 253.568 64.571,253.747 64.500,254.002 64.500 C 254.421 64.500,254.941 64.268,255.278 63.931 C 255.405 63.804,255.565 63.700,255.633 63.700 C 255.807 63.700,256.700 62.775,256.700 62.595 C 256.700 62.514,256.812 62.363,256.950 62.260 C 257.087 62.156,257.200 61.997,257.200 61.906 C 257.200 61.815,257.254 61.686,257.320 61.620 C 257.385 61.555,257.429 61.330,257.417 61.121 C 257.368 60.290,257.347 60.294,261.458 60.324 L 265.050 60.350 265.075 73.475 L 265.101 86.600 331.625 86.575 L 398.150 86.550 398.177 46.650 C 398.192 24.705,398.180 6.649,398.150 6.525 L 398.096 6.300 331.623 6.325 L 265.150 6.350 265.125 19.473 L 265.099 32.596 264.875 32.651 C 264.751 32.680,257.293 32.692,248.300 32.677 L 231.950 32.650 231.919 32.052 C 231.902 31.722,231.835 31.385,231.769 31.302 C 231.571 31.050,231.400 30.711,231.400 30.570 C 231.400 30.497,231.265 30.308,231.100 30.150 C 230.935 29.992,230.800 29.799,230.800 29.722 C 230.800 29.549,229.940 28.700,229.764 28.700 C 229.693 28.700,229.529 28.587,229.400 28.450 C 229.271 28.312,229.088 28.200,228.995 28.200 C 228.901 28.200,228.768 28.133,228.700 28.050 C 228.632 27.968,228.449 27.900,228.294 27.900 C 228.139 27.900,227.984 27.855,227.950 27.800 C 227.916 27.745,227.647 27.700,227.351 27.700 C 227.007 27.700,226.760 27.646,226.664 27.550 C 226.465 27.351,225.665 27.351,225.500 27.550 C 225.418 27.649,225.194 27.700,224.844 27.700 C 224.551 27.700,224.284 27.745,224.250 27.800 C 224.216 27.855,224.106 27.900,224.006 27.900 C 223.906 27.900,223.768 27.968,223.700 28.050 C 223.632 28.133,223.507 28.200,223.424 28.200 C 223.341 28.200,223.169 28.313,223.041 28.450 C 222.914 28.587,222.749 28.700,222.676 28.700 C 222.507 28.700,221.600 29.613,221.600 29.783 C 221.600 29.853,221.488 30.014,221.350 30.141 C 221.213 30.269,221.100 30.441,221.100 30.524 C 221.100 30.607,221.032 30.732,220.950 30.800 C 220.867 30.868,220.800 31.003,220.800 31.100 C 220.800 31.197,220.731 31.332,220.648 31.402 C 220.557 31.477,220.520 31.606,220.557 31.721 C 220.727 32.257,219.962 32.767,219.764 32.250 C 219.728 32.157,219.575 32.100,219.359 32.100 C 219.168 32.100,218.984 32.055,218.950 32.000 C 218.916 31.945,218.761 31.900,218.606 31.900 C 218.451 31.900,218.268 31.832,218.200 31.750 C 218.132 31.668,217.952 31.600,217.800 31.600 C 217.648 31.600,217.468 31.532,217.400 31.450 C 217.325 31.359,217.106 31.300,216.844 31.300 C 216.606 31.300,216.384 31.255,216.350 31.200 C 216.316 31.145,216.138 31.100,215.955 31.100 C 215.751 31.100,215.599 31.042,215.564 30.950 C 215.528 30.857,215.376 30.800,215.165 30.800 C 214.978 30.800,214.768 30.733,214.700 30.650 C 214.632 30.568,214.449 30.500,214.294 30.500 C 214.139 30.500,213.984 30.455,213.950 30.400 C 213.916 30.345,213.761 30.300,213.606 30.300 C 213.451 30.300,213.268 30.233,213.200 30.150 C 212.884 29.769,212.100 30.173,212.100 30.716 C 212.100 30.992,212.375 31.300,212.621 31.300 C 212.706 31.300,212.832 31.368,212.900 31.450 C 212.968 31.533,213.148 31.600,213.300 31.600 C 213.452 31.600,213.632 31.668,213.700 31.750 C 213.768 31.833,213.976 31.900,214.162 31.900 C 214.348 31.900,214.500 31.945,214.500 32.000 C 214.500 32.055,214.652 32.100,214.838 32.100 C 215.024 32.100,215.232 32.168,215.300 32.250 C 215.368 32.333,215.548 32.400,215.700 32.400 C 215.852 32.400,216.032 32.468,216.100 32.550 C 216.175 32.641,216.394 32.700,216.656 32.700 C 216.894 32.700,217.116 32.745,217.150 32.800 C 217.184 32.855,217.339 32.900,217.494 32.900 C 217.649 32.900,217.832 32.968,217.900 33.050 C 217.968 33.133,218.180 33.200,218.371 33.200 C 218.842 33.200,218.753 33.440,218.267 33.481 C 218.065 33.498,217.900 33.554,217.900 33.606 C 217.900 33.658,217.748 33.700,217.562 33.700 C 217.376 33.700,217.168 33.768,217.100 33.850 C 217.025 33.941,216.806 34.000,216.544 34.000 C 216.306 34.000,216.084 34.045,216.050 34.100 C 216.016 34.155,215.861 34.200,215.706 34.200 C 215.551 34.200,215.368 34.268,215.300 34.350 C 215.232 34.433,215.052 34.500,214.900 34.500 C 214.748 34.500,214.568 34.568,214.500 34.650 C 214.432 34.733,214.224 34.800,214.038 34.800 C 213.852 34.800,213.700 34.845,213.700 34.900 C 213.700 34.955,213.548 35.000,213.362 35.000 C 213.176 35.000,212.968 35.067,212.900 35.150 C 212.825 35.240,212.606 35.300,212.350 35.300 C 212.094 35.300,211.875 35.360,211.800 35.450 C 211.732 35.533,211.549 35.600,211.394 35.600 C 211.239 35.600,211.084 35.645,211.050 35.700 C 211.016 35.755,210.861 35.800,210.706 35.800 C 210.551 35.800,210.368 35.867,210.300 35.950 C 210.232 36.032,210.024 36.100,209.838 36.100 C 209.652 36.100,209.500 36.145,209.500 36.200 C 209.500 36.255,209.348 36.300,209.162 36.300 C 208.976 36.300,208.768 36.368,208.700 36.450 C 208.625 36.540,208.406 36.600,208.150 36.600 C 207.894 36.600,207.675 36.660,207.600 36.750 C 207.532 36.832,207.349 36.900,207.194 36.900 C 207.039 36.900,206.884 36.945,206.850 37.000 C 206.816 37.055,206.661 37.100,206.506 37.100 C 206.351 37.100,206.168 37.168,206.100 37.250 C 206.032 37.332,205.843 37.400,205.681 37.400 C 205.518 37.400,205.318 37.467,205.236 37.550 C 205.153 37.633,204.957 37.700,204.799 37.700 C 204.641 37.700,204.484 37.745,204.450 37.800 C 204.416 37.855,204.194 37.900,203.956 37.900 C 203.694 37.900,203.475 37.959,203.400 38.050 C 203.332 38.133,203.149 38.200,202.994 38.200 C 202.839 38.200,202.684 38.245,202.650 38.300 C 202.616 38.355,202.461 38.400,202.306 38.400 C 202.151 38.400,201.968 38.468,201.900 38.550 C 201.832 38.632,201.622 38.700,201.435 38.700 C 201.224 38.700,201.072 38.757,201.036 38.850 C 201.001 38.942,200.849 39.000,200.645 39.000 C 200.462 39.000,200.284 39.045,200.250 39.100 C 200.216 39.155,199.994 39.200,199.756 39.200 C 199.494 39.200,199.275 39.259,199.200 39.350 C 199.132 39.433,198.952 39.500,198.800 39.500 C 198.648 39.500,198.468 39.568,198.400 39.650 C 198.332 39.733,198.149 39.800,197.994 39.800 C 197.839 39.800,197.684 39.845,197.650 39.900 C 197.616 39.955,197.459 40.000,197.301 40.000 C 197.143 40.000,196.947 40.067,196.864 40.150 C 196.782 40.232,196.582 40.300,196.419 40.300 C 196.257 40.300,196.068 40.368,196.000 40.450 C 195.925 40.541,195.706 40.600,195.444 40.600 C 195.206 40.600,194.984 40.645,194.950 40.700 C 194.916 40.755,194.761 40.800,194.606 40.800 C 194.451 40.800,194.268 40.867,194.200 40.950 C 194.132 41.032,193.949 41.100,193.794 41.100 C 193.639 41.100,193.484 41.145,193.450 41.200 C 193.416 41.255,193.259 41.300,193.101 41.300 C 192.943 41.300,192.747 41.367,192.664 41.450 C 192.582 41.532,192.382 41.600,192.219 41.600 C 192.057 41.600,191.868 41.667,191.800 41.750 C 191.725 41.841,191.506 41.900,191.244 41.900 C 191.006 41.900,190.784 41.945,190.750 42.000 C 190.716 42.055,190.561 42.100,190.406 42.100 C 190.251 42.100,190.068 42.167,190.000 42.250 C 189.932 42.332,189.752 42.400,189.600 42.400 C 189.448 42.400,189.268 42.468,189.200 42.550 C 189.132 42.633,188.924 42.700,188.738 42.700 C 188.552 42.700,188.400 42.745,188.400 42.800 C 188.400 42.855,188.248 42.900,188.062 42.900 C 187.876 42.900,187.668 42.968,187.600 43.050 C 187.525 43.140,187.306 43.200,187.050 43.200 C 186.794 43.200,186.575 43.260,186.500 43.350 C 186.432 43.433,186.249 43.500,186.094 43.500 C 185.939 43.500,185.784 43.545,185.750 43.600 C 185.716 43.655,185.561 43.700,185.406 43.700 C 185.251 43.700,185.068 43.768,185.000 43.850 C 184.932 43.933,184.724 44.000,184.538 44.000 C 184.352 44.000,184.200 44.045,184.200 44.100 C 184.200 44.155,184.048 44.200,183.862 44.200 C 183.676 44.200,183.468 44.267,183.400 44.350 C 183.325 44.440,183.106 44.500,182.850 44.500 C 182.594 44.500,182.375 44.560,182.300 44.650 C 182.232 44.733,182.049 44.800,181.894 44.800 C 181.739 44.800,181.584 44.845,181.550 44.900 C 181.516 44.955,181.361 45.000,181.206 45.000 C 181.051 45.000,180.868 45.067,180.800 45.150 C 180.732 45.232,180.543 45.300,180.381 45.300 C 180.218 45.300,180.016 45.370,179.930 45.455 C 179.602 45.784,179.253 45.601,179.220 45.083 C 179.203 44.826,179.125 44.562,179.045 44.496 C 178.965 44.430,178.900 44.291,178.900 44.188 C 178.900 44.084,178.855 44.000,178.800 44.000 C 178.745 44.000,178.700 43.918,178.700 43.819 C 178.700 43.719,178.565 43.508,178.400 43.350 C 178.235 43.192,178.100 42.994,178.100 42.910 C 178.100 42.706,177.300 41.900,177.098 41.900 C 177.010 41.900,176.808 41.765,176.650 41.600 C 176.492 41.435,176.281 41.300,176.181 41.300 C 176.082 41.300,176.000 41.255,176.000 41.200 C 176.000 41.145,175.848 41.100,175.662 41.100 C 175.476 41.100,175.268 41.032,175.200 40.950 C 175.118 40.851,174.894 40.800,174.544 40.800 C 174.251 40.800,173.984 40.755,173.950 40.700 C 173.916 40.645,173.669 40.600,173.400 40.600 C 173.131 40.600,172.884 40.645,172.850 40.700 C 172.816 40.755,172.519 40.800,172.191 40.800 C 171.752 40.800,171.578 40.840,171.536 40.950 C 171.505 41.032,171.396 41.100,171.295 41.100 C 171.194 41.100,171.084 41.145,171.050 41.200 C 171.016 41.255,170.909 41.300,170.813 41.300 C 170.716 41.300,170.508 41.435,170.350 41.600 C 170.192 41.765,169.999 41.900,169.922 41.900 C 169.749 41.900,168.900 42.760,168.900 42.936 C 168.900 43.007,168.788 43.171,168.650 43.300 C 168.513 43.429,168.400 43.612,168.400 43.705 C 168.400 43.799,168.332 43.932,168.250 44.000 C 168.167 44.068,168.100 44.205,168.100 44.304 C 168.100 44.403,168.044 44.502,167.975 44.525 C 167.894 44.552,167.850 44.774,167.850 45.158 L 167.850 45.750 151.273 45.750 L 134.697 45.750 134.698 33.375 C 134.698 26.569,134.699 20.955,134.699 20.900 C 134.701 20.680,167.777 20.771,167.847 20.991 C 167.881 21.097,167.881 21.291,167.848 21.424 C 167.808 21.581,167.842 21.710,167.944 21.795 C 168.030 21.866,168.100 22.078,168.100 22.265 C 168.100 22.476,168.157 22.628,168.250 22.664 C 168.332 22.695,168.400 22.799,168.400 22.893 C 168.400 22.988,168.513 23.171,168.650 23.300 C 168.788 23.429,168.900 23.607,168.900 23.696 C 168.900 23.901,169.805 24.800,170.011 24.800 C 170.096 24.800,170.271 24.912,170.400 25.050 C 170.529 25.187,170.717 25.300,170.817 25.300 C 170.918 25.300,171.000 25.345,171.000 25.400 C 171.000 25.455,171.084 25.500,171.188 25.500 C 171.291 25.500,171.432 25.568,171.500 25.650 C 171.584 25.752,171.810 25.800,172.200 25.800 C 172.590 25.800,172.816 25.848,172.900 25.950 C 172.970 26.035,173.188 26.100,173.400 26.100 C 173.612 26.100,173.830 26.035,173.900 25.950 C 173.984 25.848,174.210 25.800,174.600 25.800 C 174.990 25.800,175.216 25.752,175.300 25.650 C 175.368 25.567,175.551 25.500,175.706 25.500 C 175.861 25.500,176.016 25.455,176.050 25.400 C 176.084 25.345,176.179 25.300,176.261 25.300 C 176.343 25.300,176.514 25.188,176.641 25.050 C 176.769 24.913,176.937 24.800,177.015 24.800 C 177.200 24.800,178.100 23.887,178.100 23.700 C 178.100 23.621,178.205 23.465,178.332 23.353 C 178.632 23.091,178.900 22.544,178.900 22.195 C 178.900 22.044,178.967 21.896,179.050 21.864 C 179.144 21.828,179.200 21.675,179.200 21.453 C 179.200 21.095,179.767 20.903,179.950 21.200 C 179.984 21.255,180.141 21.300,180.299 21.300 C 180.457 21.300,180.653 21.368,180.736 21.450 C 180.818 21.532,181.018 21.600,181.181 21.600 C 181.343 21.600,181.532 21.668,181.600 21.750 C 181.668 21.833,181.851 21.900,182.006 21.900 C 182.161 21.900,182.316 21.945,182.350 22.000 C 182.384 22.055,182.606 22.100,182.844 22.100 C 183.106 22.100,183.325 22.159,183.400 22.250 C 183.468 22.332,183.651 22.400,183.806 22.400 C 183.961 22.400,184.116 22.445,184.150 22.500 C 184.184 22.555,184.341 22.600,184.499 22.600 C 184.657 22.600,184.853 22.667,184.936 22.750 C 185.018 22.832,185.218 22.900,185.381 22.900 C 185.543 22.900,185.732 22.968,185.800 23.050 C 186.014 23.307,186.422 23.222,186.800 22.841 C 187.115 22.523,187.132 22.478,186.975 22.389 C 186.879 22.335,186.800 22.202,186.800 22.095 C 186.800 21.947,186.731 21.900,186.512 21.900 C 186.354 21.900,186.168 21.833,186.100 21.750 C 186.032 21.668,185.829 21.600,185.650 21.600 C 185.471 21.600,185.268 21.532,185.200 21.450 C 185.132 21.367,184.949 21.300,184.794 21.300 C 184.639 21.300,184.484 21.255,184.450 21.200 C 184.416 21.145,184.261 21.100,184.106 21.100 C 183.951 21.100,183.768 21.033,183.700 20.950 C 183.625 20.860,183.406 20.800,183.150 20.800 C 182.894 20.800,182.675 20.740,182.600 20.650 C 182.532 20.567,182.324 20.500,182.138 20.500 C 181.952 20.500,181.800 20.455,181.800 20.400 C 181.800 20.345,181.648 20.300,181.462 20.300 C 181.276 20.300,181.068 20.232,181.000 20.150 C 180.932 20.067,180.749 20.000,180.594 20.000 C 180.439 20.000,180.284 19.955,180.250 19.900 C 180.216 19.845,180.064 19.800,179.912 19.800 C 179.471 19.800,179.200 19.431,179.200 18.831 C 179.200 18.503,179.147 18.281,179.050 18.200 C 178.968 18.132,178.900 18.020,178.900 17.953 C 178.900 17.760,178.583 17.174,178.330 16.901 C 178.204 16.764,178.100 16.605,178.100 16.547 C 178.100 16.396,177.168 15.500,177.011 15.500 C 176.938 15.500,176.790 15.388,176.682 15.250 C 176.574 15.113,176.404 15.000,176.305 15.000 C 176.206 15.000,176.068 14.933,176.000 14.850 C 175.932 14.768,175.749 14.700,175.594 14.700 C 175.439 14.700,175.284 14.655,175.250 14.600 C 175.216 14.545,174.926 14.500,174.606 14.500 C 174.211 14.500,173.985 14.452,173.900 14.350 C 173.738 14.155,173.062 14.155,172.900 14.350 C 172.819 14.447,172.597 14.500,172.271 14.500 C 171.780 14.500,171.000 14.757,171.000 14.919 C 171.000 14.964,170.918 15.000,170.817 15.000 C 170.717 15.000,170.529 15.113,170.400 15.250 C 170.271 15.388,170.093 15.500,170.004 15.500 C 169.799 15.500,168.900 16.405,168.900 16.611 C 168.900 16.696,168.787 16.871,168.650 17.000 C 168.513 17.129,168.400 17.312,168.400 17.407 C 168.400 17.501,168.333 17.605,168.250 17.636 C 168.168 17.668,168.100 17.780,168.100 17.885 C 168.100 17.990,168.032 18.132,167.948 18.202 C 167.840 18.291,167.814 18.425,167.859 18.663 C 167.894 18.848,167.894 19.111,167.859 19.249 L 167.796 19.500 151.248 19.500 C 138.078 19.500,134.699 19.474,134.697 19.375 C 134.696 19.306,134.697 16.411,134.700 12.940 C 134.703 9.470,134.677 6.556,134.642 6.465 C 134.576 6.294,1.838 6.195,1.667 6.367 M133.275 46.475 L 133.300 85.300 68.100 85.300 L 2.900 85.300 2.900 46.517 C 2.900 25.186,2.930 7.703,2.967 7.667 C 3.003 7.630,32.332 7.611,68.142 7.625 L 133.250 7.650 133.275 46.475 M396.775 46.475 L 396.800 85.300 331.600 85.300 L 266.400 85.300 266.400 46.517 C 266.400 25.186,266.430 7.703,266.467 7.667 C 266.503 7.630,295.832 7.611,331.642 7.625 L 396.750 7.650 396.775 46.475 M150.048 8.988 C 148.826 9.554,148.347 10.434,148.355 12.100 C 148.373 16.080,153.770 16.500,154.497 12.578 C 154.991 9.916,152.458 7.872,150.048 8.988 M156.141 8.938 C 154.677 9.618,154.808 11.525,156.350 11.970 C 156.570 12.034,157.020 12.159,157.350 12.248 C 158.546 12.570,158.754 12.650,158.975 12.868 C 159.889 13.772,157.908 14.970,156.615 14.296 C 156.117 14.037,155.936 13.833,155.766 13.343 C 155.566 12.766,154.828 12.728,154.884 13.297 C 155.032 14.792,156.940 15.721,158.594 15.102 C 160.672 14.325,160.417 12.055,158.200 11.597 C 156.691 11.285,156.031 11.007,155.940 10.645 C 155.626 9.394,158.327 8.995,158.951 10.201 C 159.169 10.623,159.869 10.622,159.822 10.200 C 159.687 9.003,157.566 8.276,156.141 8.938 M162.855 8.792 C 162.823 8.843,162.654 8.916,162.478 8.955 C 161.185 9.239,160.343 11.450,160.860 13.207 C 161.601 15.731,165.033 16.065,166.235 13.730 C 166.452 13.309,166.444 13.234,166.164 13.050 C 165.882 12.865,165.632 12.939,165.542 13.234 C 165.014 14.977,162.279 14.851,161.747 13.060 C 161.063 10.755,162.743 8.738,164.582 9.656 C 164.870 9.800,164.996 9.930,165.482 10.583 C 165.637 10.793,165.683 10.804,165.927 10.692 C 166.566 10.401,165.884 9.329,164.763 8.861 C 164.341 8.686,162.952 8.635,162.855 8.792 M152.379 9.691 C 154.544 10.805,153.792 14.500,151.400 14.500 C 149.763 14.500,148.739 12.688,149.354 10.882 C 149.744 9.739,151.290 9.130,152.379 9.691 M174.136 15.650 C 174.225 15.740,174.470 15.800,174.743 15.800 C 174.994 15.800,175.200 15.844,175.200 15.898 C 175.200 15.952,175.308 16.023,175.441 16.057 C 175.573 16.090,175.783 16.226,175.908 16.358 C 176.033 16.491,176.204 16.600,176.288 16.600 C 176.494 16.600,177.100 17.199,177.100 17.402 C 177.100 17.492,177.213 17.671,177.350 17.800 C 177.488 17.929,177.600 18.098,177.600 18.175 C 177.600 18.251,177.668 18.382,177.750 18.464 C 177.846 18.560,177.900 18.807,177.900 19.151 C 177.900 19.447,177.945 19.716,178.000 19.750 C 178.055 19.784,178.100 20.034,178.100 20.306 C 178.100 20.578,178.055 20.800,178.000 20.800 C 177.945 20.800,177.900 20.997,177.900 21.238 C 177.900 21.505,177.842 21.724,177.750 21.800 C 177.668 21.868,177.600 22.001,177.600 22.095 C 177.600 22.188,177.488 22.371,177.350 22.500 C 177.213 22.629,177.100 22.804,177.100 22.888 C 177.100 23.094,176.501 23.700,176.298 23.700 C 176.208 23.700,176.029 23.813,175.900 23.950 C 175.771 24.088,175.582 24.200,175.479 24.200 C 175.377 24.200,175.268 24.268,175.236 24.350 C 175.197 24.452,175.037 24.500,174.732 24.500 C 174.469 24.500,174.224 24.561,174.136 24.650 C 174.053 24.733,173.835 24.800,173.650 24.800 C 173.465 24.800,173.247 24.733,173.164 24.650 C 173.068 24.553,172.820 24.500,172.469 24.500 C 172.107 24.500,171.883 24.450,171.800 24.350 C 171.732 24.267,171.599 24.200,171.505 24.200 C 171.412 24.200,171.229 24.088,171.100 23.950 C 170.971 23.813,170.819 23.700,170.762 23.700 C 170.622 23.700,170.000 23.088,170.000 22.949 C 170.000 22.888,169.865 22.708,169.700 22.550 C 169.535 22.392,169.400 22.184,169.400 22.087 C 169.400 21.991,169.355 21.884,169.300 21.850 C 169.245 21.816,169.200 21.594,169.200 21.356 C 169.200 21.094,169.141 20.875,169.050 20.800 C 168.960 20.725,168.900 20.506,168.900 20.250 C 168.900 19.994,168.960 19.775,169.050 19.700 C 169.149 19.618,169.200 19.394,169.200 19.044 C 169.200 18.751,169.245 18.484,169.300 18.450 C 169.355 18.416,169.400 18.309,169.400 18.213 C 169.400 18.116,169.535 17.908,169.700 17.750 C 169.865 17.592,170.000 17.407,170.000 17.339 C 170.000 17.178,170.579 16.600,170.740 16.600 C 170.809 16.600,170.971 16.488,171.100 16.350 C 171.229 16.213,171.412 16.100,171.505 16.100 C 171.599 16.100,171.732 16.032,171.800 15.950 C 171.883 15.850,172.107 15.800,172.469 15.800 C 172.820 15.800,173.068 15.747,173.164 15.650 C 173.247 15.568,173.465 15.500,173.650 15.500 C 173.835 15.500,174.053 15.568,174.136 15.650 M190.002 23.047 C 189.932 23.131,189.791 23.200,189.688 23.200 C 189.490 23.200,189.482 23.221,189.482 23.700 C 189.482 24.179,189.490 24.200,189.688 24.200 C 189.791 24.200,189.932 24.268,190.000 24.350 C 190.068 24.433,190.248 24.500,190.400 24.500 C 190.552 24.500,190.732 24.568,190.800 24.650 C 190.875 24.741,191.094 24.800,191.356 24.800 C 191.594 24.800,191.816 24.845,191.850 24.900 C 191.884 24.955,192.039 25.000,192.194 25.000 C 192.349 25.000,192.532 25.068,192.600 25.150 C 192.668 25.233,192.876 25.300,193.062 25.300 C 193.248 25.300,193.400 25.345,193.400 25.400 C 193.400 25.455,193.552 25.500,193.738 25.500 C 193.924 25.500,194.132 25.568,194.200 25.650 C 194.268 25.733,194.448 25.800,194.600 25.800 C 194.752 25.800,194.932 25.868,195.000 25.950 C 195.075 26.041,195.294 26.100,195.556 26.100 C 195.794 26.100,196.016 26.145,196.050 26.200 C 196.084 26.255,196.239 26.300,196.394 26.300 C 196.549 26.300,196.732 26.368,196.800 26.450 C 197.081 26.789,198.036 26.648,198.221 26.241 L 198.384 25.882 198.067 25.594 C 197.890 25.433,197.634 25.305,197.487 25.303 C 197.343 25.301,197.168 25.233,197.100 25.150 C 197.032 25.068,196.849 25.000,196.694 25.000 C 196.539 25.000,196.384 24.955,196.350 24.900 C 196.316 24.845,196.094 24.800,195.856 24.800 C 195.594 24.800,195.375 24.741,195.300 24.650 C 195.232 24.568,195.028 24.500,194.848 24.500 C 194.650 24.500,194.499 24.441,194.464 24.350 C 194.428 24.257,194.275 24.200,194.059 24.200 C 193.868 24.200,193.684 24.155,193.650 24.100 C 193.616 24.045,193.461 24.000,193.306 24.000 C 193.151 24.000,192.968 23.933,192.900 23.850 C 192.832 23.768,192.652 23.700,192.500 23.700 C 192.348 23.700,192.168 23.633,192.100 23.550 C 192.025 23.459,191.806 23.400,191.544 23.400 C 191.306 23.400,191.084 23.355,191.050 23.300 C 191.016 23.245,190.871 23.200,190.727 23.200 C 190.583 23.200,190.390 23.131,190.297 23.047 C 190.146 22.911,190.116 22.911,190.002 23.047 M200.965 26.783 C 200.570 27.219,200.879 27.900,201.472 27.900 C 201.652 27.900,201.802 27.962,201.836 28.050 C 201.872 28.143,202.025 28.200,202.241 28.200 C 202.432 28.200,202.616 28.245,202.650 28.300 C 202.684 28.355,202.839 28.400,202.994 28.400 C 203.149 28.400,203.332 28.468,203.400 28.550 C 203.475 28.640,203.694 28.700,203.950 28.700 C 204.206 28.700,204.425 28.760,204.500 28.850 C 204.568 28.933,204.751 29.000,204.906 29.000 C 205.061 29.000,205.216 29.045,205.250 29.100 C 205.284 29.155,205.439 29.200,205.594 29.200 C 205.749 29.200,205.932 29.268,206.000 29.350 C 206.068 29.433,206.271 29.500,206.450 29.500 C 206.629 29.500,206.832 29.568,206.900 29.650 C 206.968 29.733,207.151 29.800,207.306 29.800 C 207.461 29.800,207.616 29.845,207.650 29.900 C 207.684 29.955,207.906 30.000,208.144 30.000 C 208.406 30.000,208.625 30.059,208.700 30.150 C 208.878 30.364,209.006 30.334,209.383 29.991 L 209.717 29.688 209.554 29.344 C 209.464 29.155,209.331 29.000,209.258 29.000 C 209.184 29.000,209.068 28.933,209.000 28.850 C 208.925 28.760,208.706 28.700,208.450 28.700 C 208.194 28.700,207.975 28.640,207.900 28.550 C 207.832 28.468,207.624 28.400,207.438 28.400 C 207.252 28.400,207.100 28.355,207.100 28.300 C 207.100 28.245,206.948 28.200,206.762 28.200 C 206.576 28.200,206.368 28.133,206.300 28.050 C 206.232 27.968,206.049 27.900,205.894 27.900 C 205.739 27.900,205.584 27.855,205.550 27.800 C 205.516 27.745,205.361 27.700,205.206 27.700 C 205.051 27.700,204.868 27.633,204.800 27.550 C 204.725 27.460,204.506 27.400,204.250 27.400 C 203.994 27.400,203.775 27.340,203.700 27.250 C 203.632 27.168,203.424 27.100,203.238 27.100 C 203.052 27.100,202.900 27.055,202.900 27.000 C 202.900 26.945,202.748 26.900,202.562 26.900 C 202.376 26.900,202.168 26.832,202.100 26.750 C 201.919 26.532,201.173 26.553,200.965 26.783 M138.184 27.498 C 138.165 27.553,138.172 27.902,138.200 28.274 L 138.250 28.950 140.524 28.977 L 142.798 29.004 142.824 35.277 L 142.850 41.550 143.750 41.550 L 144.650 41.550 144.700 35.300 L 144.750 29.050 147.050 28.995 C 149.762 28.931,149.415 29.053,149.379 28.175 L 149.350 27.450 143.784 27.424 C 140.140 27.407,138.206 27.433,138.184 27.498 M226.900 28.850 C 226.970 28.934,227.188 29.000,227.397 29.000 C 227.816 29.000,228.212 29.174,228.641 29.547 C 228.800 29.686,228.978 29.800,229.036 29.800 C 229.195 29.800,229.800 30.420,229.800 30.583 C 229.800 30.662,229.913 30.831,230.050 30.959 C 230.188 31.086,230.300 31.255,230.300 31.333 C 230.300 31.411,230.368 31.532,230.450 31.600 C 230.552 31.685,230.600 31.911,230.600 32.306 C 230.600 32.626,230.645 32.916,230.700 32.950 C 230.755 32.984,230.800 33.209,230.800 33.450 C 230.800 33.691,230.755 33.916,230.700 33.950 C 230.645 33.984,230.600 34.206,230.600 34.444 C 230.600 34.706,230.541 34.925,230.450 35.000 C 230.368 35.068,230.300 35.201,230.300 35.295 C 230.300 35.388,230.188 35.571,230.050 35.700 C 229.913 35.829,229.800 35.981,229.800 36.038 C 229.800 36.179,229.087 36.900,228.947 36.900 C 228.885 36.900,228.729 37.013,228.600 37.150 C 228.471 37.288,228.288 37.400,228.195 37.400 C 228.101 37.400,227.968 37.468,227.900 37.550 C 227.825 37.641,227.606 37.700,227.344 37.700 C 227.106 37.700,226.884 37.745,226.850 37.800 C 226.816 37.855,226.591 37.900,226.350 37.900 C 226.109 37.900,225.884 37.855,225.850 37.800 C 225.816 37.745,225.526 37.700,225.206 37.700 C 224.811 37.700,224.585 37.652,224.500 37.550 C 224.432 37.468,224.321 37.400,224.255 37.400 C 224.189 37.400,224.029 37.288,223.900 37.150 C 223.771 37.013,223.596 36.900,223.512 36.900 C 223.333 36.900,222.700 36.313,222.700 36.146 C 222.700 36.083,222.586 35.900,222.447 35.741 C 222.074 35.312,221.900 34.916,221.900 34.497 C 221.900 34.288,221.834 34.070,221.750 34.000 C 221.660 33.925,221.600 33.706,221.600 33.450 C 221.600 33.194,221.660 32.975,221.750 32.900 C 221.852 32.815,221.900 32.588,221.900 32.188 C 221.900 31.863,221.945 31.600,222.000 31.600 C 222.055 31.600,222.100 31.518,222.100 31.419 C 222.100 31.319,222.235 31.108,222.400 30.950 C 222.565 30.792,222.700 30.595,222.700 30.512 C 222.700 30.307,223.199 29.800,223.400 29.800 C 223.489 29.800,223.692 29.665,223.850 29.500 C 224.008 29.335,224.219 29.200,224.319 29.200 C 224.418 29.200,224.500 29.155,224.500 29.100 C 224.500 29.045,224.763 29.000,225.088 29.000 C 225.488 29.000,225.715 28.952,225.800 28.850 C 225.875 28.760,226.094 28.700,226.350 28.700 C 226.606 28.700,226.825 28.760,226.900 28.850 M265.050 46.500 L 265.050 58.950 261.458 58.976 C 257.347 59.006,257.368 59.010,257.417 58.179 C 257.429 57.970,257.385 57.745,257.320 57.680 C 257.254 57.614,257.200 57.485,257.200 57.394 C 257.200 57.303,257.088 57.144,256.950 57.040 C 256.813 56.937,256.700 56.786,256.700 56.705 C 256.700 56.525,255.807 55.600,255.633 55.600 C 255.565 55.600,255.405 55.496,255.278 55.369 C 254.940 55.031,254.421 54.800,253.997 54.800 C 253.788 54.800,253.570 54.734,253.500 54.650 C 253.408 54.539,253.162 54.500,252.550 54.500 C 251.938 54.500,251.692 54.539,251.600 54.650 C 251.524 54.742,251.305 54.800,251.038 54.800 C 250.797 54.800,250.600 54.845,250.600 54.900 C 250.600 54.955,250.518 55.000,250.419 55.000 C 250.319 55.000,250.108 55.135,249.950 55.300 C 249.792 55.465,249.594 55.600,249.510 55.600 C 249.305 55.600,248.500 56.400,248.500 56.603 C 248.500 56.692,248.391 56.867,248.258 56.992 C 248.126 57.117,247.990 57.327,247.957 57.459 C 247.923 57.592,247.852 57.700,247.798 57.700 C 247.744 57.700,247.700 57.903,247.700 58.150 C 247.700 59.074,248.377 59.005,239.624 58.976 L 231.950 58.950 231.920 58.383 C 231.902 58.041,231.833 57.769,231.745 57.696 C 231.665 57.630,231.600 57.520,231.600 57.453 C 231.600 57.252,231.278 56.669,231.031 56.422 C 230.904 56.295,230.800 56.138,230.800 56.074 C 230.800 55.899,229.881 55.000,229.702 55.000 C 229.617 55.000,229.463 54.888,229.360 54.750 C 229.256 54.613,229.091 54.500,228.992 54.500 C 228.893 54.500,228.784 54.455,228.750 54.400 C 228.716 54.345,228.561 54.300,228.406 54.300 C 228.251 54.300,228.068 54.233,228.000 54.150 C 227.916 54.048,227.690 54.000,227.300 54.000 C 226.910 54.000,226.684 53.952,226.600 53.850 C 226.530 53.765,226.312 53.700,226.100 53.700 C 225.888 53.700,225.670 53.765,225.600 53.850 C 225.516 53.952,225.290 54.000,224.900 54.000 C 224.510 54.000,224.284 54.048,224.200 54.150 C 224.132 54.233,223.991 54.300,223.888 54.300 C 223.784 54.300,223.700 54.345,223.700 54.400 C 223.700 54.455,223.618 54.500,223.517 54.500 C 223.417 54.500,223.229 54.613,223.100 54.750 C 222.971 54.888,222.796 55.000,222.711 55.000 C 222.505 55.000,221.600 55.899,221.600 56.104 C 221.600 56.193,221.488 56.371,221.350 56.500 C 221.213 56.629,221.100 56.812,221.100 56.907 C 221.100 57.001,221.032 57.105,220.950 57.136 C 220.868 57.168,220.799 57.274,220.797 57.372 C 220.795 57.470,220.733 57.630,220.659 57.727 C 220.574 57.840,220.543 58.060,220.574 58.336 C 220.633 58.864,220.284 59.300,219.801 59.300 C 219.642 59.300,219.484 59.345,219.450 59.400 C 219.416 59.455,219.261 59.500,219.106 59.500 C 218.951 59.500,218.768 59.567,218.700 59.650 C 218.632 59.733,218.449 59.800,218.294 59.800 C 218.139 59.800,217.984 59.845,217.950 59.900 C 217.916 59.955,217.759 60.000,217.601 60.000 C 217.443 60.000,217.247 60.067,217.164 60.150 C 217.082 60.233,216.837 60.300,216.619 60.300 C 216.390 60.300,216.172 60.363,216.100 60.450 C 216.032 60.533,215.826 60.600,215.644 60.600 C 215.461 60.600,215.284 60.645,215.250 60.700 C 215.216 60.755,215.061 60.800,214.906 60.800 C 214.751 60.800,214.568 60.867,214.500 60.950 C 214.432 61.033,214.252 61.100,214.100 61.100 C 213.948 61.100,213.768 61.167,213.700 61.250 C 213.632 61.333,213.424 61.400,213.238 61.400 C 213.052 61.400,212.900 61.445,212.900 61.500 C 212.900 61.555,212.703 61.600,212.462 61.600 C 212.195 61.600,211.976 61.658,211.900 61.750 C 211.832 61.833,211.629 61.900,211.450 61.900 C 211.271 61.900,211.068 61.968,211.000 62.050 C 210.932 62.133,210.749 62.200,210.594 62.200 C 210.439 62.200,210.284 62.245,210.250 62.300 C 210.216 62.355,210.061 62.400,209.906 62.400 C 209.751 62.400,209.568 62.468,209.500 62.550 C 209.432 62.633,209.224 62.700,209.038 62.700 C 208.852 62.700,208.700 62.745,208.700 62.800 C 208.700 62.855,208.503 62.900,208.262 62.900 C 207.995 62.900,207.776 62.958,207.700 63.050 C 207.632 63.133,207.429 63.200,207.250 63.200 C 207.071 63.200,206.868 63.267,206.800 63.350 C 206.732 63.433,206.549 63.500,206.394 63.500 C 206.239 63.500,206.084 63.545,206.050 63.600 C 206.016 63.655,205.861 63.700,205.706 63.700 C 205.551 63.700,205.368 63.767,205.300 63.850 C 205.232 63.933,205.043 64.000,204.881 64.000 C 204.718 64.000,204.518 64.067,204.436 64.150 C 204.353 64.233,204.112 64.300,203.899 64.300 C 203.686 64.300,203.484 64.345,203.450 64.400 C 203.416 64.455,203.239 64.500,203.056 64.500 C 202.874 64.500,202.668 64.567,202.600 64.650 C 202.532 64.733,202.349 64.800,202.194 64.800 C 202.039 64.800,201.884 64.845,201.850 64.900 C 201.816 64.955,201.661 65.000,201.506 65.000 C 201.351 65.000,201.168 65.067,201.100 65.150 C 201.032 65.233,200.828 65.300,200.648 65.300 C 200.450 65.300,200.299 65.359,200.264 65.450 C 200.225 65.552,200.064 65.600,199.759 65.600 C 199.513 65.600,199.284 65.645,199.250 65.700 C 199.216 65.755,199.032 65.800,198.841 65.800 C 198.625 65.800,198.472 65.857,198.436 65.950 C 198.401 66.041,198.250 66.100,198.052 66.100 C 197.872 66.100,197.668 66.168,197.600 66.250 C 197.532 66.333,197.349 66.400,197.194 66.400 C 197.039 66.400,196.884 66.445,196.850 66.500 C 196.816 66.555,196.661 66.600,196.506 66.600 C 196.351 66.600,196.168 66.668,196.100 66.750 C 196.027 66.838,195.804 66.901,195.563 66.903 C 195.336 66.905,195.063 66.972,194.956 67.053 C 194.849 67.134,194.635 67.200,194.481 67.200 C 194.326 67.200,194.200 67.245,194.200 67.300 C 194.200 67.355,194.048 67.400,193.862 67.400 C 193.676 67.400,193.468 67.468,193.400 67.550 C 193.332 67.633,193.149 67.700,192.994 67.700 C 192.839 67.700,192.684 67.745,192.650 67.800 C 192.616 67.855,192.461 67.900,192.306 67.900 C 192.151 67.900,191.968 67.968,191.900 68.050 C 191.825 68.140,191.606 68.200,191.350 68.200 C 191.094 68.200,190.875 68.260,190.800 68.350 C 190.732 68.433,190.524 68.500,190.338 68.500 C 190.152 68.500,190.000 68.545,190.000 68.600 C 190.000 68.655,189.848 68.700,189.662 68.700 C 189.476 68.700,189.268 68.767,189.200 68.850 C 189.132 68.933,188.952 69.000,188.800 69.000 C 188.648 69.000,188.468 69.067,188.400 69.150 C 188.332 69.233,188.124 69.300,187.938 69.300 C 187.752 69.300,187.600 69.345,187.600 69.400 C 187.600 69.455,187.403 69.500,187.162 69.500 C 186.895 69.500,186.676 69.558,186.600 69.650 C 186.532 69.733,186.329 69.800,186.150 69.800 C 185.971 69.800,185.768 69.867,185.700 69.950 C 185.632 70.033,185.449 70.100,185.294 70.100 C 185.139 70.100,184.984 70.145,184.950 70.200 C 184.916 70.255,184.761 70.300,184.606 70.300 C 184.451 70.300,184.268 70.367,184.200 70.450 C 184.132 70.533,183.924 70.600,183.738 70.600 C 183.552 70.600,183.400 70.645,183.400 70.700 C 183.400 70.755,183.203 70.800,182.962 70.800 C 182.695 70.800,182.476 70.858,182.400 70.950 C 182.332 71.033,182.129 71.100,181.950 71.100 C 181.771 71.100,181.568 71.168,181.500 71.250 C 181.432 71.333,181.249 71.400,181.094 71.400 C 180.939 71.400,180.784 71.445,180.750 71.500 C 180.716 71.555,180.561 71.600,180.406 71.600 C 180.251 71.600,180.068 71.668,180.000 71.750 C 179.932 71.833,179.724 71.900,179.538 71.900 L 179.200 71.900 179.200 71.397 C 179.200 71.042,179.156 70.877,179.050 70.836 C 178.968 70.805,178.900 70.724,178.900 70.658 C 178.900 70.449,178.527 69.756,178.309 69.558 C 178.194 69.454,178.100 69.308,178.100 69.234 C 178.100 69.064,177.232 68.200,177.062 68.200 C 176.992 68.200,176.829 68.088,176.700 67.950 C 176.571 67.813,176.388 67.700,176.295 67.700 C 176.201 67.700,176.068 67.633,176.000 67.550 C 175.932 67.468,175.749 67.400,175.594 67.400 C 175.439 67.400,175.284 67.355,175.250 67.300 C 175.216 67.245,174.947 67.200,174.651 67.200 C 174.307 67.200,174.060 67.146,173.964 67.050 C 173.876 66.962,173.632 66.900,173.369 66.900 C 173.096 66.900,172.877 66.958,172.800 67.050 C 172.718 67.149,172.494 67.200,172.144 67.200 C 171.851 67.200,171.584 67.245,171.550 67.300 C 171.516 67.355,171.406 67.400,171.306 67.400 C 171.206 67.400,171.068 67.468,171.000 67.550 C 170.932 67.633,170.807 67.700,170.724 67.700 C 170.641 67.700,170.469 67.812,170.341 67.950 C 170.214 68.087,170.053 68.200,169.983 68.200 C 169.813 68.200,168.900 69.107,168.900 69.276 C 168.900 69.349,168.788 69.514,168.650 69.641 C 168.513 69.769,168.400 69.941,168.400 70.024 C 168.400 70.107,168.333 70.232,168.250 70.300 C 168.168 70.368,168.100 70.503,168.100 70.600 C 168.100 70.697,168.034 70.830,167.953 70.897 C 167.846 70.986,167.823 71.137,167.867 71.458 C 167.976 72.259,168.601 72.200,160.055 72.200 L 152.435 72.200 152.213 71.964 C 152.054 71.795,151.999 71.626,152.016 71.365 C 152.030 71.165,151.987 70.947,151.920 70.880 C 151.854 70.814,151.800 70.687,151.800 70.597 C 151.800 70.508,151.688 70.329,151.550 70.200 C 151.412 70.071,151.300 69.906,151.300 69.833 C 151.300 69.674,150.310 68.700,150.148 68.700 C 150.086 68.700,149.929 68.588,149.800 68.450 C 149.671 68.313,149.488 68.200,149.395 68.200 C 149.301 68.200,149.168 68.133,149.100 68.050 C 149.025 67.959,148.806 67.900,148.544 67.900 C 148.306 67.900,148.084 67.855,148.050 67.800 C 147.969 67.670,146.331 67.670,146.250 67.800 C 146.216 67.855,145.994 67.900,145.756 67.900 C 145.494 67.900,145.275 67.959,145.200 68.050 C 145.132 68.133,145.011 68.200,144.933 68.200 C 144.855 68.200,144.686 68.312,144.559 68.450 C 144.431 68.587,144.266 68.700,144.192 68.700 C 143.998 68.700,143.100 69.611,143.100 69.807 C 143.100 69.898,142.988 70.056,142.850 70.160 C 142.713 70.263,142.600 70.421,142.600 70.511 C 142.600 70.602,142.532 70.732,142.450 70.800 C 142.362 70.873,142.300 71.092,142.300 71.331 C 142.300 71.610,142.232 71.809,142.083 71.969 L 141.865 72.200 138.338 72.200 C 136.272 72.200,134.788 72.161,134.754 72.107 C 134.679 71.985,134.679 47.315,134.754 47.193 C 134.789 47.136,141.219 47.100,151.244 47.100 C 169.256 47.100,167.992 47.056,167.854 47.684 C 167.810 47.883,167.839 48.024,167.945 48.130 C 168.030 48.216,168.100 48.418,168.100 48.581 C 168.100 48.743,168.168 48.932,168.250 49.000 C 168.333 49.068,168.400 49.193,168.400 49.276 C 168.400 49.359,168.513 49.531,168.650 49.659 C 168.788 49.786,168.900 49.947,168.900 50.017 C 168.900 50.187,169.807 51.100,169.976 51.100 C 170.049 51.100,170.214 51.213,170.341 51.350 C 170.469 51.488,170.641 51.600,170.724 51.600 C 170.807 51.600,170.932 51.667,171.000 51.750 C 171.068 51.833,171.206 51.900,171.306 51.900 C 171.406 51.900,171.516 51.945,171.550 52.000 C 171.584 52.055,171.851 52.100,172.144 52.100 C 172.494 52.100,172.718 52.151,172.800 52.250 C 172.965 52.449,173.765 52.449,173.964 52.250 C 174.060 52.154,174.307 52.100,174.651 52.100 C 174.947 52.100,175.216 52.055,175.250 52.000 C 175.284 51.945,175.439 51.900,175.594 51.900 C 175.749 51.900,175.932 51.833,176.000 51.750 C 176.068 51.667,176.201 51.600,176.295 51.600 C 176.388 51.600,176.571 51.488,176.700 51.350 C 176.829 51.213,176.992 51.100,177.062 51.100 C 177.232 51.100,178.100 50.236,178.100 50.066 C 178.100 49.992,178.194 49.846,178.309 49.742 C 178.569 49.506,178.900 48.836,178.900 48.543 C 178.900 48.423,178.968 48.268,179.050 48.200 C 179.138 48.127,179.200 47.909,179.200 47.671 C 179.200 47.186,179.424 46.900,179.803 46.900 C 179.953 46.900,180.132 46.833,180.200 46.750 C 180.268 46.668,180.474 46.600,180.656 46.600 C 180.839 46.600,181.016 46.555,181.050 46.500 C 181.084 46.445,181.239 46.400,181.394 46.400 C 181.549 46.400,181.732 46.333,181.800 46.250 C 181.868 46.168,182.048 46.100,182.200 46.100 C 182.352 46.100,182.532 46.032,182.600 45.950 C 182.675 45.859,182.894 45.800,183.156 45.800 C 183.394 45.800,183.616 45.755,183.650 45.700 C 183.684 45.645,183.839 45.600,183.994 45.600 C 184.149 45.600,184.332 45.532,184.400 45.450 C 184.468 45.368,184.671 45.300,184.850 45.300 C 185.029 45.300,185.232 45.233,185.300 45.150 C 185.368 45.068,185.551 45.000,185.706 45.000 C 185.861 45.000,186.016 44.955,186.050 44.900 C 186.084 44.845,186.239 44.800,186.394 44.800 C 186.549 44.800,186.732 44.733,186.800 44.650 C 186.875 44.560,187.094 44.500,187.350 44.500 C 187.606 44.500,187.825 44.440,187.900 44.350 C 187.968 44.268,188.151 44.200,188.306 44.200 C 188.461 44.200,188.616 44.155,188.650 44.100 C 188.684 44.045,188.868 44.000,189.059 44.000 C 189.275 44.000,189.428 43.943,189.464 43.850 C 189.499 43.758,189.651 43.700,189.855 43.700 C 190.038 43.700,190.216 43.655,190.250 43.600 C 190.284 43.545,190.439 43.500,190.594 43.500 C 190.749 43.500,190.932 43.433,191.000 43.350 C 191.075 43.260,191.294 43.200,191.550 43.200 C 191.806 43.200,192.025 43.140,192.100 43.050 C 192.168 42.968,192.351 42.900,192.506 42.900 C 192.661 42.900,192.816 42.855,192.850 42.800 C 192.884 42.745,193.041 42.700,193.199 42.700 C 193.357 42.700,193.553 42.632,193.636 42.550 C 193.718 42.468,193.918 42.400,194.081 42.400 C 194.243 42.400,194.432 42.333,194.500 42.250 C 194.568 42.168,194.751 42.100,194.906 42.100 C 195.061 42.100,195.216 42.055,195.250 42.000 C 195.284 41.945,195.506 41.900,195.744 41.900 C 196.006 41.900,196.225 41.841,196.300 41.750 C 196.368 41.668,196.543 41.599,196.687 41.597 C 196.832 41.595,197.037 41.528,197.144 41.447 C 197.251 41.366,197.465 41.300,197.619 41.300 C 197.774 41.300,197.900 41.255,197.900 41.200 C 197.900 41.145,198.052 41.100,198.238 41.100 C 198.424 41.100,198.632 41.032,198.700 40.950 C 198.768 40.868,198.951 40.800,199.106 40.800 C 199.261 40.800,199.416 40.755,199.450 40.700 C 199.484 40.645,199.706 40.600,199.944 40.600 C 200.206 40.600,200.425 40.541,200.500 40.450 C 200.568 40.368,200.748 40.300,200.900 40.300 C 201.052 40.300,201.232 40.233,201.300 40.150 C 201.368 40.068,201.576 40.000,201.762 40.000 C 201.948 40.000,202.100 39.955,202.100 39.900 C 202.100 39.845,202.252 39.800,202.438 39.800 C 202.624 39.800,202.832 39.733,202.900 39.650 C 202.968 39.568,203.148 39.500,203.300 39.500 C 203.452 39.500,203.632 39.433,203.700 39.350 C 203.775 39.259,203.994 39.200,204.256 39.200 C 204.494 39.200,204.716 39.155,204.750 39.100 C 204.784 39.045,204.939 39.000,205.094 39.000 C 205.249 39.000,205.432 38.933,205.500 38.850 C 205.568 38.768,205.757 38.700,205.919 38.700 C 206.082 38.700,206.282 38.633,206.364 38.550 C 206.447 38.468,206.643 38.400,206.801 38.400 C 206.959 38.400,207.116 38.355,207.150 38.300 C 207.184 38.245,207.339 38.200,207.494 38.200 C 207.649 38.200,207.832 38.133,207.900 38.050 C 207.975 37.959,208.194 37.900,208.456 37.900 C 208.694 37.900,208.916 37.855,208.950 37.800 C 208.984 37.745,209.139 37.700,209.294 37.700 C 209.449 37.700,209.632 37.633,209.700 37.550 C 209.768 37.468,209.971 37.400,210.150 37.400 C 210.329 37.400,210.532 37.333,210.600 37.250 C 210.668 37.168,210.851 37.100,211.006 37.100 C 211.161 37.100,211.316 37.055,211.350 37.000 C 211.384 36.945,211.539 36.900,211.694 36.900 C 211.849 36.900,212.032 36.833,212.100 36.750 C 212.175 36.660,212.394 36.600,212.650 36.600 C 212.906 36.600,213.125 36.540,213.200 36.450 C 213.268 36.367,213.451 36.300,213.606 36.300 C 213.761 36.300,213.916 36.255,213.950 36.200 C 213.984 36.145,214.168 36.100,214.359 36.100 C 214.575 36.100,214.728 36.043,214.764 35.950 C 214.799 35.858,214.951 35.800,215.155 35.800 C 215.338 35.800,215.516 35.755,215.550 35.700 C 215.584 35.645,215.739 35.600,215.894 35.600 C 216.049 35.600,216.232 35.532,216.300 35.450 C 216.375 35.360,216.594 35.300,216.850 35.300 C 217.106 35.300,217.325 35.240,217.400 35.150 C 217.468 35.068,217.651 35.000,217.806 35.000 C 217.961 35.000,218.116 34.955,218.150 34.900 C 218.184 34.845,218.341 34.800,218.499 34.800 C 218.657 34.800,218.853 34.733,218.936 34.650 C 219.018 34.568,219.218 34.500,219.381 34.500 C 219.543 34.500,219.732 34.432,219.800 34.350 C 220.057 34.040,220.704 34.283,220.568 34.639 C 220.538 34.717,220.577 34.864,220.654 34.965 C 220.731 35.067,220.795 35.268,220.797 35.413 C 220.799 35.557,220.868 35.732,220.950 35.800 C 221.032 35.868,221.100 36.001,221.100 36.095 C 221.100 36.188,221.213 36.371,221.350 36.500 C 221.488 36.629,221.600 36.792,221.600 36.863 C 221.600 37.025,222.481 37.900,222.644 37.900 C 222.711 37.900,222.871 38.013,223.000 38.150 C 223.129 38.288,223.312 38.400,223.405 38.400 C 223.499 38.400,223.632 38.468,223.700 38.550 C 223.768 38.633,223.904 38.700,224.002 38.700 C 224.099 38.700,224.205 38.768,224.236 38.850 C 224.278 38.960,224.452 39.000,224.891 39.000 C 225.219 39.000,225.516 39.045,225.550 39.100 C 225.584 39.155,225.831 39.200,226.100 39.200 C 226.369 39.200,226.616 39.155,226.650 39.100 C 226.684 39.045,226.951 39.000,227.244 39.000 C 227.594 39.000,227.818 38.949,227.900 38.850 C 227.968 38.768,228.176 38.700,228.362 38.700 C 228.548 38.700,228.700 38.656,228.700 38.602 C 228.700 38.548,228.808 38.477,228.941 38.443 C 229.073 38.410,229.283 38.274,229.408 38.142 C 229.533 38.009,229.708 37.900,229.797 37.900 C 230.000 37.900,230.800 37.095,230.800 36.890 C 230.800 36.806,230.935 36.608,231.100 36.450 C 231.265 36.292,231.400 36.081,231.400 35.981 C 231.400 35.882,231.445 35.800,231.500 35.800 C 231.555 35.800,231.600 35.648,231.600 35.462 C 231.600 35.276,231.668 35.068,231.750 35.000 C 231.842 34.924,231.900 34.705,231.900 34.437 L 231.900 33.999 248.475 34.025 L 265.050 34.050 265.050 46.500 M150.000 35.257 C 149.753 35.397,149.483 35.596,149.400 35.700 C 149.153 36.009,148.967 35.988,148.958 35.650 C 148.950 35.358,148.937 35.350,148.450 35.350 L 147.950 35.350 147.924 40.023 L 147.898 44.696 148.135 44.755 C 148.266 44.788,148.525 44.800,148.711 44.782 L 149.050 44.750 149.076 43.200 C 149.108 41.308,149.105 41.318,149.523 41.618 C 149.701 41.746,149.954 41.906,150.085 41.975 C 150.368 42.124,151.662 42.143,151.750 42.000 C 151.784 41.945,151.877 41.900,151.956 41.900 C 152.523 41.900,153.440 40.802,153.743 39.760 C 154.576 36.895,152.186 34.020,150.000 35.257 M29.277 35.356 C 29.220 35.413,30.063 36.537,30.904 37.525 L 31.223 37.900 32.137 37.898 L 33.050 37.896 34.065 36.673 C 35.248 35.248,35.247 35.300,34.095 35.300 L 33.202 35.300 32.733 36.004 C 32.178 36.840,32.133 36.839,31.572 36.000 L 31.138 35.350 30.239 35.322 C 29.745 35.306,29.312 35.322,29.277 35.356 M41.932 36.522 C 41.218 37.934,41.215 37.900,42.049 37.900 L 42.686 37.900 43.424 37.025 C 44.263 36.028,44.700 35.461,44.700 35.366 C 44.700 35.330,44.216 35.300,43.625 35.301 L 42.550 35.301 41.932 36.522 M307.800 35.415 C 307.800 35.478,307.991 35.765,308.225 36.053 C 308.459 36.341,308.875 36.872,309.150 37.233 L 309.650 37.888 310.569 37.894 L 311.488 37.900 312.533 36.675 C 313.749 35.250,313.746 35.300,312.609 35.300 L 311.729 35.300 311.264 36.000 C 310.799 36.699,310.551 36.855,310.429 36.525 C 310.393 36.429,310.190 36.114,309.979 35.825 L 309.594 35.300 308.697 35.300 C 308.088 35.300,307.800 35.337,307.800 35.415 M319.132 36.522 C 318.418 37.934,318.415 37.900,319.251 37.900 L 319.890 37.900 320.895 36.706 C 322.139 35.229,322.142 35.300,320.825 35.301 L 319.750 35.301 319.132 36.522 M350.517 35.444 C 350.535 35.528,350.955 36.113,351.450 36.744 L 352.350 37.891 353.270 37.896 L 354.190 37.900 355.195 36.706 C 356.422 35.249,356.418 35.300,355.308 35.300 L 354.415 35.300 353.947 36.005 C 353.391 36.841,353.346 36.841,352.784 36.000 L 352.350 35.350 351.417 35.321 C 350.624 35.297,350.489 35.315,350.517 35.444 M151.771 36.366 C 153.512 37.495,152.793 41.107,150.829 41.098 C 148.858 41.090,148.250 37.349,150.054 36.328 C 150.613 36.011,151.245 36.025,151.771 36.366 M310.000 38.509 C 308.348 38.760,307.358 39.237,306.294 40.297 C 303.067 43.512,303.902 50.773,307.700 52.518 C 311.398 54.217,315.218 52.807,316.513 49.264 C 316.801 48.477,316.725 48.354,315.850 48.187 C 315.630 48.145,315.331 48.082,315.186 48.046 C 314.936 47.984,314.912 48.013,314.705 48.635 C 313.731 51.561,310.573 52.546,308.067 50.705 C 306.151 49.297,305.627 45.382,306.939 42.287 C 308.259 39.172,313.413 39.341,314.515 42.535 L 314.648 42.921 315.149 42.861 C 316.676 42.680,316.673 42.683,316.100 41.527 C 314.971 39.249,312.662 38.107,310.000 38.509 M352.750 38.503 C 351.685 38.662,351.423 38.739,350.600 39.132 C 346.709 40.991,345.722 47.212,348.687 51.183 C 350.955 54.220,357.027 53.703,358.737 50.327 C 359.499 48.821,359.524 48.467,358.880 48.298 C 358.644 48.235,358.280 48.135,358.072 48.075 C 357.618 47.944,357.585 47.974,357.354 48.732 C 356.504 51.524,353.281 52.501,350.780 50.724 C 348.520 49.119,348.230 43.570,350.291 41.367 C 352.406 39.105,356.284 39.773,357.202 42.557 C 357.326 42.932,357.708 43.014,358.360 42.808 C 358.520 42.758,358.774 42.689,358.925 42.656 C 359.284 42.578,359.276 42.512,358.786 41.510 C 357.696 39.278,355.358 38.113,352.750 38.503 M14.267 38.767 C 14.230 38.803,14.200 42.000,14.200 45.870 L 14.200 52.908 15.125 52.879 L 16.050 52.850 16.100 50.000 L 16.150 47.150 18.800 47.089 C 21.359 47.030,22.126 46.956,22.550 46.730 C 22.660 46.671,22.882 46.562,23.043 46.487 C 25.088 45.532,25.624 41.901,23.989 40.067 C 22.938 38.888,22.069 38.700,17.660 38.700 C 15.830 38.700,14.303 38.730,14.267 38.767 M27.467 38.767 C 27.430 38.803,27.400 41.998,27.400 45.867 L 27.400 52.900 28.349 52.900 L 29.297 52.900 29.324 49.775 L 29.350 46.650 30.950 46.656 C 33.610 46.667,33.648 46.699,36.550 51.429 L 37.450 52.895 38.575 52.898 C 39.841 52.900,39.829 52.911,39.350 52.200 C 39.157 51.914,39.000 51.661,39.000 51.638 C 39.000 51.616,38.835 51.339,38.633 51.023 C 38.430 50.708,38.167 50.293,38.047 50.100 C 36.757 48.027,35.900 46.978,35.254 46.684 C 34.852 46.500,35.293 46.100,35.897 46.100 C 35.992 46.100,36.289 45.984,36.557 45.841 C 39.803 44.115,39.250 39.713,35.679 38.860 C 34.986 38.694,27.623 38.611,27.467 38.767 M41.650 38.921 C 41.620 39.047,41.607 42.233,41.622 46.000 L 41.650 52.850 42.576 52.879 L 43.501 52.908 43.476 45.829 L 43.450 38.750 42.578 38.721 C 41.741 38.693,41.704 38.702,41.650 38.921 M46.646 38.825 C 46.620 38.894,46.610 42.078,46.624 45.900 L 46.650 52.850 47.575 52.879 L 48.500 52.908 48.500 50.056 L 48.500 47.204 48.725 47.152 C 48.849 47.124,50.053 47.084,51.400 47.064 C 53.761 47.029,54.523 46.958,54.950 46.730 C 55.060 46.671,55.285 46.562,55.450 46.487 C 56.869 45.840,57.723 43.541,57.243 41.664 C 56.855 40.150,55.999 39.356,54.253 38.892 C 53.367 38.656,46.733 38.598,46.646 38.825 M59.846 38.825 C 59.820 38.894,59.810 42.078,59.824 45.900 L 59.850 52.850 60.774 52.879 L 61.697 52.907 61.724 49.779 L 61.750 46.650 63.200 46.620 C 65.894 46.564,66.150 46.784,69.150 51.742 L 69.850 52.899 71.900 52.874 L 73.949 52.850 74.070 52.500 C 74.136 52.308,74.480 51.340,74.834 50.350 L 75.478 48.550 78.406 48.550 L 81.335 48.550 81.529 49.050 C 81.636 49.325,81.780 49.685,81.848 49.850 C 81.916 50.015,82.139 50.600,82.343 51.150 C 82.547 51.700,82.785 52.319,82.872 52.525 L 83.030 52.900 84.065 52.900 C 84.634 52.900,85.100 52.865,85.100 52.823 C 85.100 52.780,84.808 52.050,84.450 51.200 C 84.093 50.350,83.800 49.623,83.800 49.584 C 83.800 49.546,83.642 49.174,83.450 48.757 C 83.258 48.340,83.100 47.977,83.100 47.951 C 83.100 47.924,82.828 47.238,82.497 46.426 C 81.816 44.762,81.817 44.764,81.460 43.972 C 81.317 43.655,81.200 43.362,81.201 43.322 C 81.201 43.283,80.958 42.665,80.661 41.950 C 80.364 41.235,79.957 40.246,79.755 39.753 C 79.315 38.672,79.358 38.703,78.295 38.702 C 77.435 38.700,77.200 38.783,77.200 39.088 C 77.200 39.170,77.026 39.667,76.814 40.193 C 76.602 40.719,76.125 41.960,75.754 42.950 C 75.383 43.940,75.041 44.840,74.993 44.950 C 74.944 45.060,74.701 45.690,74.451 46.350 C 74.201 47.010,73.958 47.640,73.911 47.750 C 73.863 47.860,73.751 48.141,73.662 48.375 C 73.573 48.609,73.435 48.969,73.357 49.175 C 73.278 49.381,73.095 49.865,72.951 50.250 C 72.807 50.635,72.652 51.040,72.607 51.150 C 72.469 51.482,72.221 52.138,72.157 52.336 C 72.065 52.625,71.897 52.428,71.035 51.016 C 69.354 48.261,68.357 46.972,67.694 46.698 C 67.532 46.631,67.400 46.537,67.400 46.489 C 67.400 46.387,68.053 46.100,68.286 46.100 C 68.552 46.100,69.493 45.582,69.939 45.189 C 71.681 43.655,71.300 40.322,69.258 39.233 C 68.316 38.731,60.019 38.371,59.846 38.825 M83.960 38.784 C 83.914 38.859,84.522 40.462,86.051 44.300 C 86.223 44.731,87.151 47.116,87.646 48.400 C 87.848 48.923,88.054 49.440,88.105 49.550 C 88.155 49.660,88.461 50.448,88.785 51.300 L 89.374 52.850 90.272 52.879 C 91.309 52.912,91.234 52.967,91.671 51.850 C 93.045 48.343,94.123 45.617,94.202 45.450 C 94.254 45.340,94.501 44.710,94.751 44.050 C 95.001 43.390,95.249 42.749,95.303 42.625 C 95.936 41.162,96.796 38.875,96.744 38.791 C 96.656 38.648,95.042 38.678,94.928 38.825 C 94.874 38.894,94.663 39.400,94.458 39.950 C 93.977 41.243,93.877 41.507,93.552 42.350 C 93.126 43.455,93.033 43.702,92.743 44.500 C 92.392 45.469,92.026 46.458,91.855 46.900 C 91.285 48.378,90.890 49.449,90.705 50.017 C 90.412 50.921,90.246 51.049,90.101 50.482 C 90.040 50.245,89.921 49.870,89.836 49.651 C 89.751 49.431,89.579 48.936,89.453 48.551 C 89.327 48.165,89.081 47.468,88.908 47.000 C 88.734 46.532,88.345 45.453,88.044 44.600 C 87.743 43.748,87.459 42.983,87.414 42.900 C 87.368 42.818,87.228 42.413,87.102 42.000 C 86.977 41.588,86.842 41.205,86.803 41.150 C 86.764 41.095,86.631 40.735,86.509 40.350 C 86.387 39.965,86.188 39.448,86.068 39.200 L 85.850 38.750 84.933 38.721 C 84.429 38.706,83.991 38.734,83.960 38.784 M98.599 38.800 C 98.599 38.855,98.599 42.005,98.599 45.800 C 98.599 49.595,98.599 52.745,98.599 52.800 C 98.600 52.865,100.417 52.900,103.850 52.900 L 109.100 52.900 109.100 52.150 L 109.100 51.400 104.919 51.400 C 101.731 51.400,100.698 51.370,100.567 51.275 C 100.413 51.162,100.399 50.921,100.423 48.800 L 100.450 46.450 104.267 46.400 C 106.366 46.373,108.114 46.319,108.152 46.282 C 108.208 46.226,108.237 45.499,108.207 44.925 C 108.201 44.827,107.372 44.800,104.412 44.800 C 101.317 44.800,100.604 44.775,100.510 44.662 C 100.430 44.566,100.404 43.893,100.423 42.437 L 100.450 40.350 104.600 40.300 L 108.750 40.250 108.780 39.559 C 108.801 39.074,108.771 38.843,108.680 38.785 C 108.487 38.663,98.600 38.677,98.599 38.800 M111.647 38.821 C 111.620 38.892,111.610 42.078,111.624 45.900 L 111.650 52.850 112.575 52.879 L 113.500 52.908 113.500 50.430 L 113.500 47.953 114.523 46.927 C 115.086 46.362,115.615 45.900,115.698 45.900 C 115.841 45.900,116.189 46.370,119.136 50.550 C 119.795 51.485,120.442 52.396,120.573 52.575 L 120.810 52.900 122.005 52.900 C 123.096 52.900,123.393 52.831,123.096 52.648 C 123.039 52.612,122.893 52.433,122.771 52.250 C 122.543 51.906,120.702 49.388,118.749 46.750 C 117.306 44.801,117.199 44.645,117.204 44.485 C 117.206 44.411,118.483 43.113,120.042 41.600 C 121.601 40.088,122.856 38.816,122.832 38.775 C 122.808 38.734,122.284 38.700,121.668 38.700 L 120.548 38.700 117.117 42.113 C 115.030 44.190,113.651 45.491,113.595 45.435 C 113.544 45.384,113.491 43.879,113.476 42.046 L 113.450 38.750 112.573 38.721 C 111.928 38.700,111.684 38.726,111.647 38.821 M318.850 38.921 C 318.820 39.047,318.807 42.233,318.822 46.000 L 318.850 52.850 319.776 52.879 L 320.701 52.908 320.676 45.829 L 320.650 38.750 319.778 38.721 C 318.941 38.693,318.904 38.702,318.850 38.921 M322.642 38.835 C 322.613 38.910,322.603 39.259,322.620 39.611 L 322.650 40.250 324.950 40.300 L 327.250 40.350 327.276 46.629 L 327.302 52.907 328.226 52.879 L 329.150 52.850 329.174 46.700 C 329.187 43.318,329.198 40.495,329.199 40.427 C 329.200 40.334,329.755 40.297,331.475 40.277 L 333.750 40.250 333.750 39.500 L 333.750 38.750 328.222 38.724 C 323.629 38.703,322.686 38.721,322.642 38.835 M338.232 38.825 C 338.188 38.894,338.102 39.085,338.042 39.250 C 337.825 39.842,336.976 42.054,336.890 42.250 C 336.842 42.360,336.684 42.765,336.539 43.150 C 336.019 44.537,335.815 45.075,335.210 46.650 C 334.873 47.530,334.557 48.340,334.510 48.450 C 334.395 48.717,334.169 49.300,333.852 50.150 C 333.708 50.535,333.520 51.030,333.433 51.250 C 333.347 51.470,333.243 51.740,333.202 51.850 C 333.161 51.960,333.054 52.220,332.964 52.428 C 332.874 52.637,332.800 52.829,332.800 52.857 C 332.800 52.884,333.254 52.894,333.808 52.878 L 334.816 52.850 334.994 52.350 C 335.309 51.463,335.990 49.564,336.177 49.050 L 336.359 48.550 339.291 48.550 L 342.222 48.550 342.370 48.950 C 342.451 49.170,342.578 49.508,342.653 49.700 C 342.728 49.893,342.977 50.545,343.207 51.150 C 343.437 51.755,343.689 52.396,343.767 52.575 L 343.909 52.900 344.955 52.900 C 345.994 52.900,346.179 52.831,345.911 52.545 C 345.862 52.493,345.564 51.820,345.249 51.050 C 343.862 47.664,343.566 46.938,342.801 45.050 C 342.355 43.950,341.948 42.960,341.895 42.850 C 341.842 42.740,341.466 41.827,341.059 40.822 C 340.652 39.817,340.265 38.928,340.197 38.847 C 340.037 38.654,338.353 38.635,338.232 38.825 M21.497 40.467 C 22.638 40.886,23.273 42.182,22.989 43.509 C 22.626 45.203,21.638 45.630,18.200 45.580 L 16.150 45.550 16.123 42.925 L 16.097 40.300 18.570 40.300 C 20.630 40.300,21.119 40.328,21.497 40.467 M35.091 40.474 C 36.839 41.018,37.319 43.390,35.888 44.409 C 35.139 44.942,34.749 45.000,31.926 45.000 L 29.300 45.000 29.300 42.717 C 29.300 41.461,29.330 40.403,29.367 40.367 C 29.531 40.202,34.519 40.296,35.091 40.474 M53.897 40.466 C 55.605 41.093,56.037 43.731,54.622 44.897 C 53.941 45.459,53.413 45.550,50.850 45.550 L 48.550 45.550 48.523 43.052 C 48.508 41.678,48.518 40.497,48.545 40.427 C 48.626 40.215,53.304 40.249,53.897 40.466 M67.537 40.475 C 68.967 40.963,69.581 42.662,68.769 43.889 C 68.125 44.862,67.574 45.000,64.326 45.000 L 61.700 45.000 61.700 42.717 C 61.700 41.461,61.730 40.403,61.767 40.367 C 61.933 40.201,67.011 40.296,67.537 40.475 M78.544 40.974 C 78.618 41.282,79.558 43.938,79.703 44.250 C 79.754 44.360,79.933 44.833,80.100 45.300 C 80.267 45.768,80.454 46.248,80.515 46.368 C 80.775 46.877,80.680 46.900,78.359 46.900 C 76.088 46.900,76.016 46.884,76.250 46.435 C 76.332 46.278,76.399 46.099,76.399 46.038 C 76.400 45.976,76.491 45.720,76.602 45.470 C 76.973 44.631,77.768 42.373,78.106 41.200 C 78.309 40.495,78.416 40.440,78.544 40.974 M339.400 40.905 C 339.400 41.011,339.507 41.380,339.637 41.724 C 339.768 42.068,339.997 42.688,340.145 43.100 C 340.438 43.912,340.478 44.019,341.097 45.625 C 341.325 46.216,341.484 46.745,341.450 46.800 C 341.377 46.919,337.137 46.940,337.064 46.822 C 337.020 46.751,337.192 46.195,337.488 45.450 C 337.554 45.285,337.724 44.835,337.866 44.450 C 338.008 44.065,338.164 43.660,338.212 43.550 C 338.366 43.203,338.900 41.568,338.900 41.443 C 338.900 41.378,338.969 41.160,339.053 40.958 C 339.209 40.585,339.400 40.556,339.400 40.905 M174.150 42.000 C 174.184 42.055,174.406 42.100,174.644 42.100 C 174.906 42.100,175.125 42.159,175.200 42.250 C 175.268 42.333,175.401 42.400,175.495 42.400 C 175.588 42.400,175.771 42.513,175.900 42.650 C 176.029 42.788,176.187 42.900,176.251 42.900 C 176.402 42.900,177.100 43.598,177.100 43.749 C 177.100 43.813,177.213 43.971,177.350 44.100 C 177.488 44.229,177.600 44.412,177.600 44.505 C 177.600 44.599,177.668 44.732,177.750 44.800 C 177.852 44.885,177.900 45.112,177.900 45.512 C 177.900 45.837,177.945 46.100,178.000 46.100 C 178.055 46.100,178.100 46.322,178.100 46.594 C 178.100 46.866,178.055 47.116,178.000 47.150 C 177.945 47.184,177.900 47.406,177.900 47.644 C 177.900 47.906,177.841 48.125,177.750 48.200 C 177.668 48.268,177.600 48.391,177.600 48.473 C 177.600 48.554,177.488 48.710,177.350 48.818 C 177.213 48.926,177.100 49.088,177.100 49.177 C 177.100 49.387,176.509 49.999,176.305 50.002 C 176.220 50.003,176.046 50.113,175.918 50.248 C 175.592 50.592,175.132 50.800,174.697 50.800 C 174.488 50.800,174.270 50.866,174.200 50.950 C 174.125 51.040,173.906 51.100,173.650 51.100 C 173.394 51.100,173.175 51.040,173.100 50.950 C 173.015 50.848,172.788 50.800,172.388 50.800 C 172.063 50.800,171.800 50.755,171.800 50.700 C 171.800 50.645,171.718 50.600,171.619 50.600 C 171.519 50.600,171.308 50.465,171.150 50.300 C 170.992 50.135,170.789 50.000,170.700 50.000 C 170.499 50.000,170.000 49.493,170.000 49.288 C 170.000 49.205,169.865 49.008,169.700 48.850 C 169.535 48.692,169.400 48.481,169.400 48.381 C 169.400 48.282,169.355 48.200,169.300 48.200 C 169.245 48.200,169.200 47.980,169.200 47.711 C 169.200 47.368,169.155 47.204,169.050 47.164 C 168.948 47.125,168.900 46.965,168.900 46.665 C 168.900 46.395,168.958 46.176,169.050 46.100 C 169.148 46.018,169.200 45.795,169.200 45.453 C 169.200 44.892,169.346 44.521,169.747 44.059 C 169.886 43.900,170.000 43.722,170.000 43.664 C 170.000 43.505,170.620 42.900,170.783 42.900 C 170.862 42.900,171.031 42.788,171.159 42.650 C 171.286 42.513,171.455 42.400,171.533 42.400 C 171.611 42.400,171.732 42.333,171.800 42.250 C 171.885 42.148,172.111 42.100,172.506 42.100 C 172.826 42.100,173.116 42.055,173.150 42.000 C 173.184 41.945,173.409 41.900,173.650 41.900 C 173.891 41.900,174.116 41.945,174.150 42.000 M226.836 55.150 C 226.924 55.239,227.169 55.300,227.432 55.300 C 227.737 55.300,227.897 55.348,227.936 55.450 C 227.968 55.533,228.077 55.600,228.179 55.600 C 228.282 55.600,228.471 55.713,228.600 55.850 C 228.729 55.988,228.904 56.100,228.988 56.100 C 229.194 56.100,229.800 56.699,229.800 56.902 C 229.800 56.992,229.913 57.171,230.050 57.300 C 230.188 57.429,230.300 57.612,230.300 57.705 C 230.300 57.799,230.368 57.932,230.450 58.000 C 230.549 58.082,230.600 58.306,230.600 58.656 C 230.600 58.949,230.645 59.216,230.700 59.250 C 230.755 59.284,230.800 59.534,230.800 59.806 C 230.800 60.078,230.755 60.300,230.700 60.300 C 230.645 60.300,230.600 60.497,230.600 60.738 C 230.600 61.005,230.542 61.224,230.450 61.300 C 230.368 61.368,230.300 61.501,230.300 61.595 C 230.300 61.688,230.188 61.871,230.050 62.000 C 229.913 62.129,229.800 62.304,229.800 62.388 C 229.800 62.594,229.201 63.200,228.998 63.200 C 228.908 63.200,228.729 63.313,228.600 63.450 C 228.471 63.588,228.282 63.700,228.179 63.700 C 228.077 63.700,227.968 63.767,227.936 63.850 C 227.897 63.952,227.737 64.000,227.432 64.000 C 227.169 64.000,226.924 64.061,226.836 64.150 C 226.753 64.233,226.535 64.300,226.350 64.300 C 226.165 64.300,225.947 64.233,225.864 64.150 C 225.768 64.053,225.520 64.000,225.169 64.000 C 224.807 64.000,224.583 63.950,224.500 63.850 C 224.432 63.767,224.299 63.700,224.205 63.700 C 224.112 63.700,223.929 63.588,223.800 63.450 C 223.671 63.313,223.519 63.200,223.462 63.200 C 223.322 63.200,222.700 62.588,222.700 62.449 C 222.700 62.388,222.565 62.208,222.400 62.050 C 222.235 61.892,222.100 61.684,222.100 61.587 C 222.100 61.491,222.055 61.384,222.000 61.350 C 221.945 61.316,221.900 61.094,221.900 60.856 C 221.900 60.594,221.841 60.375,221.750 60.300 C 221.660 60.225,221.600 60.006,221.600 59.750 C 221.600 59.494,221.660 59.275,221.750 59.200 C 221.849 59.118,221.900 58.894,221.900 58.544 C 221.900 58.251,221.945 57.984,222.000 57.950 C 222.055 57.916,222.100 57.809,222.100 57.713 C 222.100 57.616,222.235 57.408,222.400 57.250 C 222.565 57.092,222.700 56.917,222.700 56.861 C 222.700 56.721,223.313 56.100,223.452 56.100 C 223.514 56.100,223.671 55.988,223.800 55.850 C 223.929 55.713,224.112 55.600,224.205 55.600 C 224.299 55.600,224.432 55.533,224.500 55.450 C 224.583 55.350,224.807 55.300,225.169 55.300 C 225.520 55.300,225.768 55.247,225.864 55.150 C 225.947 55.067,226.165 55.000,226.350 55.000 C 226.535 55.000,226.753 55.067,226.836 55.150 M174.200 68.350 C 174.270 68.434,174.488 68.500,174.697 68.500 C 175.132 68.500,175.592 68.708,175.918 69.052 C 176.046 69.187,176.215 69.297,176.295 69.298 C 176.502 69.301,177.100 69.906,177.100 70.112 C 177.100 70.208,177.213 70.374,177.350 70.482 C 177.488 70.590,177.600 70.746,177.600 70.827 C 177.600 70.909,177.668 71.032,177.750 71.100 C 177.852 71.185,177.900 71.411,177.900 71.806 C 177.900 72.126,177.945 72.416,178.000 72.450 C 178.055 72.484,178.100 72.709,178.100 72.950 C 178.100 73.191,178.055 73.416,178.000 73.450 C 177.945 73.484,177.900 73.706,177.900 73.944 C 177.900 74.206,177.841 74.425,177.750 74.500 C 177.668 74.568,177.600 74.701,177.600 74.795 C 177.600 74.888,177.488 75.071,177.350 75.200 C 177.213 75.329,177.100 75.487,177.100 75.551 C 177.100 75.702,176.402 76.400,176.251 76.400 C 176.187 76.400,176.029 76.513,175.900 76.650 C 175.771 76.788,175.588 76.900,175.495 76.900 C 175.401 76.900,175.268 76.968,175.200 77.050 C 175.125 77.141,174.906 77.200,174.644 77.200 C 174.406 77.200,174.184 77.245,174.150 77.300 C 174.116 77.355,173.891 77.400,173.650 77.400 C 173.409 77.400,173.184 77.355,173.150 77.300 C 173.116 77.245,172.826 77.200,172.506 77.200 C 172.111 77.200,171.885 77.152,171.800 77.050 C 171.732 76.968,171.611 76.900,171.533 76.900 C 171.455 76.900,171.286 76.788,171.159 76.650 C 171.031 76.513,170.867 76.400,170.793 76.400 C 170.628 76.400,170.000 75.803,170.000 75.646 C 170.000 75.583,169.886 75.400,169.747 75.241 C 169.374 74.812,169.200 74.416,169.200 73.997 C 169.200 73.788,169.134 73.570,169.050 73.500 C 168.960 73.425,168.900 73.206,168.900 72.950 C 168.900 72.694,168.960 72.475,169.050 72.400 C 169.152 72.315,169.200 72.088,169.200 71.688 C 169.200 71.363,169.245 71.100,169.300 71.100 C 169.355 71.100,169.400 71.018,169.400 70.919 C 169.400 70.819,169.535 70.608,169.700 70.450 C 169.865 70.292,170.000 70.095,170.000 70.012 C 170.000 69.807,170.499 69.300,170.700 69.300 C 170.789 69.300,170.992 69.165,171.150 69.000 C 171.308 68.835,171.519 68.700,171.619 68.700 C 171.718 68.700,171.800 68.655,171.800 68.600 C 171.800 68.545,172.063 68.500,172.388 68.500 C 172.788 68.500,173.015 68.452,173.100 68.350 C 173.175 68.260,173.394 68.200,173.650 68.200 C 173.906 68.200,174.125 68.260,174.200 68.350 " stroke="none" fill="#000000" fill-rule="evenodd"></path></g></svg>
