<svg id="svg" xmlns="http://www.w3.org/2000/svg" xmlns:xlink="http://www.w3.org/1999/xlink" width="400" height="101" viewBox="0, 0, 400,101"><g id="svgg"><path id="path0" d="M103.300 1.291 C 101.725 1.866,100.806 2.604,100.265 3.730 C 99.749 4.803,99.600 5.163,99.600 5.340 C 99.600 5.486,96.545 5.500,63.875 5.501 C 44.226 5.502,28.050 5.529,27.929 5.562 C 27.275 5.737,27.300 5.337,27.300 15.456 L 27.300 24.600 14.550 24.600 L 1.800 24.600 1.800 50.800 L 1.800 77.000 14.550 77.000 L 27.300 77.000 27.300 86.260 C 27.300 95.459,27.301 95.521,27.507 95.809 L 27.713 96.100 63.628 96.125 L 99.543 96.150 99.640 96.500 C 99.694 96.692,99.769 96.873,99.806 96.900 C 99.844 96.928,99.908 97.101,99.948 97.286 C 99.988 97.470,100.128 97.780,100.260 97.975 C 100.392 98.169,100.500 98.370,100.500 98.420 C 100.500 98.536,101.556 99.600,101.670 99.600 C 101.716 99.600,101.919 99.713,102.121 99.850 C 102.324 99.988,102.548 100.100,102.620 100.101 C 102.691 100.101,102.885 100.179,103.050 100.274 C 103.430 100.493,105.905 100.536,105.975 100.325 C 105.998 100.256,106.086 100.200,106.171 100.200 C 107.143 100.200,109.300 98.039,109.300 97.064 C 109.300 96.980,109.346 96.884,109.402 96.849 C 109.458 96.814,109.479 96.747,109.450 96.700 C 109.421 96.653,109.442 96.586,109.498 96.551 C 109.554 96.516,109.600 96.401,109.600 96.294 C 109.600 96.102,109.922 96.100,136.524 96.125 L 163.449 96.150 163.600 96.700 C 163.936 97.923,165.184 99.693,165.718 99.702 C 165.790 99.703,165.963 99.792,166.100 99.900 C 166.238 100.008,166.418 100.097,166.500 100.098 C 166.583 100.100,166.785 100.176,166.950 100.267 C 167.406 100.520,169.249 100.576,169.762 100.353 C 171.964 99.398,172.776 98.567,173.285 96.750 L 173.453 96.150 200.377 96.125 C 226.978 96.100,227.300 96.102,227.300 96.294 C 227.300 96.401,227.340 96.513,227.390 96.544 C 227.439 96.574,227.534 96.836,227.601 97.125 C 227.668 97.414,227.778 97.695,227.847 97.750 C 227.915 97.806,228.006 97.961,228.048 98.095 C 228.239 98.696,229.777 99.991,230.485 100.147 C 230.659 100.185,230.940 100.285,231.108 100.369 C 231.471 100.550,233.419 100.518,233.750 100.325 C 233.860 100.261,234.288 100.051,234.700 99.859 C 235.920 99.290,236.731 98.216,237.274 96.450 L 237.367 96.150 264.254 96.150 L 291.141 96.150 291.269 96.600 C 291.398 97.050,291.528 97.375,291.732 97.750 C 291.792 97.860,291.921 98.106,292.021 98.297 C 292.222 98.685,293.084 99.600,293.248 99.600 C 293.306 99.600,293.519 99.713,293.721 99.850 C 293.924 99.988,294.148 100.100,294.220 100.101 C 294.291 100.101,294.485 100.176,294.650 100.267 C 295.107 100.520,296.950 100.576,297.462 100.352 C 297.676 100.259,298.120 100.063,298.450 99.917 C 299.648 99.384,300.600 98.179,301.030 96.650 L 301.171 96.150 337.150 96.125 C 363.547 96.106,373.166 96.070,373.265 95.988 C 373.377 95.895,373.400 94.244,373.400 86.453 L 373.400 77.031 374.766 76.969 C 375.518 76.935,376.179 76.861,376.236 76.804 C 376.293 76.747,376.481 76.700,376.652 76.700 C 377.088 76.700,378.828 76.396,378.950 76.299 C 379.005 76.255,379.343 76.163,379.700 76.095 C 380.058 76.027,380.395 75.940,380.450 75.902 C 380.505 75.864,380.820 75.752,381.150 75.653 C 381.480 75.554,381.795 75.442,381.850 75.404 C 381.905 75.367,382.153 75.275,382.400 75.200 C 382.648 75.125,383.007 74.985,383.200 74.888 C 383.393 74.792,384.045 74.476,384.650 74.185 C 385.255 73.895,385.963 73.509,386.224 73.329 C 386.485 73.148,386.726 73.000,386.759 73.000 C 386.793 73.000,387.021 72.865,387.266 72.700 C 387.510 72.535,387.751 72.400,387.801 72.400 C 387.852 72.400,387.941 72.310,388.000 72.200 C 388.059 72.090,388.162 71.999,388.229 71.997 C 388.295 71.996,388.710 71.681,389.150 71.298 C 389.590 70.915,390.040 70.560,390.150 70.509 C 390.384 70.401,392.362 68.425,392.533 68.128 C 392.598 68.017,392.943 67.578,393.300 67.152 C 393.658 66.726,393.983 66.291,394.023 66.186 C 394.063 66.081,394.164 65.969,394.248 65.937 C 394.331 65.905,394.400 65.835,394.400 65.782 C 394.400 65.729,394.535 65.490,394.700 65.250 C 394.865 65.010,395.000 64.788,395.000 64.756 C 395.000 64.724,395.148 64.485,395.328 64.224 C 395.650 63.759,396.543 61.992,396.806 61.300 C 396.879 61.108,396.967 60.928,397.001 60.900 C 397.035 60.873,397.145 60.580,397.245 60.250 C 397.345 59.920,397.458 59.605,397.496 59.550 C 397.533 59.495,397.625 59.248,397.700 59.000 C 397.775 58.752,397.866 58.505,397.904 58.450 C 397.941 58.395,398.052 57.945,398.152 57.450 C 398.251 56.955,398.368 56.503,398.412 56.445 C 398.455 56.388,398.543 55.915,398.606 55.395 C 398.670 54.875,398.745 54.383,398.774 54.300 C 398.803 54.218,398.818 53.986,398.806 53.785 C 398.795 53.585,398.834 53.391,398.893 53.354 C 399.041 53.263,399.041 48.437,398.893 48.346 C 398.834 48.310,398.796 48.138,398.807 47.965 C 398.818 47.792,398.804 47.583,398.775 47.500 C 398.745 47.418,398.670 46.925,398.606 46.405 C 398.543 45.885,398.454 45.412,398.409 45.355 C 398.363 45.297,398.269 44.935,398.200 44.550 C 398.131 44.165,398.035 43.801,397.988 43.741 C 397.940 43.681,397.930 43.603,397.965 43.568 C 398.000 43.533,397.985 43.447,397.932 43.377 C 397.879 43.307,397.775 43.048,397.700 42.800 C 397.625 42.553,397.534 42.305,397.497 42.250 C 397.461 42.195,397.354 41.903,397.260 41.600 C 397.077 41.009,397.008 40.854,396.146 39.100 C 395.481 37.745,395.322 37.451,395.037 37.050 C 394.919 36.885,394.724 36.573,394.603 36.357 C 394.482 36.140,394.117 35.637,393.791 35.239 C 393.466 34.841,393.200 34.464,393.200 34.400 C 393.200 34.256,389.444 30.500,389.300 30.500 C 389.242 30.500,388.795 30.185,388.307 29.800 C 387.819 29.415,387.378 29.100,387.328 29.100 C 387.277 29.100,387.059 28.966,386.843 28.803 C 386.627 28.639,386.412 28.504,386.365 28.503 C 386.319 28.501,386.155 28.410,386.001 28.301 C 385.681 28.073,383.764 27.100,383.635 27.100 C 383.588 27.100,383.348 27.004,383.100 26.886 C 382.415 26.559,382.088 26.426,381.650 26.298 C 381.430 26.233,381.070 26.098,380.850 25.999 C 380.630 25.899,380.248 25.786,380.000 25.747 C 379.753 25.709,379.505 25.643,379.450 25.601 C 379.395 25.560,378.900 25.447,378.350 25.352 C 377.800 25.256,377.260 25.141,377.150 25.095 C 376.932 25.006,375.012 24.805,374.050 24.771 L 373.450 24.750 373.400 15.350 C 373.363 8.387,373.319 5.898,373.232 5.750 C 373.115 5.551,372.981 5.550,337.132 5.500 C 313.227 5.467,301.156 5.416,301.166 5.350 C 301.176 5.295,301.148 5.205,301.105 5.150 C 301.063 5.095,300.996 4.917,300.957 4.754 C 300.738 3.842,299.630 2.200,299.234 2.200 C 299.166 2.200,299.074 2.144,299.030 2.075 C 298.923 1.908,297.915 1.418,297.515 1.338 C 297.339 1.303,297.172 1.235,297.142 1.187 C 297.070 1.070,295.227 1.075,295.155 1.192 C 295.123 1.243,294.959 1.315,294.789 1.353 C 293.255 1.689,291.536 3.520,291.246 5.125 L 291.178 5.500 264.239 5.500 C 239.619 5.500,237.300 5.486,237.300 5.340 C 237.300 5.172,237.187 4.890,236.667 3.763 C 236.175 2.695,234.824 1.597,233.701 1.350 C 233.537 1.314,233.377 1.243,233.345 1.192 C 233.273 1.075,231.430 1.070,231.358 1.187 C 231.328 1.235,231.157 1.303,230.977 1.337 C 229.502 1.623,227.816 3.298,227.544 4.748 C 227.507 4.942,227.438 5.100,227.389 5.100 C 227.340 5.100,227.300 5.190,227.300 5.300 C 227.300 5.500,227.250 5.500,200.381 5.475 L 173.462 5.450 173.293 4.900 C 172.921 3.688,172.171 2.533,171.515 2.163 C 171.405 2.101,171.104 1.926,170.846 1.776 C 170.588 1.625,170.191 1.448,169.963 1.384 C 169.736 1.319,169.507 1.229,169.455 1.183 C 169.320 1.065,167.524 1.080,167.450 1.200 C 167.416 1.255,167.316 1.300,167.228 1.300 C 167.084 1.300,166.009 1.800,165.429 2.136 C 164.731 2.541,163.730 4.131,163.547 5.125 L 163.478 5.500 136.539 5.500 C 110.483 5.500,109.600 5.494,109.600 5.317 C 109.600 5.216,109.566 5.100,109.525 5.058 C 109.484 5.017,109.446 4.953,109.441 4.917 C 109.424 4.781,109.275 4.432,108.937 3.730 C 108.400 2.618,107.062 1.552,105.938 1.341 C 105.751 1.306,105.573 1.237,105.543 1.189 C 105.449 1.037,103.787 1.113,103.300 1.291 M99.651 7.107 C 99.689 7.275,99.782 7.534,99.859 7.682 C 99.936 7.829,99.999 8.004,99.999 8.071 C 100.000 8.137,100.112 8.357,100.250 8.560 C 100.387 8.762,100.500 8.980,100.500 9.043 C 100.500 9.214,101.405 10.072,101.803 10.279 C 101.994 10.379,102.240 10.508,102.350 10.568 C 102.725 10.772,103.050 10.902,103.500 11.031 L 103.950 11.159 103.950 17.954 L 103.950 24.750 103.450 24.772 C 102.439 24.817,100.544 25.014,100.350 25.095 C 100.240 25.140,99.700 25.256,99.150 25.352 C 98.600 25.447,98.105 25.560,98.050 25.602 C 97.995 25.644,97.680 25.732,97.350 25.798 C 97.020 25.864,96.660 25.974,96.550 26.042 C 96.440 26.110,96.125 26.225,95.850 26.299 C 95.575 26.373,95.261 26.493,95.153 26.567 C 95.044 26.640,94.890 26.700,94.810 26.700 C 94.454 26.700,91.403 28.297,90.276 29.073 C 90.015 29.253,89.777 29.400,89.746 29.400 C 89.715 29.400,89.379 29.648,89.000 29.950 C 88.621 30.252,88.286 30.500,88.255 30.500 C 88.225 30.500,88.025 30.680,87.812 30.900 C 87.598 31.120,87.382 31.300,87.331 31.300 C 87.225 31.300,85.208 33.357,84.731 33.952 C 83.424 35.580,83.100 35.998,83.100 36.050 C 83.100 36.084,82.892 36.434,82.638 36.830 C 82.383 37.226,82.105 37.663,82.018 37.800 C 81.692 38.319,80.743 40.268,80.605 40.700 C 80.526 40.948,80.403 41.239,80.331 41.347 C 80.259 41.456,80.200 41.599,80.200 41.666 C 80.200 41.732,80.146 41.914,80.080 42.068 C 80.015 42.223,79.956 42.395,79.951 42.450 C 79.945 42.505,79.888 42.646,79.824 42.762 C 79.759 42.879,79.677 43.161,79.640 43.387 C 79.604 43.614,79.542 43.800,79.501 43.800 C 79.461 43.800,79.370 44.139,79.299 44.553 C 79.229 44.967,79.134 45.329,79.090 45.356 C 79.045 45.384,79.034 45.473,79.066 45.554 C 79.097 45.636,79.077 45.758,79.021 45.826 C 78.965 45.894,78.863 46.490,78.795 47.150 C 78.726 47.810,78.631 48.401,78.583 48.463 C 78.469 48.610,78.469 53.190,78.583 53.337 C 78.631 53.399,78.726 53.990,78.795 54.650 C 78.863 55.310,78.952 55.895,78.993 55.950 C 79.034 56.005,79.149 56.455,79.248 56.950 C 79.348 57.445,79.461 57.895,79.501 57.950 C 79.541 58.005,79.606 58.230,79.644 58.450 C 79.683 58.670,79.780 58.951,79.860 59.075 C 79.939 59.199,79.976 59.300,79.940 59.300 C 79.905 59.300,79.921 59.356,79.976 59.425 C 80.032 59.494,80.109 59.708,80.148 59.900 C 80.188 60.093,80.276 60.340,80.345 60.450 C 80.413 60.560,80.529 60.830,80.600 61.050 C 80.761 61.542,82.151 64.280,82.353 64.504 C 82.434 64.593,82.500 64.720,82.500 64.786 C 82.500 64.852,82.568 64.932,82.650 64.964 C 82.733 64.995,82.800 65.081,82.800 65.153 C 82.800 65.225,82.958 65.491,83.150 65.743 C 83.343 65.995,83.500 66.227,83.500 66.259 C 83.500 66.700,88.803 72.000,89.245 72.000 C 89.279 72.000,89.534 72.180,89.812 72.400 C 90.090 72.620,90.362 72.800,90.415 72.800 C 90.468 72.800,90.790 72.992,91.131 73.226 C 91.851 73.721,93.503 74.554,94.650 75.000 C 95.090 75.171,95.540 75.350,95.650 75.398 C 95.760 75.446,96.098 75.562,96.400 75.656 C 96.703 75.750,96.995 75.860,97.050 75.900 C 97.105 75.941,97.465 76.031,97.850 76.100 C 98.235 76.169,98.595 76.261,98.650 76.302 C 98.782 76.402,99.687 76.577,100.500 76.660 C 100.858 76.696,101.201 76.766,101.264 76.816 C 101.326 76.865,101.967 76.934,102.689 76.968 L 104.000 77.031 104.000 83.765 C 104.000 90.365,103.996 90.500,103.806 90.500 C 103.699 90.500,103.586 90.542,103.555 90.592 C 103.523 90.643,103.353 90.716,103.177 90.755 C 101.873 91.042,99.900 92.923,99.900 93.880 C 99.900 93.933,99.833 94.106,99.751 94.264 C 99.668 94.421,99.601 94.629,99.601 94.725 C 99.600 94.891,97.843 94.900,64.100 94.900 L 28.600 94.900 28.600 85.950 L 28.600 77.001 41.375 76.975 L 54.150 76.950 54.150 50.800 L 54.150 24.650 41.375 24.625 L 28.600 24.599 28.600 15.700 L 28.600 6.800 64.092 6.800 L 99.584 6.800 99.651 7.107 M163.582 7.275 C 164.053 9.093,165.497 10.547,167.282 11.005 L 167.800 11.138 167.800 17.969 L 167.800 24.800 167.104 24.800 C 166.203 24.800,164.378 25.001,164.255 25.113 C 164.203 25.161,164.040 25.200,163.892 25.200 C 163.585 25.200,162.248 25.474,161.950 25.598 C 161.840 25.644,161.480 25.749,161.150 25.832 C 160.470 26.003,159.437 26.354,159.174 26.503 C 159.077 26.558,158.784 26.675,158.524 26.762 C 157.661 27.050,155.267 28.279,154.632 28.759 C 154.457 28.892,154.270 29.000,154.217 29.000 C 154.164 29.000,153.804 29.247,153.418 29.550 C 153.031 29.852,152.682 30.100,152.643 30.100 C 152.309 30.100,147.800 34.584,147.800 34.917 C 147.800 34.964,147.530 35.343,147.200 35.758 C 146.870 36.173,146.599 36.566,146.597 36.632 C 146.596 36.697,146.461 36.927,146.297 37.143 C 146.134 37.359,146.000 37.593,146.000 37.663 C 146.000 37.733,145.944 37.826,145.875 37.870 C 145.721 37.969,144.600 40.223,144.600 40.435 C 144.600 40.519,144.558 40.614,144.508 40.645 C 144.457 40.677,144.338 40.938,144.244 41.226 C 144.150 41.514,144.041 41.795,144.001 41.850 C 143.960 41.905,143.899 42.072,143.863 42.221 C 143.827 42.369,143.751 42.617,143.692 42.771 C 143.634 42.924,143.600 43.054,143.618 43.060 C 143.636 43.065,143.600 43.132,143.538 43.210 C 143.477 43.287,143.369 43.665,143.300 44.050 C 143.231 44.435,143.139 44.795,143.098 44.850 C 142.998 44.982,142.823 45.887,142.740 46.700 C 142.704 47.058,142.632 47.403,142.581 47.467 C 142.330 47.785,142.339 53.979,142.591 54.231 C 142.651 54.291,142.700 54.481,142.700 54.652 C 142.700 55.076,143.003 56.826,143.097 56.950 C 143.139 57.005,143.231 57.365,143.300 57.750 C 143.369 58.135,143.471 58.506,143.525 58.575 C 143.580 58.644,143.594 58.700,143.557 58.700 C 143.519 58.700,143.559 58.800,143.644 58.922 C 143.730 59.044,143.800 59.206,143.800 59.282 C 143.800 59.358,143.864 59.562,143.943 59.735 C 144.022 59.908,144.156 60.263,144.242 60.524 C 144.327 60.784,144.437 61.077,144.487 61.174 C 144.536 61.271,144.863 61.924,145.213 62.626 C 145.996 64.195,146.052 64.296,146.577 65.082 C 146.810 65.430,147.000 65.734,147.000 65.759 C 147.000 65.812,148.001 67.113,148.673 67.932 C 149.235 68.618,151.490 70.826,151.880 71.072 C 152.028 71.166,152.473 71.503,152.867 71.821 C 153.262 72.140,153.607 72.400,153.635 72.400 C 153.663 72.400,153.970 72.590,154.318 72.823 C 155.103 73.348,155.204 73.404,156.774 74.187 C 158.541 75.069,158.498 75.049,159.000 75.201 C 159.248 75.275,159.495 75.367,159.550 75.404 C 159.605 75.442,159.920 75.554,160.250 75.653 C 160.580 75.752,160.895 75.866,160.950 75.906 C 161.005 75.946,161.320 76.031,161.650 76.094 C 161.980 76.158,162.340 76.253,162.450 76.304 C 162.699 76.421,164.316 76.700,164.743 76.700 C 164.917 76.700,165.107 76.747,165.165 76.805 C 165.223 76.863,165.840 76.938,166.535 76.971 L 167.800 77.030 167.800 83.741 L 167.800 90.451 167.525 90.566 C 167.374 90.629,167.070 90.736,166.850 90.804 C 165.286 91.285,164.075 92.611,163.569 94.400 L 163.441 94.850 136.521 94.875 C 110.464 94.900,109.600 94.894,109.600 94.717 C 109.600 94.616,109.566 94.500,109.525 94.458 C 109.484 94.417,109.446 94.353,109.441 94.317 C 109.424 94.184,109.278 93.836,108.947 93.139 C 108.434 92.058,107.135 90.999,106.023 90.755 C 105.847 90.716,105.677 90.643,105.645 90.592 C 105.614 90.542,105.501 90.500,105.394 90.500 C 105.204 90.500,105.200 90.365,105.200 83.765 L 105.200 77.031 106.566 76.969 C 107.318 76.935,107.979 76.861,108.036 76.804 C 108.093 76.747,108.281 76.700,108.452 76.700 C 108.888 76.700,110.628 76.396,110.750 76.299 C 110.805 76.255,111.142 76.163,111.500 76.095 C 111.858 76.027,112.195 75.940,112.250 75.902 C 112.305 75.864,112.620 75.752,112.950 75.653 C 113.280 75.554,113.595 75.442,113.650 75.404 C 113.705 75.367,113.953 75.275,114.200 75.201 C 114.447 75.126,114.763 75.009,114.900 74.940 C 115.038 74.872,115.690 74.555,116.350 74.237 C 117.010 73.919,117.763 73.511,118.024 73.330 C 118.285 73.148,118.526 73.000,118.559 73.000 C 118.593 73.000,118.821 72.865,119.066 72.700 C 119.310 72.535,119.551 72.400,119.601 72.400 C 119.652 72.400,119.741 72.310,119.800 72.200 C 119.859 72.090,119.962 71.999,120.029 71.997 C 120.095 71.996,120.510 71.681,120.950 71.298 C 121.390 70.915,121.840 70.560,121.950 70.509 C 122.184 70.401,124.162 68.425,124.333 68.128 C 124.398 68.017,124.743 67.578,125.100 67.152 C 125.458 66.726,125.782 66.292,125.822 66.189 C 125.861 66.085,125.941 66.000,126.000 66.000 C 126.058 66.000,126.135 65.921,126.170 65.825 C 126.205 65.729,126.361 65.462,126.517 65.232 C 126.673 65.002,126.800 64.768,126.800 64.712 C 126.800 64.656,126.856 64.574,126.925 64.530 C 127.075 64.434,127.203 64.208,127.985 62.650 C 128.317 61.990,128.618 61.326,128.655 61.175 C 128.692 61.024,128.752 60.900,128.789 60.900 C 128.826 60.900,128.918 60.686,128.993 60.425 C 129.068 60.164,129.173 59.894,129.227 59.825 C 129.281 59.756,129.291 59.700,129.250 59.700 C 129.209 59.700,129.218 59.644,129.270 59.575 C 129.322 59.506,129.425 59.248,129.500 59.000 C 129.575 58.752,129.666 58.505,129.704 58.450 C 129.741 58.395,129.852 57.945,129.952 57.450 C 130.051 56.955,130.168 56.503,130.212 56.445 C 130.255 56.388,130.343 55.915,130.406 55.395 C 130.469 54.875,130.563 54.360,130.614 54.250 C 130.665 54.140,130.711 53.915,130.715 53.750 C 130.780 51.403,130.792 48.529,130.739 48.406 C 130.701 48.320,130.681 48.142,130.694 48.010 C 130.707 47.879,130.674 47.676,130.619 47.560 C 130.565 47.445,130.469 46.925,130.406 46.405 C 130.343 45.885,130.254 45.412,130.209 45.355 C 130.165 45.297,130.047 44.823,129.948 44.300 C 129.850 43.778,129.740 43.328,129.705 43.300 C 129.670 43.273,129.579 43.048,129.503 42.800 C 129.426 42.553,129.334 42.305,129.297 42.250 C 129.261 42.195,129.154 41.903,129.061 41.600 C 128.859 40.944,128.801 40.813,128.008 39.200 C 127.339 37.841,127.286 37.744,126.891 37.150 C 126.744 36.930,126.525 36.573,126.403 36.357 C 126.282 36.140,125.917 35.637,125.591 35.239 C 125.266 34.841,125.000 34.464,125.000 34.400 C 125.000 34.256,121.244 30.500,121.100 30.500 C 121.042 30.500,120.595 30.185,120.107 29.800 C 119.619 29.415,119.178 29.100,119.128 29.100 C 119.077 29.100,118.859 28.966,118.643 28.803 C 118.427 28.639,118.212 28.504,118.165 28.503 C 118.119 28.501,117.959 28.414,117.811 28.308 C 117.397 28.013,115.212 26.937,114.652 26.752 C 114.379 26.661,114.109 26.549,114.052 26.503 C 113.996 26.457,113.748 26.367,113.500 26.303 C 113.253 26.238,112.870 26.103,112.650 26.001 C 112.430 25.900,112.047 25.786,111.800 25.747 C 111.553 25.709,111.305 25.643,111.250 25.601 C 111.195 25.560,110.700 25.447,110.150 25.352 C 109.600 25.256,109.060 25.141,108.950 25.095 C 108.732 25.006,106.812 24.805,105.850 24.771 L 105.250 24.750 105.250 17.954 L 105.250 11.159 105.700 11.029 C 106.479 10.805,107.632 10.178,108.122 9.712 C 108.575 9.282,109.343 7.924,109.459 7.350 C 109.470 7.295,109.511 7.149,109.551 7.025 L 109.623 6.800 136.541 6.800 L 163.459 6.800 163.582 7.275 M227.368 7.075 C 227.433 7.226,227.544 7.553,227.615 7.800 C 227.686 8.047,227.846 8.403,227.972 8.589 C 228.097 8.775,228.200 8.980,228.200 9.043 C 228.200 9.214,229.105 10.072,229.503 10.279 C 229.694 10.379,229.940 10.510,230.050 10.571 C 230.442 10.791,230.956 10.985,231.326 11.053 L 231.701 11.123 231.676 17.936 L 231.650 24.750 231.150 24.772 C 230.139 24.817,228.244 25.014,228.050 25.095 C 227.940 25.140,227.400 25.256,226.850 25.352 C 226.300 25.447,225.805 25.560,225.750 25.602 C 225.695 25.644,225.380 25.732,225.050 25.798 C 224.720 25.864,224.360 25.974,224.250 26.042 C 224.140 26.110,223.825 26.225,223.550 26.299 C 223.275 26.373,222.961 26.493,222.853 26.567 C 222.744 26.640,222.591 26.700,222.512 26.700 C 222.314 26.700,219.545 28.065,219.032 28.415 C 218.802 28.572,218.590 28.700,218.561 28.700 C 218.358 28.700,215.863 30.552,215.408 31.040 C 215.274 31.183,215.117 31.300,215.059 31.300 C 214.917 31.300,212.800 33.416,212.800 33.558 C 212.800 33.619,212.704 33.755,212.587 33.860 C 212.097 34.299,210.200 36.846,210.200 37.065 C 210.200 37.092,210.071 37.302,209.914 37.532 C 209.544 38.073,208.200 40.811,208.200 41.025 C 208.200 41.115,208.158 41.214,208.107 41.246 C 208.055 41.278,207.942 41.562,207.854 41.877 C 207.766 42.192,207.630 42.567,207.551 42.709 C 207.472 42.852,207.377 43.156,207.341 43.386 C 207.304 43.616,207.234 43.829,207.185 43.859 C 207.137 43.889,207.124 43.958,207.157 44.011 C 207.190 44.065,207.174 44.163,207.122 44.229 C 207.069 44.296,206.969 44.665,206.900 45.050 C 206.831 45.435,206.740 45.795,206.698 45.850 C 206.574 46.015,206.300 48.730,206.300 49.801 C 206.300 50.511,206.265 50.800,206.180 50.800 C 206.087 50.800,206.087 50.827,206.180 50.920 C 206.257 50.997,206.300 51.394,206.300 52.035 C 206.300 53.112,206.557 55.625,206.701 55.950 C 206.749 56.060,206.844 56.420,206.911 56.750 C 206.978 57.080,207.074 57.404,207.125 57.471 C 207.176 57.537,207.187 57.640,207.150 57.700 C 207.113 57.760,207.126 57.863,207.178 57.929 C 207.231 57.996,207.303 58.208,207.338 58.400 C 207.372 58.593,207.464 58.871,207.542 59.020 C 207.619 59.168,207.758 59.551,207.851 59.870 C 207.943 60.189,208.054 60.495,208.097 60.550 C 208.140 60.605,208.208 60.763,208.247 60.900 C 208.392 61.405,209.643 63.868,210.065 64.480 C 210.304 64.826,210.500 65.148,210.500 65.194 C 210.500 65.241,210.738 65.588,211.030 65.965 C 211.321 66.342,211.586 66.718,211.619 66.800 C 211.841 67.365,216.106 71.600,216.452 71.600 C 216.497 71.600,216.604 71.669,216.692 71.754 C 217.006 72.059,218.027 72.800,218.137 72.803 C 218.199 72.804,218.427 72.939,218.643 73.103 C 218.859 73.266,219.093 73.400,219.163 73.400 C 219.233 73.400,219.326 73.456,219.370 73.525 C 219.469 73.679,221.723 74.800,221.935 74.800 C 222.019 74.800,222.114 74.842,222.145 74.893 C 222.177 74.944,222.371 75.039,222.576 75.105 C 222.782 75.170,223.085 75.282,223.250 75.353 C 223.415 75.424,223.798 75.560,224.100 75.654 C 224.403 75.749,224.695 75.860,224.750 75.900 C 224.805 75.941,225.165 76.031,225.550 76.100 C 225.935 76.169,226.295 76.261,226.350 76.302 C 226.482 76.402,227.387 76.577,228.200 76.660 C 228.558 76.696,228.901 76.766,228.964 76.816 C 229.026 76.865,229.667 76.934,230.389 76.968 L 231.700 77.031 231.700 83.765 C 231.700 90.365,231.696 90.500,231.506 90.500 C 231.399 90.500,231.286 90.542,231.255 90.592 C 231.223 90.643,231.053 90.716,230.877 90.755 C 229.453 91.068,227.867 92.655,227.554 94.080 C 227.516 94.255,227.443 94.423,227.392 94.455 C 227.342 94.486,227.300 94.599,227.300 94.706 C 227.300 94.898,226.978 94.900,200.376 94.875 L 173.451 94.850 173.296 94.300 C 172.790 92.505,171.542 91.201,169.900 90.751 C 169.763 90.713,169.526 90.630,169.375 90.567 L 169.100 90.451 169.100 83.741 L 169.100 77.031 170.460 76.969 C 171.208 76.936,171.872 76.867,171.935 76.817 C 171.998 76.767,172.343 76.696,172.700 76.660 C 173.463 76.582,174.408 76.397,174.550 76.297 C 174.605 76.258,174.965 76.169,175.350 76.100 C 175.735 76.031,176.095 75.941,176.150 75.900 C 176.205 75.860,176.498 75.749,176.800 75.654 C 177.103 75.560,177.492 75.419,177.665 75.341 C 177.838 75.264,178.015 75.200,178.059 75.200 C 178.102 75.200,178.320 75.116,178.543 75.013 C 178.767 74.910,179.108 74.767,179.300 74.694 C 179.493 74.621,179.673 74.535,179.700 74.503 C 179.728 74.471,179.953 74.357,180.200 74.250 C 180.447 74.143,180.853 73.931,181.100 73.780 C 181.347 73.628,181.654 73.458,181.782 73.402 C 181.909 73.346,182.161 73.187,182.341 73.050 C 182.521 72.912,182.718 72.800,182.778 72.800 C 182.838 72.800,183.227 72.530,183.642 72.200 C 184.057 71.870,184.427 71.600,184.463 71.600 C 184.796 71.600,189.066 67.347,189.281 66.800 C 189.314 66.718,189.579 66.342,189.870 65.965 C 190.162 65.588,190.400 65.236,190.400 65.183 C 190.400 65.130,190.508 64.943,190.640 64.768 C 191.109 64.146,192.372 61.715,192.597 61.000 C 192.675 60.752,192.820 60.393,192.919 60.201 C 193.019 60.010,193.100 59.794,193.100 59.721 C 193.100 59.648,193.190 59.392,193.300 59.151 C 193.410 58.909,193.547 58.473,193.606 58.181 C 193.664 57.889,193.752 57.560,193.801 57.450 C 193.850 57.340,193.942 56.980,194.006 56.650 C 194.069 56.320,194.167 55.994,194.223 55.925 C 194.279 55.856,194.299 55.671,194.268 55.514 C 194.236 55.357,194.248 55.189,194.292 55.140 C 194.668 54.727,194.697 47.585,194.327 46.600 C 194.296 46.518,194.280 46.346,194.293 46.220 C 194.305 46.093,194.272 45.936,194.219 45.870 C 194.167 45.804,194.066 45.424,193.996 45.025 C 193.925 44.626,193.838 44.300,193.801 44.300 C 193.765 44.300,193.679 43.996,193.611 43.625 C 193.543 43.254,193.425 42.853,193.348 42.734 C 193.271 42.616,193.153 42.301,193.087 42.034 C 193.021 41.768,192.912 41.460,192.845 41.350 C 192.777 41.240,192.665 40.970,192.596 40.750 C 192.445 40.275,191.223 37.853,190.915 37.421 C 190.797 37.255,190.700 37.094,190.700 37.063 C 190.700 37.032,190.509 36.733,190.275 36.398 C 190.041 36.064,189.805 35.715,189.750 35.622 C 189.584 35.344,188.540 34.064,188.313 33.860 C 188.196 33.755,188.100 33.623,188.100 33.567 C 188.100 33.455,185.961 31.300,185.850 31.300 C 185.812 31.300,185.513 31.057,185.184 30.759 C 184.855 30.462,184.331 30.043,184.018 29.828 C 183.706 29.613,183.214 29.272,182.926 29.069 C 182.638 28.866,182.376 28.700,182.344 28.700 C 182.312 28.700,182.098 28.573,181.868 28.419 C 181.397 28.102,178.884 26.856,178.500 26.749 C 178.363 26.710,178.160 26.624,178.050 26.556 C 177.940 26.488,177.632 26.379,177.366 26.313 C 177.099 26.247,176.784 26.130,176.666 26.054 C 176.547 25.978,176.158 25.861,175.800 25.793 C 175.442 25.726,175.105 25.636,175.049 25.593 C 174.994 25.551,174.521 25.439,173.999 25.346 C 173.477 25.253,172.960 25.140,172.850 25.096 C 172.564 24.981,170.725 24.800,169.846 24.800 L 169.100 24.800 169.100 17.969 L 169.100 11.138 169.593 11.011 C 171.384 10.552,172.850 9.093,173.306 7.315 L 173.438 6.800 200.344 6.800 L 227.251 6.800 227.368 7.075 M291.295 7.318 C 291.594 8.484,292.583 9.881,293.400 10.291 C 293.593 10.387,293.908 10.557,294.100 10.668 C 294.293 10.778,294.687 10.929,294.975 11.003 L 295.500 11.138 295.500 17.969 L 295.500 24.800 294.794 24.800 C 293.976 24.800,292.242 24.982,291.950 25.098 C 291.840 25.142,291.300 25.256,290.750 25.352 C 290.200 25.447,289.705 25.560,289.650 25.601 C 289.595 25.643,289.348 25.709,289.100 25.747 C 288.853 25.786,288.470 25.900,288.250 26.001 C 288.030 26.103,287.647 26.238,287.400 26.303 C 287.153 26.367,286.904 26.457,286.848 26.503 C 286.791 26.549,286.521 26.661,286.248 26.751 C 285.577 26.972,284.252 27.628,283.119 28.299 C 282.608 28.602,282.053 28.925,281.887 29.016 C 281.721 29.107,281.323 29.388,281.001 29.641 C 280.680 29.893,280.379 30.100,280.333 30.100 C 280.286 30.100,280.192 30.190,280.123 30.300 C 280.055 30.410,279.931 30.500,279.848 30.500 C 279.633 30.500,276.114 34.042,275.676 34.700 C 275.474 35.002,275.128 35.475,274.906 35.750 C 274.684 36.025,274.502 36.288,274.501 36.334 C 274.500 36.380,274.330 36.673,274.122 36.984 C 273.583 37.792,273.567 37.820,272.890 39.200 C 272.106 40.798,272.033 40.962,271.879 41.475 C 271.809 41.709,271.712 41.900,271.665 41.900 C 271.617 41.900,271.604 41.966,271.635 42.047 C 271.666 42.128,271.648 42.220,271.596 42.253 C 271.543 42.285,271.500 42.377,271.500 42.457 C 271.500 42.537,271.413 42.793,271.307 43.026 C 271.201 43.259,271.063 43.720,271.001 44.050 C 270.939 44.380,270.861 44.718,270.828 44.800 C 270.795 44.883,270.778 45.010,270.790 45.082 C 270.802 45.155,270.763 45.275,270.702 45.348 C 270.641 45.421,270.545 45.901,270.487 46.415 C 270.429 46.929,270.336 47.447,270.279 47.565 C 270.033 48.083,270.032 53.711,270.278 54.235 C 270.334 54.353,270.431 54.875,270.494 55.395 C 270.557 55.915,270.656 56.397,270.713 56.466 C 270.770 56.535,270.787 56.640,270.750 56.700 C 270.713 56.760,270.725 56.863,270.777 56.929 C 270.829 56.996,270.927 57.343,270.995 57.700 C 271.063 58.058,271.151 58.395,271.191 58.450 C 271.231 58.505,271.325 58.752,271.400 59.000 C 271.474 59.248,271.561 59.495,271.591 59.550 C 271.622 59.605,271.652 59.673,271.657 59.700 C 271.663 59.727,271.701 59.840,271.743 59.950 C 271.785 60.060,271.865 60.285,271.922 60.450 C 272.090 60.935,272.384 61.578,272.985 62.773 C 273.850 64.493,273.910 64.600,274.008 64.600 C 274.059 64.600,274.100 64.648,274.100 64.707 C 274.100 64.766,274.235 65.010,274.400 65.250 C 274.565 65.490,274.700 65.714,274.700 65.749 C 274.700 65.834,276.225 67.713,276.435 67.887 C 276.526 67.963,276.600 68.075,276.600 68.136 C 276.600 68.283,278.814 70.500,278.961 70.500 C 279.024 70.500,279.137 70.574,279.213 70.665 C 279.372 70.857,281.263 72.400,281.339 72.400 C 281.367 72.400,281.590 72.535,281.834 72.700 C 282.079 72.865,282.329 73.000,282.390 73.000 C 282.450 73.000,282.500 73.041,282.500 73.092 C 282.500 73.196,282.686 73.299,284.472 74.183 C 285.175 74.532,285.863 74.873,286.000 74.941 C 286.137 75.009,286.453 75.126,286.700 75.201 C 286.947 75.275,287.195 75.367,287.250 75.404 C 287.305 75.442,287.620 75.554,287.950 75.653 C 288.280 75.752,288.595 75.864,288.650 75.901 C 288.705 75.939,289.043 76.029,289.400 76.100 C 289.757 76.171,290.095 76.263,290.150 76.304 C 290.276 76.398,292.029 76.700,292.448 76.700 C 292.619 76.700,292.806 76.746,292.861 76.801 C 292.917 76.857,293.533 76.931,294.231 76.967 L 295.500 77.031 295.500 83.754 C 295.500 90.067,295.489 90.480,295.325 90.536 C 295.229 90.568,294.896 90.680,294.585 90.784 C 294.275 90.887,293.811 91.113,293.555 91.286 C 293.299 91.459,293.057 91.600,293.016 91.600 C 292.647 91.600,291.403 93.656,291.246 94.525 L 291.178 94.900 264.248 94.900 L 237.318 94.900 237.250 94.500 C 237.213 94.280,237.141 94.100,237.091 94.100 C 237.041 94.100,237.000 94.030,237.000 93.944 C 237.000 92.982,235.343 91.272,233.997 90.845 C 233.696 90.749,233.407 90.633,233.355 90.586 C 233.303 90.538,233.179 90.500,233.079 90.500 C 232.907 90.500,232.900 90.203,232.924 83.775 L 232.950 77.050 234.295 76.975 C 235.034 76.934,235.685 76.855,235.740 76.800 C 235.795 76.745,235.983 76.700,236.157 76.700 C 236.584 76.700,238.201 76.421,238.450 76.304 C 238.560 76.253,238.920 76.158,239.250 76.094 C 239.580 76.031,239.895 75.946,239.950 75.906 C 240.005 75.866,240.320 75.752,240.650 75.653 C 240.980 75.554,241.295 75.442,241.350 75.404 C 241.405 75.367,241.653 75.275,241.900 75.201 C 242.148 75.126,242.463 75.009,242.600 74.941 C 242.738 74.873,243.426 74.532,244.129 74.183 C 245.665 73.423,245.775 73.362,246.582 72.823 C 246.930 72.590,247.236 72.400,247.262 72.400 C 247.336 72.400,248.912 71.140,249.261 70.801 C 249.432 70.636,249.611 70.500,249.659 70.500 C 249.776 70.500,252.000 68.279,252.000 68.162 C 252.000 68.112,252.136 67.932,252.301 67.761 C 252.645 67.406,253.900 65.836,253.900 65.760 C 253.900 65.732,254.035 65.510,254.200 65.266 C 254.365 65.021,254.500 64.771,254.500 64.710 C 254.500 64.650,254.541 64.600,254.592 64.600 C 254.696 64.600,254.803 64.407,255.682 62.628 C 256.469 61.035,256.555 60.845,256.714 60.350 C 256.784 60.130,256.871 59.905,256.907 59.850 C 256.943 59.795,257.054 59.480,257.153 59.150 C 257.252 58.820,257.366 58.505,257.407 58.450 C 257.448 58.395,257.537 58.058,257.605 57.700 C 257.673 57.343,257.772 56.994,257.826 56.926 C 257.879 56.858,257.898 56.740,257.869 56.663 C 257.840 56.587,257.855 56.485,257.903 56.437 C 257.951 56.389,258.042 55.923,258.105 55.400 C 258.169 54.877,258.272 54.342,258.335 54.210 C 258.494 53.878,258.497 47.623,258.339 47.521 C 258.278 47.482,258.197 47.113,258.158 46.700 C 258.120 46.288,258.038 45.770,257.977 45.550 C 257.915 45.330,257.874 45.112,257.886 45.064 C 257.897 45.017,257.866 44.927,257.817 44.864 C 257.767 44.802,257.669 44.435,257.600 44.050 C 257.531 43.665,257.441 43.305,257.400 43.250 C 257.360 43.195,257.249 42.903,257.154 42.600 C 257.060 42.298,256.896 41.859,256.791 41.626 C 256.686 41.393,256.600 41.160,256.600 41.109 C 256.600 41.058,256.537 40.889,256.460 40.733 C 256.383 40.577,256.045 39.888,255.708 39.200 C 255.070 37.896,255.020 37.803,254.600 37.150 C 254.459 36.930,254.283 36.630,254.209 36.483 C 254.135 36.336,253.855 35.945,253.587 35.613 C 253.319 35.282,253.100 34.980,253.100 34.941 C 253.100 34.714,250.986 32.471,249.650 31.280 C 249.100 30.790,248.579 30.324,248.492 30.245 C 248.404 30.165,248.298 30.100,248.256 30.100 C 248.213 30.100,247.896 29.875,247.550 29.600 C 247.204 29.325,246.881 29.100,246.831 29.100 C 246.780 29.100,246.562 28.970,246.345 28.810 C 245.587 28.255,243.270 27.061,242.352 26.754 C 242.079 26.662,241.809 26.549,241.752 26.503 C 241.696 26.457,241.447 26.367,241.200 26.303 C 240.953 26.238,240.570 26.103,240.350 26.001 C 240.130 25.900,239.748 25.786,239.500 25.747 C 239.253 25.709,239.005 25.643,238.950 25.601 C 238.895 25.560,238.400 25.447,237.850 25.352 C 237.300 25.256,236.760 25.141,236.650 25.095 C 236.432 25.006,234.512 24.805,233.550 24.771 L 232.950 24.750 232.950 17.954 L 232.950 11.159 233.400 11.032 C 234.915 10.605,236.102 9.684,236.662 8.500 C 236.858 8.088,237.053 7.681,237.096 7.597 C 237.139 7.512,237.206 7.299,237.245 7.122 L 237.316 6.800 264.239 6.800 L 291.162 6.800 291.295 7.318 M372.176 15.775 L 372.150 24.750 371.650 24.772 C 370.639 24.817,368.744 25.014,368.550 25.095 C 368.440 25.140,367.900 25.256,367.350 25.352 C 366.800 25.447,366.305 25.560,366.250 25.602 C 366.195 25.644,365.880 25.732,365.550 25.798 C 365.220 25.864,364.860 25.973,364.750 26.040 C 364.640 26.107,364.348 26.217,364.100 26.286 C 363.853 26.354,363.515 26.469,363.350 26.541 C 361.161 27.492,359.481 28.360,358.507 29.045 C 358.229 29.240,357.977 29.400,357.946 29.400 C 357.915 29.400,357.579 29.648,357.200 29.950 C 356.821 30.253,356.475 30.500,356.430 30.501 C 356.386 30.502,356.193 30.681,356.000 30.900 C 355.808 31.119,355.603 31.298,355.544 31.299 C 355.399 31.300,352.500 34.299,352.500 34.448 C 352.500 34.485,352.230 34.846,351.900 35.250 C 351.570 35.654,351.300 36.015,351.300 36.052 C 351.300 36.089,351.105 36.418,350.867 36.784 C 350.628 37.151,350.323 37.630,350.188 37.850 C 349.903 38.315,349.112 39.947,348.855 40.600 C 348.758 40.848,348.616 41.169,348.539 41.315 C 348.463 41.461,348.400 41.641,348.399 41.715 C 348.399 41.789,348.341 41.963,348.270 42.100 C 348.199 42.238,348.061 42.620,347.963 42.950 C 347.865 43.280,347.746 43.640,347.698 43.750 C 347.650 43.860,347.560 44.220,347.499 44.550 C 347.438 44.880,347.361 45.218,347.328 45.300 C 347.295 45.383,347.278 45.510,347.290 45.582 C 347.302 45.655,347.269 45.768,347.215 45.832 C 347.162 45.897,347.062 46.490,346.993 47.150 C 346.924 47.810,346.829 48.376,346.782 48.407 C 346.669 48.483,346.670 53.192,346.783 53.337 C 346.831 53.399,346.926 53.990,346.995 54.650 C 347.063 55.310,347.152 55.895,347.193 55.950 C 347.234 56.005,347.349 56.455,347.448 56.950 C 347.548 57.445,347.661 57.895,347.701 57.950 C 347.741 58.005,347.806 58.230,347.844 58.450 C 347.883 58.670,347.980 58.951,348.060 59.075 C 348.139 59.199,348.176 59.300,348.140 59.300 C 348.105 59.300,348.121 59.356,348.176 59.425 C 348.232 59.494,348.309 59.708,348.348 59.900 C 348.388 60.093,348.474 60.340,348.541 60.450 C 348.607 60.560,348.745 60.875,348.847 61.150 C 349.081 61.781,350.352 64.281,350.551 64.501 C 350.633 64.592,350.700 64.693,350.700 64.726 C 350.700 64.759,350.891 65.065,351.125 65.406 C 351.359 65.747,351.595 66.098,351.650 66.185 C 352.506 67.541,356.951 72.000,357.446 72.000 C 357.479 72.000,357.734 72.180,358.012 72.400 C 358.290 72.620,358.562 72.800,358.615 72.800 C 358.668 72.800,358.990 72.991,359.331 73.225 C 360.109 73.759,363.042 75.200,363.352 75.200 C 363.389 75.200,363.562 75.264,363.735 75.341 C 363.908 75.419,364.298 75.560,364.600 75.654 C 364.903 75.749,365.195 75.860,365.250 75.900 C 365.305 75.941,365.665 76.031,366.050 76.100 C 366.435 76.169,366.795 76.261,366.850 76.302 C 366.977 76.399,367.875 76.574,368.650 76.652 C 368.980 76.686,369.340 76.756,369.450 76.809 C 369.560 76.862,370.213 76.937,370.900 76.977 L 372.150 77.050 372.150 85.950 L 372.150 94.850 336.675 94.850 C 313.097 94.850,301.197 94.816,301.191 94.750 C 301.187 94.695,301.148 94.605,301.105 94.550 C 301.063 94.495,300.997 94.315,300.959 94.150 C 300.614 92.634,298.997 91.015,297.561 90.746 C 297.363 90.708,297.200 90.638,297.200 90.589 C 297.200 90.540,297.110 90.500,297.000 90.500 C 296.802 90.500,296.800 90.433,296.800 83.765 L 296.800 77.031 298.160 76.969 C 298.908 76.936,299.572 76.867,299.635 76.817 C 299.698 76.767,300.043 76.696,300.400 76.660 C 301.213 76.577,302.118 76.402,302.250 76.302 C 302.305 76.261,302.665 76.169,303.050 76.100 C 303.435 76.031,303.795 75.941,303.850 75.900 C 303.905 75.860,304.197 75.749,304.500 75.654 C 304.803 75.560,305.185 75.424,305.350 75.353 C 305.515 75.282,305.818 75.170,306.024 75.105 C 306.229 75.039,306.423 74.944,306.455 74.893 C 306.486 74.842,306.579 74.800,306.660 74.800 C 306.870 74.800,309.300 73.590,309.300 73.486 C 309.300 73.439,309.359 73.400,309.432 73.400 C 309.505 73.400,309.741 73.266,309.957 73.103 C 310.173 72.939,310.401 72.804,310.463 72.803 C 310.569 72.800,311.536 72.109,311.925 71.758 C 312.021 71.671,312.129 71.600,312.164 71.600 C 312.530 71.600,316.777 67.325,317.009 66.722 C 317.057 66.597,317.165 66.469,317.248 66.437 C 317.332 66.405,317.400 66.339,317.400 66.290 C 317.400 66.242,317.558 65.995,317.750 65.743 C 317.943 65.491,318.100 65.243,318.100 65.193 C 318.100 65.142,318.264 64.873,318.464 64.594 C 318.879 64.016,320.105 61.647,320.297 61.049 C 320.368 60.829,320.461 60.605,320.504 60.550 C 320.546 60.495,320.659 60.180,320.755 59.850 C 320.850 59.520,320.986 59.160,321.057 59.050 C 321.127 58.940,321.217 58.670,321.256 58.450 C 321.294 58.230,321.358 58.005,321.397 57.950 C 321.436 57.895,321.549 57.445,321.648 56.950 C 321.748 56.455,321.861 56.005,321.901 55.950 C 321.941 55.895,322.028 55.333,322.095 54.700 C 322.162 54.067,322.237 53.486,322.262 53.407 C 322.322 53.220,322.321 48.579,322.262 48.393 C 322.236 48.314,322.163 47.733,322.098 47.100 C 322.033 46.468,321.945 45.905,321.903 45.850 C 321.861 45.795,321.769 45.435,321.700 45.050 C 321.631 44.665,321.535 44.301,321.488 44.241 C 321.440 44.181,321.430 44.103,321.465 44.068 C 321.500 44.033,321.483 43.947,321.427 43.877 C 321.372 43.807,321.294 43.570,321.256 43.350 C 321.217 43.130,321.129 42.860,321.060 42.750 C 320.991 42.640,320.875 42.325,320.802 42.050 C 320.729 41.775,320.613 41.438,320.544 41.300 C 320.474 41.163,320.362 40.893,320.295 40.700 C 320.115 40.188,319.053 38.066,318.729 37.572 C 318.434 37.122,318.367 37.015,317.939 36.300 C 317.620 35.768,316.431 34.254,316.060 33.908 C 315.917 33.774,315.800 33.617,315.800 33.559 C 315.800 33.417,313.684 31.300,313.542 31.300 C 313.481 31.300,313.345 31.203,313.240 31.085 C 313.023 30.840,311.241 29.400,311.155 29.400 C 311.123 29.400,310.874 29.243,310.600 29.050 C 310.326 28.858,310.076 28.700,310.044 28.700 C 310.012 28.700,309.798 28.572,309.568 28.415 C 309.055 28.065,306.286 26.700,306.088 26.700 C 306.009 26.700,305.856 26.640,305.747 26.567 C 305.639 26.493,305.325 26.373,305.050 26.299 C 304.775 26.225,304.460 26.110,304.350 26.042 C 304.240 25.974,303.880 25.864,303.550 25.798 C 303.220 25.732,302.905 25.644,302.850 25.602 C 302.795 25.560,302.300 25.447,301.750 25.352 C 301.200 25.256,300.660 25.141,300.550 25.097 C 300.265 24.981,298.428 24.800,297.546 24.800 L 296.800 24.800 296.800 17.969 L 296.800 11.138 297.307 11.008 C 298.885 10.603,300.900 8.741,300.900 7.688 C 300.900 7.647,300.952 7.486,301.016 7.332 C 301.080 7.177,301.123 6.994,301.112 6.925 C 301.095 6.825,308.258 6.800,336.646 6.800 L 372.201 6.800 372.176 15.775 M52.875 50.825 L 52.900 75.700 28.000 75.700 L 3.100 75.700 3.100 50.800 L 3.100 25.900 27.975 25.925 L 52.850 25.950 52.875 50.825 M107.155 26.086 C 107.207 26.133,107.790 26.228,108.450 26.298 C 109.110 26.368,109.695 26.460,109.750 26.502 C 109.805 26.544,110.233 26.653,110.700 26.744 C 111.168 26.835,111.640 26.948,111.750 26.994 C 111.860 27.040,112.153 27.133,112.400 27.199 C 112.647 27.266,112.895 27.357,112.950 27.401 C 113.005 27.444,113.253 27.534,113.500 27.600 C 114.456 27.854,116.808 29.023,117.745 29.710 C 117.962 29.870,118.181 30.000,118.231 30.000 C 118.282 30.000,118.610 30.225,118.959 30.500 C 119.309 30.775,119.627 31.000,119.664 31.000 C 119.702 31.000,119.804 31.065,119.892 31.145 C 119.979 31.224,120.500 31.690,121.050 32.180 C 122.386 33.371,124.500 35.614,124.500 35.841 C 124.500 35.880,124.725 36.189,125.000 36.529 C 125.275 36.869,125.500 37.204,125.500 37.274 C 125.500 37.343,125.545 37.400,125.600 37.400 C 125.655 37.400,125.700 37.449,125.700 37.509 C 125.700 37.568,125.825 37.805,125.979 38.034 C 126.507 38.824,127.505 40.752,127.703 41.368 C 127.771 41.578,127.859 41.795,127.899 41.850 C 127.939 41.905,128.001 42.072,128.037 42.221 C 128.073 42.369,128.154 42.617,128.217 42.771 C 128.281 42.924,128.338 43.073,128.343 43.100 C 128.349 43.127,128.380 43.195,128.413 43.250 C 128.446 43.305,128.530 43.665,128.600 44.050 C 128.669 44.435,128.764 44.798,128.810 44.857 C 128.857 44.916,128.946 45.298,129.010 45.707 C 129.073 46.116,129.148 46.518,129.177 46.600 C 129.205 46.683,129.219 46.876,129.206 47.030 C 129.194 47.184,129.244 47.382,129.317 47.470 C 129.511 47.705,129.511 53.995,129.317 54.230 C 129.244 54.318,129.194 54.538,129.206 54.720 C 129.218 54.901,129.204 55.117,129.174 55.200 C 129.145 55.283,129.066 55.688,128.999 56.100 C 128.932 56.513,128.843 56.895,128.802 56.950 C 128.760 57.005,128.669 57.365,128.600 57.750 C 128.531 58.135,128.429 58.506,128.375 58.575 C 128.320 58.644,128.306 58.700,128.343 58.700 C 128.381 58.700,128.341 58.800,128.256 58.922 C 128.170 59.044,128.100 59.206,128.100 59.282 C 128.100 59.358,128.038 59.562,127.962 59.735 C 127.886 59.908,127.768 60.208,127.700 60.400 C 127.595 60.701,126.875 62.181,126.267 63.348 C 126.166 63.542,126.042 63.700,125.992 63.700 C 125.941 63.700,125.900 63.748,125.900 63.807 C 125.900 63.866,125.765 64.110,125.600 64.350 C 125.435 64.590,125.300 64.814,125.300 64.848 C 125.300 64.932,124.068 66.475,123.697 66.855 C 123.534 67.023,123.400 67.202,123.400 67.254 C 123.400 67.393,121.173 69.600,121.032 69.600 C 120.966 69.600,120.853 69.684,120.781 69.786 C 120.661 69.956,118.746 71.500,118.654 71.500 C 118.632 71.500,118.330 71.690,117.982 71.923 C 117.192 72.450,117.072 72.518,115.628 73.234 C 114.035 74.024,113.934 74.067,113.277 74.252 C 112.962 74.341,112.682 74.449,112.655 74.492 C 112.628 74.536,112.323 74.630,111.978 74.701 C 111.633 74.772,111.305 74.862,111.250 74.902 C 111.195 74.942,110.700 75.053,110.150 75.148 C 109.600 75.244,109.060 75.358,108.950 75.402 C 107.972 75.791,101.320 75.793,100.350 75.404 C 100.240 75.360,99.723 75.247,99.201 75.154 C 98.679 75.061,98.206 74.949,98.151 74.905 C 98.095 74.862,97.746 74.770,97.374 74.702 C 97.002 74.633,96.675 74.540,96.647 74.495 C 96.619 74.450,96.338 74.341,96.023 74.252 C 95.708 74.164,95.315 74.030,95.150 73.956 C 94.141 73.500,92.584 72.706,92.198 72.450 C 91.950 72.285,91.590 72.064,91.398 71.960 C 91.207 71.855,90.862 71.619,90.633 71.435 C 90.404 71.251,90.188 71.100,90.153 71.100 C 90.064 71.100,88.790 70.072,88.560 69.813 C 88.455 69.696,88.328 69.600,88.278 69.600 C 88.164 69.600,86.258 67.721,85.965 67.321 C 85.847 67.159,85.461 66.681,85.107 66.259 C 84.753 65.836,84.416 65.408,84.357 65.308 C 84.298 65.207,84.059 64.846,83.825 64.505 C 83.591 64.165,83.400 63.869,83.400 63.848 C 83.400 63.827,83.269 63.616,83.109 63.379 C 82.798 62.918,81.799 60.948,81.624 60.450 C 81.496 60.087,81.432 59.883,81.404 59.750 C 81.393 59.695,81.350 59.605,81.310 59.550 C 81.269 59.495,81.175 59.248,81.100 59.000 C 81.025 58.752,80.934 58.505,80.896 58.450 C 80.859 58.395,80.748 57.945,80.648 57.450 C 80.549 56.955,80.432 56.503,80.388 56.445 C 80.345 56.388,80.257 55.915,80.194 55.395 C 80.131 54.875,80.037 54.360,79.986 54.250 C 79.935 54.140,79.903 53.914,79.916 53.747 C 79.929 53.581,79.906 53.391,79.866 53.327 C 79.770 53.171,79.773 48.525,79.869 48.370 C 79.910 48.304,79.930 48.142,79.913 48.010 C 79.896 47.879,79.926 47.676,79.981 47.560 C 80.035 47.445,80.131 46.925,80.194 46.405 C 80.257 45.885,80.346 45.412,80.391 45.355 C 80.435 45.297,80.553 44.823,80.652 44.300 C 80.750 43.778,80.860 43.328,80.895 43.300 C 80.930 43.273,81.021 43.048,81.097 42.800 C 81.174 42.553,81.266 42.305,81.303 42.250 C 81.339 42.195,81.448 41.903,81.543 41.600 C 81.807 40.762,82.957 38.488,83.435 37.860 C 83.564 37.689,83.751 37.393,83.850 37.200 C 83.949 37.008,84.293 36.527,84.615 36.133 C 84.937 35.738,85.200 35.365,85.200 35.304 C 85.200 35.160,88.957 31.400,89.101 31.400 C 89.162 31.400,89.517 31.152,89.891 30.850 C 90.266 30.548,90.623 30.300,90.686 30.300 C 90.749 30.300,90.800 30.254,90.800 30.198 C 90.800 30.141,90.916 30.051,91.057 29.997 C 91.198 29.944,91.461 29.787,91.641 29.650 C 91.821 29.512,92.003 29.400,92.044 29.400 C 92.085 29.400,92.248 29.308,92.405 29.196 C 92.811 28.907,94.655 28.000,94.837 28.000 C 94.920 28.000,95.014 27.958,95.046 27.907 C 95.078 27.855,95.362 27.740,95.677 27.650 C 95.992 27.560,96.433 27.399,96.657 27.293 C 96.880 27.187,97.152 27.100,97.262 27.100 C 97.371 27.100,97.503 27.061,97.555 27.013 C 97.607 26.965,98.078 26.846,98.600 26.749 C 99.123 26.652,99.595 26.538,99.650 26.496 C 99.705 26.455,100.267 26.365,100.900 26.298 C 101.533 26.231,102.093 26.136,102.145 26.088 C 102.268 25.974,107.029 25.972,107.155 26.086 M170.955 26.086 C 171.007 26.133,171.590 26.228,172.250 26.295 C 172.910 26.363,173.495 26.453,173.550 26.495 C 173.605 26.536,174.055 26.649,174.550 26.745 C 175.045 26.841,175.495 26.954,175.550 26.996 C 175.605 27.039,175.830 27.106,176.050 27.144 C 176.270 27.183,176.540 27.271,176.650 27.340 C 176.760 27.409,177.075 27.525,177.350 27.598 C 177.625 27.671,177.963 27.784,178.100 27.851 C 180.033 28.780,180.615 29.077,180.968 29.317 C 181.198 29.473,181.408 29.600,181.435 29.600 C 181.654 29.600,184.201 31.497,184.640 31.987 C 184.745 32.104,184.880 32.200,184.939 32.200 C 185.081 32.200,187.200 34.314,187.200 34.456 C 187.200 34.516,187.317 34.674,187.460 34.808 C 187.761 35.089,189.100 36.748,189.100 36.840 C 189.100 36.874,189.258 37.126,189.450 37.400 C 189.643 37.674,189.800 37.924,189.800 37.956 C 189.800 37.988,189.929 38.202,190.087 38.432 C 190.245 38.662,190.611 39.345,190.900 39.950 C 191.190 40.555,191.488 41.169,191.563 41.315 C 191.639 41.461,191.700 41.627,191.700 41.684 C 191.700 41.741,191.754 41.914,191.820 42.068 C 191.885 42.223,191.944 42.395,191.949 42.450 C 191.955 42.505,192.012 42.646,192.076 42.762 C 192.141 42.879,192.223 43.161,192.260 43.387 C 192.296 43.614,192.358 43.800,192.399 43.800 C 192.439 43.800,192.530 44.139,192.601 44.553 C 192.671 44.967,192.766 45.329,192.810 45.356 C 192.855 45.384,192.866 45.473,192.834 45.554 C 192.803 45.636,192.824 45.758,192.881 45.827 C 192.937 45.895,193.040 46.502,193.110 47.175 C 193.179 47.849,193.273 48.400,193.318 48.400 C 193.428 48.400,193.424 53.234,193.314 53.355 C 193.267 53.407,193.172 53.990,193.105 54.650 C 193.037 55.310,192.948 55.895,192.907 55.950 C 192.866 56.005,192.751 56.455,192.652 56.950 C 192.552 57.445,192.439 57.895,192.399 57.950 C 192.359 58.005,192.294 58.230,192.256 58.450 C 192.217 58.670,192.120 58.951,192.040 59.075 C 191.961 59.199,191.924 59.300,191.960 59.300 C 191.995 59.300,191.979 59.356,191.924 59.425 C 191.868 59.494,191.790 59.708,191.750 59.900 C 191.710 60.093,191.619 60.363,191.549 60.500 C 191.478 60.638,191.164 61.277,190.850 61.922 C 190.537 62.567,190.105 63.345,189.890 63.652 C 189.676 63.958,189.500 64.244,189.500 64.287 C 189.500 64.355,189.110 64.907,188.150 66.200 C 187.401 67.209,183.859 70.700,183.585 70.700 C 183.538 70.700,183.421 70.771,183.325 70.858 C 182.936 71.209,181.969 71.900,181.863 71.903 C 181.801 71.904,181.573 72.039,181.357 72.203 C 181.141 72.366,180.905 72.500,180.832 72.500 C 180.759 72.500,180.700 72.539,180.700 72.586 C 180.700 72.667,178.505 73.796,178.332 73.803 C 178.287 73.805,178.070 73.894,177.850 74.000 C 177.630 74.106,177.381 74.195,177.296 74.197 C 177.212 74.198,176.967 74.289,176.753 74.399 C 176.539 74.508,176.090 74.649,175.757 74.713 C 175.423 74.777,175.105 74.862,175.050 74.903 C 174.919 75.001,173.456 75.300,173.109 75.300 C 172.961 75.300,172.797 75.339,172.745 75.387 C 172.310 75.786,165.245 75.799,164.250 75.402 C 164.140 75.358,163.600 75.244,163.050 75.148 C 162.500 75.053,162.005 74.940,161.950 74.899 C 161.895 74.857,161.648 74.791,161.400 74.753 C 161.153 74.714,160.791 74.602,160.596 74.504 C 160.401 74.406,160.086 74.293,159.896 74.253 C 159.493 74.168,159.162 74.024,157.600 73.251 C 156.247 72.582,155.983 72.437,155.452 72.073 C 155.233 71.923,155.014 71.800,154.966 71.800 C 154.917 71.800,154.483 71.485,154.000 71.100 C 153.517 70.715,153.070 70.400,153.007 70.400 C 152.856 70.400,149.000 66.544,149.000 66.393 C 149.000 66.330,148.685 65.883,148.300 65.400 C 147.915 64.917,147.600 64.483,147.600 64.434 C 147.600 64.386,147.477 64.167,147.327 63.948 C 146.662 62.978,145.288 60.177,145.147 59.504 C 145.107 59.314,144.994 58.999,144.896 58.804 C 144.798 58.609,144.686 58.248,144.647 58.000 C 144.609 57.752,144.543 57.505,144.501 57.450 C 144.460 57.395,144.347 56.900,144.252 56.350 C 144.156 55.800,144.040 55.260,143.995 55.150 C 143.599 54.193,143.619 46.600,144.018 46.600 C 144.063 46.600,144.100 46.470,144.100 46.311 C 144.100 45.948,144.396 44.485,144.497 44.350 C 144.538 44.295,144.623 43.977,144.687 43.643 C 144.751 43.310,144.889 42.868,144.994 42.663 C 145.099 42.457,145.214 42.111,145.251 41.894 C 145.288 41.677,145.354 41.500,145.398 41.500 C 145.442 41.500,145.508 41.376,145.545 41.225 C 145.640 40.834,146.714 38.700,146.815 38.700 C 146.862 38.700,146.900 38.641,146.900 38.568 C 146.900 38.495,147.034 38.259,147.197 38.043 C 147.361 37.827,147.496 37.599,147.497 37.537 C 147.499 37.475,147.691 37.173,147.925 36.866 C 148.159 36.559,148.530 36.048,148.750 35.732 C 149.206 35.077,152.420 31.816,153.100 31.320 C 153.347 31.139,153.884 30.746,154.293 30.446 C 154.701 30.146,155.070 29.900,155.113 29.900 C 155.156 29.900,155.442 29.724,155.748 29.510 C 156.055 29.295,156.833 28.863,157.478 28.550 C 158.123 28.236,158.763 27.923,158.900 27.854 C 159.038 27.785,159.368 27.675,159.634 27.610 C 159.901 27.546,160.216 27.430,160.334 27.354 C 160.453 27.277,160.730 27.183,160.950 27.144 C 161.170 27.106,161.395 27.042,161.450 27.003 C 161.505 26.964,161.955 26.851,162.450 26.752 C 162.945 26.652,163.395 26.538,163.450 26.498 C 163.505 26.458,164.090 26.368,164.750 26.298 C 165.410 26.228,165.993 26.133,166.045 26.086 C 166.169 25.974,170.831 25.974,170.955 26.086 M234.855 26.086 C 234.907 26.133,235.490 26.228,236.150 26.298 C 236.810 26.368,237.395 26.457,237.450 26.497 C 237.505 26.537,237.933 26.646,238.400 26.741 C 238.868 26.835,239.340 26.949,239.450 26.995 C 239.560 27.041,239.853 27.133,240.100 27.199 C 240.347 27.266,240.595 27.357,240.650 27.401 C 240.705 27.444,240.951 27.534,241.197 27.600 C 242.080 27.836,244.377 28.954,245.225 29.560 C 245.487 29.747,245.741 29.900,245.790 29.900 C 245.839 29.900,246.200 30.148,246.591 30.450 C 246.983 30.752,247.331 31.000,247.366 31.000 C 247.693 31.000,252.200 35.491,252.200 35.817 C 252.200 35.864,252.470 36.243,252.800 36.658 C 253.130 37.073,253.401 37.466,253.403 37.532 C 253.404 37.597,253.539 37.827,253.703 38.043 C 253.866 38.259,254.000 38.493,254.000 38.563 C 254.000 38.633,254.056 38.726,254.125 38.770 C 254.236 38.841,255.300 40.888,255.300 41.030 C 255.300 41.062,255.352 41.214,255.417 41.368 C 255.481 41.523,255.538 41.673,255.543 41.700 C 255.549 41.727,255.579 41.795,255.611 41.850 C 255.643 41.905,255.727 42.164,255.798 42.425 C 255.868 42.686,255.960 42.900,256.002 42.900 C 256.043 42.900,256.133 43.204,256.202 43.575 C 256.270 43.946,256.365 44.299,256.412 44.359 C 256.460 44.419,256.470 44.497,256.435 44.532 C 256.400 44.567,256.418 44.653,256.476 44.723 C 256.533 44.793,256.635 45.210,256.702 45.650 C 256.769 46.090,256.860 46.540,256.905 46.650 C 257.296 47.602,257.292 54.184,256.901 55.150 C 256.856 55.260,256.765 55.688,256.698 56.100 C 256.631 56.513,256.532 56.906,256.477 56.974 C 256.422 57.042,256.403 57.164,256.434 57.246 C 256.466 57.327,256.453 57.417,256.407 57.446 C 256.361 57.474,256.292 57.712,256.255 57.974 C 256.217 58.236,256.105 58.609,256.006 58.804 C 255.906 58.999,255.793 59.314,255.753 59.504 C 255.668 59.907,255.524 60.238,254.751 61.800 C 254.057 63.203,253.957 63.383,253.423 64.182 C 253.190 64.530,253.000 64.834,253.000 64.859 C 253.000 64.911,252.012 66.196,251.327 67.034 C 250.778 67.706,248.009 70.400,247.867 70.400 C 247.815 70.400,247.466 70.648,247.091 70.950 C 246.717 71.252,246.389 71.500,246.362 71.500 C 246.336 71.500,246.030 71.690,245.682 71.923 C 244.895 72.449,244.775 72.516,243.328 73.236 C 241.760 74.016,241.414 74.167,241.004 74.253 C 240.814 74.293,240.499 74.406,240.304 74.504 C 240.109 74.602,239.748 74.714,239.500 74.753 C 239.253 74.791,239.005 74.857,238.950 74.899 C 238.895 74.940,238.400 75.053,237.850 75.148 C 237.300 75.244,236.760 75.358,236.650 75.402 C 235.664 75.795,228.100 75.777,228.100 75.382 C 228.100 75.337,227.970 75.300,227.811 75.300 C 227.448 75.300,225.985 75.004,225.850 74.903 C 225.795 74.862,225.462 74.774,225.109 74.706 C 224.756 74.639,224.374 74.523,224.259 74.450 C 224.144 74.376,223.847 74.264,223.600 74.201 C 222.810 73.999,220.627 72.940,219.731 72.325 C 219.390 72.091,219.068 71.900,219.015 71.900 C 218.962 71.900,218.690 71.720,218.412 71.500 C 218.134 71.280,217.880 71.100,217.848 71.100 C 217.401 71.100,212.100 65.805,212.100 65.359 C 212.100 65.327,211.943 65.095,211.750 64.843 C 211.558 64.591,211.400 64.321,211.400 64.242 C 211.400 64.164,211.354 64.100,211.297 64.100 C 211.240 64.100,211.165 64.021,211.130 63.925 C 211.095 63.829,210.947 63.570,210.800 63.350 C 210.561 62.990,209.455 60.827,209.446 60.701 C 209.445 60.673,209.394 60.560,209.333 60.450 C 209.273 60.340,209.190 60.093,209.149 59.900 C 209.108 59.708,209.045 59.528,209.007 59.500 C 208.919 59.434,208.600 58.424,208.600 58.209 C 208.600 58.116,208.561 57.997,208.514 57.945 C 208.467 57.893,208.370 57.558,208.299 57.200 C 208.228 56.843,208.132 56.500,208.085 56.440 C 208.038 56.379,207.928 55.704,207.841 54.940 C 207.754 54.175,207.641 53.470,207.589 53.373 C 207.466 53.140,207.468 48.555,207.591 48.327 C 207.644 48.230,207.758 47.546,207.845 46.809 C 207.932 46.071,208.041 45.418,208.087 45.359 C 208.133 45.299,208.225 44.958,208.290 44.600 C 208.355 44.243,208.448 43.860,208.496 43.750 C 208.545 43.640,208.665 43.280,208.763 42.950 C 208.861 42.620,208.999 42.238,209.070 42.100 C 209.141 41.963,209.199 41.791,209.199 41.718 C 209.200 41.646,209.254 41.489,209.320 41.368 C 209.387 41.248,209.445 41.105,209.449 41.050 C 209.465 40.860,210.404 39.048,210.847 38.350 C 211.092 37.965,211.413 37.448,211.560 37.200 C 211.708 36.953,212.070 36.449,212.364 36.080 C 212.659 35.712,212.900 35.382,212.900 35.347 C 212.900 35.313,213.080 35.111,213.300 34.900 C 213.520 34.689,213.700 34.479,213.700 34.434 C 213.700 34.316,215.828 32.200,215.948 32.200 C 216.004 32.200,216.219 32.020,216.426 31.800 C 216.633 31.580,216.827 31.400,216.857 31.400 C 216.886 31.400,217.217 31.152,217.591 30.850 C 217.966 30.548,218.301 30.300,218.337 30.300 C 218.373 30.300,218.615 30.153,218.876 29.973 C 219.861 29.295,220.730 28.825,222.800 27.848 C 222.938 27.783,223.275 27.671,223.550 27.598 C 223.825 27.525,224.140 27.410,224.250 27.342 C 224.360 27.275,224.607 27.188,224.800 27.148 C 224.993 27.109,225.195 27.043,225.250 27.002 C 225.305 26.961,225.778 26.848,226.300 26.750 C 226.822 26.652,227.295 26.538,227.350 26.495 C 227.405 26.453,227.990 26.363,228.650 26.295 C 229.310 26.228,229.893 26.133,229.945 26.086 C 230.069 25.974,234.731 25.974,234.855 26.086 M298.755 26.088 C 298.807 26.136,299.368 26.231,300.000 26.298 C 300.632 26.365,301.195 26.455,301.250 26.496 C 301.305 26.538,301.778 26.652,302.300 26.750 C 302.822 26.848,303.295 26.961,303.350 27.002 C 303.405 27.043,303.608 27.110,303.800 27.150 C 303.993 27.190,304.262 27.284,304.400 27.359 C 304.538 27.434,304.908 27.566,305.223 27.654 C 305.538 27.742,305.822 27.855,305.854 27.907 C 305.886 27.958,305.979 28.000,306.061 28.000 C 306.197 28.000,307.684 28.684,307.800 28.800 C 307.828 28.828,308.008 28.934,308.200 29.038 C 308.872 29.398,309.190 29.591,309.692 29.944 C 309.970 30.140,310.227 30.300,310.263 30.300 C 310.299 30.300,310.634 30.548,311.009 30.850 C 311.383 31.152,311.719 31.400,311.756 31.400 C 311.793 31.400,311.998 31.580,312.212 31.800 C 312.425 32.020,312.636 32.200,312.680 32.200 C 312.807 32.200,315.700 35.215,315.700 35.348 C 315.700 35.385,315.970 35.746,316.300 36.150 C 316.630 36.554,316.900 36.915,316.900 36.952 C 316.900 36.989,317.095 37.318,317.333 37.684 C 317.572 38.051,317.877 38.530,318.012 38.750 C 318.414 39.407,319.172 41.011,319.357 41.600 C 319.453 41.903,319.561 42.195,319.597 42.250 C 319.634 42.305,319.725 42.553,319.800 42.800 C 319.875 43.048,319.973 43.299,320.017 43.359 C 320.062 43.419,320.070 43.497,320.035 43.532 C 320.000 43.567,320.017 43.653,320.073 43.723 C 320.128 43.793,320.231 44.165,320.300 44.550 C 320.369 44.935,320.465 45.299,320.512 45.359 C 320.559 45.418,320.668 46.071,320.755 46.809 C 320.842 47.546,320.955 48.228,321.007 48.324 C 321.127 48.548,321.129 53.147,321.009 53.376 C 320.958 53.472,320.846 54.175,320.759 54.940 C 320.672 55.704,320.562 56.379,320.515 56.440 C 320.467 56.500,320.373 56.843,320.305 57.200 C 320.237 57.558,320.138 57.903,320.085 57.968 C 320.031 58.032,319.998 58.145,320.010 58.218 C 320.022 58.290,319.998 58.440,319.956 58.550 C 319.915 58.660,319.835 58.885,319.779 59.050 C 319.723 59.215,319.614 59.492,319.538 59.665 C 319.462 59.838,319.400 60.037,319.400 60.105 C 319.400 60.280,318.073 62.966,317.758 63.429 C 317.616 63.638,317.500 63.826,317.500 63.847 C 317.500 63.869,317.309 64.165,317.075 64.506 C 316.841 64.847,316.605 65.199,316.550 65.288 C 315.719 66.629,311.257 71.100,310.750 71.100 C 310.719 71.100,310.466 71.280,310.188 71.500 C 309.910 71.720,309.638 71.900,309.585 71.900 C 309.532 71.900,309.210 72.091,308.869 72.325 C 308.315 72.705,307.174 73.304,305.900 73.882 C 305.653 73.994,305.192 74.160,304.877 74.250 C 304.562 74.340,304.281 74.450,304.253 74.495 C 304.225 74.540,303.898 74.633,303.526 74.702 C 303.154 74.770,302.805 74.862,302.749 74.905 C 302.694 74.949,302.221 75.061,301.699 75.154 C 301.177 75.247,300.660 75.360,300.550 75.404 C 299.580 75.793,292.928 75.791,291.950 75.402 C 291.840 75.358,291.300 75.244,290.750 75.148 C 290.200 75.053,289.705 74.940,289.650 74.899 C 289.595 74.857,289.348 74.791,289.100 74.753 C 288.853 74.714,288.491 74.602,288.296 74.504 C 288.101 74.406,287.786 74.293,287.596 74.253 C 286.873 74.102,284.143 72.742,282.918 71.923 C 282.570 71.690,282.266 71.500,282.241 71.500 C 282.186 71.500,280.782 70.426,280.258 69.982 C 279.505 69.344,277.747 67.606,277.322 67.080 C 276.382 65.915,275.600 64.907,275.600 64.862 C 275.600 64.836,275.410 64.530,275.177 64.182 C 274.499 63.168,273.223 60.684,273.105 60.150 C 273.093 60.095,273.047 60.005,273.003 59.950 C 272.959 59.895,272.890 59.694,272.849 59.504 C 272.808 59.314,272.695 58.999,272.598 58.804 C 272.500 58.609,272.365 58.135,272.297 57.750 C 272.229 57.365,272.140 57.005,272.098 56.950 C 272.057 56.895,271.969 56.513,271.902 56.100 C 271.835 55.688,271.744 55.260,271.699 55.150 C 271.367 54.333,271.267 48.304,271.573 47.500 C 271.604 47.418,271.619 47.242,271.606 47.110 C 271.593 46.979,271.625 46.776,271.679 46.660 C 271.732 46.545,271.827 46.116,271.891 45.707 C 271.954 45.298,272.043 44.916,272.090 44.857 C 272.136 44.798,272.230 44.435,272.300 44.050 C 272.369 43.665,272.506 43.168,272.605 42.947 C 272.704 42.725,272.817 42.410,272.856 42.247 C 272.896 42.083,272.972 41.894,273.026 41.825 C 273.080 41.756,273.091 41.700,273.050 41.700 C 273.009 41.700,273.020 41.644,273.075 41.575 C 273.129 41.506,273.231 41.270,273.301 41.050 C 273.372 40.830,273.456 40.627,273.489 40.600 C 273.523 40.573,273.730 40.168,273.950 39.700 C 274.170 39.233,274.406 38.814,274.475 38.770 C 274.544 38.726,274.600 38.631,274.600 38.559 C 274.600 38.486,274.685 38.320,274.788 38.188 C 274.891 38.057,275.076 37.769,275.198 37.550 C 275.320 37.330,275.607 36.912,275.835 36.621 C 276.063 36.330,276.300 36.001,276.362 35.890 C 276.813 35.080,280.881 31.000,281.238 31.000 C 281.274 31.000,281.591 30.775,281.941 30.500 C 282.290 30.225,282.618 30.000,282.669 30.000 C 282.719 30.000,282.938 29.870,283.155 29.710 C 284.092 29.023,286.444 27.854,287.400 27.600 C 287.647 27.534,287.895 27.444,287.950 27.401 C 288.005 27.357,288.252 27.266,288.500 27.199 C 288.748 27.133,289.040 27.040,289.150 26.994 C 289.260 26.948,289.733 26.835,290.200 26.744 C 290.668 26.653,291.095 26.544,291.150 26.502 C 291.205 26.460,291.790 26.368,292.450 26.298 C 293.110 26.228,293.693 26.133,293.745 26.086 C 293.871 25.972,298.632 25.974,298.755 26.088 M375.355 26.086 C 375.407 26.133,375.990 26.228,376.650 26.298 C 377.310 26.368,377.895 26.460,377.950 26.502 C 378.005 26.544,378.433 26.653,378.900 26.744 C 379.368 26.835,379.840 26.948,379.950 26.994 C 380.060 27.040,380.353 27.133,380.600 27.199 C 380.848 27.266,381.095 27.356,381.150 27.400 C 381.205 27.443,381.531 27.557,381.875 27.652 C 382.219 27.748,382.500 27.865,382.500 27.913 C 382.500 27.961,382.579 28.001,382.675 28.001 C 382.970 28.004,385.220 29.180,385.945 29.711 C 386.162 29.870,386.381 30.000,386.431 30.000 C 386.482 30.000,386.810 30.225,387.159 30.500 C 387.509 30.775,387.819 31.000,387.848 31.000 C 387.908 31.000,387.930 31.018,389.220 32.153 C 390.268 33.075,392.300 35.184,392.300 35.350 C 392.300 35.406,392.390 35.508,392.500 35.577 C 392.610 35.645,392.700 35.749,392.700 35.808 C 392.700 35.866,392.908 36.169,393.163 36.481 C 393.417 36.794,393.649 37.117,393.679 37.200 C 393.708 37.282,393.895 37.598,394.094 37.900 C 394.591 38.657,394.622 38.711,395.236 39.918 C 395.535 40.505,395.835 41.157,395.903 41.368 C 395.971 41.578,396.059 41.795,396.099 41.850 C 396.139 41.905,396.201 42.072,396.237 42.221 C 396.273 42.369,396.354 42.617,396.417 42.771 C 396.481 42.924,396.538 43.073,396.543 43.100 C 396.549 43.127,396.580 43.195,396.613 43.250 C 396.646 43.305,396.730 43.665,396.800 44.050 C 396.869 44.435,396.961 44.795,397.002 44.850 C 397.102 44.982,397.277 45.887,397.360 46.700 C 397.396 47.058,397.476 47.413,397.538 47.490 C 397.706 47.701,397.694 54.046,397.525 54.215 C 397.456 54.284,397.400 54.481,397.400 54.652 C 397.400 55.076,397.097 56.826,397.003 56.950 C 396.961 57.005,396.869 57.365,396.800 57.750 C 396.731 58.135,396.629 58.506,396.575 58.575 C 396.520 58.644,396.506 58.700,396.543 58.700 C 396.581 58.700,396.541 58.800,396.456 58.922 C 396.370 59.044,396.300 59.206,396.300 59.282 C 396.300 59.358,396.238 59.562,396.162 59.735 C 396.086 59.908,395.968 60.208,395.900 60.400 C 395.795 60.701,395.075 62.181,394.467 63.348 C 394.366 63.542,394.242 63.700,394.192 63.700 C 394.141 63.700,394.100 63.748,394.100 63.807 C 394.100 63.866,393.965 64.110,393.800 64.350 C 393.635 64.590,393.500 64.814,393.500 64.848 C 393.500 64.932,392.268 66.475,391.897 66.855 C 391.734 67.023,391.600 67.202,391.600 67.254 C 391.600 67.387,389.376 69.600,389.242 69.600 C 389.181 69.600,389.045 69.696,388.940 69.813 C 388.739 70.039,386.936 71.500,386.859 71.500 C 386.835 71.500,386.530 71.690,386.182 71.923 C 385.392 72.450,385.272 72.518,383.828 73.234 C 382.235 74.024,382.134 74.067,381.477 74.252 C 381.162 74.341,380.882 74.449,380.855 74.492 C 380.828 74.536,380.523 74.630,380.178 74.701 C 379.833 74.772,379.505 74.862,379.450 74.902 C 379.395 74.942,378.900 75.053,378.350 75.148 C 377.800 75.244,377.260 75.358,377.150 75.402 C 376.172 75.791,369.520 75.793,368.550 75.404 C 368.440 75.360,367.923 75.247,367.401 75.154 C 366.879 75.061,366.406 74.949,366.351 74.905 C 366.295 74.862,365.946 74.770,365.574 74.702 C 365.202 74.633,364.875 74.540,364.847 74.495 C 364.819 74.450,364.538 74.341,364.223 74.252 C 363.593 74.075,363.539 74.052,361.950 73.287 C 361.345 72.995,360.637 72.609,360.376 72.429 C 360.115 72.248,359.875 72.100,359.843 72.100 C 359.734 72.100,358.651 71.359,358.570 71.229 C 358.526 71.158,358.445 71.100,358.390 71.100 C 358.273 71.100,357.038 70.126,356.760 69.813 C 356.655 69.696,356.520 69.600,356.460 69.600 C 356.335 69.599,354.521 67.786,354.116 67.258 C 353.970 67.067,353.569 66.575,353.225 66.163 C 352.881 65.752,352.600 65.368,352.600 65.309 C 352.600 65.250,352.510 65.145,352.400 65.077 C 352.290 65.008,352.200 64.913,352.200 64.865 C 352.200 64.818,352.065 64.579,351.900 64.334 C 351.735 64.090,351.600 63.873,351.600 63.852 C 351.600 63.831,351.431 63.552,351.223 63.232 C 350.836 62.633,350.004 60.982,349.822 60.450 C 349.690 60.067,349.631 59.875,349.604 59.750 C 349.593 59.695,349.550 59.605,349.510 59.550 C 349.469 59.495,349.375 59.248,349.300 59.000 C 349.225 58.752,349.131 58.505,349.091 58.450 C 349.052 58.395,348.941 57.945,348.845 57.450 C 348.749 56.955,348.634 56.503,348.590 56.445 C 348.545 56.388,348.457 55.915,348.394 55.395 C 348.331 54.875,348.242 54.360,348.197 54.250 C 347.999 53.770,347.889 48.660,348.070 48.369 C 348.110 48.304,348.130 48.142,348.113 48.010 C 348.096 47.879,348.126 47.676,348.181 47.560 C 348.235 47.445,348.331 46.925,348.394 46.405 C 348.457 45.885,348.545 45.412,348.590 45.355 C 348.634 45.297,348.747 44.845,348.841 44.350 C 348.935 43.855,349.099 43.259,349.206 43.026 C 349.313 42.793,349.400 42.542,349.400 42.468 C 349.400 42.394,349.434 42.300,349.475 42.258 C 349.516 42.217,349.554 42.153,349.559 42.117 C 349.563 42.080,349.601 41.960,349.643 41.850 C 349.685 41.740,349.766 41.515,349.824 41.350 C 350.053 40.696,351.192 38.474,351.576 37.933 C 351.686 37.777,351.876 37.473,351.997 37.257 C 352.118 37.040,352.483 36.537,352.809 36.139 C 353.134 35.741,353.400 35.364,353.400 35.300 C 353.400 35.154,357.156 31.400,357.302 31.400 C 357.362 31.400,357.717 31.152,358.091 30.850 C 358.466 30.548,358.823 30.300,358.886 30.300 C 358.949 30.300,359.000 30.254,359.000 30.198 C 359.000 30.141,359.116 30.051,359.257 29.997 C 359.398 29.944,359.661 29.787,359.841 29.650 C 360.021 29.512,360.203 29.400,360.244 29.400 C 360.285 29.400,360.445 29.310,360.599 29.201 C 361.030 28.894,362.829 28.002,363.019 28.001 C 363.112 28.000,363.216 27.956,363.249 27.901 C 363.283 27.847,363.567 27.730,363.880 27.642 C 364.194 27.554,364.633 27.396,364.857 27.291 C 365.080 27.186,365.352 27.100,365.462 27.100 C 365.571 27.100,365.703 27.061,365.755 27.013 C 365.807 26.965,366.278 26.846,366.800 26.749 C 367.322 26.652,367.795 26.538,367.850 26.496 C 367.905 26.455,368.468 26.365,369.100 26.298 C 369.733 26.231,370.293 26.136,370.345 26.088 C 370.468 25.974,375.229 25.972,375.355 26.086 M26.361 43.356 C 20.480 44.524,19.436 54.043,24.900 56.671 C 27.575 57.957,30.686 57.632,33.400 55.781 L 34.050 55.337 34.077 52.769 L 34.103 50.200 31.152 50.200 L 28.200 50.200 28.200 50.998 L 28.200 51.796 30.225 51.823 L 32.250 51.850 32.278 53.116 L 32.306 54.382 32.028 54.578 C 29.680 56.236,26.301 56.146,24.580 54.380 C 22.482 52.225,22.846 47.296,25.224 45.665 C 27.524 44.087,31.031 44.763,31.894 46.950 C 32.215 47.762,32.182 47.745,33.048 47.541 L 33.815 47.360 33.750 47.017 C 33.221 44.192,30.052 42.622,26.361 43.356 M96.374 43.572 C 96.339 43.637,97.499 46.938,100.039 54.000 C 100.287 54.688,100.723 55.914,101.010 56.725 L 101.531 58.200 103.118 58.200 L 104.705 58.200 104.813 57.925 C 104.952 57.571,105.876 54.972,106.048 54.450 C 106.120 54.230,106.697 52.610,107.330 50.850 C 109.608 44.515,109.900 43.691,109.900 43.596 C 109.900 43.539,109.293 43.500,108.403 43.500 L 106.905 43.500 106.768 43.775 C 106.693 43.926,105.872 46.356,104.945 49.175 C 104.018 51.993,103.230 54.266,103.193 54.225 C 103.157 54.184,102.667 52.800,102.104 51.150 C 101.541 49.500,100.728 47.115,100.296 45.850 L 99.512 43.550 97.963 43.522 C 97.112 43.507,96.396 43.530,96.374 43.572 M160.200 43.572 C 160.201 43.666,160.459 44.397,162.753 50.800 C 163.728 53.523,164.716 56.290,164.949 56.950 L 165.371 58.150 166.973 58.177 L 168.574 58.205 169.032 56.927 C 169.478 55.684,170.157 53.769,170.655 52.350 C 170.790 51.965,171.547 49.850,172.338 47.650 C 173.129 45.450,173.744 43.615,173.705 43.572 C 173.666 43.529,172.966 43.507,172.148 43.522 L 170.662 43.550 168.918 48.850 C 167.959 51.765,167.157 54.169,167.137 54.192 C 167.044 54.297,167.156 54.610,164.434 46.700 L 163.350 43.550 161.775 43.522 C 160.909 43.507,160.200 43.530,160.200 43.572 M224.083 43.551 C 224.052 43.581,224.219 44.134,224.454 44.778 C 224.922 46.061,226.100 49.356,228.012 54.727 L 229.250 58.204 230.848 58.177 L 232.447 58.150 233.522 55.150 C 234.113 53.500,234.730 51.767,234.894 51.300 C 235.057 50.833,235.733 48.934,236.395 47.081 C 237.058 45.228,237.600 43.663,237.600 43.603 C 237.600 43.529,237.123 43.503,236.075 43.522 L 234.550 43.550 232.757 48.930 C 231.757 51.928,230.932 54.252,230.893 54.180 C 230.826 54.056,229.409 49.963,227.923 45.600 L 227.225 43.550 225.682 43.523 C 224.833 43.507,224.113 43.520,224.083 43.551 M287.950 43.600 C 287.916 43.655,287.918 43.748,287.954 43.806 C 287.990 43.865,288.236 44.528,288.501 45.281 C 289.300 47.550,292.898 57.623,293.054 58.025 C 293.140 58.249,296.242 58.297,296.326 58.075 C 296.352 58.006,297.105 55.903,297.998 53.400 C 300.182 47.283,300.400 46.673,300.982 45.050 C 301.258 44.280,301.450 43.615,301.409 43.572 C 301.368 43.529,300.669 43.507,299.856 43.522 L 298.378 43.550 296.627 48.850 C 294.840 54.258,294.836 54.269,294.751 54.184 C 294.690 54.123,291.518 44.902,291.282 44.100 C 291.226 43.907,291.133 43.694,291.077 43.625 C 290.950 43.469,288.045 43.446,287.950 43.600 M372.400 44.100 C 372.263 44.208,372.114 44.297,372.071 44.298 C 372.027 44.299,371.748 44.480,371.450 44.700 C 371.152 44.920,370.879 45.100,370.843 45.100 C 370.807 45.100,370.469 45.325,370.091 45.600 C 369.712 45.875,369.373 46.100,369.336 46.100 C 369.299 46.100,369.030 46.280,368.738 46.500 C 368.447 46.720,368.179 46.900,368.143 46.900 C 368.107 46.900,367.769 47.125,367.391 47.400 C 367.012 47.675,366.675 47.900,366.641 47.900 C 366.606 47.900,366.269 48.125,365.891 48.400 C 365.512 48.675,365.178 48.900,365.147 48.900 C 365.117 48.900,364.848 49.080,364.550 49.300 C 364.252 49.520,363.979 49.700,363.943 49.700 C 363.907 49.700,363.569 49.925,363.191 50.200 C 362.812 50.475,362.473 50.700,362.436 50.700 C 362.399 50.700,362.130 50.880,361.838 51.100 C 361.547 51.320,361.279 51.500,361.243 51.500 C 361.207 51.500,360.869 51.725,360.491 52.000 C 360.112 52.275,359.775 52.500,359.741 52.500 C 359.706 52.500,359.369 52.725,358.991 53.000 C 358.612 53.275,358.278 53.500,358.247 53.500 C 358.217 53.500,357.948 53.680,357.650 53.900 C 357.352 54.120,357.079 54.300,357.043 54.300 C 357.007 54.300,356.669 54.525,356.291 54.800 C 355.912 55.075,355.573 55.300,355.536 55.300 C 355.499 55.300,355.239 55.473,354.959 55.684 C 354.679 55.895,354.338 56.126,354.200 56.197 C 353.218 56.706,352.814 57.413,353.344 57.697 C 353.699 57.887,354.153 57.759,354.763 57.299 C 355.054 57.080,355.321 56.900,355.357 56.900 C 355.393 56.900,355.731 56.675,356.109 56.400 C 356.488 56.125,356.825 55.900,356.860 55.900 C 356.895 55.900,357.138 55.742,357.400 55.550 C 357.662 55.358,357.922 55.200,357.978 55.200 C 358.033 55.200,358.105 55.133,358.136 55.050 C 358.168 54.968,358.242 54.900,358.301 54.900 C 358.360 54.900,358.652 54.720,358.950 54.500 C 359.248 54.280,359.521 54.100,359.557 54.100 C 359.594 54.100,359.838 53.942,360.100 53.750 C 360.362 53.558,360.627 53.400,360.688 53.400 C 360.750 53.400,360.800 53.354,360.800 53.297 C 360.800 53.240,360.882 53.161,360.982 53.122 C 361.083 53.082,361.693 52.690,362.339 52.250 C 362.984 51.810,363.588 51.405,363.681 51.350 C 363.774 51.295,364.053 51.111,364.300 50.941 C 364.548 50.771,364.829 50.603,364.925 50.569 C 365.021 50.534,365.100 50.460,365.100 50.403 C 365.100 50.346,365.152 50.300,365.216 50.300 C 365.280 50.300,365.570 50.120,365.862 49.900 C 366.153 49.680,366.421 49.500,366.457 49.500 C 366.494 49.500,366.738 49.343,367.000 49.150 C 367.262 48.958,367.522 48.800,367.578 48.800 C 367.633 48.800,367.705 48.733,367.736 48.650 C 367.768 48.568,367.845 48.500,367.908 48.500 C 367.972 48.500,368.238 48.343,368.500 48.150 C 368.762 47.958,369.005 47.800,369.039 47.800 C 369.074 47.800,369.437 47.553,369.846 47.250 C 370.255 46.948,370.619 46.700,370.656 46.700 C 370.693 46.700,370.938 46.543,371.200 46.350 C 371.462 46.157,371.722 46.000,371.778 46.000 C 371.833 46.000,371.906 45.930,371.939 45.844 C 372.159 45.270,372.200 46.177,372.200 51.584 C 372.200 57.967,372.183 57.800,372.815 57.800 C 373.176 57.800,373.499 57.629,374.467 56.925 C 374.864 56.636,375.219 56.400,375.256 56.400 C 375.293 56.400,375.538 56.242,375.800 56.050 C 376.062 55.858,376.328 55.700,376.392 55.700 C 376.455 55.700,376.532 55.633,376.564 55.550 C 376.595 55.468,376.661 55.400,376.710 55.400 C 376.758 55.400,377.294 55.063,377.900 54.650 C 378.506 54.238,379.048 53.900,379.104 53.900 C 379.160 53.900,379.232 53.833,379.264 53.750 C 379.295 53.667,379.367 53.600,379.422 53.600 C 379.478 53.600,379.738 53.442,380.000 53.250 C 380.262 53.058,380.507 52.900,380.544 52.900 C 380.581 52.900,380.945 52.653,381.354 52.350 C 381.763 52.048,382.126 51.800,382.161 51.800 C 382.195 51.800,382.432 51.650,382.687 51.466 C 382.941 51.282,383.229 51.103,383.325 51.069 C 383.421 51.034,383.500 50.960,383.500 50.903 C 383.500 50.846,383.550 50.800,383.612 50.800 C 383.673 50.800,383.938 50.643,384.200 50.450 C 384.462 50.258,384.706 50.100,384.743 50.100 C 384.779 50.100,385.043 49.927,385.329 49.715 C 385.616 49.503,385.929 49.302,386.025 49.268 C 386.121 49.234,386.200 49.160,386.200 49.103 C 386.200 49.046,386.250 49.000,386.312 49.000 C 386.373 49.000,386.638 48.843,386.900 48.650 C 387.162 48.458,387.407 48.300,387.444 48.300 C 387.481 48.300,387.845 48.053,388.254 47.750 C 388.663 47.448,389.026 47.200,389.061 47.200 C 389.095 47.200,389.332 47.050,389.587 46.866 C 389.841 46.682,390.129 46.503,390.225 46.469 C 390.321 46.434,390.400 46.360,390.400 46.303 C 390.400 46.246,390.450 46.200,390.512 46.200 C 390.573 46.200,390.838 46.043,391.100 45.850 C 391.362 45.657,391.611 45.500,391.653 45.500 C 391.898 45.500,392.600 44.765,392.600 44.509 C 392.600 43.832,392.020 43.738,391.216 44.284 C 389.712 45.303,389.482 45.457,389.322 45.550 C 389.227 45.605,388.847 45.864,388.477 46.125 C 388.106 46.386,387.778 46.600,387.747 46.600 C 387.717 46.600,387.448 46.780,387.150 47.000 C 386.852 47.220,386.579 47.400,386.543 47.400 C 386.507 47.400,386.169 47.625,385.791 47.900 C 385.412 48.175,385.074 48.400,385.039 48.400 C 385.003 48.400,384.671 48.625,384.300 48.900 C 383.929 49.175,383.595 49.400,383.558 49.400 C 383.522 49.400,383.248 49.580,382.950 49.800 C 382.652 50.020,382.379 50.200,382.343 50.200 C 382.307 50.200,381.969 50.425,381.591 50.700 C 381.212 50.975,380.878 51.200,380.847 51.200 C 380.817 51.200,380.548 51.380,380.250 51.600 C 379.952 51.820,379.679 52.000,379.643 52.000 C 379.607 52.000,379.269 52.225,378.891 52.500 C 378.512 52.775,378.174 53.000,378.139 53.000 C 378.103 53.000,377.771 53.225,377.400 53.500 C 377.029 53.775,376.695 54.000,376.658 54.000 C 376.622 54.000,376.348 54.180,376.050 54.400 C 375.752 54.620,375.479 54.800,375.443 54.800 C 375.407 54.800,375.069 55.025,374.691 55.300 C 374.312 55.575,373.963 55.800,373.914 55.800 C 373.865 55.800,373.769 55.867,373.701 55.949 C 373.425 56.281,373.400 55.791,373.400 50.110 C 373.400 44.542,373.390 44.222,373.217 44.065 C 372.977 43.848,372.708 43.859,372.400 44.100 M72.800 75.392 C 72.800 75.500,73.797 78.097,75.952 83.600 C 76.415 84.783,77.083 86.493,77.435 87.400 L 78.076 89.050 79.005 89.050 L 79.934 89.050 80.802 86.850 C 81.279 85.640,82.147 83.435,82.730 81.950 C 83.314 80.465,84.131 78.387,84.546 77.332 C 84.961 76.277,85.300 75.386,85.300 75.353 C 85.300 75.320,84.885 75.305,84.379 75.321 L 83.457 75.350 83.036 76.450 C 82.804 77.055,82.323 78.338,81.966 79.300 C 81.610 80.263,80.949 82.040,80.499 83.250 C 80.048 84.460,79.542 85.866,79.373 86.375 C 79.204 86.884,79.040 87.299,79.008 87.298 C 78.976 87.298,78.719 86.611,78.437 85.773 C 78.154 84.936,77.689 83.598,77.403 82.800 C 76.688 80.809,76.098 79.163,75.612 77.800 C 75.387 77.168,75.096 76.358,74.967 76.000 L 74.732 75.350 73.766 75.321 C 73.175 75.304,72.800 75.331,72.800 75.392 M136.671 75.375 C 136.634 75.442,137.643 78.096,139.397 82.550 C 139.931 83.907,141.159 87.058,141.725 88.525 L 141.947 89.100 142.859 89.100 L 143.771 89.100 144.299 87.775 C 144.590 87.046,145.274 85.303,145.821 83.900 C 147.101 80.614,148.328 77.495,148.800 76.328 C 149.006 75.821,149.149 75.383,149.120 75.353 C 148.964 75.197,147.320 75.305,147.254 75.475 C 147.216 75.571,147.029 76.078,146.838 76.600 C 146.646 77.123,146.426 77.708,146.347 77.900 C 146.269 78.093,145.907 79.060,145.544 80.050 C 144.654 82.473,144.262 83.535,143.754 84.900 C 143.518 85.533,143.222 86.365,143.096 86.750 C 142.970 87.135,142.846 87.383,142.819 87.300 C 142.713 86.964,141.390 83.165,140.973 82.000 C 140.727 81.313,140.108 79.580,139.598 78.150 C 139.087 76.720,138.626 75.494,138.573 75.425 C 138.466 75.288,136.743 75.242,136.671 75.375 M200.500 75.394 C 200.500 75.449,200.640 75.845,200.811 76.272 C 200.982 76.700,201.339 77.613,201.603 78.300 C 202.121 79.649,203.540 83.290,204.427 85.550 C 204.729 86.320,205.165 87.434,205.396 88.025 L 205.815 89.100 206.737 89.100 L 207.660 89.100 207.794 88.725 C 207.868 88.519,208.398 87.158,208.972 85.700 C 209.545 84.243,210.121 82.780,210.250 82.450 C 210.379 82.120,210.865 80.883,211.330 79.700 C 212.750 76.090,213.000 75.442,213.000 75.366 C 213.000 75.325,212.587 75.305,212.082 75.321 L 211.164 75.350 210.986 75.800 C 210.887 76.047,210.585 76.858,210.313 77.600 C 210.041 78.343,209.313 80.300,208.696 81.950 C 208.078 83.600,207.379 85.513,207.143 86.200 C 206.907 86.888,206.691 87.383,206.665 87.300 C 206.125 85.626,205.765 84.600,203.721 78.900 L 202.447 75.350 201.474 75.321 C 200.866 75.304,200.500 75.331,200.500 75.394 M264.377 75.357 C 264.346 75.388,264.431 75.692,264.566 76.032 C 264.702 76.372,264.987 77.100,265.201 77.650 C 265.414 78.200,265.809 79.213,266.079 79.900 C 266.734 81.572,269.155 87.802,269.431 88.526 L 269.650 89.103 270.585 89.076 L 271.519 89.050 272.494 86.550 C 273.514 83.934,275.405 79.119,276.332 76.779 C 276.963 75.187,276.993 75.300,275.946 75.300 C 274.962 75.300,275.024 75.242,274.511 76.655 C 274.075 77.858,273.153 80.346,272.197 82.900 C 271.616 84.454,270.606 87.289,270.595 87.400 C 270.592 87.427,270.328 86.685,270.009 85.750 C 269.689 84.815,268.787 82.273,268.004 80.100 C 267.221 77.928,266.533 76.015,266.476 75.850 C 266.293 75.328,266.234 75.300,265.304 75.300 C 264.825 75.300,264.408 75.325,264.377 75.357 M332.750 78.433 C 328.941 79.234,326.725 83.924,328.172 88.123 C 330.361 94.472,339.244 93.921,340.698 87.346 C 341.923 81.804,337.944 77.342,332.750 78.433 M346.263 78.409 C 342.787 79.122,341.680 83.083,344.461 84.862 C 345.285 85.389,345.729 85.539,348.425 86.203 C 350.825 86.795,351.562 87.388,351.481 88.663 C 351.388 90.126,350.284 90.849,348.150 90.845 C 345.872 90.841,344.678 90.091,344.216 88.376 L 344.048 87.750 343.224 87.721 L 342.400 87.692 342.400 88.085 C 342.400 88.302,342.489 88.768,342.599 89.122 C 344.205 94.323,353.700 93.438,353.273 88.127 C 353.103 86.011,351.956 85.181,347.764 84.146 C 345.447 83.574,344.937 83.279,344.692 82.370 C 344.248 80.723,346.480 79.497,348.931 80.043 C 350.102 80.303,350.655 80.780,351.012 81.837 L 351.186 82.350 351.958 82.379 C 352.895 82.415,352.936 82.381,352.791 81.692 C 352.264 79.189,349.424 77.761,346.263 78.409 M360.150 78.439 C 355.843 79.293,353.842 84.927,356.214 89.522 C 358.245 93.455,364.288 93.683,366.495 89.910 C 367.040 88.978,367.377 88.010,367.196 87.897 C 367.070 87.819,365.783 87.500,365.595 87.500 C 365.550 87.500,365.445 87.738,365.360 88.030 C 364.539 90.855,361.082 91.844,358.722 89.929 C 356.971 88.508,356.562 84.025,357.980 81.800 C 359.634 79.204,363.677 79.296,364.958 81.959 C 365.360 82.796,365.335 82.786,366.400 82.515 C 367.167 82.320,367.168 82.315,366.632 81.207 C 365.527 78.929,363.037 77.866,360.150 78.439 M335.523 80.086 C 338.196 80.827,339.610 83.843,338.843 87.169 C 337.680 92.211,330.914 92.171,329.796 87.116 C 328.805 82.635,331.737 79.036,335.523 80.086 M154.225 81.390 C 153.616 81.616,153.199 81.927,152.936 82.349 C 152.497 83.054,152.363 83.799,152.675 83.801 C 152.771 83.802,153.012 83.829,153.211 83.862 C 153.567 83.921,153.572 83.917,153.635 83.518 C 153.917 81.755,156.935 81.827,157.173 83.602 C 157.286 84.444,156.602 85.315,154.327 87.226 C 153.227 88.150,152.688 88.803,152.407 89.554 C 152.061 90.480,151.803 90.406,155.275 90.376 L 158.350 90.350 158.380 89.825 L 158.410 89.300 156.155 89.300 C 153.328 89.300,153.349 89.394,155.728 87.415 C 158.019 85.510,158.637 84.367,158.158 82.925 C 157.696 81.535,155.811 80.799,154.225 81.390 M218.299 81.293 C 217.508 81.534,216.822 82.198,216.555 82.979 C 216.348 83.588,216.346 83.582,216.775 83.654 C 216.981 83.689,217.224 83.737,217.313 83.762 C 217.426 83.792,217.498 83.721,217.546 83.528 C 217.815 82.450,218.865 81.939,219.873 82.396 C 221.308 83.048,220.717 84.988,219.081 84.998 C 218.654 85.000,218.646 85.009,218.551 85.583 L 218.480 86.015 218.933 85.947 C 220.872 85.657,221.895 88.045,220.304 89.147 C 219.280 89.857,218.054 89.499,217.542 88.341 L 217.313 87.824 216.882 87.908 C 216.644 87.954,216.416 87.993,216.375 87.996 C 216.220 88.005,216.309 88.478,216.559 88.980 C 217.800 91.472,221.790 90.805,222.247 88.030 C 222.414 87.014,221.754 85.743,220.956 85.543 C 220.628 85.460,220.626 85.466,221.115 85.025 C 222.936 83.382,220.788 80.536,218.299 81.293 M283.840 81.520 C 283.727 81.647,283.388 82.088,283.086 82.500 C 282.381 83.461,281.332 84.887,280.419 86.125 C 279.732 87.057,279.700 87.125,279.700 87.650 L 279.700 88.200 281.700 88.200 L 283.700 88.200 283.700 89.305 L 283.700 90.410 284.260 90.380 L 284.821 90.350 284.835 89.300 L 284.850 88.250 285.475 88.220 L 286.100 88.190 286.100 87.650 L 286.100 87.110 285.475 87.080 L 284.850 87.050 284.830 84.200 L 284.810 81.350 284.427 81.320 C 284.130 81.297,283.998 81.342,283.840 81.520 M91.500 81.801 L 91.050 82.090 91.000 82.920 L 90.950 83.750 90.585 83.780 C 90.229 83.810,90.218 83.823,90.183 84.263 C 90.140 84.805,90.136 84.800,90.617 84.800 L 91.000 84.800 91.000 87.153 C 91.000 90.257,91.115 90.502,92.565 90.498 C 93.322 90.496,93.393 90.444,93.313 89.950 C 93.251 89.568,93.229 89.549,92.849 89.518 C 92.103 89.457,92.100 89.448,92.100 86.985 L 92.100 84.800 92.650 84.800 L 93.200 84.800 93.200 84.305 L 93.200 83.810 92.675 83.780 L 92.150 83.750 92.122 82.625 C 92.106 82.006,92.061 81.503,92.022 81.506 C 91.982 81.510,91.748 81.643,91.500 81.801 M283.700 85.200 L 283.700 87.100 282.292 87.100 C 281.517 87.100,280.898 87.064,280.917 87.020 C 281.001 86.818,283.559 83.310,283.625 83.305 C 283.666 83.302,283.700 84.155,283.700 85.200 " stroke="none" fill="#000000" fill-rule="evenodd"></path></g></svg>
