<svg id="svg" xmlns="http://www.w3.org/2000/svg" xmlns:xlink="http://www.w3.org/1999/xlink" width="400" height="172.18934911242602" viewBox="0, 0, 400,172.18934911242602"><g id="svgg"><path id="path0" d="M67.641 4.955 C 67.350 5.285,67.383 9.371,67.678 9.615 C 68.190 10.041,68.343 9.561,68.343 7.526 L 68.343 5.621 71.893 5.621 L 75.444 5.621 75.444 5.178 L 75.444 4.734 71.635 4.739 C 68.535 4.744,67.791 4.784,67.641 4.955 M80.030 4.956 C 79.883 5.133,79.883 5.222,80.030 5.399 C 80.306 5.733,91.587 5.733,91.864 5.399 C 92.383 4.774,92.030 4.734,85.947 4.734 C 81.031 4.734,80.187 4.765,80.030 4.956 M96.635 4.955 C 96.051 5.617,96.084 5.621,102.367 5.621 L 108.284 5.621 108.284 5.178 L 108.284 4.734 102.552 4.739 C 97.791 4.744,96.788 4.781,96.635 4.955 M112.870 4.956 C 112.349 5.584,112.693 5.621,118.953 5.621 C 125.225 5.621,125.307 5.612,124.641 4.945 C 124.317 4.621,113.139 4.631,112.870 4.956 M129.475 4.955 C 128.892 5.617,128.926 5.621,135.189 5.621 C 141.449 5.621,141.793 5.584,141.272 4.956 C 141.004 4.632,129.759 4.632,129.475 4.955 M145.858 5.178 L 145.858 5.621 151.775 5.621 C 157.056 5.621,157.692 5.596,157.692 5.389 C 157.692 4.747,157.565 4.734,151.564 4.734 L 145.858 4.734 145.858 5.178 M162.315 4.955 C 161.732 5.617,161.766 5.621,168.029 5.621 C 174.289 5.621,174.634 5.584,174.112 4.956 C 173.844 4.632,162.600 4.632,162.315 4.955 M178.698 5.178 L 178.698 5.621 184.615 5.621 L 190.533 5.621 190.533 5.178 L 190.533 4.734 184.615 4.734 L 178.698 4.734 178.698 5.178 M195.118 4.956 C 194.971 5.133,194.971 5.222,195.118 5.399 C 195.395 5.733,206.676 5.733,206.953 5.399 C 207.472 4.774,207.118 4.734,201.036 4.734 C 196.120 4.734,195.276 4.765,195.118 4.956 M211.538 5.178 L 211.538 5.621 217.456 5.621 L 223.373 5.621 223.373 5.178 L 223.373 4.734 217.456 4.734 L 211.538 4.734 211.538 5.178 M227.959 4.956 C 227.812 5.133,227.812 5.222,227.959 5.399 C 228.235 5.733,239.516 5.733,239.793 5.399 C 240.312 4.774,239.959 4.734,233.876 4.734 C 228.960 4.734,228.116 4.765,227.959 4.956 M244.564 4.955 C 243.980 5.617,244.013 5.621,250.296 5.621 L 256.213 5.621 256.213 5.178 L 256.213 4.734 250.481 4.739 C 245.720 4.744,244.717 4.781,244.564 4.955 M260.799 4.956 C 260.283 5.578,260.652 5.621,266.438 5.621 L 271.893 5.621 271.893 7.526 C 271.893 9.561,272.046 10.041,272.559 9.615 C 272.876 9.353,272.885 5.260,272.570 4.945 C 272.246 4.621,261.068 4.631,260.799 4.956 M280.954 4.955 C 280.829 5.097,280.769 5.717,280.769 6.872 L 280.769 8.580 281.213 8.580 L 281.657 8.580 281.657 7.101 C 281.657 6.213,281.716 5.621,281.805 5.621 C 281.886 5.621,281.953 5.422,281.953 5.178 C 281.953 4.679,281.321 4.538,280.954 4.955 M286.538 4.956 C 286.392 5.133,286.392 5.222,286.538 5.399 C 286.815 5.733,298.096 5.733,298.373 5.399 C 298.892 4.774,298.538 4.734,292.456 4.734 C 287.540 4.734,286.696 4.765,286.538 4.956 M303.107 4.956 C 302.587 5.582,302.940 5.621,309.042 5.621 L 314.793 5.621 314.793 5.178 L 314.793 4.734 309.042 4.734 C 304.110 4.734,303.264 4.765,303.107 4.956 M319.379 4.956 C 319.232 5.133,319.232 5.222,319.379 5.399 C 319.656 5.733,330.936 5.733,331.213 5.399 C 331.732 4.774,331.379 4.734,325.296 4.734 C 320.380 4.734,319.537 4.765,319.379 4.956 M335.947 4.956 C 335.427 5.582,335.780 5.621,341.882 5.621 L 347.633 5.621 347.633 5.178 L 347.633 4.734 341.882 4.734 C 336.950 4.734,336.105 4.765,335.947 4.956 M352.219 4.956 C 352.072 5.133,352.072 5.222,352.219 5.399 C 352.496 5.733,363.776 5.733,364.053 5.399 C 364.573 4.774,364.219 4.734,358.136 4.734 C 353.221 4.734,352.377 4.765,352.219 4.956 M368.787 4.956 C 368.267 5.582,368.620 5.621,374.722 5.621 L 380.473 5.621 380.473 5.178 L 380.473 4.734 374.722 4.734 C 369.791 4.734,368.945 4.765,368.787 4.956 M385.059 4.956 C 384.912 5.133,384.912 5.222,385.059 5.399 C 385.336 5.733,396.617 5.733,396.893 5.399 C 397.413 4.774,397.059 4.734,390.976 4.734 C 386.061 4.734,385.217 4.765,385.059 4.956 M116.272 14.497 L 116.272 18.047 100.951 18.047 C 87.870 18.047,85.599 18.078,85.418 18.259 C 85.240 18.437,85.207 19.913,85.207 27.811 C 85.207 37.898,85.233 37.574,84.437 37.574 C 84.245 37.574,83.993 37.707,83.876 37.870 C 83.758 38.033,83.544 38.166,83.399 38.166 C 83.246 38.166,83.136 38.275,83.136 38.429 C 83.136 38.574,83.003 38.788,82.840 38.905 C 82.678 39.023,82.544 39.237,82.544 39.382 C 82.544 39.527,82.478 39.645,82.396 39.645 C 82.315 39.645,82.249 39.778,82.249 39.941 C 82.249 40.232,82.150 40.237,75.296 40.237 L 68.343 40.237 68.343 35.355 C 68.343 31.016,68.317 30.473,68.111 30.473 C 67.481 30.473,67.456 30.668,67.456 35.566 L 67.456 40.237 49.915 40.237 C 34.911 40.237,32.345 40.267,32.164 40.448 C 31.986 40.626,31.953 41.893,31.953 48.436 L 31.953 56.213 18.639 56.213 L 5.325 56.213 5.325 83.284 L 5.325 110.355 18.639 110.355 L 31.953 110.355 31.953 126.923 L 31.953 143.491 28.022 143.491 C 24.813 143.491,24.053 143.530,23.880 143.702 C 23.564 144.019,23.624 144.496,24.032 144.903 L 24.395 145.266 32.464 145.266 C 37.744 145.266,40.533 145.215,40.533 145.118 C 40.533 145.037,40.637 144.970,40.765 144.970 C 40.893 144.970,41.093 144.875,41.209 144.759 C 41.451 144.517,41.492 144.083,41.272 144.083 C 41.191 144.083,41.124 143.950,41.124 143.787 C 41.124 143.498,41.026 143.491,36.982 143.491 L 32.840 143.491 32.840 126.923 L 32.840 110.355 46.154 110.355 L 59.467 110.355 59.467 83.284 L 59.467 56.213 46.154 56.213 L 32.840 56.213 32.840 48.669 L 32.840 41.124 50.148 41.124 L 67.456 41.124 67.456 41.653 C 67.456 42.212,67.725 42.604,68.111 42.604 C 68.291 42.604,68.343 42.438,68.343 41.864 L 68.343 41.124 75.296 41.124 C 82.150 41.124,82.249 41.128,82.249 41.420 C 82.249 41.583,82.315 41.716,82.396 41.716 C 82.478 41.716,82.544 41.834,82.544 41.979 C 82.544 42.124,82.678 42.338,82.840 42.456 C 83.003 42.573,83.136 42.787,83.136 42.932 C 83.136 43.086,83.246 43.195,83.399 43.195 C 83.544 43.195,83.758 43.328,83.876 43.491 C 83.993 43.654,84.245 43.787,84.437 43.787 C 85.233 43.787,85.207 43.463,85.207 53.550 C 85.207 61.448,85.240 62.924,85.418 63.102 C 85.600 63.284,89.093 63.314,110.123 63.314 L 134.615 63.314 134.615 65.018 L 134.615 66.722 128.538 72.791 C 122.382 78.940,122.085 79.290,123.024 79.290 C 123.138 79.290,125.757 76.760,128.844 73.669 C 131.931 70.577,134.493 68.047,134.536 68.047 C 134.580 68.047,134.615 70.547,134.615 73.601 L 134.615 79.155 134.978 79.519 C 135.432 79.972,135.574 79.972,136.027 79.519 L 136.391 79.155 136.391 72.642 L 136.391 66.129 138.971 63.538 C 140.390 62.113,141.588 60.947,141.633 60.947 C 141.679 60.947,141.716 65.044,141.716 70.051 L 141.716 79.155 142.079 79.519 C 142.533 79.972,142.674 79.972,143.128 79.519 L 143.491 79.155 143.491 71.235 L 143.491 63.314 167.984 63.314 C 189.014 63.314,192.507 63.284,192.688 63.102 C 192.867 62.923,192.899 61.420,192.899 53.339 L 192.899 43.787 193.311 43.787 C 193.552 43.787,193.810 43.665,193.935 43.491 C 194.052 43.328,194.267 43.195,194.411 43.195 C 194.565 43.195,194.675 43.086,194.675 42.932 C 194.675 42.787,194.808 42.573,194.970 42.456 C 195.133 42.338,195.266 42.124,195.266 41.979 C 195.266 41.834,195.333 41.716,195.414 41.716 C 195.496 41.716,195.562 41.583,195.562 41.420 C 195.562 41.128,195.661 41.124,202.663 41.124 L 209.763 41.124 209.763 42.751 C 209.763 43.738,209.822 44.379,209.911 44.379 C 209.996 44.379,210.059 44.822,210.059 45.414 C 210.059 46.006,210.123 46.450,210.207 46.450 C 210.289 46.450,210.355 46.844,210.355 47.337 C 210.355 47.830,210.421 48.225,210.503 48.225 C 210.584 48.225,210.651 48.425,210.651 48.669 C 210.651 48.913,210.717 49.112,210.799 49.112 C 210.880 49.112,210.947 49.379,210.947 49.704 C 210.947 50.030,211.013 50.296,211.095 50.296 C 211.176 50.296,211.243 50.496,211.243 50.740 C 211.243 50.984,211.309 51.183,211.391 51.183 C 211.472 51.183,211.538 51.317,211.538 51.479 C 211.538 51.642,211.605 51.775,211.686 51.775 C 211.768 51.775,211.834 51.975,211.834 52.219 C 211.834 52.463,211.901 52.663,211.982 52.663 C 212.064 52.663,212.130 52.796,212.130 52.959 C 212.130 53.121,212.197 53.254,212.278 53.254 C 212.359 53.254,212.426 53.388,212.426 53.550 C 212.426 53.713,212.493 53.846,212.574 53.846 C 212.655 53.846,212.722 53.965,212.722 54.109 C 212.722 54.254,212.855 54.469,213.018 54.586 C 213.180 54.703,213.314 54.917,213.314 55.062 C 213.314 55.207,213.380 55.325,213.462 55.325 C 213.543 55.325,213.609 55.427,213.609 55.550 C 213.609 55.823,215.450 57.692,215.719 57.692 C 215.825 57.692,216.007 57.825,216.124 57.988 C 216.242 58.151,216.456 58.284,216.601 58.284 C 216.745 58.284,216.864 58.351,216.864 58.432 C 216.864 58.513,217.064 58.580,217.308 58.580 C 217.552 58.580,217.751 58.646,217.751 58.728 C 217.751 58.809,217.951 58.876,218.195 58.876 L 218.639 58.876 218.639 74.408 L 218.639 89.941 214.793 89.941 C 212.327 89.941,210.947 89.994,210.947 90.089 C 210.947 90.170,210.814 90.237,210.651 90.237 C 210.458 90.237,210.355 90.335,210.355 90.520 C 210.355 90.676,210.272 90.843,210.170 90.890 C 210.022 90.959,210.022 90.994,210.170 91.063 C 210.272 91.110,210.355 91.277,210.355 91.432 C 210.355 91.814,227.220 91.884,227.599 91.505 C 227.915 91.189,227.855 90.712,227.448 90.304 L 227.084 89.941 223.306 89.941 L 219.527 89.941 219.527 74.408 L 219.527 58.876 236.834 58.876 L 254.142 58.876 254.142 74.408 L 254.142 89.941 250.296 89.941 C 247.830 89.941,246.450 89.994,246.450 90.089 C 246.450 90.170,246.317 90.237,246.154 90.237 C 245.961 90.237,245.858 90.335,245.858 90.520 C 245.858 90.676,245.775 90.835,245.673 90.874 C 245.550 90.921,245.621 91.073,245.889 91.330 L 246.289 91.716 254.590 91.716 C 263.762 91.716,263.314 91.765,263.314 90.765 C 263.314 90.335,263.258 90.237,263.018 90.237 C 262.855 90.237,262.722 90.170,262.722 90.089 C 262.722 89.994,261.341 89.941,258.876 89.941 L 255.030 89.941 255.030 74.408 C 255.030 58.974,255.031 58.876,255.325 58.876 C 255.488 58.876,255.621 58.809,255.621 58.728 C 255.621 58.646,255.888 58.580,256.213 58.580 C 256.538 58.580,256.805 58.513,256.805 58.432 C 256.805 58.351,256.923 58.284,257.068 58.284 C 257.213 58.284,257.427 58.151,257.544 57.988 C 257.662 57.825,257.845 57.692,257.951 57.692 C 258.187 57.692,259.467 56.434,259.467 56.202 C 259.467 56.111,259.667 55.849,259.911 55.621 C 260.155 55.393,260.355 55.115,260.355 55.003 C 260.355 54.891,260.488 54.703,260.651 54.586 C 260.814 54.469,260.947 54.254,260.947 54.109 C 260.947 53.965,261.013 53.846,261.095 53.846 C 261.176 53.846,261.243 53.713,261.243 53.550 C 261.243 53.388,261.309 53.254,261.391 53.254 C 261.472 53.254,261.538 53.121,261.538 52.959 C 261.538 52.796,261.605 52.663,261.686 52.663 C 261.768 52.663,261.834 52.463,261.834 52.219 C 261.834 51.975,261.901 51.775,261.982 51.775 C 262.064 51.775,262.130 51.642,262.130 51.479 C 262.130 51.317,262.197 51.183,262.278 51.183 C 262.359 51.183,262.426 50.917,262.426 50.592 C 262.426 50.266,262.493 50.000,262.574 50.000 C 262.655 50.000,262.722 49.800,262.722 49.556 C 262.722 49.312,262.788 49.112,262.870 49.112 C 262.951 49.112,263.018 48.846,263.018 48.521 C 263.018 48.195,263.084 47.929,263.166 47.929 C 263.248 47.929,263.314 47.535,263.314 47.041 C 263.314 46.548,263.379 46.154,263.462 46.154 C 263.549 46.154,263.609 45.611,263.609 44.822 C 263.609 44.034,263.670 43.491,263.757 43.491 C 263.844 43.491,263.905 42.998,263.905 42.308 L 263.905 41.124 267.899 41.124 L 271.893 41.124 271.893 41.698 C 271.893 42.380,272.213 42.743,272.559 42.456 C 272.687 42.350,272.781 42.027,272.781 41.698 L 272.781 41.124 276.714 41.124 C 280.611 41.124,280.650 41.127,280.930 41.457 L 281.213 41.790 281.496 41.457 L 281.778 41.124 293.108 41.124 C 304.339 41.124,304.438 41.127,304.438 41.420 C 304.438 41.583,304.504 41.716,304.586 41.716 C 304.667 41.716,304.734 41.834,304.734 41.979 C 304.734 42.124,304.867 42.338,305.030 42.456 C 305.192 42.573,305.325 42.787,305.325 42.932 C 305.325 43.086,305.435 43.195,305.589 43.195 C 305.733 43.195,305.948 43.328,306.065 43.491 C 306.182 43.654,306.435 43.787,306.626 43.787 C 307.421 43.787,307.396 43.482,307.396 53.318 L 307.396 62.426 303.846 62.426 L 300.296 62.426 300.296 85.059 L 300.296 107.692 303.846 107.692 L 307.396 107.692 307.396 118.724 C 307.396 128.087,307.428 129.787,307.608 129.966 C 307.786 130.145,309.262 130.178,317.160 130.178 C 326.967 130.178,326.923 130.175,326.923 130.800 C 326.923 130.910,327.056 131.096,327.219 131.213 C 327.382 131.330,327.515 131.545,327.515 131.689 C 327.515 131.843,327.624 131.953,327.778 131.953 C 327.923 131.953,328.137 132.086,328.254 132.249 C 328.372 132.411,328.624 132.544,328.815 132.544 C 329.584 132.544,329.586 132.560,329.586 138.229 L 329.586 143.491 325.655 143.491 C 322.446 143.491,321.686 143.530,321.513 143.702 C 321.197 144.019,321.257 144.496,321.665 144.903 L 322.028 145.266 330.097 145.266 C 335.377 145.266,338.166 145.215,338.166 145.118 C 338.166 145.037,338.270 144.970,338.398 144.970 C 338.526 144.970,338.726 144.875,338.842 144.759 C 339.084 144.517,339.125 144.083,338.905 144.083 C 338.824 144.083,338.757 143.950,338.757 143.787 C 338.757 143.498,338.659 143.491,334.615 143.491 L 330.473 143.491 330.473 138.229 C 330.473 132.560,330.475 132.544,331.244 132.544 C 331.435 132.544,331.687 132.411,331.805 132.249 C 331.922 132.086,332.136 131.953,332.281 131.953 C 332.435 131.953,332.544 131.843,332.544 131.689 C 332.544 131.545,332.678 131.330,332.840 131.213 C 333.003 131.096,333.136 130.910,333.136 130.800 C 333.136 130.175,333.092 130.178,342.899 130.178 C 350.797 130.178,352.273 130.145,352.451 129.966 C 352.632 129.785,352.663 126.884,352.663 109.700 L 352.663 89.645 360.584 89.645 L 368.505 89.645 368.868 89.282 C 369.321 88.828,369.321 88.687,368.868 88.233 L 368.505 87.870 352.215 87.870 C 334.344 87.870,335.503 87.808,335.503 88.757 C 335.503 89.682,335.156 89.645,343.850 89.645 L 351.775 89.645 351.775 109.467 L 351.775 129.290 342.604 129.290 L 333.432 129.290 333.432 128.846 C 333.432 128.602,333.365 128.402,333.284 128.402 C 333.203 128.402,333.136 128.284,333.136 128.139 C 333.136 127.994,333.003 127.780,332.840 127.663 C 332.678 127.545,332.544 127.331,332.544 127.186 C 332.544 127.033,332.435 126.923,332.281 126.923 C 332.136 126.923,331.922 126.790,331.805 126.627 C 331.680 126.453,331.422 126.331,331.180 126.331 C 330.954 126.331,330.769 126.265,330.769 126.183 C 330.769 126.102,330.436 126.036,330.030 126.036 C 329.623 126.036,329.290 126.102,329.290 126.183 C 329.290 126.265,329.105 126.331,328.879 126.331 C 328.637 126.331,328.380 126.453,328.254 126.627 C 328.137 126.790,327.923 126.923,327.778 126.923 C 327.624 126.923,327.515 127.033,327.515 127.186 C 327.515 127.331,327.382 127.545,327.219 127.663 C 327.056 127.780,326.923 127.994,326.923 128.139 C 326.923 128.284,326.857 128.402,326.775 128.402 C 326.694 128.402,326.627 128.602,326.627 128.846 L 326.627 129.290 317.456 129.290 L 308.284 129.290 308.284 118.491 L 308.284 107.692 311.834 107.692 L 315.385 107.692 315.385 85.059 L 315.385 62.426 311.834 62.426 L 308.284 62.426 308.284 53.318 C 308.284 43.482,308.259 43.787,309.054 43.787 C 309.246 43.787,309.498 43.654,309.615 43.491 C 309.733 43.328,309.947 43.195,310.092 43.195 C 310.246 43.195,310.355 43.086,310.355 42.932 C 310.355 42.787,310.488 42.573,310.651 42.456 C 310.814 42.338,310.947 42.124,310.947 41.979 C 310.947 41.834,311.013 41.716,311.095 41.716 C 311.176 41.716,311.243 41.583,311.243 41.420 C 311.243 41.126,311.341 41.124,330.030 41.124 C 348.718 41.124,348.817 41.126,348.817 41.420 C 348.817 41.583,348.883 41.716,348.964 41.716 C 349.046 41.716,349.112 41.834,349.112 41.979 C 349.112 42.124,349.246 42.338,349.408 42.456 C 349.571 42.573,349.704 42.787,349.704 42.932 C 349.704 43.086,349.814 43.195,349.967 43.195 C 350.112 43.195,350.327 43.328,350.444 43.491 C 350.561 43.654,350.814 43.787,351.005 43.787 C 351.820 43.787,351.775 42.704,351.775 62.489 L 351.775 80.769 343.850 80.769 C 335.156 80.769,335.503 80.732,335.503 81.657 C 335.503 82.606,334.344 82.544,352.215 82.544 L 368.505 82.544 368.868 82.181 C 369.067 81.982,369.231 81.746,369.231 81.657 C 369.231 81.568,369.067 81.332,368.868 81.132 L 368.505 80.769 360.584 80.769 L 352.663 80.769 352.663 62.489 C 352.663 42.704,352.618 43.787,353.433 43.787 C 353.624 43.787,353.877 43.654,353.994 43.491 C 354.111 43.328,354.326 43.195,354.471 43.195 C 354.624 43.195,354.734 43.086,354.734 42.932 C 354.734 42.787,354.867 42.573,355.030 42.456 C 355.192 42.338,355.325 42.124,355.325 41.979 C 355.325 41.834,355.392 41.716,355.473 41.716 C 355.555 41.716,355.621 41.583,355.621 41.420 C 355.621 41.126,355.720 41.124,368.935 41.124 L 382.249 41.124 382.249 41.568 C 382.249 41.812,382.315 42.012,382.396 42.012 C 382.478 42.012,382.544 42.278,382.544 42.604 C 382.544 42.929,382.611 43.195,382.692 43.195 C 382.774 43.195,382.840 43.314,382.840 43.458 C 382.840 43.603,382.973 43.818,383.136 43.935 C 383.299 44.052,383.432 44.236,383.432 44.344 C 383.432 44.598,384.100 45.266,384.354 45.266 C 384.462 45.266,384.646 45.399,384.763 45.562 C 384.881 45.725,385.095 45.858,385.240 45.858 C 385.385 45.858,385.503 45.925,385.503 46.006 C 385.503 46.087,385.769 46.154,386.095 46.154 C 386.420 46.154,386.686 46.220,386.686 46.302 C 386.686 46.386,387.130 46.450,387.722 46.450 C 388.314 46.450,388.757 46.386,388.757 46.302 C 388.757 46.220,389.076 46.154,389.464 46.154 C 390.002 46.154,390.223 46.083,390.385 45.858 C 390.502 45.695,390.702 45.562,390.828 45.562 C 390.955 45.562,391.155 45.429,391.272 45.266 C 391.389 45.104,391.575 44.970,391.685 44.970 C 391.943 44.970,392.308 44.605,392.308 44.348 C 392.308 44.238,392.441 44.052,392.604 43.935 C 392.766 43.818,392.899 43.603,392.899 43.458 C 392.899 43.314,392.966 43.195,393.047 43.195 C 393.129 43.195,393.195 42.929,393.195 42.604 C 393.195 42.278,393.262 42.012,393.343 42.012 C 393.431 42.012,393.491 41.469,393.491 40.680 C 393.491 39.892,393.431 39.349,393.343 39.349 C 393.262 39.349,393.195 39.098,393.195 38.790 C 393.195 38.401,393.105 38.166,392.899 38.018 C 392.737 37.900,392.604 37.718,392.604 37.611 C 392.604 37.360,391.338 36.095,391.087 36.095 C 390.981 36.095,390.798 35.962,390.680 35.799 C 390.555 35.625,390.298 35.503,390.056 35.503 C 389.830 35.503,389.645 35.436,389.645 35.355 C 389.645 35.274,389.312 35.207,388.905 35.207 C 388.499 35.207,388.166 35.141,388.166 35.059 C 388.166 34.978,387.966 34.911,387.722 34.911 C 387.478 34.911,387.278 34.978,387.278 35.059 C 387.278 35.141,386.945 35.207,386.538 35.207 C 386.132 35.207,385.799 35.274,385.799 35.355 C 385.799 35.436,385.680 35.503,385.536 35.503 C 385.391 35.503,385.176 35.636,385.059 35.799 C 384.942 35.962,384.759 36.095,384.653 36.095 C 384.401 36.095,383.136 37.360,383.136 37.611 C 383.136 37.718,383.003 37.900,382.840 38.018 C 382.666 38.143,382.544 38.401,382.544 38.642 C 382.544 38.868,382.478 39.053,382.396 39.053 C 382.315 39.053,382.249 39.320,382.249 39.645 L 382.249 40.237 368.935 40.237 C 355.720 40.237,355.621 40.234,355.621 39.941 C 355.621 39.778,355.555 39.645,355.473 39.645 C 355.392 39.645,355.325 39.527,355.325 39.382 C 355.325 39.237,355.192 39.023,355.030 38.905 C 354.867 38.788,354.734 38.574,354.734 38.429 C 354.734 38.275,354.624 38.166,354.471 38.166 C 354.326 38.166,354.111 38.033,353.994 37.870 C 353.869 37.696,353.611 37.574,353.370 37.574 C 353.144 37.574,352.959 37.507,352.959 37.426 C 352.959 37.345,352.626 37.278,352.219 37.278 C 351.812 37.278,351.479 37.345,351.479 37.426 C 351.479 37.507,351.294 37.574,351.068 37.574 C 350.827 37.574,350.569 37.696,350.444 37.870 C 350.327 38.033,350.112 38.166,349.967 38.166 C 349.814 38.166,349.704 38.275,349.704 38.429 C 349.704 38.574,349.571 38.788,349.408 38.905 C 349.246 39.023,349.112 39.237,349.112 39.382 C 349.112 39.527,349.046 39.645,348.964 39.645 C 348.883 39.645,348.817 39.778,348.817 39.941 C 348.817 40.235,348.718 40.237,330.030 40.237 C 311.341 40.237,311.243 40.235,311.243 39.941 C 311.243 39.778,311.176 39.645,311.095 39.645 C 311.013 39.645,310.947 39.527,310.947 39.382 C 310.947 39.237,310.814 39.023,310.651 38.905 C 310.488 38.788,310.355 38.574,310.355 38.429 C 310.355 38.275,310.246 38.166,310.092 38.166 C 309.947 38.166,309.733 38.033,309.615 37.870 C 309.490 37.696,309.232 37.574,308.991 37.574 C 308.765 37.574,308.580 37.507,308.580 37.426 C 308.580 37.345,308.247 37.278,307.840 37.278 C 307.433 37.278,307.101 37.345,307.101 37.426 C 307.101 37.507,306.916 37.574,306.689 37.574 C 306.448 37.574,306.190 37.696,306.065 37.870 C 305.948 38.033,305.733 38.166,305.589 38.166 C 305.435 38.166,305.325 38.275,305.325 38.429 C 305.325 38.574,305.192 38.788,305.030 38.905 C 304.867 39.023,304.734 39.237,304.734 39.382 C 304.734 39.527,304.667 39.645,304.586 39.645 C 304.504 39.645,304.438 39.778,304.438 39.941 C 304.438 40.234,304.339 40.237,293.047 40.237 L 281.657 40.237 281.657 35.077 C 281.657 29.606,281.609 29.221,280.991 29.734 C 280.802 29.891,280.769 30.672,280.769 35.077 L 280.769 40.237 276.775 40.237 L 272.781 40.237 272.781 35.521 C 272.781 31.510,272.748 30.778,272.559 30.621 C 271.949 30.115,271.893 30.522,271.893 35.521 L 271.893 40.237 267.899 40.237 L 263.905 40.237 263.905 39.053 C 263.905 38.363,263.844 37.870,263.757 37.870 C 263.671 37.870,263.609 37.377,263.609 36.686 C 263.609 35.996,263.548 35.503,263.462 35.503 C 263.377 35.503,263.314 35.059,263.314 34.467 C 263.314 33.876,263.250 33.432,263.166 33.432 C 263.084 33.432,263.018 33.232,263.018 32.988 C 263.018 32.744,262.951 32.544,262.870 32.544 C 262.788 32.544,262.722 32.278,262.722 31.953 C 262.722 31.627,262.655 31.361,262.574 31.361 C 262.493 31.361,262.426 31.161,262.426 30.917 C 262.426 30.673,262.359 30.473,262.278 30.473 C 262.197 30.473,262.130 30.274,262.130 30.030 C 262.130 29.786,262.064 29.586,261.982 29.586 C 261.901 29.586,261.834 29.453,261.834 29.290 C 261.834 29.127,261.768 28.994,261.686 28.994 C 261.605 28.994,261.538 28.809,261.538 28.583 C 261.538 28.342,261.416 28.084,261.243 27.959 C 261.080 27.841,260.947 27.627,260.947 27.482 C 260.947 27.337,260.880 27.219,260.799 27.219 C 260.717 27.219,260.651 27.100,260.651 26.956 C 260.651 26.811,260.518 26.597,260.355 26.479 C 260.192 26.362,260.059 26.180,260.059 26.074 C 260.059 25.825,257.903 23.669,257.653 23.669 C 257.548 23.669,257.366 23.536,257.249 23.373 C 257.131 23.210,256.917 23.077,256.772 23.077 C 256.627 23.077,256.509 23.010,256.509 22.929 C 256.509 22.848,256.176 22.781,255.769 22.781 C 255.362 22.781,255.030 22.714,255.030 22.633 C 255.030 22.535,248.817 22.485,236.686 22.485 C 224.556 22.485,218.343 22.535,218.343 22.633 C 218.343 22.714,218.077 22.781,217.751 22.781 C 217.426 22.781,217.160 22.848,217.160 22.929 C 217.160 23.010,217.027 23.077,216.864 23.077 C 216.701 23.077,216.568 23.143,216.568 23.225 C 216.568 23.306,216.467 23.373,216.344 23.373 C 216.052 23.373,213.314 26.112,213.314 26.403 C 213.314 26.527,213.247 26.627,213.166 26.627 C 213.084 26.627,213.018 26.746,213.018 26.890 C 213.018 27.035,212.885 27.250,212.722 27.367 C 212.559 27.484,212.426 27.699,212.426 27.843 C 212.426 27.988,212.359 28.107,212.278 28.107 C 212.197 28.107,212.130 28.306,212.130 28.550 C 212.130 28.794,212.064 28.994,211.982 28.994 C 211.901 28.994,211.834 29.127,211.834 29.290 C 211.834 29.453,211.768 29.586,211.686 29.586 C 211.605 29.586,211.538 29.719,211.538 29.882 C 211.538 30.044,211.472 30.178,211.391 30.178 C 211.309 30.178,211.243 30.444,211.243 30.769 C 211.243 31.095,211.176 31.361,211.095 31.361 C 211.013 31.361,210.947 31.561,210.947 31.805 C 210.947 32.049,210.880 32.249,210.799 32.249 C 210.717 32.249,210.651 32.515,210.651 32.840 C 210.651 33.166,210.584 33.432,210.503 33.432 C 210.421 33.432,210.355 33.826,210.355 34.320 C 210.355 34.813,210.289 35.207,210.207 35.207 C 210.125 35.207,210.059 35.602,210.059 36.095 C 210.059 36.588,209.993 36.982,209.911 36.982 C 209.822 36.982,209.763 37.623,209.763 38.609 L 209.763 40.237 202.663 40.237 C 195.661 40.237,195.562 40.233,195.562 39.941 C 195.562 39.778,195.496 39.645,195.414 39.645 C 195.333 39.645,195.266 39.527,195.266 39.382 C 195.266 39.237,195.133 39.023,194.970 38.905 C 194.808 38.788,194.675 38.574,194.675 38.429 C 194.675 38.275,194.565 38.166,194.411 38.166 C 194.267 38.166,194.052 38.033,193.935 37.870 C 193.810 37.696,193.552 37.574,193.311 37.574 L 192.899 37.574 192.899 28.022 C 192.899 19.941,192.867 18.437,192.688 18.259 C 192.508 18.078,190.237 18.047,177.156 18.047 L 161.834 18.047 161.834 14.497 L 161.834 10.947 139.053 10.947 L 116.272 10.947 116.272 14.497 M160.947 18.491 L 160.947 25.148 139.053 25.148 L 117.160 25.148 117.160 21.997 C 117.160 19.679,117.209 18.794,117.345 18.650 C 117.493 18.493,117.493 18.441,117.345 18.386 C 117.204 18.335,117.160 17.535,117.160 15.076 L 117.160 11.834 139.053 11.834 L 160.947 11.834 160.947 18.491 M280.769 19.231 L 280.769 25.148 281.213 25.148 L 281.657 25.148 281.657 19.231 L 281.657 13.314 281.213 13.314 L 280.769 13.314 280.769 19.231 M67.456 19.907 C 67.456 25.908,67.469 26.036,68.111 26.036 C 68.318 26.036,68.343 25.399,68.343 20.118 L 68.343 14.201 67.899 14.201 L 67.456 14.201 67.456 19.907 M271.893 20.118 L 271.893 26.036 272.337 26.036 L 272.781 26.036 272.781 20.118 L 272.781 14.201 272.337 14.201 L 271.893 14.201 271.893 20.118 M116.272 22.485 L 116.272 26.036 139.053 26.036 L 161.834 26.036 161.834 22.485 L 161.834 18.935 176.923 18.935 L 192.012 18.935 192.012 28.107 C 192.012 37.179,192.009 37.278,191.716 37.278 C 191.553 37.278,191.420 37.345,191.420 37.426 C 191.420 37.507,191.235 37.574,191.009 37.574 C 190.768 37.574,190.510 37.696,190.385 37.870 C 190.267 38.033,190.053 38.166,189.908 38.166 C 189.754 38.166,189.645 38.275,189.645 38.429 C 189.645 38.574,189.512 38.788,189.349 38.905 C 189.186 39.023,189.053 39.237,189.053 39.382 C 189.053 39.527,188.987 39.645,188.905 39.645 C 188.821 39.645,188.757 40.089,188.757 40.680 C 188.757 41.272,188.821 41.716,188.905 41.716 C 188.987 41.716,189.053 41.834,189.053 41.979 C 189.053 42.124,189.186 42.338,189.349 42.456 C 189.512 42.573,189.645 42.787,189.645 42.932 C 189.645 43.086,189.754 43.195,189.908 43.195 C 190.053 43.195,190.267 43.328,190.385 43.491 C 190.510 43.665,190.768 43.787,191.009 43.787 C 191.235 43.787,191.420 43.854,191.420 43.935 C 191.420 44.016,191.553 44.083,191.716 44.083 C 192.009 44.083,192.012 44.181,192.012 53.254 L 192.012 62.426 167.751 62.426 L 143.491 62.426 143.491 60.722 L 143.491 59.018 149.568 52.948 C 155.724 46.800,156.022 46.450,155.082 46.450 C 154.968 46.450,152.349 48.979,149.262 52.071 C 146.175 55.163,143.614 57.692,143.570 57.692 C 143.527 57.692,143.491 55.191,143.491 52.134 C 143.491 46.034,143.509 46.154,142.604 46.154 C 141.689 46.154,141.716 45.942,141.716 53.094 L 141.716 59.610 139.136 62.202 C 137.717 63.627,136.519 64.793,136.473 64.793 C 136.428 64.793,136.391 60.694,136.391 55.685 C 136.391 45.693,136.433 46.154,135.503 46.154 C 134.578 46.154,134.615 45.807,134.615 54.501 L 134.615 62.426 110.355 62.426 L 86.095 62.426 86.095 53.318 C 86.095 43.482,86.070 43.787,86.865 43.787 C 87.056 43.787,87.309 43.654,87.426 43.491 C 87.543 43.328,87.758 43.195,87.902 43.195 C 88.056 43.195,88.166 43.086,88.166 42.932 C 88.166 42.787,88.299 42.573,88.462 42.456 C 88.624 42.338,88.757 42.124,88.757 41.979 C 88.757 41.834,88.824 41.716,88.905 41.716 C 88.990 41.716,89.053 41.272,89.053 40.680 C 89.053 40.089,88.990 39.645,88.905 39.645 C 88.824 39.645,88.757 39.527,88.757 39.382 C 88.757 39.237,88.624 39.023,88.462 38.905 C 88.299 38.788,88.166 38.574,88.166 38.429 C 88.166 38.275,88.056 38.166,87.902 38.166 C 87.758 38.166,87.543 38.033,87.426 37.870 C 87.309 37.707,87.056 37.574,86.865 37.574 C 86.070 37.574,86.095 37.879,86.095 28.043 L 86.095 18.935 101.183 18.935 L 116.272 18.935 116.272 22.485 M219.527 23.521 C 219.527 23.602,219.793 23.669,220.118 23.669 C 220.444 23.669,220.710 23.735,220.710 23.817 C 220.710 23.898,220.828 23.964,220.973 23.964 C 221.118 23.964,221.332 24.098,221.450 24.260 C 221.567 24.423,221.750 24.556,221.855 24.556 C 222.106 24.556,223.669 26.119,223.669 26.369 C 223.669 26.475,223.802 26.658,223.964 26.775 C 224.127 26.892,224.260 27.107,224.260 27.252 C 224.260 27.396,224.327 27.515,224.408 27.515 C 224.490 27.515,224.556 27.648,224.556 27.811 C 224.556 27.973,224.623 28.107,224.704 28.107 C 224.786 28.107,224.852 28.240,224.852 28.402 C 224.852 28.565,224.919 28.698,225.000 28.698 C 225.081 28.698,225.148 28.831,225.148 28.994 C 225.148 29.157,225.214 29.290,225.296 29.290 C 225.377 29.290,225.444 29.490,225.444 29.734 C 225.444 29.978,225.510 30.178,225.592 30.178 C 225.673 30.178,225.740 30.311,225.740 30.473 C 225.740 30.636,225.806 30.769,225.888 30.769 C 225.969 30.769,226.036 30.969,226.036 31.213 C 226.036 31.457,226.102 31.657,226.183 31.657 C 226.265 31.657,226.331 31.923,226.331 32.249 C 226.331 32.574,226.398 32.840,226.479 32.840 C 226.561 32.840,226.627 33.107,226.627 33.432 C 226.627 33.757,226.694 34.024,226.775 34.024 C 226.857 34.024,226.923 34.418,226.923 34.911 C 226.923 35.404,226.989 35.799,227.071 35.799 C 227.160 35.799,227.219 36.391,227.219 37.278 C 227.219 38.166,227.278 38.757,227.367 38.757 C 227.448 38.757,227.515 39.090,227.515 39.497 L 227.515 40.237 224.852 40.237 C 222.288 40.237,222.189 40.226,222.189 39.941 C 222.189 39.778,222.123 39.645,222.041 39.645 C 221.960 39.645,221.893 39.527,221.893 39.382 C 221.893 39.237,221.760 39.023,221.598 38.905 C 221.435 38.788,221.302 38.574,221.302 38.429 C 221.302 38.275,221.192 38.166,221.039 38.166 C 220.894 38.166,220.679 38.033,220.562 37.870 C 220.437 37.696,220.179 37.574,219.938 37.574 C 219.712 37.574,219.527 37.507,219.527 37.426 C 219.527 37.345,219.194 37.278,218.787 37.278 C 218.380 37.278,218.047 37.345,218.047 37.426 C 218.047 37.507,217.862 37.574,217.636 37.574 C 217.395 37.574,217.137 37.696,217.012 37.870 C 216.895 38.033,216.680 38.166,216.535 38.166 C 216.382 38.166,216.272 38.275,216.272 38.429 C 216.272 38.574,216.139 38.788,215.976 38.905 C 215.814 39.023,215.680 39.237,215.680 39.382 C 215.680 39.527,215.614 39.645,215.533 39.645 C 215.451 39.645,215.385 39.778,215.385 39.941 C 215.385 40.224,215.286 40.237,213.018 40.237 L 210.651 40.237 210.651 38.757 C 210.651 37.870,210.710 37.278,210.799 37.278 C 210.881 37.278,210.947 36.884,210.947 36.391 C 210.947 35.897,211.012 35.503,211.095 35.503 C 211.177 35.503,211.243 35.108,211.243 34.615 C 211.243 34.122,211.308 33.728,211.391 33.728 C 211.472 33.728,211.538 33.462,211.538 33.136 C 211.538 32.811,211.605 32.544,211.686 32.544 C 211.768 32.544,211.834 32.345,211.834 32.101 C 211.834 31.857,211.901 31.657,211.982 31.657 C 212.064 31.657,212.130 31.391,212.130 31.065 C 212.130 30.740,212.197 30.473,212.278 30.473 C 212.359 30.473,212.426 30.340,212.426 30.178 C 212.426 30.015,212.493 29.882,212.574 29.882 C 212.655 29.882,212.722 29.749,212.722 29.586 C 212.722 29.423,212.788 29.290,212.870 29.290 C 212.951 29.290,213.018 29.090,213.018 28.846 C 213.018 28.602,213.084 28.402,213.166 28.402 C 213.247 28.402,213.314 28.284,213.314 28.139 C 213.314 27.994,213.447 27.780,213.609 27.663 C 213.772 27.545,213.905 27.331,213.905 27.186 C 213.905 27.042,213.972 26.923,214.053 26.923 C 214.135 26.923,214.201 26.822,214.201 26.699 C 214.201 26.407,216.347 24.260,216.640 24.260 C 216.763 24.260,216.864 24.194,216.864 24.112 C 216.864 24.031,216.997 23.964,217.160 23.964 C 217.322 23.964,217.456 23.898,217.456 23.817 C 217.456 23.735,217.722 23.669,218.047 23.669 C 218.373 23.669,218.639 23.602,218.639 23.521 C 218.639 23.439,218.839 23.373,219.083 23.373 C 219.327 23.373,219.527 23.439,219.527 23.521 M251.775 23.521 C 251.775 23.602,251.682 23.669,251.568 23.669 C 251.301 23.669,249.112 25.805,249.112 26.067 C 249.112 26.176,248.979 26.362,248.817 26.479 C 248.654 26.597,248.521 26.811,248.521 26.956 C 248.521 27.100,248.454 27.219,248.373 27.219 C 248.291 27.219,248.225 27.337,248.225 27.482 C 248.225 27.627,248.092 27.841,247.929 27.959 C 247.755 28.084,247.633 28.342,247.633 28.583 C 247.633 28.809,247.567 28.994,247.485 28.994 C 247.404 28.994,247.337 29.127,247.337 29.290 C 247.337 29.453,247.271 29.586,247.189 29.586 C 247.108 29.586,247.041 29.786,247.041 30.030 C 247.041 30.274,246.975 30.473,246.893 30.473 C 246.812 30.473,246.746 30.673,246.746 30.917 C 246.746 31.161,246.679 31.361,246.598 31.361 C 246.516 31.361,246.450 31.627,246.450 31.953 C 246.450 32.278,246.383 32.544,246.302 32.544 C 246.220 32.544,246.154 32.744,246.154 32.988 C 246.154 33.232,246.087 33.432,246.006 33.432 C 245.921 33.432,245.858 33.876,245.858 34.467 C 245.858 35.059,245.795 35.503,245.710 35.503 C 245.624 35.503,245.562 35.996,245.562 36.686 C 245.562 37.377,245.500 37.870,245.414 37.870 C 245.328 37.870,245.266 38.363,245.266 39.053 L 245.266 40.237 236.834 40.237 L 228.402 40.237 228.402 39.349 C 228.402 38.856,228.337 38.462,228.254 38.462 C 228.166 38.462,228.107 37.870,228.107 36.982 C 228.107 36.095,228.047 35.503,227.959 35.503 C 227.876 35.503,227.811 35.108,227.811 34.615 C 227.811 34.122,227.745 33.728,227.663 33.728 C 227.581 33.728,227.515 33.462,227.515 33.136 C 227.515 32.811,227.448 32.544,227.367 32.544 C 227.286 32.544,227.219 32.278,227.219 31.953 C 227.219 31.627,227.152 31.361,227.071 31.361 C 226.990 31.361,226.923 31.161,226.923 30.917 C 226.923 30.673,226.857 30.473,226.775 30.473 C 226.694 30.473,226.627 30.340,226.627 30.178 C 226.627 30.015,226.561 29.882,226.479 29.882 C 226.398 29.882,226.331 29.682,226.331 29.438 C 226.331 29.194,226.265 28.994,226.183 28.994 C 226.102 28.994,226.036 28.861,226.036 28.698 C 226.036 28.536,225.969 28.402,225.888 28.402 C 225.806 28.402,225.740 28.269,225.740 28.107 C 225.740 27.944,225.673 27.811,225.592 27.811 C 225.510 27.811,225.444 27.678,225.444 27.515 C 225.444 27.352,225.377 27.219,225.296 27.219 C 225.214 27.219,225.148 27.100,225.148 26.956 C 225.148 26.811,225.015 26.597,224.852 26.479 C 224.689 26.362,224.556 26.176,224.556 26.067 C 224.556 25.805,222.368 23.669,222.100 23.669 C 221.987 23.669,221.893 23.602,221.893 23.521 C 221.893 23.423,226.972 23.373,236.834 23.373 C 246.696 23.373,251.775 23.423,251.775 23.521 M255.325 23.521 C 255.325 23.602,255.525 23.669,255.769 23.669 C 256.013 23.669,256.213 23.735,256.213 23.817 C 256.213 23.898,256.331 23.964,256.476 23.964 C 256.621 23.964,256.835 24.098,256.953 24.260 C 257.070 24.423,257.253 24.556,257.358 24.556 C 257.609 24.556,259.172 26.119,259.172 26.369 C 259.172 26.475,259.305 26.658,259.467 26.775 C 259.630 26.892,259.763 27.107,259.763 27.252 C 259.763 27.396,259.830 27.515,259.911 27.515 C 259.993 27.515,260.059 27.633,260.059 27.778 C 260.059 27.923,260.192 28.137,260.355 28.254 C 260.529 28.380,260.651 28.637,260.651 28.879 C 260.651 29.105,260.717 29.290,260.799 29.290 C 260.880 29.290,260.947 29.423,260.947 29.586 C 260.947 29.749,261.013 29.882,261.095 29.882 C 261.176 29.882,261.243 30.081,261.243 30.325 C 261.243 30.570,261.309 30.769,261.391 30.769 C 261.472 30.769,261.538 30.969,261.538 31.213 C 261.538 31.457,261.605 31.657,261.686 31.657 C 261.768 31.657,261.834 31.923,261.834 32.249 C 261.834 32.574,261.901 32.840,261.982 32.840 C 262.064 32.840,262.130 33.040,262.130 33.284 C 262.130 33.528,262.197 33.728,262.278 33.728 C 262.363 33.728,262.426 34.172,262.426 34.763 C 262.426 35.355,262.489 35.799,262.574 35.799 C 262.660 35.799,262.722 36.292,262.722 36.982 C 262.722 37.673,262.784 38.166,262.870 38.166 C 262.954 38.166,263.018 38.609,263.018 39.201 L 263.018 40.237 260.566 40.237 C 257.957 40.237,257.692 40.169,257.692 39.504 C 257.692 39.050,256.167 37.574,255.698 37.574 C 255.493 37.574,255.325 37.507,255.325 37.426 C 255.325 37.344,254.931 37.278,254.438 37.278 C 253.945 37.278,253.550 37.344,253.550 37.426 C 253.550 37.507,253.365 37.574,253.139 37.574 C 252.898 37.574,252.640 37.696,252.515 37.870 C 252.398 38.033,252.183 38.166,252.038 38.166 C 251.885 38.166,251.775 38.275,251.775 38.429 C 251.775 38.574,251.642 38.788,251.479 38.905 C 251.317 39.023,251.183 39.275,251.183 39.466 C 251.183 40.167,250.935 40.237,248.457 40.237 L 246.154 40.237 246.154 39.201 C 246.154 38.609,246.217 38.166,246.302 38.166 C 246.388 38.166,246.450 37.673,246.450 36.982 C 246.450 36.292,246.511 35.799,246.598 35.799 C 246.682 35.799,246.746 35.355,246.746 34.763 C 246.746 34.172,246.809 33.728,246.893 33.728 C 246.975 33.728,247.041 33.528,247.041 33.284 C 247.041 33.040,247.108 32.840,247.189 32.840 C 247.271 32.840,247.337 32.574,247.337 32.249 C 247.337 31.923,247.404 31.657,247.485 31.657 C 247.567 31.657,247.633 31.457,247.633 31.213 C 247.633 30.969,247.700 30.769,247.781 30.769 C 247.862 30.769,247.929 30.570,247.929 30.325 C 247.929 30.081,247.996 29.882,248.077 29.882 C 248.158 29.882,248.225 29.749,248.225 29.586 C 248.225 29.423,248.291 29.290,248.373 29.290 C 248.454 29.290,248.521 29.105,248.521 28.879 C 248.521 28.637,248.643 28.380,248.817 28.254 C 248.979 28.137,249.112 27.923,249.112 27.778 C 249.112 27.633,249.179 27.515,249.260 27.515 C 249.342 27.515,249.408 27.396,249.408 27.252 C 249.408 27.107,249.541 26.892,249.704 26.775 C 249.867 26.658,250.000 26.475,250.000 26.369 C 250.000 26.119,251.563 24.556,251.813 24.556 C 251.919 24.556,252.102 24.423,252.219 24.260 C 252.336 24.098,252.551 23.964,252.695 23.964 C 252.840 23.964,252.959 23.898,252.959 23.817 C 252.959 23.735,253.225 23.669,253.550 23.669 C 253.876 23.669,254.142 23.602,254.142 23.521 C 254.142 23.439,254.408 23.373,254.734 23.373 C 255.059 23.373,255.325 23.439,255.325 23.521 M130.766 28.772 C 130.764 28.813,130.761 30.926,130.759 33.469 L 130.754 38.092 131.354 38.137 L 131.953 38.183 131.953 36.103 L 131.953 34.024 133.102 34.024 C 134.562 34.024,134.915 34.288,136.482 36.555 L 137.596 38.166 138.325 38.166 C 138.725 38.166,139.053 38.130,139.053 38.087 C 139.053 37.856,136.936 34.899,136.520 34.549 C 136.024 34.132,136.154 33.728,136.783 33.728 C 137.151 33.728,137.979 32.837,138.235 32.165 C 138.718 30.901,138.133 29.519,136.888 28.985 C 136.253 28.713,130.777 28.523,130.766 28.772 M136.394 30.214 C 138.253 31.474,136.895 32.840,133.784 32.840 L 131.953 32.840 131.953 31.361 L 131.953 29.882 133.928 29.882 C 135.732 29.882,135.946 29.910,136.394 30.214 M141.420 38.176 L 141.420 41.440 141.827 41.393 C 142.224 41.347,142.235 41.321,142.277 40.274 C 142.323 39.144,142.372 39.069,142.834 39.418 C 143.720 40.088,145.080 39.334,145.419 37.986 C 145.920 35.995,144.054 34.026,142.786 35.207 C 142.611 35.370,142.440 35.503,142.405 35.503 C 142.371 35.503,142.307 35.370,142.265 35.207 C 142.213 35.007,142.063 34.911,141.804 34.911 L 141.420 34.911 141.420 38.176 M144.311 36.162 C 145.139 36.990,144.599 38.757,143.518 38.757 C 142.729 38.757,142.308 38.262,142.308 37.334 C 142.308 35.975,143.454 35.304,144.311 36.162 M388.462 35.947 C 388.462 36.028,388.728 36.095,389.053 36.095 C 389.379 36.095,389.645 36.161,389.645 36.243 C 389.645 36.324,389.763 36.391,389.908 36.391 C 390.053 36.391,390.267 36.524,390.385 36.686 C 390.502 36.849,390.686 36.982,390.794 36.982 C 391.048 36.982,391.716 37.650,391.716 37.904 C 391.716 38.012,391.849 38.196,392.012 38.314 C 392.218 38.462,392.308 38.697,392.308 39.086 C 392.308 39.393,392.374 39.645,392.456 39.645 C 392.543 39.645,392.604 40.187,392.604 40.976 C 392.604 41.765,392.543 42.308,392.456 42.308 C 392.374 42.308,392.308 42.441,392.308 42.604 C 392.308 42.766,392.241 42.899,392.160 42.899 C 392.078 42.899,392.012 43.001,392.012 43.125 C 392.012 43.400,390.765 44.675,390.495 44.675 C 390.389 44.675,390.206 44.808,390.089 44.970 C 389.964 45.144,389.706 45.266,389.464 45.266 C 389.238 45.266,389.053 45.333,389.053 45.414 C 389.053 45.499,388.609 45.562,388.018 45.562 C 387.426 45.562,386.982 45.499,386.982 45.414 C 386.982 45.333,386.716 45.266,386.391 45.266 C 386.065 45.266,385.799 45.200,385.799 45.118 C 385.799 45.037,385.680 44.970,385.536 44.970 C 385.391 44.970,385.176 44.837,385.059 44.675 C 384.942 44.512,384.727 44.379,384.583 44.379 C 384.429 44.379,384.320 44.269,384.320 44.115 C 384.320 43.971,384.186 43.756,384.024 43.639 C 383.861 43.522,383.728 43.307,383.728 43.163 C 383.728 43.018,383.661 42.899,383.580 42.899 C 383.499 42.899,383.432 42.766,383.432 42.604 C 383.432 42.441,383.365 42.308,383.284 42.308 C 383.203 42.308,383.136 42.047,383.136 41.728 C 383.136 41.409,383.053 41.110,382.951 41.063 C 382.803 40.994,382.803 40.959,382.951 40.890 C 383.062 40.838,383.136 40.514,383.136 40.076 C 383.136 39.676,383.203 39.349,383.284 39.349 C 383.365 39.349,383.432 39.164,383.432 38.938 C 383.432 38.697,383.554 38.439,383.728 38.314 C 383.891 38.196,384.024 38.012,384.024 37.904 C 384.024 37.650,384.692 36.982,384.946 36.982 C 385.054 36.982,385.238 36.849,385.355 36.686 C 385.472 36.524,385.687 36.391,385.831 36.391 C 385.976 36.391,386.095 36.324,386.095 36.243 C 386.095 36.161,386.428 36.095,386.834 36.095 C 387.241 36.095,387.574 36.028,387.574 35.947 C 387.574 35.865,387.774 35.799,388.018 35.799 C 388.262 35.799,388.462 35.865,388.462 35.947 M151.183 41.495 C 151.183 41.901,160.011 50.888,160.410 50.888 C 161.326 50.888,161.013 50.500,156.298 45.791 C 151.679 41.179,151.183 40.763,151.183 41.495 M215.385 41.420 C 215.385 41.583,215.451 41.716,215.533 41.716 C 215.614 41.716,215.680 41.834,215.680 41.979 C 215.680 42.124,215.814 42.338,215.976 42.456 C 216.139 42.573,216.272 42.787,216.272 42.932 C 216.272 43.086,216.382 43.195,216.535 43.195 C 216.680 43.195,216.895 43.328,217.012 43.491 C 217.137 43.665,217.395 43.787,217.636 43.787 C 217.862 43.787,218.047 43.854,218.047 43.935 C 218.047 44.016,218.380 44.083,218.787 44.083 C 219.194 44.083,219.527 44.016,219.527 43.935 C 219.527 43.854,219.712 43.787,219.938 43.787 C 220.179 43.787,220.437 43.665,220.562 43.491 C 220.679 43.328,220.894 43.195,221.039 43.195 C 221.192 43.195,221.302 43.086,221.302 42.932 C 221.302 42.787,221.435 42.573,221.598 42.456 C 221.760 42.338,221.893 42.124,221.893 41.979 C 221.893 41.834,221.960 41.716,222.041 41.716 C 222.123 41.716,222.189 41.583,222.189 41.420 C 222.189 41.135,222.288 41.124,224.852 41.124 L 227.515 41.124 227.515 42.012 C 227.515 42.505,227.449 42.899,227.367 42.899 C 227.279 42.899,227.219 43.442,227.219 44.231 C 227.219 45.020,227.159 45.562,227.071 45.562 C 226.986 45.562,226.923 46.006,226.923 46.598 C 226.923 47.189,226.860 47.633,226.775 47.633 C 226.694 47.633,226.627 47.833,226.627 48.077 C 226.627 48.321,226.561 48.521,226.479 48.521 C 226.398 48.521,226.331 48.787,226.331 49.112 C 226.331 49.438,226.265 49.704,226.183 49.704 C 226.102 49.704,226.036 49.904,226.036 50.148 C 226.036 50.392,225.969 50.592,225.888 50.592 C 225.806 50.592,225.740 50.791,225.740 51.036 C 225.740 51.280,225.673 51.479,225.592 51.479 C 225.510 51.479,225.444 51.612,225.444 51.775 C 225.444 51.938,225.377 52.071,225.296 52.071 C 225.214 52.071,225.148 52.271,225.148 52.515 C 225.148 52.759,225.081 52.959,225.000 52.959 C 224.919 52.959,224.852 53.077,224.852 53.222 C 224.852 53.367,224.719 53.581,224.556 53.698 C 224.393 53.816,224.260 54.030,224.260 54.175 C 224.260 54.319,224.194 54.438,224.112 54.438 C 224.031 54.438,223.964 54.542,223.964 54.669 C 223.964 54.797,223.632 55.225,223.225 55.621 C 222.818 56.018,222.485 56.446,222.485 56.573 C 222.485 56.706,222.359 56.805,222.189 56.805 C 222.027 56.805,221.893 56.871,221.893 56.953 C 221.893 57.034,221.775 57.101,221.630 57.101 C 221.486 57.101,221.271 57.234,221.154 57.396 C 221.037 57.559,220.822 57.692,220.677 57.692 C 220.533 57.692,220.414 57.759,220.414 57.840 C 220.414 57.927,219.921 57.988,219.231 57.988 C 218.540 57.988,218.047 57.927,218.047 57.840 C 218.047 57.759,217.848 57.692,217.604 57.692 C 217.359 57.692,217.160 57.626,217.160 57.544 C 217.160 57.463,217.041 57.396,216.897 57.396 C 216.752 57.396,216.537 57.263,216.420 57.101 C 216.303 56.938,216.120 56.805,216.014 56.805 C 215.744 56.805,214.497 55.531,214.497 55.255 C 214.497 55.131,214.430 55.030,214.349 55.030 C 214.268 55.030,214.201 54.911,214.201 54.766 C 214.201 54.622,214.068 54.407,213.905 54.290 C 213.743 54.173,213.609 53.958,213.609 53.813 C 213.609 53.669,213.543 53.550,213.462 53.550 C 213.380 53.550,213.314 53.417,213.314 53.254 C 213.314 53.092,213.247 52.959,213.166 52.959 C 213.084 52.959,213.018 52.825,213.018 52.663 C 213.018 52.500,212.951 52.367,212.870 52.367 C 212.788 52.367,212.722 52.167,212.722 51.923 C 212.722 51.679,212.655 51.479,212.574 51.479 C 212.493 51.479,212.426 51.346,212.426 51.183 C 212.426 51.021,212.359 50.888,212.278 50.888 C 212.197 50.888,212.130 50.688,212.130 50.444 C 212.130 50.200,212.064 50.000,211.982 50.000 C 211.901 50.000,211.834 49.734,211.834 49.408 C 211.834 49.083,211.768 48.817,211.686 48.817 C 211.605 48.817,211.538 48.617,211.538 48.373 C 211.538 48.129,211.472 47.929,211.391 47.929 C 211.308 47.929,211.243 47.535,211.243 47.041 C 211.243 46.548,211.177 46.154,211.095 46.154 C 211.010 46.154,210.947 45.710,210.947 45.118 C 210.947 44.527,210.883 44.083,210.799 44.083 C 210.710 44.083,210.651 43.491,210.651 42.604 L 210.651 41.124 213.018 41.124 C 215.286 41.124,215.385 41.137,215.385 41.420 M245.266 42.308 C 245.266 42.998,245.328 43.491,245.414 43.491 C 245.502 43.491,245.562 44.034,245.562 44.822 C 245.562 45.611,245.622 46.154,245.710 46.154 C 245.792 46.154,245.858 46.548,245.858 47.041 C 245.858 47.535,245.924 47.929,246.006 47.929 C 246.087 47.929,246.154 48.195,246.154 48.521 C 246.154 48.846,246.220 49.112,246.302 49.112 C 246.383 49.112,246.450 49.312,246.450 49.556 C 246.450 49.800,246.516 50.000,246.598 50.000 C 246.679 50.000,246.746 50.266,246.746 50.592 C 246.746 50.917,246.812 51.183,246.893 51.183 C 246.975 51.183,247.041 51.317,247.041 51.479 C 247.041 51.642,247.108 51.775,247.189 51.775 C 247.271 51.775,247.337 51.975,247.337 52.219 C 247.337 52.463,247.404 52.663,247.485 52.663 C 247.567 52.663,247.633 52.796,247.633 52.959 C 247.633 53.121,247.700 53.254,247.781 53.254 C 247.862 53.254,247.929 53.388,247.929 53.550 C 247.929 53.713,247.996 53.846,248.077 53.846 C 248.158 53.846,248.225 53.965,248.225 54.109 C 248.225 54.254,248.358 54.469,248.521 54.586 C 248.683 54.703,248.817 54.891,248.817 55.003 C 248.817 55.115,249.016 55.393,249.260 55.621 C 249.504 55.849,249.704 56.116,249.704 56.213 C 249.704 56.449,251.029 57.692,251.281 57.692 C 251.390 57.692,251.479 57.759,251.479 57.840 C 251.479 57.938,246.499 57.988,236.834 57.988 C 227.170 57.988,222.189 57.938,222.189 57.840 C 222.189 57.759,222.273 57.692,222.374 57.692 C 222.625 57.692,223.373 57.035,223.373 56.815 C 223.373 56.717,223.706 56.313,224.112 55.917 C 224.519 55.521,224.852 55.093,224.852 54.965 C 224.852 54.838,224.919 54.734,225.000 54.734 C 225.081 54.734,225.148 54.615,225.148 54.471 C 225.148 54.326,225.281 54.111,225.444 53.994 C 225.607 53.877,225.740 53.662,225.740 53.518 C 225.740 53.373,225.806 53.254,225.888 53.254 C 225.969 53.254,226.036 53.055,226.036 52.811 C 226.036 52.567,226.102 52.367,226.183 52.367 C 226.265 52.367,226.331 52.234,226.331 52.071 C 226.331 51.908,226.398 51.775,226.479 51.775 C 226.561 51.775,226.627 51.575,226.627 51.331 C 226.627 51.087,226.694 50.888,226.775 50.888 C 226.857 50.888,226.923 50.688,226.923 50.444 C 226.923 50.200,226.990 50.000,227.071 50.000 C 227.152 50.000,227.219 49.734,227.219 49.408 C 227.219 49.083,227.286 48.817,227.367 48.817 C 227.448 48.817,227.515 48.617,227.515 48.373 C 227.515 48.129,227.581 47.929,227.663 47.929 C 227.747 47.929,227.811 47.485,227.811 46.893 C 227.811 46.302,227.874 45.858,227.959 45.858 C 228.048 45.858,228.107 45.217,228.107 44.231 C 228.107 43.245,228.165 42.604,228.254 42.604 C 228.336 42.604,228.402 42.271,228.402 41.864 L 228.402 41.124 236.834 41.124 L 245.266 41.124 245.266 42.308 M250.972 41.336 C 251.088 41.452,251.183 41.703,251.183 41.895 C 251.183 42.086,251.317 42.338,251.479 42.456 C 251.642 42.573,251.775 42.787,251.775 42.932 C 251.775 43.086,251.885 43.195,252.038 43.195 C 252.183 43.195,252.398 43.328,252.515 43.491 C 252.640 43.665,252.898 43.787,253.139 43.787 C 253.365 43.787,253.550 43.854,253.550 43.935 C 253.550 44.017,253.945 44.083,254.438 44.083 C 254.931 44.083,255.325 44.017,255.325 43.935 C 255.325 43.854,255.493 43.787,255.698 43.787 C 256.167 43.787,257.692 42.311,257.692 41.857 C 257.692 41.192,257.957 41.124,260.566 41.124 L 263.018 41.124 263.018 42.456 C 263.018 43.245,262.957 43.787,262.870 43.787 C 262.785 43.787,262.722 44.231,262.722 44.822 C 262.722 45.414,262.658 45.858,262.574 45.858 C 262.492 45.858,262.426 46.252,262.426 46.746 C 262.426 47.239,262.360 47.633,262.278 47.633 C 262.197 47.633,262.130 47.899,262.130 48.225 C 262.130 48.550,262.064 48.817,261.982 48.817 C 261.901 48.817,261.834 49.016,261.834 49.260 C 261.834 49.504,261.768 49.704,261.686 49.704 C 261.605 49.704,261.538 49.970,261.538 50.296 C 261.538 50.621,261.472 50.888,261.391 50.888 C 261.309 50.888,261.243 51.021,261.243 51.183 C 261.243 51.346,261.176 51.479,261.095 51.479 C 261.013 51.479,260.947 51.679,260.947 51.923 C 260.947 52.167,260.880 52.367,260.799 52.367 C 260.717 52.367,260.651 52.500,260.651 52.663 C 260.651 52.825,260.584 52.959,260.503 52.959 C 260.422 52.959,260.355 53.092,260.355 53.254 C 260.355 53.417,260.288 53.550,260.207 53.550 C 260.126 53.550,260.059 53.669,260.059 53.813 C 260.059 53.958,259.926 54.173,259.763 54.290 C 259.601 54.407,259.467 54.595,259.467 54.707 C 259.467 54.819,259.268 55.097,259.024 55.325 C 258.780 55.553,258.580 55.816,258.580 55.909 C 258.580 56.142,257.898 56.805,257.658 56.805 C 257.550 56.805,257.366 56.938,257.249 57.101 C 257.131 57.263,256.917 57.396,256.772 57.396 C 256.627 57.396,256.509 57.463,256.509 57.544 C 256.509 57.626,256.376 57.692,256.213 57.692 C 256.050 57.692,255.917 57.759,255.917 57.840 C 255.917 57.927,255.424 57.988,254.734 57.988 C 254.043 57.988,253.550 57.927,253.550 57.840 C 253.550 57.759,253.351 57.692,253.107 57.692 C 252.862 57.692,252.663 57.626,252.663 57.544 C 252.663 57.463,252.544 57.396,252.400 57.396 C 252.255 57.396,252.040 57.263,251.923 57.101 C 251.806 56.938,251.622 56.805,251.514 56.805 C 251.274 56.805,250.592 56.142,250.592 55.909 C 250.592 55.816,250.392 55.553,250.148 55.325 C 249.904 55.097,249.704 54.819,249.704 54.707 C 249.704 54.595,249.571 54.407,249.408 54.290 C 249.246 54.173,249.112 53.958,249.112 53.813 C 249.112 53.669,249.046 53.550,248.964 53.550 C 248.883 53.550,248.817 53.417,248.817 53.254 C 248.817 53.092,248.750 52.959,248.669 52.959 C 248.587 52.959,248.521 52.825,248.521 52.663 C 248.521 52.500,248.454 52.367,248.373 52.367 C 248.291 52.367,248.225 52.167,248.225 51.923 C 248.225 51.679,248.158 51.479,248.077 51.479 C 247.996 51.479,247.929 51.346,247.929 51.183 C 247.929 51.021,247.862 50.888,247.781 50.888 C 247.700 50.888,247.633 50.621,247.633 50.296 C 247.633 49.970,247.567 49.704,247.485 49.704 C 247.404 49.704,247.337 49.504,247.337 49.260 C 247.337 49.016,247.271 48.817,247.189 48.817 C 247.108 48.817,247.041 48.550,247.041 48.225 C 247.041 47.899,246.975 47.633,246.893 47.633 C 246.811 47.633,246.746 47.239,246.746 46.746 C 246.746 46.252,246.680 45.858,246.598 45.858 C 246.513 45.858,246.450 45.414,246.450 44.822 C 246.450 44.231,246.386 43.787,246.302 43.787 C 246.214 43.787,246.154 43.245,246.154 42.456 L 246.154 41.124 248.457 41.124 C 250.256 41.124,250.807 41.171,250.972 41.336 M280.769 52.071 L 280.769 57.988 281.213 57.988 L 281.657 57.988 281.657 52.071 L 281.657 46.154 281.213 46.154 L 280.769 46.154 280.769 52.071 M67.641 47.263 C 67.499 47.423,67.456 48.824,67.456 53.174 L 67.456 58.876 67.899 58.876 L 68.343 58.876 68.343 52.959 C 68.343 46.650,68.323 46.487,67.641 47.263 M271.893 52.959 L 271.893 58.876 272.337 58.876 L 272.781 58.876 272.781 52.959 L 272.781 47.041 272.337 47.041 L 271.893 47.041 271.893 52.959 M58.580 83.284 L 58.580 109.467 32.396 109.467 L 6.213 109.467 6.213 83.284 L 6.213 57.101 32.396 57.101 L 58.580 57.101 58.580 83.284 M280.947 62.604 C 280.654 62.897,280.696 74.163,280.991 74.408 C 281.617 74.928,281.657 74.573,281.657 68.503 C 281.657 62.935,281.620 62.426,281.213 62.426 C 281.164 62.426,281.044 62.506,280.947 62.604 M67.633 63.491 C 67.349 63.775,67.381 74.947,67.667 75.232 C 68.333 75.899,68.343 75.816,68.343 69.556 C 68.343 63.823,68.307 63.314,67.899 63.314 C 67.851 63.314,67.731 63.393,67.633 63.491 M272.071 63.491 C 271.778 63.784,271.820 75.051,272.115 75.296 C 272.741 75.815,272.781 75.461,272.781 69.390 C 272.781 63.823,272.744 63.314,272.337 63.314 C 272.288 63.314,272.169 63.393,272.071 63.491 M314.497 85.059 L 314.497 106.805 307.840 106.805 L 301.183 106.805 301.183 85.059 L 301.183 63.314 307.840 63.314 L 314.497 63.314 314.497 85.059 M280.947 79.172 C 280.654 79.465,280.696 90.731,280.991 90.976 C 281.617 91.496,281.657 91.141,281.657 85.071 C 281.657 79.503,281.620 78.994,281.213 78.994 C 281.164 78.994,281.044 79.074,280.947 79.172 M67.641 80.103 C 67.499 80.263,67.456 81.664,67.456 86.014 L 67.456 91.716 67.899 91.716 L 68.343 91.716 68.343 85.799 C 68.343 79.490,68.323 79.328,67.641 80.103 M271.893 85.799 L 271.893 91.716 272.337 91.716 L 272.781 91.716 272.781 85.799 L 272.781 79.882 272.337 79.882 L 271.893 79.882 271.893 85.799 M31.509 80.350 C 31.305 80.434,30.930 80.592,30.676 80.700 C 27.475 82.055,27.453 87.718,30.643 89.090 C 32.607 89.935,34.713 89.776,36.407 88.655 L 36.982 88.274 36.982 86.588 L 36.982 84.903 35.022 84.944 L 33.062 84.985 33.062 85.503 L 33.062 86.021 34.430 86.063 L 35.799 86.106 35.799 86.907 C 35.799 87.908,34.856 88.464,33.166 88.459 C 30.331 88.452,28.680 85.799,29.898 83.208 C 30.934 81.005,34.213 80.669,35.528 82.631 C 35.963 83.279,36.839 83.434,36.831 82.860 C 36.807 81.065,33.525 79.517,31.509 80.350 M133.269 82.153 C 130.513 83.029,129.349 86.459,130.833 89.330 C 132.323 92.211,137.057 92.082,138.449 89.122 C 138.832 88.306,138.767 88.166,138.005 88.166 C 137.501 88.166,137.397 88.223,137.265 88.572 C 136.618 90.286,134.083 90.800,132.590 89.520 C 131.193 88.322,131.193 85.051,132.590 83.853 C 133.923 82.710,136.145 82.936,136.982 84.301 C 137.624 85.347,138.748 85.012,138.196 83.940 C 137.357 82.308,135.220 81.533,133.269 82.153 M321.890 84.393 C 321.888 84.434,321.885 86.548,321.883 89.090 L 321.879 93.713 322.478 93.759 L 323.077 93.804 323.077 91.724 L 323.077 89.645 324.227 89.645 C 325.686 89.645,326.039 89.909,327.607 92.176 L 328.720 93.787 329.449 93.787 C 329.850 93.787,330.178 93.751,330.178 93.708 C 330.178 93.477,328.060 90.520,327.645 90.170 C 327.149 89.753,327.278 89.349,327.908 89.349 C 328.276 89.349,329.103 88.459,329.360 87.786 C 329.842 86.522,329.257 85.140,328.012 84.607 C 327.378 84.335,321.901 84.144,321.890 84.393 M377.647 84.520 C 374.891 85.396,373.727 88.826,375.212 91.697 C 376.702 94.578,381.436 94.449,382.827 91.488 C 383.211 90.673,383.146 90.533,382.384 90.533 C 381.880 90.533,381.776 90.590,381.644 90.939 C 380.819 93.122,377.554 93.180,376.312 91.034 C 375.566 89.744,375.925 87.115,376.969 86.220 C 378.302 85.076,380.523 85.303,381.361 86.668 C 382.003 87.714,383.126 87.379,382.575 86.306 C 381.736 84.675,379.598 83.900,377.647 84.520 M327.518 85.836 C 329.377 87.095,328.019 88.462,324.908 88.462 L 323.077 88.462 323.077 86.982 L 323.077 85.503 325.052 85.503 C 326.856 85.503,327.070 85.532,327.518 85.836 M141.420 91.430 L 141.420 94.694 141.827 94.647 C 142.224 94.602,142.235 94.576,142.277 93.528 C 142.323 92.399,142.372 92.323,142.834 92.673 C 143.720 93.343,145.080 92.589,145.419 91.241 C 145.920 89.249,144.054 87.280,142.786 88.462 C 142.611 88.624,142.440 88.757,142.405 88.757 C 142.371 88.757,142.307 88.624,142.265 88.462 C 142.213 88.262,142.063 88.166,141.804 88.166 L 141.420 88.166 141.420 91.430 M144.311 89.416 C 145.139 90.244,144.599 92.012,143.518 92.012 C 142.729 92.012,142.308 91.517,142.308 90.589 C 142.308 89.229,143.454 88.559,144.311 89.416 M333.308 90.791 C 331.329 92.684,333.604 96.228,335.748 94.593 C 337.515 93.245,336.702 90.237,334.571 90.237 C 333.984 90.237,333.807 90.314,333.308 90.791 M386.562 90.791 C 384.583 92.684,386.858 96.228,389.002 94.593 C 390.769 93.245,389.956 90.237,387.825 90.237 C 387.238 90.237,387.061 90.314,386.562 90.791 M335.436 91.487 C 335.979 92.031,335.964 93.340,335.409 93.776 C 334.472 94.513,333.432 93.896,333.432 92.603 C 333.432 91.300,334.599 90.650,335.436 91.487 M388.690 91.487 C 389.233 92.031,389.218 93.340,388.663 93.776 C 387.726 94.513,386.686 93.896,386.686 92.603 C 386.686 91.300,387.853 90.650,388.690 91.487 M280.769 101.479 L 280.769 107.396 281.213 107.396 L 281.657 107.396 281.657 101.479 L 281.657 95.562 281.213 95.562 L 280.769 95.562 280.769 101.479 M67.633 96.331 C 67.349 96.615,67.381 107.787,67.667 108.073 C 68.333 108.739,68.343 108.657,68.343 102.396 C 68.343 96.663,68.307 96.154,67.899 96.154 C 67.851 96.154,67.731 96.234,67.633 96.331 M272.071 96.331 C 271.778 96.625,271.820 107.891,272.115 108.136 C 272.741 108.655,272.781 108.301,272.781 102.230 C 272.781 96.663,272.744 96.154,272.337 96.154 C 272.288 96.154,272.169 96.234,272.071 96.331 M280.947 112.012 C 280.654 112.305,280.696 123.572,280.991 123.817 C 281.617 124.336,281.657 123.981,281.657 117.911 C 281.657 112.343,281.620 111.834,281.213 111.834 C 281.164 111.834,281.044 111.914,280.947 112.012 M67.641 112.943 C 67.499 113.103,67.456 114.504,67.456 118.855 L 67.456 124.556 67.899 124.556 L 68.343 124.556 68.343 118.639 C 68.343 112.330,68.323 112.168,67.641 112.943 M272.071 112.899 C 271.939 113.031,271.893 114.550,271.893 118.817 L 271.893 124.556 272.337 124.556 L 272.781 124.556 272.781 118.817 C 272.781 113.231,272.744 112.722,272.337 112.722 C 272.288 112.722,272.169 112.802,272.071 112.899 M93.343 129.586 L 93.343 134.320 93.935 134.320 L 94.527 134.320 94.527 132.724 L 94.527 131.129 95.326 130.339 L 96.126 129.550 96.547 130.133 C 96.778 130.454,97.533 131.526,98.225 132.515 L 99.482 134.314 100.259 134.317 C 100.686 134.318,101.036 134.286,101.036 134.246 C 101.036 134.159,99.087 131.443,97.967 129.967 C 96.947 128.623,96.918 128.716,98.964 126.793 C 100.994 124.887,101.012 124.852,99.961 124.852 L 99.183 124.852 96.967 127.071 C 95.749 128.291,94.701 129.290,94.639 129.290 C 94.577 129.290,94.527 128.291,94.527 127.071 L 94.527 124.852 93.935 124.852 L 93.343 124.852 93.343 129.586 M129.290 129.586 L 129.290 134.337 129.845 134.291 L 130.399 134.246 130.442 132.898 C 130.481 131.651,130.939 130.556,131.266 130.929 C 131.296 130.963,131.803 131.740,132.391 132.655 C 133.454 134.308,133.465 134.320,134.038 134.320 C 134.865 134.320,134.907 134.433,133.036 131.563 C 132.605 130.901,132.217 130.268,132.174 130.156 C 132.128 130.035,132.548 129.504,133.208 128.848 C 134.505 127.560,134.521 127.515,133.687 127.515 C 133.094 127.515,132.983 127.587,131.879 128.698 C 131.232 129.349,130.652 129.882,130.591 129.882 C 130.530 129.882,130.462 128.767,130.440 127.404 L 130.399 124.926 129.845 124.880 L 129.290 124.834 129.290 129.586 M142.604 129.595 L 142.604 134.337 143.158 134.291 C 143.640 134.252,143.719 134.192,143.760 133.839 C 143.813 133.379,143.958 133.325,144.239 133.664 C 145.261 134.895,147.416 134.303,148.234 132.567 C 149.717 129.419,146.294 125.398,144.239 127.875 C 143.864 128.326,143.787 128.088,143.787 126.479 L 143.787 124.852 143.195 124.852 L 142.604 124.852 142.604 129.595 M156.872 125.039 C 156.832 125.141,156.818 127.255,156.839 129.735 L 156.879 134.246 157.433 134.291 L 157.988 134.337 157.988 129.595 L 157.988 124.852 157.466 124.852 C 157.178 124.852,156.911 124.936,156.872 125.039 M173.077 129.586 L 173.077 134.337 173.632 134.291 L 174.186 134.246 174.229 132.898 C 174.268 131.651,174.726 130.556,175.053 130.929 C 175.083 130.963,175.590 131.740,176.178 132.655 C 177.241 134.308,177.252 134.320,177.825 134.320 C 178.652 134.320,178.694 134.433,176.823 131.563 C 176.392 130.901,176.004 130.268,175.961 130.156 C 175.915 130.035,176.335 129.504,176.995 128.848 C 178.292 127.560,178.308 127.515,177.474 127.515 C 176.881 127.515,176.770 127.587,175.666 128.698 C 175.019 129.349,174.439 129.882,174.378 129.882 C 174.317 129.882,174.249 128.767,174.227 127.404 L 174.186 124.926 173.632 124.880 L 173.077 124.834 173.077 129.586 M207.454 125.063 C 207.245 125.609,207.457 125.960,208.025 126.007 L 208.580 126.053 208.580 125.453 C 208.580 124.816,207.670 124.501,207.454 125.063 M234.156 125.052 C 231.400 125.928,230.236 129.358,231.721 132.229 C 233.211 135.111,237.945 134.981,239.336 132.021 C 239.720 131.205,239.654 131.065,238.893 131.065 C 238.389 131.065,238.285 131.122,238.153 131.472 C 237.505 133.186,234.970 133.700,233.478 132.419 C 232.081 131.221,232.081 127.950,233.478 126.752 C 234.811 125.609,237.032 125.836,237.870 127.200 C 238.512 128.246,239.635 127.912,239.083 126.839 C 238.245 125.207,236.107 124.432,234.156 125.052 M210.838 125.499 C 210.390 125.793,210.359 125.870,210.357 126.664 C 210.355 127.510,210.353 127.515,209.911 127.515 C 209.492 127.515,209.467 127.548,209.467 128.107 C 209.467 128.665,209.492 128.698,209.911 128.698 L 210.355 128.698 210.355 130.984 C 210.355 133.983,210.526 134.320,212.054 134.320 C 212.806 134.320,212.902 134.223,212.777 133.595 C 212.701 133.219,212.613 133.136,212.289 133.136 C 211.601 133.136,211.538 132.937,211.538 130.749 L 211.538 128.716 212.093 128.670 C 212.620 128.627,212.648 128.598,212.648 128.107 C 212.648 127.615,212.620 127.586,212.093 127.543 L 211.538 127.497 211.538 126.405 C 211.538 125.143,211.485 125.074,210.838 125.499 M102.959 127.465 C 100.350 128.586,100.387 133.003,103.014 134.084 C 106.236 135.410,108.889 131.272,106.715 128.311 C 106.003 127.342,104.194 126.935,102.959 127.465 M110.146 127.520 C 108.888 128.148,108.451 128.991,109.188 129.373 C 109.629 129.600,109.639 129.597,110.216 129.003 C 111.225 127.962,113.314 128.253,113.314 129.434 C 113.314 129.904,112.791 130.178,111.893 130.178 C 109.943 130.178,108.580 131.091,108.580 132.396 C 108.580 134.230,110.872 134.930,113.000 133.745 C 113.368 133.540,113.602 133.690,113.607 134.135 C 113.609 134.252,113.831 134.320,114.218 134.320 C 114.783 134.320,114.820 134.295,114.719 133.987 C 114.660 133.804,114.569 132.489,114.517 131.065 C 114.455 129.350,114.357 128.361,114.228 128.134 C 113.739 127.276,111.354 126.917,110.146 127.520 M136.773 127.520 C 135.515 128.148,135.079 128.991,135.816 129.373 C 136.256 129.600,136.267 129.597,136.843 129.003 C 137.853 127.962,139.941 128.253,139.941 129.434 C 139.941 129.904,139.418 130.178,138.521 130.178 C 136.571 130.178,135.207 131.091,135.207 132.396 C 135.207 134.230,137.499 134.930,139.627 133.745 C 139.995 133.540,140.229 133.690,140.234 134.135 C 140.236 134.252,140.458 134.320,140.846 134.320 C 141.411 134.320,141.447 134.295,141.347 133.987 C 141.287 133.804,141.196 132.489,141.144 131.065 C 141.082 129.350,140.984 128.361,140.855 128.134 C 140.366 127.276,137.981 126.917,136.773 127.520 M151.036 127.564 C 147.997 129.103,149.154 134.299,152.540 134.315 C 154.448 134.325,156.332 132.640,155.020 132.097 C 154.572 131.911,154.531 131.922,154.255 132.300 C 153.224 133.716,150.592 133.132,150.592 131.489 L 150.592 131.065 153.107 131.065 L 155.621 131.065 155.621 130.509 C 155.621 127.999,153.221 126.458,151.036 127.564 M163.925 127.547 C 161.894 128.531,162.432 130.537,164.904 131.194 C 167.077 131.771,167.160 131.813,167.160 132.337 C 167.160 133.337,164.550 133.429,163.837 132.453 C 163.645 132.191,163.616 132.191,163.093 132.440 L 162.549 132.699 162.851 133.177 C 163.752 134.603,166.630 134.735,167.831 133.406 C 169.018 132.093,168.245 130.533,166.198 130.108 C 164.913 129.842,164.626 129.755,164.281 129.529 C 163.497 129.016,164.125 128.402,165.436 128.402 C 166.139 128.402,166.293 128.459,166.691 128.867 C 167.469 129.662,168.435 129.022,167.808 128.127 C 167.199 127.257,165.154 126.951,163.925 127.547 M180.560 127.520 C 179.302 128.148,178.866 128.991,179.603 129.373 C 180.043 129.600,180.054 129.597,180.630 129.003 C 181.640 127.962,183.728 128.253,183.728 129.434 C 183.728 129.904,183.205 130.178,182.308 130.178 C 180.358 130.178,178.994 131.091,178.994 132.396 C 178.994 134.230,181.286 134.930,183.414 133.745 C 183.782 133.540,184.016 133.690,184.021 134.135 C 184.023 134.252,184.245 134.320,184.633 134.320 C 185.198 134.320,185.234 134.295,185.134 133.987 C 185.074 133.804,184.983 132.489,184.931 131.065 C 184.869 129.350,184.771 128.361,184.642 128.134 C 184.153 127.276,181.768 126.917,180.560 127.520 M188.266 127.680 C 187.734 128.118,187.500 128.143,187.500 127.761 C 187.500 127.666,187.250 127.568,186.945 127.543 L 186.391 127.497 186.391 132.240 L 186.391 136.982 186.982 136.982 L 187.574 136.982 187.574 135.281 C 187.574 133.425,187.582 133.410,188.314 133.950 C 189.479 134.810,191.281 134.137,192.021 132.567 C 193.446 129.542,190.562 125.787,188.266 127.680 M194.761 127.520 C 193.503 128.148,193.067 128.991,193.804 129.373 C 194.244 129.600,194.255 129.597,194.831 129.003 C 195.841 127.962,197.929 128.253,197.929 129.434 C 197.929 129.904,197.407 130.178,196.509 130.178 C 194.559 130.178,193.195 131.091,193.195 132.396 C 193.195 134.230,195.487 134.930,197.615 133.745 C 197.983 133.540,198.217 133.690,198.223 134.135 C 198.224 134.252,198.446 134.320,198.834 134.320 C 199.399 134.320,199.435 134.295,199.335 133.987 C 199.275 133.804,199.184 132.489,199.133 131.065 C 199.070 129.350,198.973 128.361,198.843 128.134 C 198.354 127.276,195.969 126.917,194.761 127.520 M202.219 127.465 C 198.960 128.865,199.968 134.320,203.485 134.320 C 205.245 134.320,207.185 132.329,205.899 131.843 C 205.392 131.652,205.030 131.795,205.030 132.185 C 205.030 132.950,203.287 133.381,202.395 132.836 C 200.609 131.747,201.440 128.405,203.498 128.403 C 204.112 128.402,204.877 128.905,205.049 129.421 C 205.134 129.676,206.213 129.341,206.213 129.060 C 206.213 127.800,203.740 126.812,202.219 127.465 M215.089 127.465 C 212.481 128.586,212.517 133.003,215.144 134.084 C 218.366 135.410,221.019 131.272,218.845 128.311 C 218.133 127.342,216.324 126.935,215.089 127.465 M115.533 127.658 C 115.533 127.747,115.951 128.400,116.463 129.109 C 116.974 129.819,117.446 130.487,117.512 130.593 C 117.635 130.792,117.431 131.136,116.087 133.000 C 115.228 134.192,115.217 134.320,115.976 134.320 C 116.550 134.320,116.588 134.287,117.344 133.141 C 118.351 131.615,118.321 131.616,119.290 133.073 C 120.101 134.290,120.134 134.320,120.711 134.320 C 121.545 134.320,121.612 134.476,119.429 131.325 C 119.091 130.838,119.070 130.738,119.249 130.490 C 121.342 127.598,121.379 127.515,120.559 127.515 C 120.017 127.515,119.922 127.577,119.487 128.208 C 119.224 128.589,118.841 129.094,118.635 129.331 L 118.262 129.760 117.520 128.674 C 116.803 127.625,115.533 126.976,115.533 127.658 M207.463 127.703 C 207.423 127.807,207.408 129.321,207.430 131.069 L 207.470 134.246 208.025 134.291 L 208.580 134.337 208.580 130.926 L 208.580 127.515 208.057 127.515 C 207.770 127.515,207.503 127.600,207.463 127.703 M220.769 127.722 C 220.586 128.200,220.783 132.764,221.006 133.205 C 221.617 134.416,223.842 134.692,224.696 133.664 C 225.014 133.281,225.296 133.385,225.296 133.885 C 225.296 134.307,225.329 134.335,225.777 134.292 L 226.257 134.246 226.257 130.917 L 226.257 127.589 225.703 127.543 L 225.148 127.497 225.148 129.582 C 225.148 131.975,225.000 132.523,224.253 132.896 C 223.557 133.243,222.873 133.201,222.383 132.779 L 221.967 132.423 221.918 129.969 L 221.868 127.515 221.358 127.515 C 221.058 127.515,220.816 127.600,220.769 127.722 M105.191 128.631 C 107.099 129.618,106.341 133.136,104.221 133.136 C 103.010 133.136,102.293 132.256,102.293 130.769 C 102.293 128.881,103.686 127.853,105.191 128.631 M146.529 128.701 C 147.057 129.028,147.167 129.216,147.345 130.104 C 147.772 132.228,146.109 133.853,144.581 132.806 C 142.481 131.367,144.377 127.371,146.529 128.701 M153.549 128.623 C 153.784 128.745,154.080 128.993,154.207 129.174 C 154.672 129.838,154.568 129.882,152.515 129.882 C 150.530 129.882,150.440 129.851,150.749 129.272 C 151.164 128.497,152.642 128.155,153.549 128.623 M190.447 128.883 C 191.963 130.197,191.140 133.136,189.255 133.136 C 187.476 133.136,186.770 130.390,188.185 128.974 C 188.948 128.211,189.639 128.184,190.447 128.883 M217.322 128.631 C 219.229 129.618,218.471 133.136,216.351 133.136 C 215.140 133.136,214.423 132.256,214.423 130.769 C 214.423 128.881,215.817 127.853,217.322 128.631 M280.769 134.320 L 280.769 140.237 281.213 140.237 L 281.657 140.237 281.657 134.320 L 281.657 128.402 281.213 128.402 L 280.769 128.402 280.769 134.320 M242.899 132.249 L 242.899 135.523 243.306 135.476 C 243.698 135.431,243.716 135.392,243.787 134.395 C 243.890 132.950,244.143 132.948,245.054 134.386 C 245.662 135.346,245.820 135.503,246.180 135.503 C 246.746 135.503,246.720 135.409,245.784 134.050 C 244.790 132.607,244.785 132.463,245.694 131.612 C 246.092 131.240,246.381 130.898,246.335 130.852 C 246.077 130.594,245.546 130.850,244.821 131.584 C 243.781 132.637,243.744 132.607,243.727 130.688 L 243.713 129.068 243.306 129.021 L 242.899 128.974 242.899 132.249 M67.456 134.996 C 67.456 140.997,67.469 141.124,68.111 141.124 C 68.318 141.124,68.343 140.488,68.343 135.207 L 68.343 129.290 67.899 129.290 L 67.456 129.290 67.456 134.996 M271.893 135.207 L 271.893 141.124 272.337 141.124 L 272.781 141.124 272.781 135.207 L 272.781 129.290 272.337 129.290 L 271.893 129.290 271.893 135.207 M113.309 131.546 C 113.297 132.788,111.133 133.671,110.082 132.863 C 109.238 132.214,109.989 131.526,111.714 131.368 C 112.261 131.318,112.755 131.229,112.813 131.171 C 113.076 130.908,113.313 131.088,113.309 131.546 M139.936 131.546 C 139.924 132.788,137.760 133.671,136.710 132.863 C 135.866 132.214,136.616 131.526,138.342 131.368 C 138.888 131.318,139.382 131.229,139.440 131.171 C 139.703 130.908,139.941 131.088,139.936 131.546 M183.723 131.546 C 183.711 132.788,181.547 133.671,180.497 132.863 C 179.653 132.214,180.403 131.526,182.129 131.368 C 182.675 131.318,183.169 131.229,183.227 131.171 C 183.490 130.908,183.728 131.088,183.723 131.546 M197.924 131.546 C 197.912 132.788,195.749 133.671,194.698 132.863 C 193.854 132.214,194.604 131.526,196.330 131.368 C 196.876 131.318,197.370 131.229,197.429 131.171 C 197.691 130.908,197.929 131.088,197.924 131.546 M122.546 133.339 C 122.312 133.949,122.534 134.246,123.225 134.246 C 123.887 134.246,123.891 134.243,123.891 133.728 C 123.891 133.148,122.746 132.817,122.546 133.339 M280.947 144.852 C 280.663 145.136,280.695 156.308,280.981 156.593 C 281.156 156.769,282.150 156.805,286.898 156.805 L 292.604 156.805 292.604 156.361 L 292.604 155.917 287.130 155.917 L 281.657 155.917 281.657 150.473 C 281.657 145.183,281.618 144.675,281.213 144.675 C 281.164 144.675,281.044 144.754,280.947 144.852 M67.641 145.783 C 67.351 146.113,67.376 156.302,67.667 156.593 C 68.127 157.053,69.231 156.740,69.231 156.150 C 69.231 155.990,69.092 155.917,68.787 155.917 L 68.343 155.917 68.343 150.740 C 68.343 145.232,68.313 145.020,67.641 145.783 M272.071 145.740 C 271.940 145.871,271.893 147.226,271.893 150.917 L 271.893 155.917 271.450 155.917 C 271.145 155.917,271.006 155.990,271.006 156.150 C 271.006 156.521,271.391 156.805,271.893 156.805 C 272.795 156.805,272.781 156.894,272.781 151.150 C 272.781 146.070,272.741 145.562,272.337 145.562 C 272.288 145.562,272.169 145.642,272.071 145.740 M73.669 156.150 C 73.669 156.791,73.800 156.805,79.734 156.805 C 85.667 156.805,85.799 156.791,85.799 156.150 C 85.799 155.942,85.149 155.917,79.734 155.917 C 74.319 155.917,73.669 155.942,73.669 156.150 M90.237 156.150 C 90.237 156.791,90.364 156.805,96.365 156.805 L 102.071 156.805 102.071 156.361 L 102.071 155.917 96.154 155.917 C 90.873 155.917,90.237 155.942,90.237 156.150 M106.657 156.139 C 106.138 156.764,106.494 156.805,112.529 156.805 C 118.511 156.805,118.639 156.791,118.639 156.150 C 118.639 155.805,106.942 155.795,106.657 156.139 M123.077 156.150 C 123.077 156.791,123.205 156.805,129.187 156.805 C 135.222 156.805,135.578 156.764,135.059 156.139 C 134.774 155.795,123.077 155.805,123.077 156.150 M139.645 156.361 L 139.645 156.805 145.351 156.805 C 151.352 156.805,151.479 156.791,151.479 156.150 C 151.479 155.942,150.843 155.917,145.562 155.917 L 139.645 155.917 139.645 156.361 M155.917 156.150 C 155.917 156.791,156.046 156.805,162.028 156.805 C 168.062 156.805,168.418 156.764,167.899 156.139 C 167.614 155.795,155.917 155.805,155.917 156.150 M172.485 156.150 C 172.485 156.789,172.626 156.805,178.402 156.805 C 184.178 156.805,184.320 156.789,184.320 156.150 C 184.320 155.942,183.683 155.917,178.402 155.917 C 173.122 155.917,172.485 155.942,172.485 156.150 M188.757 156.150 C 188.757 156.791,188.889 156.805,194.822 156.805 C 200.756 156.805,200.888 156.791,200.888 156.150 C 200.888 155.942,200.238 155.917,194.822 155.917 C 189.407 155.917,188.757 155.942,188.757 156.150 M205.325 156.150 C 205.325 156.789,205.467 156.805,211.243 156.805 C 217.019 156.805,217.160 156.789,217.160 156.150 C 217.160 155.942,216.523 155.917,211.243 155.917 C 205.962 155.917,205.325 155.942,205.325 156.150 M221.598 156.150 C 221.598 156.791,221.729 156.805,227.663 156.805 C 233.596 156.805,233.728 156.791,233.728 156.150 C 233.728 155.942,233.078 155.917,227.663 155.917 C 222.248 155.917,221.598 155.942,221.598 156.150 M238.166 156.150 C 238.166 156.791,238.293 156.805,244.294 156.805 L 250.000 156.805 250.000 156.361 L 250.000 155.917 244.083 155.917 C 238.802 155.917,238.166 155.942,238.166 156.150 M254.586 156.139 C 254.067 156.764,254.423 156.805,260.458 156.805 C 266.440 156.805,266.568 156.791,266.568 156.150 C 266.568 155.805,254.871 155.795,254.586 156.139 M297.189 156.139 C 296.670 156.765,297.024 156.805,303.107 156.805 C 309.189 156.805,309.543 156.765,309.024 156.139 C 308.866 155.949,308.022 155.917,303.107 155.917 C 298.191 155.917,297.347 155.949,297.189 156.139 M313.757 156.139 C 313.238 156.765,313.591 156.805,319.693 156.805 L 325.444 156.805 325.444 156.361 L 325.444 155.917 319.693 155.917 C 314.761 155.917,313.915 155.949,313.757 156.139 M330.030 156.139 C 329.510 156.765,329.864 156.805,335.947 156.805 C 340.862 156.805,341.706 156.773,341.864 156.583 C 342.383 155.957,342.030 155.917,335.947 155.917 C 331.031 155.917,330.187 155.949,330.030 156.139 M346.598 156.139 C 346.078 156.765,346.431 156.805,352.533 156.805 L 358.284 156.805 358.284 156.361 L 358.284 155.917 352.533 155.917 C 347.601 155.917,346.756 155.949,346.598 156.139 M362.870 156.139 C 362.350 156.765,362.704 156.805,368.787 156.805 C 374.870 156.805,375.224 156.765,374.704 156.139 C 374.546 155.949,373.703 155.917,368.787 155.917 C 363.871 155.917,363.028 155.949,362.870 156.139 M379.438 156.139 C 378.918 156.765,379.271 156.805,385.373 156.805 L 391.124 156.805 391.124 156.361 L 391.124 155.917 385.373 155.917 C 380.442 155.917,379.596 155.949,379.438 156.139 M395.710 156.139 C 395.452 156.450,395.768 156.805,396.302 156.805 C 396.836 156.805,397.151 156.450,396.893 156.139 C 396.792 156.017,396.526 155.917,396.302 155.917 C 396.078 155.917,395.811 156.017,395.710 156.139 M50.374 158.806 C 49.914 159.813,49.911 159.763,50.430 159.763 C 50.764 159.763,50.996 159.601,51.466 159.040 C 52.236 158.120,52.229 157.988,51.410 157.988 C 50.751 157.988,50.747 157.992,50.374 158.806 M4.882 160.528 C 4.678 160.612,4.303 160.769,4.048 160.877 C 0.848 162.233,0.826 167.896,4.016 169.268 C 5.980 170.112,8.086 169.953,9.780 168.832 L 10.355 168.452 10.355 166.766 L 10.355 165.080 8.395 165.121 L 6.435 165.163 6.435 165.680 L 6.435 166.198 7.803 166.241 L 9.172 166.283 9.172 167.084 C 9.172 168.085,8.229 168.641,6.539 168.637 C 3.704 168.629,2.053 165.976,3.271 163.385 C 4.307 161.182,7.586 160.846,8.901 162.808 C 9.336 163.457,10.212 163.611,10.204 163.038 C 10.180 161.243,6.897 159.695,4.882 160.528 M12.127 160.426 C 12.125 160.468,12.122 162.583,12.120 165.126 L 12.117 169.749 15.600 169.788 L 19.083 169.828 19.083 169.233 L 19.083 168.639 16.198 168.639 L 13.314 168.639 13.314 167.015 L 13.314 165.391 15.939 165.351 L 18.565 165.311 18.565 164.793 L 18.565 164.275 15.939 164.235 L 13.314 164.194 13.314 162.870 L 13.314 161.545 16.087 161.505 L 18.861 161.464 18.861 160.947 L 18.861 160.429 15.496 160.389 C 13.645 160.367,12.129 160.384,12.127 160.426 M20.707 160.429 C 20.705 160.470,20.702 162.583,20.700 165.126 L 20.697 169.749 21.258 169.749 L 21.820 169.749 21.839 166.278 C 21.849 164.369,21.916 162.791,21.987 162.770 C 22.057 162.750,22.508 163.333,22.989 164.065 C 23.469 164.798,24.556 166.397,25.404 167.618 L 26.946 169.838 27.563 169.793 L 28.180 169.749 28.180 165.089 L 28.180 160.429 27.626 160.383 L 27.071 160.337 27.071 163.896 C 27.071 165.995,27.014 167.456,26.933 167.456 C 26.794 167.456,26.098 166.497,24.088 163.536 C 21.906 160.320,21.937 160.355,21.288 160.355 C 20.970 160.355,20.709 160.388,20.707 160.429 M29.878 160.426 C 29.877 160.468,29.874 162.583,29.872 165.126 L 29.868 169.749 33.351 169.788 L 36.834 169.828 36.834 169.233 L 36.834 168.639 33.950 168.639 L 31.065 168.639 31.065 167.015 L 31.065 165.391 33.691 165.351 L 36.317 165.311 36.317 164.793 L 36.317 164.275 33.691 164.235 L 31.065 164.194 31.065 162.870 L 31.065 161.545 33.839 161.505 L 36.612 161.464 36.612 160.947 L 36.612 160.429 33.247 160.389 C 31.396 160.367,29.880 160.384,29.878 160.426 M38.458 160.429 C 38.456 160.470,38.453 162.583,38.451 165.126 L 38.447 169.749 39.046 169.794 L 39.645 169.839 39.645 167.760 L 39.645 165.680 40.795 165.680 C 42.254 165.680,42.607 165.945,44.175 168.212 L 45.288 169.822 46.539 169.822 C 47.600 169.822,47.803 169.783,47.876 169.564 C 47.922 169.421,48.172 168.772,48.430 168.121 L 48.900 166.938 50.844 166.897 C 52.757 166.856,52.790 166.861,52.883 167.193 C 52.936 167.378,53.186 168.045,53.439 168.676 L 53.900 169.822 54.539 169.822 C 54.890 169.822,55.178 169.758,55.178 169.680 C 55.178 169.530,54.704 168.285,54.361 167.530 C 54.250 167.286,53.886 166.420,53.553 165.607 C 53.219 164.793,52.875 163.961,52.788 163.757 C 52.701 163.554,52.352 162.722,52.012 161.908 L 51.394 160.429 50.764 160.429 L 50.133 160.429 49.607 161.760 C 49.317 162.493,48.955 163.374,48.801 163.719 C 48.647 164.064,48.521 164.414,48.521 164.497 C 48.521 164.581,48.459 164.765,48.383 164.906 C 48.307 165.047,47.891 166.077,47.458 167.196 C 46.526 169.606,46.671 169.549,45.578 167.922 C 45.094 167.203,44.479 166.430,44.211 166.205 C 43.717 165.788,43.847 165.385,44.476 165.385 C 44.844 165.385,45.671 164.494,45.928 163.822 C 46.410 162.558,45.825 161.176,44.581 160.642 C 43.946 160.370,38.469 160.179,38.458 160.429 M55.473 160.944 L 55.473 161.538 57.027 161.538 L 58.580 161.538 58.580 165.680 L 58.580 169.822 59.169 169.822 L 59.759 169.822 59.798 165.717 L 59.837 161.612 61.391 161.538 L 62.944 161.464 62.944 160.947 L 62.944 160.429 59.209 160.389 L 55.473 160.350 55.473 160.944 M66.420 160.503 C 66.298 160.582,66.065 160.649,65.902 160.652 C 65.026 160.670,63.596 162.265,63.232 163.631 C 62.358 166.914,64.411 169.822,67.604 169.822 C 72.756 169.822,74.035 162.407,69.188 160.635 C 68.370 160.336,66.795 160.261,66.420 160.503 M74.257 160.429 C 74.255 160.470,74.252 162.583,74.250 165.126 L 74.246 169.749 74.845 169.794 L 75.444 169.839 75.444 167.760 L 75.444 165.680 76.594 165.680 C 78.053 165.680,78.406 165.945,79.974 168.212 L 81.087 169.822 81.816 169.822 C 82.217 169.822,82.544 169.787,82.544 169.744 C 82.544 169.513,80.427 166.555,80.011 166.206 C 79.515 165.788,79.645 165.385,80.275 165.385 C 80.642 165.385,81.470 164.494,81.727 163.822 C 82.209 162.558,81.624 161.176,80.379 160.642 C 79.744 160.370,74.268 160.179,74.257 160.429 M154.594 160.575 C 152.159 161.454,152.263 165.089,154.723 165.089 C 154.882 165.089,155.053 165.155,155.104 165.237 C 155.154 165.318,155.369 165.385,155.583 165.385 C 155.796 165.385,156.175 165.447,156.424 165.523 C 156.674 165.598,157.166 165.744,157.518 165.846 C 159.637 166.459,158.718 168.639,156.341 168.639 C 154.988 168.639,153.550 167.546,153.550 166.518 C 153.550 166.330,153.412 166.272,152.959 166.272 C 152.306 166.272,152.281 166.327,152.529 167.220 C 152.996 168.900,154.356 169.816,156.394 169.820 C 160.157 169.829,161.343 165.716,157.865 164.721 C 157.404 164.589,156.822 164.418,156.572 164.341 C 156.322 164.264,155.979 164.201,155.808 164.201 C 154.625 164.201,153.661 163.213,154.071 162.419 C 154.764 161.080,157.916 161.304,158.376 162.726 C 158.698 163.718,159.877 163.517,159.601 162.518 C 159.139 160.842,156.591 159.853,154.594 160.575 M164.349 160.503 C 164.227 160.582,163.994 160.649,163.831 160.652 C 162.955 160.670,161.525 162.265,161.161 163.631 C 160.110 167.579,163.442 170.885,167.117 169.542 C 172.012 167.753,170.676 160.344,165.461 160.357 C 164.971 160.359,164.471 160.424,164.349 160.503 M171.594 160.429 C 171.592 160.470,171.590 162.583,171.588 165.126 L 171.584 169.749 172.146 169.749 L 172.707 169.749 172.726 166.278 C 172.737 164.369,172.804 162.791,172.874 162.770 C 172.945 162.750,173.396 163.333,173.876 164.065 C 174.357 164.798,175.444 166.397,176.292 167.618 L 177.833 169.838 178.451 169.793 L 179.068 169.749 179.068 165.089 L 179.068 160.429 178.513 160.383 L 177.959 160.337 177.959 163.896 C 177.959 165.995,177.902 167.456,177.821 167.456 C 177.682 167.456,176.986 166.497,174.976 163.536 C 172.793 160.320,172.824 160.355,172.175 160.355 C 171.858 160.355,171.596 160.388,171.594 160.429 M181.062 160.429 C 181.060 160.470,181.057 162.583,181.055 165.126 L 181.051 169.749 183.166 169.794 C 186.016 169.854,187.085 169.549,187.888 168.444 C 189.723 165.921,189.022 161.784,186.576 160.703 C 185.840 160.377,181.075 160.140,181.062 160.429 M192.598 160.753 C 192.355 161.417,191.700 163.037,191.400 163.719 C 191.248 164.064,191.124 164.414,191.124 164.497 C 191.124 164.581,191.063 164.765,190.988 164.906 C 190.641 165.559,189.094 169.666,189.168 169.740 C 189.379 169.951,190.397 169.814,190.479 169.564 C 190.526 169.421,190.776 168.772,191.034 168.121 L 191.504 166.938 193.448 166.897 C 195.360 166.856,195.393 166.861,195.487 167.193 C 195.539 167.378,195.789 168.045,196.043 168.676 L 196.504 169.822 197.142 169.822 C 197.494 169.822,197.781 169.758,197.781 169.680 C 197.781 169.530,197.308 168.285,196.964 167.530 C 196.853 167.286,196.490 166.420,196.156 165.607 C 195.823 164.793,195.479 163.961,195.392 163.757 C 195.305 163.554,194.956 162.722,194.616 161.908 L 193.999 160.429 193.375 160.383 C 192.808 160.342,192.737 160.376,192.598 160.753 M287.722 160.503 C 287.600 160.582,287.367 160.649,287.204 160.652 C 286.328 160.670,284.897 162.265,284.534 163.631 C 283.483 167.579,286.815 170.885,290.490 169.542 C 295.385 167.753,294.049 160.344,288.833 160.357 C 288.344 160.359,287.844 160.424,287.722 160.503 M296.901 160.575 C 294.466 161.454,294.571 165.089,297.031 165.089 C 297.190 165.089,297.361 165.155,297.411 165.237 C 297.462 165.318,297.677 165.385,297.890 165.385 C 298.103 165.385,298.482 165.447,298.732 165.523 C 298.982 165.598,299.474 165.744,299.826 165.846 C 301.944 166.459,301.026 168.639,298.649 168.639 C 297.296 168.639,295.858 167.546,295.858 166.518 C 295.858 166.330,295.719 166.272,295.266 166.272 C 294.614 166.272,294.589 166.327,294.837 167.220 C 295.303 168.900,296.664 169.816,298.701 169.820 C 302.464 169.829,303.650 165.716,300.172 164.721 C 299.711 164.589,299.130 164.418,298.880 164.341 C 298.630 164.264,298.286 164.201,298.116 164.201 C 296.932 164.201,295.969 163.213,296.379 162.419 C 297.072 161.080,300.224 161.304,300.684 162.726 C 301.005 163.718,302.185 163.517,301.909 162.518 C 301.446 160.842,298.899 159.853,296.901 160.575 M306.050 160.555 C 303.294 161.431,302.130 164.861,303.614 167.732 C 305.104 170.614,309.838 170.484,311.230 167.524 C 311.613 166.708,311.548 166.568,310.786 166.568 C 310.282 166.568,310.178 166.625,310.046 166.975 C 309.222 169.157,305.956 169.215,304.715 167.069 C 303.969 165.780,304.327 163.151,305.371 162.255 C 306.704 161.112,308.926 161.339,309.763 162.703 C 310.405 163.749,311.529 163.415,310.977 162.342 C 310.138 160.710,308.001 159.935,306.050 160.555 M313.018 165.089 L 313.018 169.822 313.609 169.822 L 314.201 169.822 314.201 165.089 L 314.201 160.355 313.609 160.355 L 313.018 160.355 313.018 165.089 M315.828 165.092 L 315.828 169.829 318.824 169.789 L 321.820 169.749 321.820 169.231 L 321.820 168.713 319.453 168.639 L 317.086 168.565 317.046 164.460 L 317.007 160.355 316.418 160.355 L 315.828 160.355 315.828 165.092 M325.888 160.503 C 325.766 160.582,325.533 160.649,325.370 160.652 C 324.493 160.670,323.063 162.265,322.700 163.631 C 321.649 167.579,324.981 170.885,328.656 169.542 C 333.550 167.753,332.214 160.344,326.999 160.357 C 326.510 160.359,326.010 160.424,325.888 160.503 M335.067 160.575 C 332.632 161.454,332.736 165.089,335.196 165.089 C 335.355 165.089,335.527 165.155,335.577 165.237 C 335.627 165.318,335.843 165.385,336.056 165.385 C 336.269 165.385,336.648 165.447,336.898 165.523 C 337.148 165.598,337.640 165.744,337.991 165.846 C 340.110 166.459,339.192 168.639,336.815 168.639 C 335.461 168.639,334.024 167.546,334.024 166.518 C 334.024 166.330,333.885 166.272,333.432 166.272 C 332.780 166.272,332.755 166.327,333.002 167.220 C 333.469 168.900,334.829 169.816,336.867 169.820 C 340.630 169.829,341.816 165.716,338.338 164.721 C 337.877 164.589,337.296 164.418,337.046 164.341 C 336.796 164.264,336.452 164.201,336.281 164.201 C 335.098 164.201,334.135 163.213,334.545 162.419 C 335.238 161.080,338.389 161.304,338.850 162.726 C 339.171 163.718,340.351 163.517,340.075 162.518 C 339.612 160.842,337.064 159.853,335.067 160.575 M341.568 165.089 L 341.568 169.822 342.160 169.822 L 342.751 169.822 342.751 168.227 L 342.751 166.632 343.551 165.842 L 344.351 165.053 344.771 165.636 C 345.003 165.957,345.758 167.029,346.450 168.018 L 347.707 169.817 348.484 169.820 C 348.911 169.821,349.260 169.789,349.260 169.749 C 349.260 169.662,347.312 166.946,346.192 165.470 C 345.172 164.126,345.142 164.219,347.189 162.296 C 349.219 160.390,349.237 160.355,348.186 160.355 L 347.408 160.355 345.192 162.574 C 343.974 163.794,342.926 164.793,342.864 164.793 C 342.802 164.793,342.751 163.794,342.751 162.574 L 342.751 160.355 342.160 160.355 L 341.568 160.355 341.568 165.089 M353.107 160.503 C 352.984 160.582,352.751 160.649,352.589 160.652 C 351.712 160.670,350.282 162.265,349.919 163.631 C 348.868 167.579,352.199 170.885,355.875 169.542 C 360.769 167.753,359.433 160.344,354.218 160.357 C 353.729 160.359,353.229 160.424,353.107 160.503 M360.352 160.429 C 360.350 160.470,360.347 162.583,360.345 165.126 L 360.342 169.749 360.903 169.749 L 361.464 169.749 361.506 167.862 L 361.547 165.976 363.281 165.974 C 365.699 165.971,366.577 165.626,367.143 164.458 C 367.894 162.907,367.297 161.221,365.773 160.592 C 365.226 160.366,360.361 160.220,360.352 160.429 M44.087 161.871 C 45.945 163.131,44.587 164.497,41.476 164.497 L 39.645 164.497 39.645 163.018 L 39.645 161.538 41.620 161.538 C 43.424 161.538,43.638 161.567,44.087 161.871 M69.009 161.850 C 72.241 163.369,71.151 168.639,67.604 168.639 C 65.221 168.639,63.776 166.344,64.506 163.716 C 64.990 161.974,67.265 161.030,69.009 161.850 M79.885 161.871 C 81.744 163.131,80.386 164.497,77.275 164.497 L 75.444 164.497 75.444 163.018 L 75.444 161.538 77.419 161.538 C 79.223 161.538,79.437 161.567,79.885 161.871 M166.938 161.850 C 170.170 163.369,169.080 168.639,165.533 168.639 C 164.143 168.639,162.772 167.675,162.435 166.461 C 161.530 163.203,164.137 160.533,166.938 161.850 M186.100 161.837 C 187.133 162.364,187.487 163.107,187.538 164.852 C 187.622 167.729,186.748 168.622,183.839 168.633 L 182.249 168.639 182.249 165.089 L 182.249 161.538 183.882 161.538 C 185.228 161.538,185.618 161.591,186.100 161.837 M290.311 161.850 C 293.543 163.369,292.452 168.639,288.905 168.639 C 287.516 168.639,286.145 167.675,285.808 166.461 C 284.903 163.203,287.510 160.533,290.311 161.850 M328.476 161.850 C 331.709 163.369,330.618 168.639,327.071 168.639 C 325.681 168.639,324.311 167.675,323.973 166.461 C 323.069 163.203,325.675 160.533,328.476 161.850 M355.695 161.850 C 358.928 163.369,357.837 168.639,354.290 168.639 C 352.900 168.639,351.530 167.675,351.192 166.461 C 350.288 163.203,352.894 160.533,355.695 161.850 M365.315 161.715 C 366.057 162.053,366.377 163.330,365.893 164.021 C 365.460 164.640,364.921 164.793,363.173 164.793 L 361.538 164.793 361.538 163.166 L 361.538 161.538 363.233 161.538 C 364.231 161.538,365.086 161.611,365.315 161.715 M51.079 162.509 C 51.154 162.748,51.441 163.526,51.717 164.237 C 51.993 164.949,52.219 165.564,52.219 165.606 C 52.219 165.647,51.587 165.680,50.814 165.680 C 49.154 165.680,49.205 165.796,50.000 163.850 C 50.325 163.053,50.592 162.301,50.592 162.179 C 50.592 161.812,50.933 162.044,51.079 162.509 M193.682 162.509 C 193.757 162.748,194.044 163.526,194.320 164.237 C 194.597 164.949,194.822 165.564,194.822 165.606 C 194.822 165.647,194.190 165.680,193.417 165.680 C 191.757 165.680,191.809 165.796,192.604 163.850 C 192.929 163.053,193.195 162.301,193.195 162.179 C 193.195 161.812,193.537 162.044,193.682 162.509 " stroke="none" fill="#000000" fill-rule="evenodd"></path></g></svg>
