<?xml version="1.0" encoding="UTF-8" standalone="no"?>
<!-- Created with Inkscape (http://www.inkscape.org/) -->

<svg
   version="1.1"
   id="svg1"
   width="537.99994"
   height="118.09186"
   viewBox="0 0 537.99994 118.09186"
   sodipodi:docname="probe.png"
   xmlns:inkscape="http://www.inkscape.org/namespaces/inkscape"
   xmlns:sodipodi="http://sodipodi.sourceforge.net/DTD/sodipodi-0.dtd"
   xmlns="http://www.w3.org/2000/svg"
   xmlns:svg="http://www.w3.org/2000/svg">
  <defs
     id="defs1" />
  <sodipodi:namedview
     id="namedview1"
     pagecolor="#ffffff"
     bordercolor="#000000"
     borderopacity="0.25"
     inkscape:showpageshadow="2"
     inkscape:pageopacity="0.0"
     inkscape:pagecheckerboard="0"
     inkscape:deskcolor="#d1d1d1" />
  <g
     inkscape:groupmode="layer"
     inkscape:label="Image"
     id="g1"
     transform="translate(-49.213539,-446.92621)">
    <path
       id="path1"
       style="fill:#000000"
       d="m 476.21354,446.9262 -46.75,0.29492 c -52.81986,0.3346 -51.84024,0.20014 -56.9336,7.89453 l -2.8164,4.25391 -0.28321,51.35351 -0.28515,51.35547 -43.88086,-0.28125 -43.88086,-0.2793 -4.30664,-3.02734 c -2.36886,-1.6654 -5.66863,-4.96694 -7.33399,-7.33594 l -3.02929,-4.30664 -0.2754,-49.91601 -0.27734,-49.91407 h -47.9707 -47.9707 l -3.8125,3.44532 c -2.09774,1.89519 -5.02506,5.9174 -6.50391,8.9375 l -2.68945,5.49023 v 46.06445 46.0625 h -54 c -47.333287,0 -54.000002,0.18521 -54.000002,1.5 0,1.3153 6.833376,1.5 55.500002,1.5 h 55.5 v -47.5332 -47.5332 l 2.4082,-4.7168 c 1.32372,-2.5942 3.82755,-6.0668 5.56445,-7.7168 l 3.15821,-3 45.93554,-0.28906 45.9336,-0.28711 0.0234,47.78711 c 0.0204,44.30176 0.15541,48.08472 1.86719,51.85352 2.61062,5.74769 7.66004,11.15812 13.01758,13.94922 l 4.5918,2.39257 44.20117,0.0469 44.19922,0.0469 0.30078,-51.25 c 0.29902,-51.02115 0.31083,-51.26997 2.56054,-55.48046 4.23906,-7.9337 2.89504,-7.7328 53.98829,-8.0586 l 45.25,-0.28906 v 49.30664 49.30664 l 2.57617,3.78906 c 1.41622,2.0842 5.29009,5.78883 8.60937,8.23242 l 6.03516,4.44336 h 48.39062 c 42.34662,0 48.38868,-0.1873 48.38868,-1.5 0,-1.31249 -6.01215,-1.5 -48.11524,-1.5 h -48.11523 l -4.91602,-3.60937 c -2.70377,-1.9848 -6.02735,-5.06405 -7.38476,-6.84375 l -2.46875,-3.23633 v -50.70122 z" />
  </g>
</svg>
