<svg id="svg" xmlns="http://www.w3.org/2000/svg" xmlns:xlink="http://www.w3.org/1999/xlink" width="400" height="140.1" viewBox="0, 0, 400,140.1"><g id="svgg"><path id="path0" d="M4.637 2.248 C 4.524 2.541,5.659 3.682,6.133 3.752 C 6.702 3.836,6.868 3.749,7.536 3.019 C 8.211 2.280,8.213 2.150,7.546 2.150 C 7.038 2.150,7.005 2.176,6.550 2.945 C 6.407 3.186,6.159 3.054,5.938 2.619 C 5.665 2.083,4.795 1.835,4.637 2.248 M11.889 2.225 C 11.690 2.391,11.267 3.465,11.348 3.596 C 11.383 3.653,11.565 3.700,11.752 3.700 C 12.111 3.700,13.293 2.431,13.149 2.199 C 13.061 2.056,12.066 2.077,11.889 2.225 M63.082 2.271 C 62.996 2.369,62.871 2.618,62.805 2.824 C 62.739 3.029,62.644 3.223,62.593 3.255 C 62.542 3.286,62.500 3.399,62.500 3.506 C 62.500 3.690,62.635 3.745,63.000 3.709 C 63.192 3.690,64.413 2.391,64.368 2.253 C 64.304 2.057,63.256 2.071,63.082 2.271 M4.904 4.887 C 2.994 5.664,2.047 7.656,2.441 10.067 C 2.698 11.641,3.571 12.977,4.554 13.301 C 4.755 13.368,5.039 13.484,5.185 13.560 C 6.844 14.426,10.300 12.639,10.300 10.916 C 10.300 10.301,9.443 10.290,9.122 10.900 C 8.001 13.029,4.943 13.049,3.938 10.932 C 3.444 9.892,3.508 7.840,4.059 7.027 C 5.164 5.398,7.981 5.396,8.812 7.023 C 9.137 7.661,10.065 7.655,10.035 7.015 C 9.953 5.249,7.013 4.030,4.904 4.887 M11.748 4.719 C 11.720 4.791,11.710 6.830,11.724 9.250 L 11.750 13.650 12.037 13.683 C 12.195 13.701,12.432 13.689,12.563 13.656 L 12.802 13.596 12.776 9.123 L 12.750 4.650 12.274 4.619 C 11.951 4.599,11.782 4.631,11.748 4.719 M16.600 4.866 C 14.512 5.812,14.602 8.542,16.739 9.110 C 16.965 9.169,17.292 9.279,17.466 9.353 C 17.639 9.427,18.067 9.520,18.416 9.559 C 18.765 9.597,19.207 9.713,19.399 9.815 C 19.590 9.917,19.822 10.000,19.913 10.000 C 20.171 10.000,20.700 10.665,20.700 10.989 C 20.700 12.887,16.701 12.958,16.003 11.072 C 15.800 10.524,15.739 10.451,15.453 10.417 C 14.674 10.325,14.597 10.478,14.920 11.473 C 15.139 12.149,16.090 13.300,16.429 13.300 C 16.497 13.300,16.721 13.390,16.926 13.500 C 17.484 13.799,19.103 13.786,19.918 13.475 C 22.520 12.483,22.302 9.198,19.600 8.700 C 19.353 8.654,18.970 8.547,18.750 8.463 C 18.530 8.378,18.148 8.305,17.900 8.300 C 16.835 8.281,15.907 7.312,16.332 6.663 C 17.126 5.452,19.509 5.463,20.332 6.682 C 20.693 7.218,21.600 7.259,21.600 6.739 C 21.600 6.330,20.586 5.024,20.250 5.000 C 20.195 4.996,19.970 4.906,19.750 4.800 C 19.114 4.493,17.341 4.530,16.600 4.866 M23.625 4.715 C 23.433 4.907,23.445 13.430,23.637 13.589 C 23.734 13.670,24.550 13.696,26.412 13.677 L 29.050 13.650 29.050 13.100 L 29.050 12.550 26.930 12.500 C 25.667 12.470,24.768 12.408,24.706 12.346 C 24.639 12.279,24.593 10.895,24.576 8.446 L 24.550 4.650 24.150 4.620 C 23.925 4.604,23.694 4.646,23.625 4.715 M30.448 4.719 C 30.420 4.791,30.410 6.830,30.424 9.250 L 30.450 13.650 30.737 13.683 C 30.895 13.701,31.132 13.689,31.263 13.656 L 31.502 13.596 31.476 9.123 L 31.450 4.650 30.974 4.619 C 30.651 4.599,30.482 4.631,30.448 4.719 M35.600 4.932 C 33.350 5.860,32.436 8.855,33.606 11.462 C 34.953 14.466,39.540 14.502,40.859 11.519 C 41.136 10.894,41.101 10.633,40.720 10.489 C 40.311 10.333,40.003 10.458,39.933 10.808 C 39.608 12.434,36.702 13.006,35.241 11.732 C 34.255 10.871,34.029 8.346,34.825 7.073 C 35.826 5.473,38.625 5.370,39.505 6.900 C 39.942 7.662,40.900 7.694,40.818 6.943 C 40.619 5.140,37.764 4.040,35.600 4.932 M44.999 4.785 C 44.807 4.886,44.525 5.000,44.372 5.037 C 43.539 5.241,42.608 6.643,42.299 8.156 L 42.095 9.156 42.295 10.127 C 42.633 11.768,43.326 12.712,44.659 13.345 C 45.515 13.751,46.980 13.855,47.635 13.556 C 47.808 13.477,48.108 13.349,48.300 13.272 C 50.282 12.475,51.343 8.607,50.074 6.803 C 49.978 6.667,49.900 6.508,49.900 6.450 C 49.900 6.222,48.560 5.000,48.311 5.000 C 48.245 5.000,48.016 4.910,47.800 4.800 C 47.251 4.520,45.516 4.511,44.999 4.785 M51.241 4.715 C 51.202 4.778,51.264 5.014,51.379 5.240 C 51.494 5.465,51.862 6.370,52.197 7.250 C 52.532 8.130,52.895 9.042,53.003 9.278 C 53.111 9.513,53.200 9.762,53.200 9.832 C 53.200 9.901,53.287 10.129,53.394 10.339 C 53.501 10.548,53.619 10.861,53.656 11.035 C 53.693 11.208,53.763 11.400,53.812 11.461 C 53.861 11.522,53.986 11.814,54.091 12.111 C 54.642 13.671,54.664 13.700,55.300 13.700 C 55.854 13.700,55.962 13.603,56.149 12.931 C 56.223 12.666,56.382 12.203,56.503 11.900 C 56.623 11.598,56.792 11.148,56.878 10.900 C 57.295 9.700,57.432 9.327,57.555 9.050 C 57.706 8.710,58.230 7.250,58.522 6.350 C 59.013 4.839,59.156 4.775,59.808 5.775 C 60.050 6.146,60.294 6.541,60.349 6.652 C 60.450 6.855,61.082 7.855,61.875 9.066 L 62.300 9.716 62.300 11.588 C 62.300 13.664,62.311 13.700,62.923 13.700 C 63.422 13.700,63.416 13.727,63.434 11.628 L 63.450 9.850 64.150 8.763 C 64.535 8.165,65.247 7.075,65.733 6.341 C 66.750 4.804,66.774 4.663,66.034 4.620 C 65.476 4.588,65.414 4.637,64.925 5.500 C 64.816 5.692,64.491 6.233,64.202 6.700 C 63.913 7.168,63.637 7.640,63.587 7.750 C 63.311 8.364,62.801 8.871,62.800 8.532 C 62.800 8.487,62.291 7.595,61.670 6.550 L 60.541 4.650 59.201 4.650 L 57.862 4.650 57.441 5.891 C 57.210 6.574,56.993 7.305,56.959 7.515 C 56.926 7.725,56.834 8.044,56.756 8.224 C 56.619 8.540,56.438 9.071,56.150 10.000 C 55.616 11.722,55.494 12.014,55.321 11.980 C 55.178 11.951,54.500 10.500,54.500 10.221 C 54.500 10.147,54.414 9.876,54.310 9.619 C 54.205 9.361,54.052 8.947,53.969 8.700 C 53.306 6.718,52.704 5.071,52.564 4.857 C 52.380 4.576,51.392 4.470,51.241 4.715 M92.367 4.666 C 92.330 4.703,92.300 9.156,92.300 14.561 C 92.300 21.722,92.270 24.407,92.188 24.458 C 92.121 24.499,90.644 23.095,88.541 20.990 C 84.738 17.184,84.909 17.335,84.606 17.497 C 84.148 17.742,84.329 17.982,86.890 20.546 C 88.346 22.003,89.358 23.092,89.329 23.169 C 89.288 23.275,86.550 23.304,74.414 23.325 L 59.550 23.350 59.550 23.700 L 59.550 24.050 75.000 24.076 L 90.450 24.102 91.394 25.048 L 92.339 25.994 91.601 26.699 L 90.863 27.404 75.342 27.401 C 58.567 27.398,59.500 27.372,59.500 27.850 C 59.500 28.329,58.619 28.303,74.729 28.299 C 83.947 28.296,89.671 28.331,89.729 28.389 C 89.788 28.448,88.809 29.490,87.104 31.181 C 84.163 34.098,83.947 34.402,84.750 34.479 C 85.024 34.505,85.357 34.200,88.547 31.004 C 90.470 29.077,92.101 27.500,92.172 27.500 C 92.275 27.500,92.300 29.360,92.300 37.138 C 92.300 45.163,92.323 46.794,92.437 46.889 C 92.537 46.972,95.924 47.002,105.162 47.000 C 112.085 46.999,117.806 46.998,117.875 46.999 C 118.052 47.000,118.031 47.367,117.850 47.436 C 117.767 47.468,117.700 47.599,117.700 47.729 C 117.700 47.895,117.337 48.329,116.450 49.224 C 115.654 50.027,115.200 50.561,115.200 50.693 C 115.200 50.825,114.812 51.288,114.150 51.948 C 113.431 52.664,113.100 53.066,113.100 53.222 C 113.099 53.369,112.889 53.652,112.507 54.019 C 111.772 54.727,111.650 55.300,112.234 55.300 C 112.514 55.300,113.500 54.322,113.500 54.045 C 113.500 53.926,113.920 53.428,114.550 52.800 C 115.178 52.175,115.601 51.672,115.603 51.552 C 115.607 51.302,116.036 50.800,116.246 50.800 C 116.385 50.800,116.398 51.828,116.375 60.925 L 116.350 71.050 104.350 71.100 L 92.350 71.150 92.325 92.189 C 92.306 107.658,92.329 113.265,92.412 113.364 C 92.506 113.477,94.592 113.500,104.792 113.500 C 114.200 113.500,117.088 113.528,117.180 113.620 C 117.361 113.801,117.326 113.990,117.050 114.318 C 116.913 114.482,116.800 114.714,116.800 114.834 C 116.800 114.954,116.710 115.108,116.600 115.177 C 116.445 115.273,116.400 115.410,116.400 115.779 C 116.400 116.132,116.348 116.300,116.200 116.427 C 116.090 116.521,116.000 116.704,116.000 116.834 C 116.000 116.963,115.910 117.150,115.800 117.250 C 115.690 117.350,115.600 117.530,115.600 117.650 C 115.600 117.770,115.510 117.950,115.400 118.050 C 115.261 118.176,115.200 118.358,115.200 118.650 C 115.200 118.942,115.139 119.124,115.000 119.250 C 114.890 119.350,114.800 119.530,114.800 119.651 C 114.800 119.772,114.688 119.992,114.550 120.141 C 114.364 120.341,114.300 120.520,114.300 120.840 C 114.300 121.142,114.241 121.323,114.100 121.450 C 113.990 121.550,113.900 121.730,113.900 121.850 C 113.900 121.970,113.810 122.150,113.700 122.250 C 113.590 122.350,113.500 122.522,113.500 122.634 C 113.500 122.746,113.405 122.938,113.290 123.061 C 112.844 123.535,113.468 123.675,113.982 123.216 C 114.157 123.060,114.300 122.837,114.300 122.721 C 114.300 122.605,114.413 122.389,114.550 122.241 C 114.688 122.092,114.800 121.872,114.800 121.751 C 114.800 121.630,114.890 121.450,115.000 121.350 C 115.139 121.224,115.200 121.042,115.200 120.750 C 115.200 120.458,115.261 120.276,115.400 120.150 C 115.510 120.050,115.600 119.870,115.600 119.750 C 115.600 119.630,115.690 119.450,115.800 119.350 C 115.947 119.217,116.000 119.042,116.000 118.685 C 116.000 118.310,116.045 118.174,116.200 118.077 C 116.317 118.004,116.400 117.844,116.400 117.691 C 116.400 117.548,116.490 117.350,116.600 117.250 C 116.710 117.150,116.800 116.969,116.800 116.847 C 116.800 116.552,117.023 116.363,117.182 116.522 C 117.271 116.611,117.300 119.312,117.300 127.513 C 117.300 139.564,117.255 138.745,117.896 138.402 C 118.099 138.293,118.100 138.262,118.100 126.739 C 118.100 115.790,118.109 115.187,118.275 115.219 C 118.406 115.243,118.458 115.368,118.480 115.715 C 118.500 116.018,118.577 116.239,118.705 116.355 C 118.812 116.452,118.900 116.659,118.900 116.815 C 118.900 116.990,118.976 117.146,119.100 117.223 C 119.253 117.319,119.300 117.456,119.300 117.807 C 119.300 118.166,119.354 118.316,119.550 118.500 C 119.688 118.629,119.800 118.833,119.800 118.952 C 119.800 119.071,119.890 119.250,120.000 119.350 C 120.110 119.450,120.200 119.630,120.200 119.750 C 120.200 119.870,120.290 120.050,120.400 120.150 C 120.547 120.283,120.600 120.458,120.600 120.812 C 120.600 121.191,120.643 121.316,120.800 121.400 C 120.927 121.468,121.000 121.609,121.000 121.788 C 121.000 121.943,121.090 122.150,121.200 122.250 C 121.340 122.377,121.400 122.558,121.400 122.853 C 121.400 123.327,121.569 123.532,121.919 123.483 C 122.253 123.435,122.317 122.437,122.004 122.154 C 121.892 122.052,121.800 121.870,121.800 121.750 C 121.800 121.630,121.710 121.450,121.600 121.350 C 121.461 121.224,121.400 121.042,121.400 120.750 C 121.400 120.458,121.339 120.276,121.200 120.150 C 121.090 120.050,121.000 119.870,121.000 119.750 C 121.000 119.630,120.910 119.450,120.800 119.350 C 120.690 119.250,120.600 119.063,120.600 118.934 C 120.600 118.804,120.510 118.621,120.400 118.527 C 120.254 118.402,120.200 118.232,120.200 117.895 C 120.200 117.533,120.146 117.385,119.950 117.200 C 119.813 117.071,119.700 116.867,119.700 116.748 C 119.700 116.629,119.610 116.450,119.500 116.350 C 119.361 116.224,119.300 116.042,119.300 115.750 C 119.300 115.458,119.239 115.276,119.100 115.150 C 118.990 115.050,118.900 114.852,118.900 114.709 C 118.900 114.554,118.816 114.396,118.694 114.319 C 118.542 114.224,118.496 114.107,118.519 113.870 L 118.550 113.550 130.750 113.500 L 142.950 113.450 142.950 92.300 L 142.950 71.150 132.310 71.125 C 124.649 71.106,121.632 71.068,121.535 70.987 C 121.423 70.895,121.400 69.099,121.400 60.640 L 121.400 50.404 121.150 50.341 C 120.561 50.193,120.600 49.463,120.600 60.635 C 120.600 69.239,120.578 70.894,120.461 70.990 C 120.367 71.069,119.847 71.097,118.836 71.078 L 117.350 71.050 117.300 60.767 C 117.253 51.122,117.239 50.476,117.075 50.356 C 116.806 50.160,116.853 50.059,117.500 49.442 C 117.850 49.108,118.102 48.782,118.105 48.660 C 118.107 48.544,118.333 48.205,118.606 47.905 L 119.102 47.359 119.651 47.901 C 119.987 48.233,120.200 48.529,120.200 48.664 C 120.200 48.812,120.531 49.211,121.199 49.868 C 121.863 50.520,122.199 50.924,122.199 51.070 C 122.200 51.218,122.611 51.702,123.450 52.544 C 124.220 53.316,124.700 53.875,124.700 53.999 C 124.700 54.356,125.724 55.322,126.061 55.283 C 126.611 55.220,126.514 54.754,125.804 54.053 C 125.457 53.710,125.200 53.369,125.200 53.252 C 125.200 53.123,124.737 52.585,123.950 51.800 C 123.169 51.021,122.700 50.477,122.700 50.350 C 122.700 50.225,122.296 49.744,121.650 49.100 C 120.978 48.430,120.600 47.977,120.600 47.842 C 120.600 47.726,120.510 47.550,120.400 47.450 C 120.176 47.247,120.135 47.001,120.325 46.999 C 120.394 46.998,125.513 46.986,131.700 46.974 L 142.950 46.950 143.000 37.683 C 143.028 32.587,143.076 28.391,143.107 28.360 C 143.240 28.226,172.849 28.289,172.878 28.423 C 172.893 28.495,171.710 29.745,170.249 31.202 C 167.838 33.605,167.595 33.878,167.621 34.150 C 167.699 34.956,167.929 34.778,171.698 30.996 C 174.064 28.622,175.251 27.498,175.351 27.536 C 175.480 27.586,175.502 28.830,175.525 37.272 L 175.550 46.950 187.750 47.000 L 199.950 47.050 199.980 47.571 C 200.005 48.007,199.977 48.113,199.805 48.220 C 199.684 48.296,199.600 48.454,199.600 48.609 C 199.600 48.752,199.510 48.950,199.400 49.050 C 199.290 49.150,199.200 49.330,199.200 49.450 C 199.200 49.570,199.110 49.750,199.000 49.850 C 198.860 49.976,198.800 50.158,198.800 50.451 C 198.800 50.760,198.734 50.942,198.550 51.141 C 198.413 51.289,198.300 51.519,198.300 51.652 C 198.300 51.791,198.215 51.938,198.100 52.000 C 197.943 52.084,197.900 52.209,197.900 52.588 C 197.900 52.942,197.847 53.117,197.700 53.250 C 197.590 53.350,197.500 53.530,197.500 53.650 C 197.500 53.770,197.410 53.950,197.300 54.050 C 197.190 54.150,197.100 54.330,197.100 54.450 C 197.100 54.570,197.010 54.750,196.900 54.850 C 196.758 54.978,196.700 55.158,196.700 55.466 C 196.700 55.778,196.643 55.951,196.500 56.073 C 196.146 56.377,196.433 57.300,196.881 57.300 C 197.192 57.300,197.895 56.348,197.898 55.924 C 197.899 55.624,197.959 55.447,198.100 55.327 C 198.210 55.233,198.300 55.060,198.300 54.942 C 198.300 54.825,198.412 54.608,198.550 54.459 C 198.687 54.311,198.800 54.090,198.800 53.967 C 198.800 53.845,198.890 53.667,199.000 53.573 C 199.143 53.451,199.200 53.278,199.200 52.966 C 199.200 52.658,199.258 52.478,199.400 52.350 C 199.510 52.250,199.600 52.078,199.600 51.967 C 199.600 51.856,199.678 51.680,199.773 51.575 C 199.868 51.469,199.969 51.151,199.998 50.867 C 200.035 50.497,200.093 50.350,200.200 50.350 C 200.332 50.350,200.350 51.567,200.350 60.700 L 200.350 71.050 187.950 71.100 L 175.550 71.150 175.550 92.300 L 175.550 113.450 187.750 113.500 L 199.950 113.550 199.980 114.055 C 200.003 114.461,199.969 114.597,199.805 114.746 C 199.692 114.848,199.600 115.030,199.600 115.150 C 199.600 115.270,199.510 115.450,199.400 115.550 C 199.290 115.650,199.200 115.830,199.200 115.950 C 199.200 116.070,199.110 116.250,199.000 116.350 C 198.860 116.476,198.800 116.658,198.800 116.951 C 198.800 117.260,198.734 117.442,198.550 117.641 C 198.413 117.789,198.300 118.010,198.300 118.133 C 198.300 118.255,198.210 118.433,198.100 118.527 C 197.957 118.649,197.900 118.822,197.900 119.134 C 197.900 119.442,197.842 119.622,197.700 119.750 C 197.590 119.850,197.500 120.030,197.500 120.150 C 197.500 120.270,197.410 120.450,197.300 120.550 C 197.190 120.650,197.100 120.830,197.100 120.950 C 197.100 121.070,197.010 121.250,196.900 121.350 C 196.758 121.478,196.700 121.658,196.700 121.965 C 196.700 122.267,196.639 122.461,196.500 122.600 C 196.210 122.890,196.245 123.310,196.586 123.636 L 196.871 123.910 197.384 123.380 C 197.831 122.919,197.898 122.797,197.899 122.440 C 197.900 122.159,197.963 121.974,198.100 121.850 C 198.210 121.750,198.300 121.570,198.300 121.449 C 198.300 121.328,198.413 121.108,198.550 120.959 C 198.688 120.811,198.800 120.602,198.800 120.495 C 198.800 120.388,198.890 120.210,199.000 120.100 C 199.139 119.961,199.200 119.767,199.200 119.465 C 199.200 119.158,199.258 118.978,199.400 118.850 C 199.510 118.750,199.600 118.570,199.600 118.450 C 199.600 118.330,199.690 118.150,199.800 118.050 C 199.948 117.916,200.000 117.742,200.000 117.385 C 200.000 116.967,200.028 116.900,200.200 116.900 C 200.399 116.900,200.400 116.967,200.400 127.581 L 200.400 138.263 200.680 138.531 C 201.035 138.871,201.071 138.868,201.421 138.476 L 201.710 138.153 201.694 127.551 L 201.678 116.950 201.889 116.918 C 202.079 116.889,202.100 116.934,202.100 117.378 C 202.100 117.742,202.152 117.916,202.300 118.050 C 202.410 118.150,202.500 118.357,202.500 118.512 C 202.500 118.691,202.573 118.832,202.700 118.900 C 202.857 118.984,202.900 119.109,202.900 119.488 C 202.900 119.842,202.953 120.017,203.100 120.150 C 203.210 120.250,203.300 120.430,203.300 120.550 C 203.300 120.670,203.390 120.850,203.500 120.950 C 203.610 121.050,203.700 121.229,203.700 121.348 C 203.700 121.467,203.813 121.671,203.950 121.800 C 204.140 121.979,204.200 122.136,204.200 122.457 C 204.200 122.892,204.875 123.800,205.199 123.800 C 205.655 123.800,205.947 122.964,205.600 122.650 C 205.453 122.517,205.400 122.342,205.400 121.988 C 205.400 121.609,205.357 121.484,205.200 121.400 C 205.073 121.332,205.000 121.191,205.000 121.012 C 205.000 120.857,204.910 120.650,204.800 120.550 C 204.690 120.450,204.600 120.270,204.600 120.150 C 204.600 120.030,204.510 119.850,204.400 119.750 C 204.264 119.627,204.200 119.442,204.200 119.174 C 204.200 118.898,204.124 118.689,203.950 118.482 C 203.813 118.318,203.700 118.086,203.700 117.966 C 203.700 117.846,203.610 117.692,203.500 117.623 C 203.345 117.527,203.300 117.390,203.300 117.021 C 203.300 116.668,203.248 116.500,203.100 116.373 C 202.990 116.279,202.900 116.096,202.900 115.966 C 202.900 115.837,202.810 115.650,202.700 115.550 C 202.590 115.450,202.500 115.270,202.500 115.150 C 202.500 115.030,202.408 114.848,202.295 114.746 C 202.131 114.597,202.097 114.461,202.120 114.055 L 202.150 113.550 214.150 113.499 C 220.750 113.471,226.161 113.437,226.175 113.424 C 226.189 113.411,226.200 108.945,226.200 103.500 C 226.200 95.414,226.224 93.600,226.331 93.600 C 226.403 93.600,228.124 95.267,230.156 97.304 C 233.531 100.688,233.876 101.006,234.150 100.979 C 234.947 100.902,234.734 100.602,231.805 97.687 C 230.314 96.203,229.121 94.946,229.153 94.894 C 229.190 94.836,234.911 94.800,244.236 94.800 C 259.833 94.800,259.502 94.809,259.498 94.405 C 259.494 93.978,260.101 93.994,243.736 93.998 L 228.138 94.003 227.419 93.305 C 226.531 92.443,226.518 92.561,227.619 91.492 L 228.538 90.600 243.967 90.600 L 259.396 90.600 259.459 90.349 C 259.606 89.763,260.621 89.800,244.438 89.800 C 231.450 89.800,229.600 89.782,229.600 89.653 C 229.600 89.572,230.703 88.409,232.050 87.067 C 234.615 84.514,234.797 84.266,234.300 84.000 C 233.996 83.837,234.014 83.821,230.106 87.743 C 228.102 89.754,226.403 91.400,226.331 91.400 C 226.225 91.400,226.196 89.518,226.175 81.275 L 226.150 71.150 213.950 71.100 L 201.750 71.050 201.700 60.800 C 201.673 55.163,201.687 50.496,201.732 50.431 C 201.909 50.176,202.100 50.417,202.100 50.895 C 202.100 51.242,202.154 51.418,202.300 51.550 C 202.410 51.650,202.500 51.830,202.500 51.950 C 202.500 52.070,202.590 52.250,202.700 52.350 C 202.847 52.483,202.900 52.658,202.900 53.015 C 202.900 53.390,202.945 53.526,203.100 53.623 C 203.217 53.696,203.300 53.856,203.300 54.009 C 203.300 54.152,203.390 54.350,203.500 54.450 C 203.610 54.550,203.700 54.729,203.700 54.848 C 203.700 54.967,203.813 55.171,203.950 55.300 C 204.135 55.474,204.201 55.640,204.204 55.942 C 204.208 56.354,204.899 57.300,205.196 57.300 C 205.631 57.300,205.958 56.347,205.600 56.123 C 205.445 56.026,205.400 55.890,205.400 55.515 C 205.400 55.158,205.347 54.983,205.200 54.850 C 205.090 54.750,205.000 54.570,205.000 54.450 C 205.000 54.330,204.910 54.150,204.800 54.050 C 204.690 53.950,204.600 53.770,204.600 53.650 C 204.600 53.530,204.510 53.350,204.400 53.250 C 204.260 53.124,204.200 52.942,204.200 52.649 C 204.200 52.340,204.134 52.158,203.950 51.959 C 203.813 51.811,203.700 51.590,203.700 51.467 C 203.700 51.345,203.610 51.167,203.500 51.073 C 203.357 50.951,203.300 50.778,203.300 50.466 C 203.300 50.158,203.242 49.978,203.100 49.850 C 202.990 49.750,202.900 49.570,202.900 49.450 C 202.900 49.330,202.810 49.150,202.700 49.050 C 202.590 48.950,202.500 48.770,202.500 48.650 C 202.500 48.530,202.408 48.348,202.295 48.246 C 202.131 48.097,202.097 47.961,202.120 47.555 L 202.150 47.050 214.040 47.025 C 222.600 47.006,225.968 46.968,226.065 46.888 C 226.175 46.796,226.204 44.989,226.225 36.713 L 226.250 26.650 253.425 26.625 C 280.235 26.600,280.600 26.602,280.600 26.793 C 280.600 27.018,280.319 27.134,279.979 27.048 C 279.821 27.009,279.654 27.057,279.480 27.194 C 279.336 27.307,279.142 27.400,279.049 27.400 C 278.955 27.400,278.741 27.516,278.572 27.658 C 278.329 27.863,278.199 27.903,277.941 27.855 C 277.682 27.806,277.562 27.845,277.344 28.047 C 277.194 28.186,276.975 28.300,276.858 28.300 C 276.740 28.300,276.567 28.390,276.473 28.500 C 276.379 28.610,276.196 28.700,276.066 28.700 C 275.937 28.700,275.750 28.790,275.650 28.900 C 275.526 29.037,275.341 29.100,275.060 29.101 C 274.703 29.102,274.581 29.169,274.120 29.616 L 273.589 30.130 273.914 30.465 C 274.305 30.868,274.482 30.882,274.850 30.542 C 275.074 30.334,275.192 30.295,275.454 30.344 C 275.711 30.392,275.841 30.352,276.079 30.153 C 276.244 30.014,276.467 29.900,276.574 29.900 C 276.681 29.900,276.850 29.810,276.950 29.700 C 277.050 29.590,277.230 29.500,277.350 29.500 C 277.470 29.500,277.650 29.410,277.750 29.300 C 277.883 29.153,278.058 29.100,278.412 29.100 C 278.791 29.100,278.916 29.057,279.000 28.900 C 279.070 28.769,279.209 28.700,279.403 28.700 C 279.590 28.700,279.744 28.627,279.823 28.500 C 279.919 28.347,280.056 28.300,280.409 28.300 C 280.742 28.300,280.919 28.245,281.050 28.100 C 281.150 27.990,281.305 27.900,281.396 27.900 C 281.487 27.900,281.714 27.788,281.900 27.650 C 282.086 27.513,282.332 27.400,282.445 27.400 C 282.559 27.400,282.708 27.310,282.777 27.200 C 282.916 26.978,283.295 26.935,283.480 27.120 C 283.572 27.212,283.600 29.555,283.600 37.059 C 283.600 45.921,283.615 46.885,283.758 46.939 C 284.122 47.079,334.071 47.006,334.187 46.865 C 334.268 46.768,334.306 43.855,334.325 36.490 L 334.350 26.250 360.700 26.250 L 387.050 26.250 387.079 26.963 C 387.102 27.520,387.151 27.715,387.304 27.854 C 387.412 27.951,387.500 28.130,387.500 28.250 C 387.500 28.370,387.590 28.550,387.700 28.650 C 387.810 28.750,387.900 28.927,387.900 29.044 C 387.900 29.302,388.880 30.300,389.132 30.300 C 389.229 30.300,389.525 30.502,389.790 30.750 L 390.271 31.200 392.315 31.200 L 394.359 31.200 394.746 30.804 C 394.958 30.587,395.261 30.381,395.419 30.346 C 395.790 30.264,396.700 29.345,396.700 29.052 C 396.700 28.930,396.790 28.750,396.900 28.650 C 397.010 28.550,397.100 28.370,397.100 28.250 C 397.100 28.130,397.190 27.950,397.300 27.850 C 397.607 27.573,397.607 24.389,397.300 24.127 C 397.189 24.032,397.100 23.832,397.100 23.679 C 397.100 23.510,397.022 23.353,396.900 23.277 C 396.788 23.207,396.699 23.042,396.698 22.901 C 396.695 22.566,395.724 21.600,395.389 21.599 C 395.236 21.598,395.023 21.454,394.800 21.200 L 394.450 20.802 392.322 20.801 L 390.194 20.800 389.826 21.200 C 389.591 21.455,389.371 21.600,389.216 21.600 C 388.907 21.600,387.900 22.622,387.900 22.937 C 387.900 23.057,387.810 23.233,387.700 23.327 C 387.590 23.421,387.500 23.604,387.500 23.734 C 387.500 23.863,387.410 24.050,387.300 24.150 C 387.161 24.276,387.100 24.458,387.100 24.745 C 387.100 24.973,387.046 25.214,386.980 25.280 C 386.792 25.468,334.569 25.453,334.413 25.265 C 334.332 25.168,334.294 22.255,334.275 14.890 L 334.250 4.650 308.950 4.650 L 283.650 4.650 283.625 14.700 C 283.602 24.008,283.588 24.759,283.431 24.875 C 283.188 25.055,283.063 25.032,282.759 24.750 C 282.611 24.613,282.381 24.500,282.248 24.500 C 282.109 24.500,281.962 24.415,281.900 24.300 C 281.832 24.173,281.691 24.100,281.512 24.100 C 281.357 24.100,281.150 24.010,281.050 23.900 C 280.924 23.761,280.742 23.700,280.450 23.700 C 280.158 23.700,279.976 23.639,279.850 23.500 C 279.750 23.390,279.570 23.300,279.450 23.300 C 279.330 23.300,279.150 23.210,279.050 23.100 C 278.922 22.958,278.742 22.900,278.435 22.900 C 278.145 22.900,277.938 22.838,277.814 22.714 C 277.712 22.612,277.499 22.496,277.339 22.456 C 277.180 22.416,276.969 22.297,276.871 22.192 C 276.773 22.086,276.588 22.000,276.462 22.000 C 276.335 22.000,276.150 21.910,276.050 21.800 C 275.924 21.661,275.742 21.600,275.450 21.600 C 275.158 21.600,274.976 21.539,274.850 21.400 C 274.587 21.110,274.247 21.152,273.897 21.518 L 273.593 21.837 274.118 22.368 C 274.600 22.856,274.681 22.900,275.099 22.900 C 275.432 22.900,275.602 22.954,275.727 23.100 C 275.821 23.210,276.004 23.300,276.134 23.300 C 276.263 23.300,276.450 23.390,276.550 23.500 C 276.650 23.610,276.830 23.700,276.950 23.700 C 277.070 23.700,277.250 23.790,277.350 23.900 C 277.476 24.039,277.658 24.100,277.950 24.100 C 278.242 24.100,278.424 24.161,278.550 24.300 C 278.650 24.410,278.835 24.500,278.962 24.500 C 279.088 24.500,279.273 24.587,279.373 24.694 C 279.493 24.823,279.717 24.897,280.051 24.919 C 280.473 24.945,280.550 24.981,280.550 25.150 C 280.550 25.389,226.623 25.526,226.336 25.288 C 226.225 25.196,226.196 23.384,226.175 14.913 L 226.150 4.650 200.850 4.650 L 175.550 4.650 175.525 14.528 C 175.504 22.449,175.474 24.416,175.371 24.456 C 175.297 24.484,173.752 23.010,171.749 21.002 C 168.236 17.480,168.011 17.283,167.745 17.504 C 167.350 17.832,167.523 18.062,170.056 20.581 C 171.588 22.105,172.492 23.076,172.459 23.162 C 172.381 23.366,143.282 23.369,143.113 23.165 C 143.033 23.069,142.994 20.429,142.976 13.840 L 142.950 4.650 117.692 4.625 C 103.800 4.611,92.404 4.630,92.367 4.666 M142.175 25.695 C 142.189 36.829,142.164 45.976,142.120 46.020 C 141.974 46.166,93.276 46.122,93.183 45.976 C 93.043 45.756,93.080 5.660,93.220 5.520 C 93.313 5.427,98.846 5.405,117.745 5.425 L 142.150 5.450 142.175 25.695 M225.280 5.520 C 225.420 5.660,225.456 45.756,225.317 45.976 C 225.234 46.106,176.601 46.174,176.391 46.045 C 176.286 45.980,176.262 5.572,176.367 5.467 C 176.497 5.336,225.149 5.389,225.280 5.520 M333.380 5.520 C 333.529 5.669,333.557 45.953,333.408 46.045 C 333.287 46.120,284.613 46.120,284.492 46.045 C 284.437 46.011,284.400 42.067,284.400 36.226 L 284.400 26.463 284.617 26.231 L 284.835 26.000 284.617 25.769 L 284.400 25.537 284.400 15.589 C 284.400 7.984,284.428 5.612,284.520 5.520 C 284.695 5.345,333.205 5.345,333.380 5.520 M47.670 6.117 C 50.536 7.528,49.699 12.264,46.546 12.476 C 44.156 12.637,42.623 9.883,43.742 7.439 C 44.407 5.987,46.188 5.388,47.670 6.117 M124.767 10.467 C 124.659 10.574,124.687 10.656,124.925 10.928 C 125.049 11.069,125.263 11.348,125.400 11.548 C 125.742 12.044,126.389 12.251,126.938 12.041 C 127.207 11.937,128.195 10.704,128.135 10.547 C 127.978 10.138,127.024 10.459,126.802 10.996 C 126.633 11.402,126.246 11.418,126.079 11.025 C 125.841 10.469,125.086 10.147,124.767 10.467 M132.638 10.544 C 132.579 10.700,133.518 11.903,133.789 12.018 C 134.285 12.228,134.886 12.106,135.237 11.725 C 136.308 10.563,136.353 10.400,135.605 10.400 C 135.224 10.400,134.951 10.605,134.709 11.075 C 134.539 11.404,134.128 11.376,133.979 11.025 C 133.723 10.426,132.810 10.098,132.638 10.544 M187.600 10.553 C 187.600 10.789,188.505 11.907,188.780 12.012 C 189.480 12.278,189.771 12.160,190.486 11.324 C 191.102 10.604,191.108 10.400,190.511 10.400 C 190.105 10.400,190.098 10.405,189.507 11.197 C 189.285 11.494,189.087 11.383,188.817 10.806 C 188.624 10.396,187.600 10.183,187.600 10.553 M97.620 13.020 C 97.530 13.110,97.500 14.233,97.500 17.458 C 97.500 22.172,97.479 22.004,98.079 22.021 C 98.592 22.036,98.600 22.008,98.600 20.206 C 98.600 18.157,98.428 18.326,100.550 18.282 C 102.149 18.248,102.281 18.230,102.773 17.983 C 104.753 16.988,104.779 14.118,102.816 13.179 C 102.172 12.871,97.900 12.740,97.620 13.020 M107.334 13.020 C 107.221 13.169,106.549 14.826,106.450 15.200 C 106.386 15.442,105.901 16.728,105.487 17.750 C 105.376 18.025,105.226 18.453,105.154 18.700 C 105.081 18.948,104.922 19.398,104.800 19.700 C 104.677 20.003,104.511 20.453,104.431 20.700 C 104.350 20.948,104.216 21.276,104.133 21.430 C 103.902 21.860,104.016 22.000,104.595 22.000 C 105.217 22.000,105.268 21.931,105.751 20.447 C 106.205 19.054,106.133 19.100,107.826 19.100 C 109.520 19.100,109.492 19.086,109.892 20.170 C 110.070 20.654,110.293 21.253,110.386 21.500 L 110.556 21.950 111.129 21.980 C 111.880 22.019,111.911 21.918,111.466 20.877 C 111.272 20.422,111.081 19.915,111.041 19.750 C 111.002 19.585,110.886 19.293,110.785 19.101 C 110.683 18.910,110.600 18.684,110.600 18.600 C 110.600 18.516,110.510 18.279,110.400 18.074 C 110.290 17.869,110.200 17.650,110.200 17.588 C 110.200 17.526,110.091 17.222,109.959 16.913 C 109.826 16.603,109.553 15.922,109.351 15.400 C 108.367 12.845,108.432 12.956,107.888 12.920 C 107.601 12.901,107.396 12.938,107.334 13.020 M112.750 13.014 C 112.721 13.089,112.710 15.130,112.724 17.550 L 112.750 21.950 113.300 21.950 L 113.850 21.950 113.900 18.633 C 113.945 15.660,113.989 15.055,114.147 15.214 C 114.173 15.240,114.669 16.692,115.250 18.442 C 116.515 22.256,116.395 22.000,116.929 21.998 C 117.473 21.996,117.568 21.928,117.690 21.448 C 117.867 20.749,119.812 15.054,119.906 14.957 C 120.108 14.748,120.132 15.137,120.110 18.325 C 120.083 22.126,120.065 22.000,120.655 22.000 C 121.244 22.000,121.207 22.312,121.207 17.437 C 121.207 12.611,121.242 12.854,120.550 12.959 C 119.583 13.106,119.697 12.903,118.288 16.989 C 118.072 17.615,117.863 18.177,117.824 18.239 C 117.785 18.300,117.635 18.701,117.492 19.129 C 117.072 20.386,117.001 20.390,116.612 19.183 C 116.483 18.780,116.292 18.270,116.189 18.050 C 116.086 17.830,115.701 16.728,115.334 15.600 C 114.967 14.473,114.621 13.491,114.566 13.418 C 114.285 13.054,112.857 12.735,112.750 13.014 M123.420 13.020 C 123.214 13.226,123.251 21.860,123.458 21.939 C 123.778 22.062,129.653 22.007,129.780 21.880 C 129.935 21.725,129.935 21.075,129.780 20.920 C 129.693 20.833,128.967 20.800,127.142 20.800 C 124.125 20.800,124.385 20.949,124.422 19.236 L 124.450 17.950 126.850 17.895 C 129.653 17.832,129.300 17.925,129.300 17.250 C 129.300 16.575,129.653 16.668,126.850 16.605 L 124.450 16.550 124.421 15.459 C 124.384 14.046,124.159 14.159,127.130 14.100 L 129.650 14.050 129.681 13.560 C 129.702 13.235,129.668 13.041,129.581 12.986 C 129.362 12.847,123.561 12.879,123.420 13.020 M131.041 13.037 C 131.012 13.114,131.001 13.374,131.019 13.614 L 131.050 14.050 132.429 14.100 C 133.504 14.139,133.829 14.183,133.905 14.300 C 133.965 14.392,133.998 15.884,133.990 18.134 C 133.976 22.166,133.954 22.029,134.611 21.981 L 135.050 21.950 135.076 18.154 C 135.093 15.709,135.139 14.321,135.206 14.254 C 135.263 14.197,135.903 14.128,136.630 14.100 L 137.950 14.050 137.950 13.500 L 137.950 12.950 134.522 12.924 C 131.661 12.902,131.086 12.920,131.041 13.037 M187.800 13.232 C 185.574 14.150,184.621 17.187,185.754 19.751 C 187.084 22.757,191.623 22.825,193.010 19.860 C 193.345 19.143,193.318 18.954,192.856 18.802 C 192.424 18.659,192.233 18.748,192.099 19.153 C 191.662 20.478,189.644 21.197,188.219 20.536 C 187.663 20.278,187.100 19.847,187.100 19.678 C 187.100 19.631,187.021 19.473,186.925 19.327 C 186.730 19.030,186.520 18.000,186.508 17.280 C 186.454 14.084,190.102 12.915,191.930 15.542 C 192.234 15.979,193.000 15.832,193.000 15.337 C 193.000 15.196,192.838 14.818,192.640 14.497 C 191.721 13.007,189.654 12.467,187.800 13.232 M197.129 13.025 C 197.040 13.141,196.626 14.199,196.103 15.650 C 195.686 16.806,195.326 17.753,195.164 18.122 C 195.074 18.326,195.000 18.540,195.000 18.596 C 195.000 18.685,194.599 19.782,194.006 21.315 C 193.772 21.918,193.845 22.019,194.492 21.981 C 195.088 21.946,195.337 21.512,195.800 19.703 C 195.849 19.512,195.968 19.298,196.064 19.228 C 196.310 19.048,198.992 19.049,199.239 19.229 C 199.411 19.355,200.000 20.682,200.000 20.944 C 200.000 21.016,200.092 21.283,200.205 21.537 L 200.409 22.000 200.958 22.000 C 201.670 22.000,201.702 21.899,201.297 20.927 C 201.119 20.500,200.894 19.925,200.796 19.650 C 200.415 18.575,200.288 18.239,200.156 17.950 C 199.913 17.417,198.816 14.559,198.746 14.274 C 198.709 14.122,198.639 13.974,198.592 13.945 C 198.544 13.916,198.455 13.702,198.392 13.471 C 198.243 12.914,197.433 12.628,197.129 13.025 M202.820 13.020 C 202.730 13.110,202.700 14.233,202.700 17.458 C 202.700 22.172,202.679 22.004,203.279 22.021 C 203.792 22.036,203.800 22.008,203.800 20.206 C 203.800 18.157,203.628 18.327,205.750 18.278 C 207.229 18.244,207.508 18.211,207.900 18.025 C 209.962 17.046,210.004 14.126,207.970 13.164 C 207.334 12.863,203.096 12.744,202.820 13.020 M213.761 13.282 C 213.436 13.797,212.500 14.551,211.550 15.063 C 211.285 15.206,211.206 16.042,211.449 16.136 C 211.543 16.172,211.970 15.990,212.499 15.690 C 212.990 15.411,213.438 15.212,213.495 15.247 C 213.565 15.290,213.601 16.402,213.602 18.531 C 213.602 20.301,213.642 21.811,213.689 21.885 C 213.777 22.024,214.403 22.072,214.593 21.954 C 214.788 21.834,214.737 13.036,214.542 12.961 C 214.196 12.828,213.996 12.910,213.761 13.282 M102.034 14.194 C 103.201 14.638,103.355 16.195,102.291 16.793 C 101.943 16.989,101.788 17.003,100.282 16.978 L 98.650 16.950 98.622 15.651 C 98.597 14.517,98.616 14.336,98.766 14.226 C 98.973 14.074,101.651 14.048,102.034 14.194 M207.234 14.194 C 208.401 14.638,208.555 16.195,207.491 16.793 C 207.143 16.989,206.988 17.003,205.482 16.978 L 203.850 16.950 203.822 15.651 C 203.797 14.517,203.816 14.336,203.966 14.226 C 204.173 14.074,206.851 14.048,207.234 14.194 M108.045 14.825 C 108.066 14.894,108.207 15.355,108.358 15.850 C 108.509 16.345,108.726 16.918,108.841 17.123 C 109.175 17.718,109.025 17.844,107.938 17.878 C 106.668 17.919,106.571 17.834,106.929 16.987 C 107.077 16.637,107.271 16.103,107.360 15.800 C 107.632 14.874,107.929 14.452,108.045 14.825 M198.120 15.706 C 198.278 16.225,198.495 16.816,198.603 17.020 C 199.010 17.785,198.887 17.900,197.661 17.900 C 196.492 17.900,196.396 17.811,196.732 17.042 C 196.875 16.716,197.040 16.258,197.100 16.023 C 197.488 14.499,197.731 14.424,198.120 15.706 M13.925 21.266 C 13.780 21.325,13.759 21.616,13.889 21.755 C 13.938 21.807,14.188 22.390,14.445 23.050 C 14.701 23.710,14.998 24.453,15.104 24.700 C 15.210 24.948,15.360 25.330,15.438 25.550 C 15.515 25.770,15.634 26.108,15.702 26.300 C 15.769 26.493,15.904 26.830,16.000 27.050 C 16.096 27.270,16.231 27.608,16.300 27.800 C 16.696 28.910,16.801 29.179,16.942 29.450 C 17.028 29.615,17.099 29.823,17.099 29.913 C 17.101 30.252,17.768 30.483,18.234 30.306 C 18.511 30.201,18.552 30.127,18.845 29.200 C 18.941 28.898,19.122 28.402,19.249 28.100 C 19.375 27.798,19.616 27.145,19.784 26.650 C 20.326 25.051,20.760 23.861,20.983 23.362 C 21.102 23.094,21.200 22.802,21.201 22.712 C 21.202 22.623,21.315 22.308,21.452 22.012 C 21.772 21.325,21.682 21.178,20.962 21.220 L 20.457 21.250 19.986 22.700 C 19.728 23.498,19.190 25.153,18.792 26.379 C 17.854 29.269,17.915 29.271,16.890 26.300 C 15.049 20.961,15.161 21.194,14.458 21.208 C 14.233 21.212,13.994 21.238,13.925 21.266 M24.129 21.486 C 21.958 22.409,22.103 25.346,24.340 25.770 C 24.511 25.802,24.765 25.886,24.904 25.956 C 25.044 26.026,25.477 26.128,25.865 26.182 C 26.253 26.235,26.701 26.345,26.860 26.426 C 27.020 26.506,27.272 26.601,27.422 26.637 C 28.471 26.889,28.354 28.286,27.239 28.834 C 25.827 29.526,23.427 28.680,23.403 27.482 C 23.395 27.060,22.747 26.847,22.351 27.137 C 22.012 27.385,22.612 28.886,23.288 29.480 C 25.046 31.023,28.641 30.370,29.148 28.416 C 29.524 26.967,28.611 25.601,27.100 25.351 C 26.852 25.310,26.535 25.217,26.394 25.145 C 26.253 25.073,25.848 24.982,25.494 24.944 C 22.914 24.661,23.195 22.453,25.811 22.454 C 26.905 22.454,27.422 22.687,27.817 23.356 C 28.288 24.155,29.292 23.736,28.901 22.903 C 28.190 21.384,25.940 20.716,24.129 21.486 M30.467 21.267 C 30.430 21.303,30.400 21.568,30.400 21.855 C 30.400 22.496,30.433 22.510,31.842 22.430 C 32.534 22.391,32.931 22.410,33.080 22.490 L 33.300 22.607 33.302 26.329 C 33.302 28.375,33.336 30.099,33.377 30.160 C 33.492 30.332,33.961 30.410,34.243 30.303 L 34.500 30.205 34.500 26.406 L 34.500 22.607 34.719 22.490 C 34.869 22.410,35.254 22.391,35.923 22.432 C 37.212 22.511,37.400 22.439,37.400 21.872 C 37.400 21.635,37.346 21.386,37.280 21.320 C 37.150 21.190,30.595 21.138,30.467 21.267 M39.020 21.320 C 38.862 21.478,38.853 27.008,39.009 27.855 C 39.313 29.497,40.468 30.329,42.433 30.322 C 45.394 30.312,46.000 29.289,46.000 24.297 C 46.000 21.063,46.020 21.147,45.270 21.219 L 44.950 21.250 44.899 24.350 C 44.839 27.979,44.797 28.159,43.851 28.775 C 43.106 29.261,41.725 29.263,41.018 28.780 C 40.065 28.129,40.000 27.840,40.000 24.238 C 40.000 21.205,39.999 21.200,39.450 21.200 C 39.279 21.200,39.086 21.254,39.020 21.320 M48.221 21.285 C 48.118 21.350,48.090 22.278,48.086 25.759 L 48.080 30.150 48.352 30.286 C 49.015 30.618,49.100 30.418,49.100 28.522 C 49.100 26.437,48.945 26.600,50.919 26.600 C 52.387 26.600,52.544 26.582,53.149 26.339 C 55.281 25.486,55.364 22.433,53.281 21.464 C 52.696 21.192,48.596 21.047,48.221 21.285 M293.020 21.286 C 292.888 21.369,292.819 29.989,292.949 30.198 C 293.042 30.350,293.581 30.417,293.792 30.304 C 293.985 30.201,293.997 30.091,294.023 28.223 L 294.050 26.250 295.942 26.223 C 298.062 26.192,298.100 26.180,298.100 25.535 C 298.100 24.935,297.946 24.891,295.889 24.905 C 293.840 24.919,294.000 25.021,294.000 23.698 C 294.000 22.299,293.831 22.384,296.563 22.410 C 298.324 22.428,298.735 22.406,298.808 22.291 C 298.938 22.086,298.920 21.460,298.780 21.320 C 298.640 21.180,293.238 21.147,293.020 21.286 M300.311 21.337 C 300.230 21.435,300.205 22.704,300.224 25.859 L 300.250 30.245 300.508 30.336 C 300.688 30.399,300.855 30.384,301.058 30.287 L 301.350 30.147 301.376 25.810 C 301.395 22.691,301.370 21.435,301.289 21.337 C 301.142 21.160,300.458 21.160,300.311 21.337 M303.520 21.283 C 303.359 21.388,303.325 30.065,303.484 30.224 C 303.642 30.382,308.812 30.341,308.914 30.181 C 309.039 29.984,309.017 29.357,308.880 29.220 C 308.794 29.134,308.167 29.100,306.692 29.100 C 305.088 29.100,304.600 29.070,304.513 28.966 C 304.437 28.875,304.394 27.636,304.376 25.041 L 304.350 21.250 304.000 21.224 C 303.808 21.210,303.591 21.236,303.520 21.283 M309.004 21.393 C 308.875 21.634,308.872 22.101,308.998 22.300 C 309.076 22.423,309.311 22.444,310.291 22.419 C 312.082 22.371,311.900 21.920,311.900 26.407 C 311.900 30.633,311.849 30.340,312.581 30.340 C 313.092 30.340,313.097 30.304,313.098 26.329 L 313.100 22.607 313.319 22.490 C 313.469 22.410,313.854 22.391,314.523 22.432 C 315.812 22.511,316.000 22.439,316.000 21.872 C 316.000 21.177,316.123 21.200,312.434 21.200 C 309.247 21.200,309.103 21.208,309.004 21.393 M317.620 21.320 C 317.530 21.410,317.500 22.547,317.500 25.822 L 317.500 30.205 317.757 30.302 C 318.505 30.587,318.543 30.493,318.600 28.229 L 318.650 26.250 319.742 26.221 L 320.834 26.193 321.447 26.821 C 321.999 27.386,323.092 28.869,323.105 29.070 C 323.164 29.928,324.900 30.837,325.164 30.149 C 325.268 29.878,323.137 26.821,322.651 26.544 C 322.390 26.395,322.518 26.244,323.191 25.905 C 325.201 24.890,325.225 22.389,323.235 21.447 C 322.630 21.161,317.886 21.054,317.620 21.320 M394.343 21.992 C 394.553 22.208,394.844 22.414,394.988 22.449 C 395.345 22.536,396.300 23.488,396.300 23.756 C 396.300 23.873,396.390 24.050,396.500 24.150 C 396.685 24.317,396.700 24.458,396.700 26.015 C 396.700 27.590,396.687 27.706,396.500 27.823 C 396.390 27.892,396.300 28.052,396.300 28.180 C 396.300 28.498,395.346 29.500,395.043 29.500 C 394.908 29.500,394.650 29.668,394.411 29.913 L 394.006 30.326 392.308 30.326 L 390.610 30.326 390.201 29.913 C 389.961 29.671,389.699 29.500,389.566 29.500 C 389.282 29.500,388.400 28.603,388.400 28.315 C 388.400 28.203,388.288 27.989,388.150 27.841 C 387.939 27.613,387.900 27.474,387.900 26.948 C 387.900 26.516,387.854 26.286,387.750 26.200 C 387.668 26.132,387.600 26.012,387.600 25.935 C 387.600 25.857,387.668 25.768,387.750 25.736 C 387.863 25.693,387.900 25.512,387.900 25.007 C 387.900 24.419,387.931 24.305,388.150 24.100 C 388.288 23.971,388.400 23.770,388.400 23.654 C 388.400 23.388,389.258 22.536,389.612 22.449 C 389.756 22.414,390.047 22.208,390.257 21.992 L 390.641 21.600 392.300 21.600 L 393.959 21.600 394.343 21.992 M52.916 22.730 C 53.814 23.417,53.792 24.471,52.867 25.084 C 52.373 25.411,49.391 25.505,49.198 25.200 C 49.087 25.025,49.068 22.804,49.177 22.637 C 49.419 22.262,52.401 22.336,52.916 22.730 M322.921 22.779 C 323.730 23.337,323.662 24.110,322.757 24.641 C 322.309 24.903,322.296 24.904,320.478 24.877 L 318.650 24.850 318.650 23.705 C 318.650 22.309,318.497 22.400,320.800 22.432 L 322.450 22.455 322.921 22.779 M174.493 25.004 C 175.563 26.071,175.553 25.985,174.705 26.776 L 174.033 27.402 158.598 27.402 C 146.297 27.402,143.147 27.376,143.083 27.276 C 142.950 27.066,142.982 24.358,143.120 24.220 C 143.212 24.128,146.745 24.100,158.413 24.100 L 173.587 24.100 174.493 25.004 M243.096 28.555 L 242.850 28.816 242.800 32.883 L 242.750 36.950 239.900 36.978 C 236.450 37.012,236.601 37.037,236.596 36.423 C 236.592 35.873,236.254 35.356,235.938 35.417 C 235.758 35.451,235.749 35.625,235.737 39.688 C 235.727 43.158,235.700 43.939,235.587 44.010 C 235.364 44.151,229.763 44.123,229.620 43.980 C 229.554 43.914,229.500 43.652,229.500 43.399 C 229.500 43.017,229.448 42.888,229.201 42.651 L 228.902 42.365 228.604 42.657 L 228.306 42.950 228.303 47.414 C 228.300 52.317,228.258 52.000,228.900 52.000 C 229.535 52.000,229.500 52.204,229.500 48.509 C 229.500 46.022,229.531 45.109,229.620 45.020 C 229.709 44.931,230.622 44.900,233.109 44.900 C 236.089 44.900,236.486 44.882,236.539 44.742 C 236.573 44.655,236.600 43.111,236.600 41.312 C 236.600 38.900,236.632 38.008,236.720 37.920 C 236.809 37.831,237.722 37.800,240.209 37.800 C 243.189 37.800,243.586 37.782,243.639 37.642 C 243.673 37.555,243.700 35.980,243.700 34.142 C 243.700 31.027,243.712 30.800,243.875 30.797 C 245.413 30.769,249.737 30.811,249.807 30.854 C 249.862 30.888,249.902 32.537,249.904 34.881 L 249.908 38.850 250.203 39.195 L 250.498 39.540 250.799 39.251 C 251.032 39.027,251.100 38.875,251.100 38.575 C 251.100 37.728,250.479 37.800,257.800 37.800 C 264.117 37.800,264.296 37.805,264.396 37.993 C 264.463 38.117,264.500 39.602,264.500 42.126 L 264.500 46.065 264.745 46.295 C 265.143 46.669,265.287 46.516,265.321 45.680 L 265.350 44.950 268.400 44.950 L 271.450 44.950 271.476 48.341 C 271.505 52.078,271.491 52.000,272.142 52.000 C 272.830 52.000,272.800 52.212,272.800 47.400 L 272.800 43.039 272.462 42.712 L 272.125 42.385 271.813 42.717 C 271.556 42.991,271.501 43.133,271.500 43.514 C 271.500 44.127,271.641 44.100,268.400 44.100 C 266.869 44.100,265.545 44.073,265.458 44.039 C 265.318 43.986,265.300 43.589,265.300 40.609 C 265.300 38.122,265.269 37.209,265.180 37.120 C 265.092 37.032,264.191 37.000,261.750 37.000 C 258.088 37.000,258.200 37.021,258.200 36.343 C 258.200 35.869,257.898 35.400,257.593 35.400 C 257.431 35.400,257.400 35.472,257.400 35.847 C 257.400 36.203,257.338 36.364,257.090 36.647 L 256.779 37.000 254.043 37.000 C 251.440 37.000,251.302 36.991,251.204 36.807 C 251.138 36.684,251.100 35.395,251.100 33.307 C 251.100 31.488,251.089 29.990,251.075 29.978 C 251.061 29.966,249.407 29.932,247.400 29.903 L 243.750 29.850 243.700 29.101 C 243.643 28.247,243.503 28.121,243.096 28.555 M355.101 28.897 C 355.030 29.031,354.892 29.100,354.697 29.100 C 354.510 29.100,354.356 29.173,354.277 29.300 C 354.205 29.414,354.044 29.500,353.899 29.500 C 353.576 29.500,351.800 31.244,351.800 31.561 C 351.800 31.676,351.710 31.850,351.600 31.950 C 351.490 32.050,351.400 32.235,351.400 32.362 C 351.400 32.488,351.299 32.686,351.175 32.802 C 350.994 32.970,350.940 33.152,350.900 33.730 L 350.850 34.450 350.123 34.479 C 349.529 34.503,349.374 34.545,349.274 34.704 C 349.201 34.822,349.042 34.900,348.877 34.900 C 348.710 34.900,348.553 34.979,348.477 35.100 C 348.408 35.210,348.259 35.300,348.145 35.300 C 348.032 35.300,347.786 35.413,347.600 35.550 C 347.414 35.688,347.188 35.800,347.099 35.800 C 346.876 35.800,346.400 36.317,346.400 36.560 C 346.400 36.669,346.197 36.957,345.950 37.200 C 345.547 37.595,345.500 37.689,345.500 38.097 C 345.500 38.440,345.452 38.582,345.304 38.674 C 345.145 38.774,345.103 38.929,345.079 39.523 L 345.050 40.250 344.550 40.280 C 344.178 40.302,344.007 40.365,343.883 40.527 C 343.754 40.695,343.622 40.739,343.292 40.726 C 342.971 40.713,342.797 40.769,342.576 40.955 C 342.416 41.090,342.205 41.200,342.108 41.200 C 342.011 41.200,341.850 41.290,341.750 41.400 C 341.650 41.510,341.473 41.600,341.356 41.600 C 341.082 41.600,340.100 42.587,340.100 42.863 C 340.100 42.976,340.010 43.150,339.900 43.250 C 339.790 43.350,339.700 43.530,339.700 43.650 C 339.700 43.770,339.610 43.950,339.500 44.050 C 339.338 44.197,339.300 44.358,339.300 44.900 C 339.300 45.442,339.262 45.603,339.100 45.750 C 338.598 46.205,339.107 47.458,339.764 47.383 L 340.050 47.350 340.100 45.968 C 340.143 44.788,340.176 44.571,340.325 44.488 C 340.421 44.434,340.500 44.282,340.500 44.150 C 340.500 44.018,340.613 43.789,340.750 43.641 C 340.888 43.492,341.000 43.283,341.000 43.176 C 341.000 42.878,341.505 42.400,341.821 42.400 C 341.991 42.400,342.133 42.325,342.200 42.200 C 342.270 42.069,342.409 42.000,342.603 42.000 C 342.790 42.000,342.944 41.927,343.023 41.800 C 343.135 41.620,343.256 41.600,344.209 41.600 C 345.607 41.600,345.900 41.386,345.900 40.367 C 345.900 39.822,345.935 39.702,346.150 39.500 C 346.366 39.297,346.400 39.178,346.400 38.630 L 346.400 37.995 347.297 37.097 C 347.917 36.477,348.267 36.200,348.429 36.200 C 348.558 36.200,348.756 36.094,348.869 35.965 C 349.064 35.740,349.119 35.731,350.065 35.777 L 351.058 35.825 351.629 35.258 L 352.200 34.691 352.200 33.620 C 352.200 32.656,352.220 32.535,352.400 32.423 C 352.514 32.352,352.600 32.190,352.600 32.046 C 352.600 31.725,353.858 30.438,354.268 30.340 C 354.423 30.302,354.631 30.188,354.729 30.086 C 354.866 29.943,355.055 29.900,355.542 29.900 C 355.983 29.900,356.213 29.854,356.300 29.750 C 356.713 29.252,357.200 29.930,357.200 31.003 C 357.200 31.742,357.229 31.896,357.400 32.050 C 357.510 32.150,357.600 32.327,357.600 32.445 C 357.600 32.563,357.779 32.835,358.000 33.050 C 358.220 33.265,358.400 33.535,358.400 33.650 C 358.400 33.918,358.582 34.100,358.850 34.100 C 358.965 34.100,359.235 34.280,359.450 34.500 C 359.785 34.843,359.901 34.900,360.266 34.900 C 360.567 34.900,360.748 34.960,360.883 35.105 C 361.068 35.304,361.170 35.309,364.773 35.302 C 369.135 35.295,368.800 35.229,368.800 36.095 C 368.800 36.642,368.838 36.803,369.000 36.950 C 369.142 37.078,369.200 37.258,369.200 37.565 C 369.200 37.867,369.261 38.061,369.400 38.200 C 369.510 38.310,369.600 38.491,369.600 38.602 C 369.600 38.903,370.972 40.300,371.266 40.300 C 371.396 40.300,371.579 40.390,371.673 40.500 C 371.767 40.610,371.945 40.700,372.067 40.700 C 372.190 40.700,372.414 40.816,372.567 40.957 C 372.787 41.161,372.909 41.202,373.161 41.154 C 373.409 41.108,373.544 41.150,373.779 41.347 C 374.002 41.536,374.194 41.600,374.529 41.600 C 375.075 41.600,375.100 41.649,375.100 42.708 C 375.100 43.367,375.134 43.534,375.300 43.700 C 375.410 43.810,375.500 44.002,375.500 44.128 C 375.500 44.253,375.590 44.433,375.700 44.527 C 375.810 44.621,375.900 44.801,375.900 44.928 C 375.900 45.217,376.743 46.051,377.128 46.140 C 377.280 46.176,377.494 46.294,377.603 46.403 C 377.711 46.511,377.902 46.600,378.028 46.600 C 378.153 46.600,378.333 46.690,378.427 46.800 C 378.549 46.943,378.722 47.000,379.034 47.000 C 379.345 47.000,379.522 47.058,379.653 47.204 C 379.817 47.384,379.938 47.404,380.744 47.379 L 381.650 47.350 381.681 46.867 C 381.729 46.114,381.665 46.081,380.235 46.113 C 379.086 46.139,378.991 46.126,378.772 45.920 C 378.643 45.799,378.448 45.700,378.339 45.700 C 378.230 45.700,377.965 45.520,377.750 45.300 C 377.535 45.080,377.265 44.900,377.150 44.900 C 376.880 44.900,376.700 44.718,376.700 44.445 C 376.700 44.328,376.610 44.150,376.500 44.050 C 376.390 43.950,376.300 43.770,376.300 43.650 C 376.300 43.530,376.210 43.350,376.100 43.250 C 375.924 43.091,375.900 42.942,375.900 42.004 L 375.900 40.939 375.570 40.620 C 375.242 40.301,375.237 40.300,374.186 40.300 C 373.258 40.300,373.109 40.276,372.950 40.100 C 372.850 39.990,372.670 39.900,372.550 39.900 C 372.430 39.900,372.250 39.810,372.150 39.700 C 372.050 39.590,371.873 39.500,371.756 39.500 C 371.482 39.500,370.500 38.513,370.500 38.237 C 370.500 38.124,370.410 37.950,370.300 37.850 C 370.120 37.687,370.100 37.542,370.100 36.404 L 370.100 35.139 369.770 34.820 L 369.440 34.500 365.486 34.500 C 361.658 34.500,361.525 34.494,361.350 34.300 C 361.221 34.157,361.042 34.100,360.726 34.100 C 360.059 34.100,358.400 32.431,358.400 31.760 C 358.400 31.460,358.341 31.277,358.203 31.153 C 358.034 30.999,358.002 30.820,357.978 29.862 L 357.950 28.750 356.580 28.722 C 355.291 28.696,355.204 28.706,355.101 28.897 M104.775 29.608 C 104.613 29.703,104.600 30.025,104.600 34.107 L 104.600 38.504 104.854 38.620 C 105.026 38.699,105.195 38.705,105.379 38.641 L 105.650 38.545 105.676 35.223 C 105.691 33.395,105.739 31.900,105.783 31.900 C 105.949 31.900,106.406 32.507,107.549 34.250 C 108.199 35.240,108.937 36.355,109.190 36.728 C 109.443 37.101,109.696 37.484,109.752 37.578 C 110.346 38.585,110.648 38.793,111.300 38.650 C 111.717 38.558,111.709 38.665,111.678 33.902 L 111.650 29.655 111.389 29.563 C 111.246 29.513,111.009 29.501,110.864 29.538 L 110.600 29.604 110.598 32.827 C 110.597 35.904,110.556 36.408,110.316 36.260 C 110.258 36.224,109.549 35.195,108.741 33.972 C 105.544 29.137,105.832 29.500,105.200 29.504 C 105.063 29.505,104.871 29.552,104.775 29.608 M126.120 29.620 C 125.921 29.819,125.950 38.434,126.151 38.601 C 126.290 38.716,126.947 38.687,127.074 38.560 C 127.101 38.533,127.129 37.947,127.136 37.257 L 127.150 36.004 127.464 35.689 C 127.641 35.513,127.829 35.406,127.893 35.446 C 128.007 35.516,129.102 37.159,129.624 38.041 C 129.988 38.656,130.686 38.902,131.136 38.572 C 131.298 38.454,131.288 38.413,130.986 37.997 C 130.082 36.752,128.800 34.734,128.800 34.556 C 128.800 34.432,129.207 33.951,129.855 33.311 C 131.032 32.146,131.079 32.001,130.278 31.998 L 129.750 31.996 128.590 33.198 C 127.002 34.844,127.081 34.915,127.108 31.866 C 127.124 30.093,127.101 29.662,126.989 29.591 C 126.787 29.463,126.259 29.481,126.120 29.620 M184.736 29.577 C 184.540 29.703,183.747 30.948,183.373 31.715 C 182.054 34.429,182.226 37.263,183.869 39.877 C 184.051 40.167,184.200 40.443,184.200 40.492 C 184.200 40.622,184.886 41.200,185.041 41.200 C 185.301 41.200,185.444 40.915,185.280 40.723 C 184.220 39.483,183.480 36.469,183.706 34.310 C 183.876 32.687,184.367 31.312,185.222 30.068 C 185.521 29.634,185.181 29.290,184.736 29.577 M186.820 29.620 C 186.621 29.819,186.650 38.434,186.851 38.601 C 186.991 38.717,187.647 38.686,187.777 38.557 C 187.805 38.528,187.833 37.938,187.839 37.244 L 187.850 35.984 188.174 35.694 C 188.459 35.439,188.800 35.382,188.800 35.590 C 188.800 35.627,189.126 36.157,189.525 36.767 C 189.924 37.378,190.327 38.018,190.421 38.189 C 190.678 38.660,191.436 38.865,191.836 38.573 C 191.995 38.457,191.961 38.377,191.430 37.625 C 190.118 35.769,189.478 34.700,189.538 34.464 C 189.569 34.338,190.049 33.795,190.604 33.256 C 191.741 32.153,191.786 32.001,190.978 31.998 L 190.450 31.996 189.277 33.212 C 187.720 34.825,187.779 34.876,187.810 31.923 C 187.829 30.079,187.808 29.667,187.692 29.593 C 187.487 29.463,186.960 29.480,186.820 29.620 M196.425 29.566 C 196.328 29.606,196.300 30.608,196.300 34.106 L 196.300 38.596 196.564 38.662 C 197.009 38.774,197.345 38.594,197.381 38.223 C 197.420 37.824,197.664 37.793,197.995 38.144 C 199.502 39.749,202.000 37.898,202.000 35.177 C 202.000 32.749,199.632 31.045,198.152 32.409 C 197.534 32.978,197.500 32.916,197.500 31.214 C 197.500 29.504,197.308 29.210,196.425 29.566 M203.520 29.620 C 203.317 29.823,203.369 30.576,203.593 30.696 C 204.158 30.999,204.600 30.759,204.600 30.150 C 204.600 29.646,204.465 29.500,204.000 29.500 C 203.802 29.500,203.586 29.554,203.520 29.620 M211.411 29.790 C 210.972 30.200,210.964 30.879,211.392 31.308 C 212.068 31.983,213.301 31.490,213.299 30.545 C 213.296 29.620,212.104 29.143,211.411 29.790 M216.767 29.567 C 216.642 29.692,216.700 29.890,216.988 30.320 C 217.339 30.843,217.900 32.032,217.900 32.251 C 217.900 32.338,217.965 32.535,218.044 32.689 C 218.463 33.498,218.494 36.311,218.100 37.751 C 217.886 38.534,216.987 40.534,216.797 40.652 C 216.667 40.732,216.673 41.072,216.806 41.154 C 217.719 41.718,219.513 37.840,219.513 35.300 C 219.513 32.780,217.583 28.751,216.767 29.567 M206.675 30.226 C 206.311 30.540,206.300 30.570,206.300 31.217 L 206.300 31.884 205.950 32.000 C 205.342 32.201,205.320 32.938,205.914 33.228 L 206.278 33.406 206.318 35.528 C 206.371 38.280,206.517 38.606,207.731 38.678 C 208.537 38.727,208.757 38.583,208.660 38.069 C 208.575 37.614,208.365 37.400,208.005 37.400 C 207.520 37.400,207.493 37.278,207.523 35.239 L 207.550 33.353 207.920 33.293 C 208.854 33.142,208.904 32.131,207.984 32.008 L 207.550 31.950 207.500 30.950 C 207.441 29.779,207.319 29.671,206.675 30.226 M212.700 30.150 C 213.057 30.580,212.750 31.124,212.177 31.080 C 211.315 31.014,211.336 30.000,212.199 30.000 C 212.412 30.000,212.630 30.065,212.700 30.150 M116.431 32.164 C 116.396 32.254,116.409 32.382,116.459 32.450 C 116.550 32.573,116.932 33.147,117.775 34.427 C 118.238 35.131,118.277 35.429,117.954 35.800 C 117.693 36.099,116.200 38.383,116.200 38.482 C 116.200 38.626,116.744 38.728,117.099 38.650 C 117.380 38.588,118.500 37.133,118.500 36.829 C 118.500 36.384,119.152 36.304,119.352 36.725 C 120.121 38.338,120.675 38.853,121.436 38.662 C 121.789 38.574,121.782 38.550,121.159 37.586 C 119.405 34.873,119.497 35.408,120.525 33.899 C 121.831 31.983,121.826 32.005,120.983 32.002 C 120.419 31.999,120.349 32.056,119.739 33.009 C 119.031 34.114,118.879 34.152,118.388 33.343 C 117.601 32.048,117.552 32.000,116.996 32.000 C 116.623 32.000,116.478 32.042,116.431 32.164 M203.520 32.120 C 203.432 32.208,203.400 33.068,203.400 35.366 C 203.400 38.839,203.372 38.700,204.073 38.700 C 204.600 38.700,204.600 38.698,204.600 35.350 C 204.600 31.943,204.610 32.000,204.000 32.000 C 203.802 32.000,203.586 32.054,203.520 32.120 M209.707 32.141 C 209.467 32.431,209.609 37.067,209.874 37.600 C 210.502 38.860,212.374 39.055,213.306 37.958 C 213.534 37.690,213.800 37.816,213.800 38.193 C 213.800 38.568,214.089 38.743,214.561 38.655 C 214.788 38.612,214.901 38.535,214.902 38.420 C 214.938 34.642,214.889 32.155,214.778 32.084 C 214.617 31.982,214.089 31.978,213.933 32.078 C 213.850 32.130,213.805 32.786,213.783 34.259 L 213.750 36.366 213.470 36.733 C 212.925 37.447,211.956 37.634,211.301 37.150 C 210.796 36.778,210.803 36.816,210.802 34.445 C 210.800 32.865,210.766 32.206,210.680 32.120 C 210.514 31.954,209.850 31.969,209.707 32.141 M200.094 33.546 C 201.609 34.664,200.898 37.400,199.091 37.400 C 197.891 37.400,197.323 36.594,197.434 35.050 L 197.491 34.250 198.015 33.775 C 198.666 33.184,199.482 33.094,200.094 33.546 M7.581 37.925 C 7.167 38.253,5.986 40.312,5.788 41.050 C 5.744 41.215,5.636 41.598,5.548 41.900 C 5.327 42.661,5.389 45.126,5.648 45.850 C 5.930 46.641,6.325 47.512,6.624 48.000 C 6.776 48.248,6.966 48.592,7.047 48.766 C 7.322 49.352,7.932 49.673,8.188 49.364 C 8.274 49.261,8.257 49.171,8.118 48.989 C 6.611 47.022,6.115 43.238,7.012 40.550 C 7.275 39.761,7.440 39.416,7.970 38.550 C 8.196 38.181,8.222 38.101,8.164 37.950 C 8.094 37.768,7.795 37.755,7.581 37.925 M9.975 37.908 C 9.813 38.003,9.800 38.325,9.800 42.401 C 9.800 47.256,9.765 47.000,10.423 47.000 C 10.895 47.000,10.900 46.959,10.900 43.480 C 10.900 41.676,10.937 40.200,10.981 40.200 C 11.111 40.200,11.519 40.693,12.016 41.450 C 15.965 47.467,15.765 47.227,16.590 46.937 L 16.850 46.845 16.850 42.406 L 16.850 37.967 16.571 37.874 C 16.417 37.822,16.181 37.808,16.047 37.842 L 15.803 37.903 15.776 41.227 C 15.754 44.072,15.729 44.550,15.603 44.550 C 15.521 44.550,14.493 43.109,13.286 41.305 C 10.794 37.576,10.703 37.484,9.975 37.908 M31.325 37.912 C 31.148 38.093,31.143 46.703,31.320 46.880 C 31.459 47.019,31.986 47.037,32.186 46.911 C 32.289 46.846,32.326 46.506,32.336 45.554 L 32.350 44.283 32.680 43.989 C 32.861 43.827,33.047 43.717,33.093 43.745 C 33.196 43.809,34.379 45.583,34.748 46.227 C 35.092 46.827,35.339 47.000,35.852 47.000 C 36.599 47.000,36.576 46.922,35.240 44.930 C 33.735 42.685,33.747 42.904,35.055 41.611 C 36.268 40.411,36.314 40.249,35.424 40.323 L 34.851 40.371 33.745 41.535 C 32.216 43.146,32.286 43.213,32.306 40.174 C 32.314 38.971,32.297 37.964,32.268 37.935 C 32.142 37.808,31.443 37.791,31.325 37.912 M40.925 37.866 C 40.828 37.906,40.800 38.908,40.800 42.406 L 40.800 46.896 41.064 46.962 C 41.482 47.067,41.845 46.892,41.882 46.567 C 41.933 46.130,42.168 46.128,42.612 46.562 C 43.135 47.072,44.133 47.120,44.900 46.673 C 47.646 45.072,46.712 40.147,43.695 40.317 C 43.048 40.354,42.977 40.382,42.602 40.748 C 42.023 41.313,41.967 41.199,41.991 39.518 C 42.016 37.858,41.794 37.515,40.925 37.866 M48.075 37.908 C 47.868 38.029,47.829 38.789,48.020 38.980 C 48.420 39.380,49.100 39.046,49.100 38.450 C 49.100 37.845,48.620 37.591,48.075 37.908 M55.911 38.090 C 55.124 38.825,55.819 40.141,56.874 39.916 C 57.810 39.716,58.110 38.760,57.430 38.138 C 56.932 37.682,56.366 37.664,55.911 38.090 M61.271 37.862 C 61.158 37.975,61.188 38.220,61.336 38.392 C 61.451 38.526,61.721 39.021,62.126 39.840 C 63.378 42.369,62.991 46.566,61.281 49.011 C 61.104 49.265,61.256 49.519,61.564 49.482 C 62.547 49.364,64.000 45.886,64.000 43.650 C 64.000 41.108,62.086 37.048,61.271 37.862 M51.224 38.506 C 50.811 38.809,50.808 38.816,50.779 39.523 C 50.751 40.215,50.742 40.237,50.450 40.332 C 50.083 40.452,50.003 40.563,50.003 40.950 C 50.003 41.337,50.083 41.448,50.450 41.568 L 50.750 41.666 50.804 43.808 C 50.861 46.128,50.912 46.359,51.461 46.791 C 51.788 47.048,52.898 47.093,53.094 46.858 C 53.396 46.493,52.949 45.700,52.440 45.700 C 52.028 45.700,51.994 45.526,52.023 43.539 L 52.050 41.653 52.420 41.593 C 52.917 41.512,53.100 41.339,53.100 40.950 C 53.100 40.561,52.917 40.387,52.420 40.307 L 52.050 40.247 52.021 39.354 C 51.981 38.124,51.883 38.021,51.224 38.506 M57.139 38.429 C 57.263 38.520,57.306 38.662,57.283 38.904 C 57.220 39.558,56.366 39.673,56.088 39.064 C 55.840 38.520,56.619 38.050,57.139 38.429 M21.667 40.367 C 21.559 40.475,21.590 40.775,21.725 40.919 C 22.818 42.084,23.530 43.669,23.153 44.100 C 22.914 44.373,21.400 46.694,21.400 46.787 C 21.400 46.976,22.086 47.076,22.443 46.939 C 22.608 46.876,23.700 45.303,23.700 45.129 C 23.700 44.684,24.353 44.604,24.547 45.025 C 24.629 45.204,24.753 45.440,24.822 45.550 C 25.713 46.967,25.749 47.001,26.318 46.998 C 26.792 46.996,26.985 46.856,26.827 46.628 C 26.760 46.530,26.450 46.045,26.139 45.550 C 25.827 45.055,25.418 44.415,25.228 44.128 C 24.808 43.490,24.778 43.604,25.750 42.169 C 27.035 40.272,27.028 40.305,26.144 40.302 C 25.639 40.300,25.553 40.372,24.950 41.300 C 24.175 42.493,24.082 42.509,23.504 41.534 C 22.825 40.389,22.732 40.300,22.205 40.300 C 21.945 40.300,21.703 40.330,21.667 40.367 M48.075 40.408 C 47.790 40.574,47.808 46.744,48.093 46.896 C 48.355 47.036,48.833 47.027,48.980 46.880 C 49.152 46.708,49.152 40.592,48.980 40.420 C 48.835 40.275,48.316 40.268,48.075 40.408 M54.275 40.408 C 54.116 40.501,54.100 40.731,54.100 42.937 L 54.100 45.364 54.375 45.899 C 55.041 47.196,56.893 47.392,57.809 46.263 C 58.027 45.994,58.300 46.113,58.300 46.477 C 58.300 46.936,58.717 47.141,59.242 46.939 C 59.482 46.847,59.482 40.453,59.242 40.361 C 58.406 40.040,58.300 40.265,58.300 42.358 C 58.300 44.606,58.276 44.729,57.736 45.269 C 57.135 45.871,56.276 45.906,55.675 45.355 L 55.300 45.010 55.300 42.759 C 55.300 40.222,55.157 39.894,54.275 40.408 M44.652 41.915 C 46.078 43.167,45.364 45.700,43.585 45.700 C 42.397 45.700,41.838 44.921,41.935 43.400 L 41.989 42.550 42.513 42.075 C 43.210 41.444,44.044 41.382,44.652 41.915 M209.975 58.708 C 209.764 58.831,209.711 64.180,209.909 65.255 C 210.359 67.685,213.669 68.675,215.778 67.009 C 216.729 66.258,216.912 65.358,216.877 61.602 L 216.850 58.755 216.589 58.663 C 216.446 58.613,216.209 58.601,216.064 58.638 L 215.800 58.704 215.800 61.481 C 215.800 65.121,215.693 65.590,214.721 66.200 C 213.992 66.658,212.604 66.646,211.875 66.175 C 210.985 65.600,210.957 65.473,210.920 61.904 C 210.900 59.937,210.851 58.812,210.782 58.729 C 210.655 58.576,210.221 58.565,209.975 58.708 M220.992 62.423 C 220.908 62.493,220.748 62.798,220.636 63.100 C 220.524 63.403,220.374 63.808,220.303 64.000 C 220.232 64.192,219.984 64.890,219.751 65.550 C 219.519 66.210,219.282 66.862,219.224 67.000 C 218.630 68.413,218.621 68.600,219.150 68.600 C 219.427 68.600,219.516 68.488,219.745 67.850 C 220.089 66.890,220.074 66.900,221.196 66.900 C 222.532 66.900,222.643 66.952,222.850 67.669 C 223.054 68.374,223.240 68.600,223.619 68.600 C 223.972 68.600,224.071 68.385,223.859 68.082 C 223.772 67.958,223.700 67.790,223.700 67.709 C 223.700 67.629,223.617 67.380,223.515 67.157 C 223.413 66.933,223.211 66.435,223.067 66.050 C 222.081 63.429,221.639 62.400,221.499 62.400 C 221.454 62.400,221.355 62.377,221.280 62.348 C 221.205 62.319,221.076 62.353,220.992 62.423 M221.822 64.775 C 222.247 66.076,222.236 66.100,221.235 66.100 C 220.339 66.100,220.290 66.032,220.605 65.226 C 221.345 63.330,221.350 63.328,221.822 64.775 M142.042 71.961 C 142.251 72.041,142.289 112.371,142.080 112.580 C 141.872 112.788,93.465 112.751,93.257 112.543 C 93.049 112.335,93.013 72.227,93.220 72.020 C 93.347 71.893,141.712 71.834,142.042 71.961 M200.750 72.100 C 200.850 72.210,200.990 72.300,201.062 72.300 C 201.134 72.300,201.241 72.210,201.300 72.100 C 201.431 71.855,225.036 71.776,225.280 72.020 C 225.487 72.227,225.451 112.335,225.243 112.543 C 225.035 112.751,176.628 112.788,176.420 112.580 C 176.245 112.405,176.245 72.195,176.420 72.020 C 176.664 71.776,200.528 71.855,200.750 72.100 M102.336 77.049 C 102.174 77.472,103.481 78.600,104.133 78.600 C 104.776 78.600,106.117 77.143,105.642 76.961 C 105.145 76.770,104.661 77.017,104.361 77.613 C 104.146 78.042,103.854 77.910,103.480 77.216 C 103.285 76.856,102.457 76.735,102.336 77.049 M109.551 77.140 C 109.413 77.278,109.300 77.465,109.300 77.555 C 109.300 77.645,109.223 77.850,109.128 78.009 C 108.907 78.384,109.119 78.667,109.541 78.561 C 109.817 78.492,110.927 77.232,110.868 77.054 C 110.789 76.813,109.815 76.876,109.551 77.140 M129.867 76.967 C 129.516 77.317,130.781 78.600,131.478 78.600 C 132.120 78.600,133.329 77.482,133.162 77.044 C 132.986 76.586,132.049 76.993,131.806 77.632 C 131.667 78.000,131.425 77.953,131.130 77.499 C 131.006 77.307,130.856 77.094,130.798 77.025 C 130.688 76.895,129.983 76.851,129.867 76.967 M102.620 79.725 C 100.286 80.694,99.356 83.663,100.549 86.342 C 101.622 88.753,105.177 89.354,107.051 87.441 C 107.486 86.996,108.000 86.073,108.000 85.736 C 108.000 85.195,107.037 85.122,106.871 85.650 C 106.468 86.927,104.296 87.745,103.049 87.091 C 102.410 86.756,101.900 86.383,101.900 86.250 C 101.900 86.182,101.816 86.020,101.714 85.888 C 101.335 85.404,101.184 83.593,101.442 82.626 C 102.027 80.426,105.517 79.874,106.512 81.823 C 106.842 82.471,107.765 82.469,107.735 81.821 C 107.654 80.038,104.742 78.846,102.620 79.725 M109.467 79.467 C 109.430 79.503,109.400 81.546,109.400 84.006 L 109.400 88.478 109.630 88.536 C 109.756 88.568,109.992 88.558,110.155 88.515 L 110.450 88.436 110.476 84.054 C 110.495 80.903,110.470 79.635,110.389 79.537 C 110.273 79.397,109.588 79.346,109.467 79.467 M112.367 79.467 C 112.330 79.503,112.300 79.749,112.300 80.013 C 112.300 80.661,112.423 80.715,113.723 80.636 C 114.439 80.592,114.829 80.608,114.980 80.690 L 115.200 80.807 115.202 84.529 C 115.202 86.575,115.236 88.299,115.277 88.360 C 115.392 88.532,115.861 88.610,116.143 88.503 L 116.400 88.405 116.400 84.606 L 116.400 80.807 116.619 80.690 C 116.769 80.610,117.154 80.591,117.823 80.632 C 119.112 80.711,119.300 80.639,119.300 80.072 C 119.300 79.835,119.246 79.586,119.180 79.520 C 119.050 79.390,112.495 79.338,112.367 79.467 M122.265 79.625 C 122.188 79.749,121.966 80.278,121.771 80.800 C 121.576 81.323,121.233 82.234,121.008 82.826 C 120.784 83.418,120.600 83.959,120.600 84.029 C 120.600 84.098,120.530 84.255,120.444 84.378 C 120.359 84.500,120.228 84.814,120.154 85.075 C 119.987 85.660,119.739 86.352,119.553 86.750 C 119.364 87.156,119.089 88.004,119.067 88.249 C 119.054 88.401,119.138 88.470,119.418 88.540 C 120.038 88.695,120.202 88.504,120.671 87.085 C 121.173 85.564,121.115 85.603,122.862 85.601 C 124.285 85.600,124.603 85.705,124.733 86.223 C 125.204 88.094,125.647 88.723,126.365 88.544 C 126.837 88.427,126.840 88.328,126.399 87.300 C 126.222 86.888,126.042 86.415,125.998 86.250 C 125.913 85.928,125.591 85.107,125.287 84.439 C 125.184 84.213,125.100 83.978,125.100 83.917 C 125.100 83.855,125.012 83.613,124.905 83.378 C 124.798 83.142,124.521 82.455,124.290 81.850 C 124.058 81.245,123.786 80.567,123.684 80.343 C 123.583 80.120,123.500 79.870,123.500 79.788 C 123.500 79.351,122.516 79.221,122.265 79.625 M130.350 79.611 C 129.074 80.133,128.546 80.573,128.012 81.560 C 127.211 83.039,127.403 85.630,128.418 87.044 C 128.710 87.451,129.461 88.093,129.651 88.097 C 129.707 88.099,129.932 88.197,130.151 88.316 C 130.821 88.678,132.551 88.643,133.350 88.251 C 134.307 87.781,135.500 86.363,135.500 85.695 C 135.500 85.234,134.428 85.137,134.337 85.590 C 134.072 86.913,131.778 87.749,130.373 87.034 C 129.833 86.759,129.300 86.331,129.300 86.172 C 129.300 86.122,129.216 85.961,129.114 85.815 C 128.816 85.391,128.636 83.781,128.796 82.987 C 129.100 81.486,130.139 80.656,131.700 80.669 C 132.875 80.679,133.369 80.958,134.130 82.044 C 134.457 82.510,135.200 82.351,135.200 81.815 C 135.200 80.233,132.182 78.861,130.350 79.611 M277.034 79.477 C 276.971 79.517,276.739 80.023,276.519 80.600 C 276.300 81.178,275.935 82.134,275.710 82.726 C 275.484 83.318,275.300 83.858,275.299 83.926 C 275.299 83.994,275.228 84.185,275.141 84.350 C 275.002 84.616,274.772 85.235,274.085 87.200 C 273.979 87.502,273.844 87.848,273.783 87.968 C 273.630 88.273,273.734 88.470,274.091 88.548 C 274.696 88.681,274.969 88.412,275.261 87.400 C 275.805 85.512,275.691 85.603,277.500 85.603 C 279.224 85.603,279.211 85.593,279.768 87.300 C 280.144 88.452,280.377 88.683,281.042 88.558 C 281.497 88.473,281.497 88.367,281.050 87.257 C 280.858 86.779,280.700 86.335,280.699 86.269 C 280.699 86.204,280.627 86.015,280.539 85.850 C 280.451 85.685,280.298 85.325,280.199 85.050 C 279.807 83.962,279.669 83.598,279.139 82.250 C 278.837 81.480,278.502 80.658,278.395 80.422 C 278.288 80.187,278.200 79.932,278.200 79.854 C 278.200 79.495,277.409 79.238,277.034 79.477 M282.425 79.513 C 282.329 79.611,282.300 80.639,282.300 83.963 C 282.300 88.700,282.287 88.600,282.888 88.600 C 283.519 88.600,283.506 88.668,283.529 85.128 C 283.544 82.780,283.582 81.878,283.670 81.790 C 283.822 81.638,283.778 81.524,284.846 84.800 C 286.142 88.771,286.092 88.677,286.817 88.532 C 287.149 88.465,287.206 88.394,287.366 87.850 C 287.515 87.342,287.779 86.552,287.950 86.100 C 288.092 85.727,288.322 85.035,288.550 84.300 C 289.104 82.512,289.529 81.393,289.639 81.430 C 289.717 81.456,289.758 82.507,289.776 84.930 C 289.806 88.816,289.784 88.713,290.524 88.522 L 290.850 88.437 290.850 83.994 L 290.850 79.550 290.279 79.552 C 289.423 79.556,289.222 79.751,288.827 80.960 C 288.649 81.505,288.439 82.085,288.361 82.250 C 288.207 82.577,287.968 83.276,287.752 84.031 C 287.677 84.295,287.573 84.565,287.521 84.631 C 287.469 84.696,287.303 85.133,287.151 85.600 C 286.728 86.903,286.623 86.901,286.216 85.586 C 286.090 85.181,285.924 84.715,285.847 84.550 C 285.685 84.203,285.447 83.545,285.250 82.900 C 285.115 82.457,284.939 81.937,284.588 80.950 C 284.490 80.675,284.384 80.323,284.351 80.168 C 284.255 79.707,282.741 79.193,282.425 79.513 M293.122 79.481 C 293.020 79.548,292.992 80.498,292.988 83.958 L 292.983 88.350 293.232 88.495 C 293.432 88.612,293.533 88.617,293.741 88.522 L 294.000 88.404 294.000 86.706 C 294.000 84.643,293.841 84.800,295.934 84.800 C 297.421 84.800,297.506 84.789,298.118 84.514 C 300.125 83.614,300.241 80.727,298.311 79.706 C 297.826 79.450,293.455 79.260,293.122 79.481 M301.425 79.466 C 301.262 79.532,301.241 88.352,301.403 88.452 C 301.549 88.542,306.634 88.553,306.779 88.463 C 306.936 88.366,306.936 87.576,306.780 87.420 C 306.694 87.334,306.066 87.300,304.586 87.300 C 303.244 87.300,302.489 87.263,302.447 87.195 C 302.411 87.137,302.388 85.423,302.395 83.385 C 302.410 79.189,302.383 79.080,301.425 79.466 M308.220 79.520 C 307.974 79.766,308.056 88.369,308.306 88.503 C 308.536 88.626,309.108 88.538,309.223 88.362 C 309.419 88.063,309.308 79.611,309.107 79.504 C 308.845 79.364,308.367 79.373,308.220 79.520 M310.720 79.520 C 310.654 79.586,310.600 79.832,310.600 80.066 C 310.600 80.653,310.749 80.713,312.018 80.639 C 312.664 80.601,313.152 80.619,313.324 80.687 L 313.598 80.794 313.624 84.614 L 313.650 88.433 313.935 88.528 C 314.125 88.592,314.300 88.587,314.460 88.514 L 314.700 88.404 314.700 84.600 L 314.700 80.795 314.971 80.692 C 315.120 80.635,315.731 80.603,316.329 80.619 C 317.530 80.653,317.700 80.575,317.700 79.988 C 317.700 79.401,317.697 79.400,314.113 79.400 C 311.701 79.400,310.808 79.432,310.720 79.520 M319.316 79.486 C 319.152 79.593,319.131 85.325,319.291 86.160 C 319.597 87.754,320.698 88.530,322.650 88.527 C 324.605 88.524,325.748 87.724,326.088 86.120 C 326.279 85.218,326.240 79.537,326.042 79.461 C 325.154 79.120,325.115 79.250,325.080 82.704 C 325.050 85.554,325.035 85.779,324.838 86.200 C 324.087 87.807,321.119 87.704,320.455 86.048 C 320.276 85.601,320.251 85.238,320.203 82.500 L 320.150 79.450 319.800 79.424 C 319.608 79.410,319.390 79.437,319.316 79.486 M328.425 79.514 C 328.248 79.692,328.243 88.353,328.419 88.462 C 328.721 88.648,332.835 88.512,333.246 88.302 C 333.464 88.191,333.697 88.100,333.763 88.100 C 334.019 88.100,335.071 86.915,335.245 86.431 C 336.265 83.588,335.554 80.766,333.557 79.727 C 332.961 79.417,328.697 79.240,328.425 79.514 M339.837 79.477 C 339.718 79.554,338.900 81.479,338.900 81.681 C 338.900 81.746,338.720 82.238,338.500 82.775 C 338.280 83.311,338.100 83.797,338.100 83.854 C 338.100 83.911,338.015 84.125,337.911 84.329 C 337.807 84.533,337.692 84.823,337.656 84.975 C 337.576 85.311,337.241 86.206,336.988 86.761 C 336.884 86.987,336.798 87.257,336.796 87.361 C 336.795 87.465,336.729 87.663,336.650 87.800 C 336.343 88.337,336.512 88.595,337.175 88.599 C 337.556 88.601,337.759 88.273,338.162 87.001 C 338.479 86.000,338.592 85.760,338.782 85.688 C 339.141 85.551,341.510 85.582,341.783 85.726 C 341.990 85.836,342.600 87.095,342.600 87.413 C 342.600 88.135,343.241 88.695,343.900 88.550 C 344.286 88.465,344.281 88.339,343.857 87.317 C 343.668 86.863,343.486 86.362,343.451 86.205 C 343.417 86.048,343.301 85.748,343.194 85.539 C 343.087 85.329,343.000 85.100,343.000 85.028 C 343.000 84.957,342.910 84.731,342.800 84.526 C 342.690 84.321,342.600 84.097,342.600 84.029 C 342.600 83.961,342.512 83.713,342.405 83.478 C 342.298 83.242,342.023 82.555,341.794 81.950 C 341.565 81.345,341.292 80.665,341.188 80.439 C 341.085 80.213,341.000 79.957,341.000 79.871 C 341.000 79.497,340.215 79.231,339.837 79.477 M297.781 80.899 C 298.743 81.620,298.715 82.701,297.720 83.320 C 297.248 83.613,294.274 83.679,294.098 83.400 C 293.987 83.225,293.968 81.004,294.077 80.837 C 294.305 80.484,297.295 80.534,297.781 80.899 M333.104 80.941 C 334.971 82.176,334.937 86.029,333.050 87.032 C 332.637 87.252,330.251 87.410,329.644 87.257 L 329.397 87.195 329.424 83.977 L 329.450 80.759 329.700 80.682 C 330.333 80.488,332.691 80.667,333.104 80.941 M123.100 81.587 C 123.100 81.819,123.488 82.957,123.778 83.575 C 124.126 84.317,124.034 84.400,122.863 84.398 C 121.669 84.396,121.596 84.349,121.831 83.728 C 121.930 83.465,122.146 82.847,122.311 82.354 C 122.659 81.315,122.764 81.146,122.963 81.311 C 123.038 81.373,123.100 81.498,123.100 81.587 M277.802 81.713 C 277.944 82.265,278.203 83.020,278.418 83.510 C 278.762 84.292,278.707 84.346,277.539 84.378 C 276.255 84.414,276.221 84.381,276.597 83.449 C 276.752 83.064,276.955 82.502,277.047 82.200 C 277.369 81.149,277.616 80.989,277.802 81.713 M340.600 81.694 C 340.600 81.915,340.996 83.079,341.223 83.526 C 341.592 84.253,341.496 84.346,340.340 84.378 C 339.089 84.413,338.999 84.349,339.308 83.638 C 339.424 83.369,339.631 82.813,339.766 82.400 C 340.152 81.225,340.600 80.846,340.600 81.694 M187.667 85.267 C 187.301 85.632,188.575 86.900,189.306 86.899 L 189.850 86.898 190.430 86.237 C 191.077 85.500,191.119 85.266,190.617 85.218 C 190.191 85.177,189.823 85.420,189.638 85.864 C 189.457 86.298,189.241 86.278,188.930 85.799 C 188.806 85.607,188.656 85.394,188.598 85.325 C 188.488 85.195,187.783 85.151,187.667 85.267 M188.400 87.842 C 188.208 87.916,187.893 88.033,187.700 88.103 C 184.502 89.266,184.487 95.044,187.678 96.522 C 188.671 96.983,190.368 97.000,191.199 96.558 C 192.393 95.922,193.505 94.378,193.154 93.842 C 192.887 93.434,192.100 93.550,192.100 93.998 C 192.100 94.686,190.612 95.600,189.492 95.600 C 186.244 95.600,185.236 90.794,188.158 89.241 C 189.243 88.664,191.700 89.225,191.700 90.050 C 191.700 90.429,192.375 90.718,192.842 90.539 C 193.283 90.370,192.721 89.150,191.904 88.503 C 190.987 87.777,189.370 87.472,188.400 87.842 M197.222 87.781 C 197.089 87.869,196.476 89.327,196.248 90.100 C 196.175 90.348,195.977 90.881,195.808 91.285 C 195.639 91.690,195.500 92.069,195.500 92.129 C 195.500 92.188,195.413 92.420,195.308 92.643 C 195.202 92.867,194.995 93.410,194.848 93.850 C 194.702 94.290,194.496 94.833,194.391 95.057 C 194.286 95.280,194.199 95.528,194.198 95.607 C 194.197 95.685,194.109 95.941,194.003 96.173 C 193.775 96.676,193.902 96.900,194.414 96.900 C 194.980 96.900,195.143 96.688,195.489 95.500 C 195.545 95.308,195.676 94.903,195.780 94.600 L 195.970 94.050 197.360 94.000 C 199.512 93.923,199.349 93.814,199.973 95.740 C 200.273 96.665,200.470 96.900,200.942 96.900 C 201.649 96.900,201.740 96.728,201.403 96.030 C 201.295 95.806,201.094 95.288,200.957 94.880 C 200.820 94.472,200.639 94.006,200.554 93.844 C 200.470 93.682,200.401 93.495,200.401 93.428 C 200.400 93.360,200.314 93.113,200.210 92.878 C 200.105 92.642,199.743 91.730,199.404 90.850 C 198.154 87.604,198.235 87.756,197.747 87.724 C 197.529 87.710,197.293 87.735,197.222 87.781 M202.875 87.804 C 202.713 87.902,202.700 88.226,202.700 92.307 L 202.700 96.705 202.975 96.811 C 203.143 96.876,203.347 96.884,203.500 96.831 L 203.750 96.745 203.776 95.048 C 203.809 92.942,203.652 93.100,205.710 93.100 C 207.231 93.100,207.302 93.091,207.916 92.810 C 209.927 91.893,210.015 89.050,208.065 88.022 C 207.497 87.722,203.302 87.547,202.875 87.804 M212.550 87.794 C 211.084 88.150,209.862 90.200,211.116 90.200 C 211.454 90.200,211.534 90.154,211.707 89.861 C 212.448 88.605,214.621 88.695,215.011 89.997 C 215.300 90.962,214.634 91.889,212.334 93.723 C 211.215 94.615,210.400 95.761,210.400 96.441 C 210.400 96.919,210.372 96.915,213.530 96.880 C 216.468 96.847,216.395 96.863,216.398 96.232 C 216.401 95.627,216.303 95.600,214.093 95.600 C 211.773 95.600,211.710 95.565,212.661 94.800 C 215.622 92.420,216.200 91.664,216.200 90.174 C 216.200 88.452,214.473 87.325,212.550 87.794 M207.763 89.437 C 208.523 90.197,208.344 91.219,207.368 91.691 C 206.885 91.925,204.380 92.003,203.993 91.796 C 203.797 91.692,203.684 89.249,203.867 89.067 C 203.903 89.030,204.697 89.000,205.630 89.000 L 207.326 89.000 207.763 89.437 M197.959 89.979 C 197.996 90.183,198.088 90.472,198.163 90.620 C 198.239 90.769,198.300 90.976,198.300 91.080 C 198.300 91.185,198.415 91.486,198.555 91.750 C 198.991 92.569,198.924 92.645,197.740 92.678 C 196.423 92.715,196.376 92.667,196.793 91.715 C 196.962 91.331,197.100 90.957,197.100 90.883 C 197.100 90.810,197.194 90.503,197.309 90.200 C 197.617 89.391,197.839 89.315,197.959 89.979 M273.700 93.650 C 273.580 93.794,274.176 94.654,274.687 95.075 C 274.964 95.303,275.953 95.235,276.131 94.975 C 276.215 94.851,276.468 94.548,276.692 94.300 C 277.134 93.813,277.187 93.655,276.942 93.561 C 276.462 93.377,275.927 93.651,275.701 94.197 C 275.535 94.599,275.241 94.594,275.020 94.184 C 274.661 93.519,274.023 93.261,273.700 93.650 M281.017 93.626 C 280.433 93.937,280.213 95.200,280.743 95.200 C 281.056 95.200,282.200 94.031,282.200 93.712 C 282.200 93.483,281.397 93.425,281.017 93.626 M109.575 96.108 C 109.421 96.198,109.400 96.386,109.400 97.699 C 109.400 99.285,109.345 99.467,108.968 99.121 C 106.764 97.096,103.894 100.273,105.102 103.400 C 105.745 105.063,108.085 105.831,108.869 104.635 C 109.100 104.283,109.380 104.328,109.419 104.723 C 109.457 105.114,109.832 105.298,110.275 105.142 L 110.550 105.045 110.576 100.648 C 110.600 96.602,110.589 96.240,110.432 96.125 C 110.228 95.975,109.817 95.967,109.575 96.108 M122.675 96.108 C 122.389 96.275,122.407 104.943,122.693 105.096 C 123.558 105.559,123.616 105.337,123.592 101.685 C 123.580 99.931,123.600 98.466,123.638 98.429 C 123.745 98.322,124.044 98.677,124.721 99.716 C 126.459 102.386,128.320 105.086,128.460 105.140 C 128.685 105.226,129.228 105.211,129.380 105.114 C 129.484 105.048,129.511 104.140,129.511 100.644 C 129.511 95.845,129.530 96.000,128.938 96.000 C 128.391 96.000,128.383 96.055,128.410 99.514 C 128.434 102.650,128.419 102.886,128.206 102.754 C 128.112 102.695,127.120 101.282,126.850 100.821 C 126.795 100.727,126.593 100.425,126.400 100.150 C 126.208 99.875,126.005 99.576,125.950 99.485 C 125.387 98.555,123.667 96.109,123.543 96.061 C 123.304 95.970,122.873 95.993,122.675 96.108 M269.432 96.225 C 267.665 98.190,266.854 101.764,267.640 104.126 C 268.015 105.250,268.890 106.919,269.364 107.415 C 269.804 107.873,270.484 107.688,270.074 107.221 C 268.737 105.696,267.985 100.790,268.833 99.130 C 268.911 98.976,269.009 98.698,269.049 98.511 C 269.139 98.094,269.506 97.372,270.034 96.572 C 270.380 96.048,269.861 95.749,269.432 96.225 M274.500 96.137 C 274.308 96.213,273.993 96.333,273.800 96.403 C 271.685 97.172,270.768 100.060,271.785 102.750 C 272.084 103.541,273.061 104.641,273.570 104.759 C 273.724 104.795,273.962 104.894,274.100 104.980 C 275.707 105.988,279.300 104.175,279.300 102.357 C 279.300 101.804,278.381 101.702,278.205 102.235 C 277.638 103.954,275.196 104.468,273.525 103.219 C 273.346 103.086,273.200 102.920,273.200 102.852 C 273.200 102.783,273.115 102.619,273.011 102.487 C 272.452 101.776,272.498 99.478,273.091 98.483 C 274.077 96.831,276.999 96.894,277.920 98.587 C 278.243 99.180,279.211 98.957,279.054 98.326 C 278.658 96.736,276.092 95.503,274.500 96.137 M280.825 96.066 C 280.614 96.152,280.646 105.058,280.858 105.139 C 281.119 105.239,281.552 105.208,281.680 105.080 C 281.916 104.844,281.845 96.231,281.607 96.104 C 281.406 95.996,281.042 95.979,280.825 96.066 M286.150 96.154 C 285.930 96.241,285.613 96.354,285.447 96.405 C 285.053 96.525,284.454 97.143,284.246 97.644 C 283.567 99.272,285.047 100.775,287.588 101.038 C 287.883 101.069,288.222 101.157,288.339 101.234 C 288.457 101.311,288.699 101.406,288.878 101.445 C 289.568 101.597,289.891 102.436,289.503 103.071 C 288.577 104.590,284.900 103.861,284.900 102.158 C 284.900 101.827,283.929 101.710,283.739 102.018 C 283.458 102.473,284.810 104.600,285.487 104.767 C 285.632 104.803,285.920 104.920,286.127 105.027 C 287.544 105.761,290.331 104.672,290.691 103.244 C 291.037 101.868,289.977 100.200,288.756 100.200 C 288.612 100.200,288.326 100.128,288.122 100.040 C 287.917 99.952,287.449 99.845,287.081 99.802 C 285.842 99.658,285.062 98.972,285.304 98.238 C 285.725 96.962,288.757 96.919,289.357 98.180 C 289.562 98.610,290.523 98.644,290.582 98.223 C 290.635 97.851,289.672 96.500,289.353 96.500 C 289.295 96.500,289.068 96.403,288.849 96.285 C 288.312 95.995,286.745 95.919,286.150 96.154 M292.800 96.073 C 292.515 96.181,292.503 96.367,292.502 100.618 C 292.500 104.384,292.519 104.904,292.659 105.045 C 292.797 105.183,293.154 105.200,295.434 105.177 L 298.050 105.150 298.081 104.609 C 298.122 103.888,298.170 103.903,295.845 103.902 C 294.421 103.900,293.805 103.865,293.720 103.780 C 293.631 103.691,293.600 102.702,293.600 99.950 C 293.600 95.785,293.597 95.770,292.800 96.073 M305.425 96.066 C 305.281 96.124,305.257 96.515,305.389 96.655 C 305.438 96.707,305.688 97.290,305.944 97.950 C 306.200 98.610,306.497 99.342,306.605 99.578 C 306.712 99.813,306.800 100.062,306.800 100.132 C 306.800 100.201,306.887 100.429,306.994 100.639 C 307.101 100.848,307.219 101.161,307.257 101.333 C 307.295 101.506,307.392 101.748,307.473 101.871 C 307.554 101.995,307.656 102.243,307.701 102.423 C 307.789 102.781,308.147 103.697,308.363 104.115 C 308.438 104.261,308.500 104.455,308.500 104.545 C 308.500 104.834,308.961 105.200,309.326 105.200 C 309.842 105.200,309.995 105.016,310.372 103.943 C 311.173 101.667,311.609 100.459,312.719 97.450 C 313.222 96.086,313.209 96.003,312.500 96.003 C 311.948 96.003,311.858 96.132,311.454 97.500 C 311.381 97.748,311.249 98.117,311.161 98.322 C 311.072 98.526,311.000 98.787,311.000 98.901 C 311.000 99.015,310.839 99.568,310.642 100.129 C 310.445 100.691,310.224 101.353,310.150 101.600 C 310.077 101.848,309.962 102.208,309.895 102.400 C 309.828 102.593,309.722 102.904,309.660 103.092 C 309.406 103.866,309.217 103.574,308.343 101.050 C 306.546 95.859,306.610 95.993,305.914 96.008 C 305.714 96.012,305.494 96.038,305.425 96.066 M316.100 96.137 C 315.908 96.213,315.593 96.333,315.400 96.402 C 314.907 96.578,314.514 96.968,314.238 97.550 C 313.469 99.178,314.729 100.596,317.300 100.996 C 319.108 101.277,319.953 102.020,319.505 102.935 C 318.757 104.461,315.833 104.224,315.020 102.572 C 314.663 101.848,314.451 101.710,313.971 101.892 C 313.644 102.016,313.639 102.118,313.917 102.979 C 314.684 105.354,318.392 106.007,320.164 104.079 C 321.405 102.728,320.447 100.450,318.515 100.160 C 318.275 100.124,317.951 100.028,317.794 99.947 C 317.638 99.866,317.294 99.800,317.029 99.800 C 315.255 99.800,314.628 98.381,315.997 97.465 C 316.788 96.937,318.947 97.393,319.316 98.167 C 319.491 98.533,320.316 98.643,320.487 98.324 C 320.729 97.872,319.883 96.796,318.932 96.346 C 318.224 96.010,316.700 95.898,316.100 96.137 M321.957 96.157 C 321.766 96.348,321.749 97.033,321.932 97.185 C 322.008 97.248,322.625 97.306,323.407 97.322 L 324.750 97.350 324.775 101.150 C 324.803 105.326,324.784 105.200,325.412 105.200 C 326.015 105.200,326.010 105.238,325.995 101.194 C 325.988 99.168,326.011 97.463,326.047 97.405 C 326.086 97.341,326.581 97.300,327.312 97.300 C 328.739 97.300,328.900 97.239,328.900 96.704 C 328.900 95.985,328.976 96.000,325.350 96.000 C 322.542 96.000,322.094 96.021,321.957 96.157 M330.575 96.108 C 330.367 96.229,330.311 101.625,330.507 102.742 C 331.084 106.038,336.617 106.065,337.296 102.775 C 337.371 102.408,337.415 101.125,337.416 99.230 C 337.417 96.006,337.416 95.997,336.856 96.002 C 336.348 96.005,336.353 95.976,336.300 99.321 C 336.243 102.889,336.227 102.963,335.400 103.561 C 334.734 104.043,333.154 104.065,332.469 103.603 C 331.548 102.981,331.500 102.762,331.500 99.189 C 331.500 95.904,331.414 95.619,330.575 96.108 M339.675 96.103 C 339.389 96.278,339.407 104.943,339.693 105.096 C 340.461 105.507,340.600 105.229,340.600 103.284 C 340.600 101.245,340.438 101.400,342.568 101.400 C 344.099 101.400,344.169 101.391,344.751 101.115 C 346.727 100.181,346.788 97.340,344.854 96.325 C 344.292 96.030,340.088 95.850,339.675 96.103 M347.712 96.136 C 347.626 96.239,347.642 96.329,347.778 96.511 C 347.877 96.642,348.012 96.863,348.078 97.000 C 348.144 97.138,348.241 97.317,348.293 97.400 C 349.880 99.923,349.637 104.538,347.776 107.193 C 347.565 107.494,347.710 107.725,348.082 107.680 C 348.531 107.626,349.799 105.539,350.167 104.251 C 350.481 103.148,350.518 102.836,350.481 101.568 C 350.437 100.102,350.214 99.235,349.572 98.050 C 349.512 97.940,349.396 97.715,349.313 97.550 C 348.708 96.340,348.035 95.746,347.712 96.136 M344.548 97.733 C 345.303 98.456,345.176 99.413,344.252 99.954 C 343.769 100.237,340.977 100.337,340.720 100.080 C 340.548 99.908,340.553 97.436,340.725 97.366 C 340.794 97.338,341.580 97.312,342.473 97.308 L 344.096 97.300 344.548 97.733 M113.650 98.715 C 111.333 99.910,111.273 103.784,113.553 104.938 C 114.922 105.631,116.695 104.969,117.368 103.513 C 118.650 100.742,116.100 97.452,113.650 98.715 M108.616 100.061 C 109.417 100.616,109.716 102.333,109.147 103.104 C 107.889 104.809,105.600 103.639,105.952 101.470 C 106.186 100.031,107.539 99.315,108.616 100.061 M115.932 100.294 L 116.450 100.787 116.450 101.850 L 116.450 102.913 115.932 103.406 C 114.662 104.618,113.100 103.764,113.100 101.858 C 113.100 99.929,114.652 99.072,115.932 100.294 M299.775 104.003 C 299.517 104.161,299.531 104.956,299.793 105.096 C 300.499 105.474,301.228 104.773,300.813 104.117 C 300.703 103.943,299.998 103.865,299.775 104.003 M125.998 121.380 C 125.567 121.762,125.561 121.775,125.506 122.558 L 125.450 123.350 125.000 123.458 C 124.305 123.626,124.138 124.519,124.777 124.655 C 125.554 124.822,125.494 124.594,125.523 127.472 L 125.550 130.050 125.938 130.082 C 126.530 130.130,126.527 130.142,126.507 127.470 C 126.487 124.723,126.492 124.700,127.187 124.700 C 127.654 124.700,127.800 124.557,127.800 124.100 C 127.800 123.676,127.656 123.501,127.305 123.499 C 126.598 123.495,126.354 123.173,126.638 122.623 C 126.821 122.269,126.970 122.200,127.555 122.200 C 128.071 122.200,128.229 122.003,128.181 121.421 L 128.150 121.050 127.292 121.021 L 126.434 120.993 125.998 121.380 M131.024 124.865 C 129.284 125.723,129.816 127.787,131.843 128.046 C 132.794 128.168,133.445 128.576,133.481 129.075 C 133.578 130.422,131.230 130.514,130.545 129.191 C 130.432 128.971,130.324 128.900,130.104 128.900 C 129.660 128.900,129.626 129.197,129.996 129.843 C 131.060 131.703,134.300 131.180,134.300 129.148 C 134.300 128.468,133.804 127.787,133.200 127.641 C 133.063 127.608,132.712 127.495,132.421 127.390 C 132.130 127.286,131.783 127.200,131.650 127.200 C 131.322 127.200,130.700 126.642,130.700 126.349 C 130.700 125.458,132.485 125.216,133.254 126.004 C 133.877 126.642,134.429 126.439,134.027 125.720 C 133.539 124.847,131.968 124.400,131.024 124.865 M209.975 125.208 C 209.764 125.331,209.711 130.680,209.909 131.755 C 210.279 133.757,212.504 134.865,214.643 134.112 C 216.611 133.418,216.917 132.602,216.877 128.157 L 216.850 125.267 216.571 125.174 C 216.417 125.122,216.184 125.107,216.053 125.140 L 215.815 125.200 215.783 128.275 L 215.750 131.350 215.475 131.900 C 214.701 133.447,211.886 133.461,211.171 131.922 C 210.963 131.474,210.950 131.296,210.922 128.400 C 210.889 124.956,210.818 124.717,209.975 125.208 M219.352 128.996 C 219.250 129.162,219.277 134.917,219.381 135.021 C 219.434 135.074,219.583 135.102,219.713 135.083 L 219.950 135.050 220.005 132.900 C 220.035 131.718,220.069 130.731,220.080 130.708 C 220.131 130.600,220.644 131.192,220.809 131.550 C 221.002 131.967,221.417 132.729,222.006 133.750 C 222.196 134.080,222.418 134.480,222.500 134.638 C 222.680 134.988,222.998 135.147,223.344 135.060 L 223.603 134.995 223.576 131.973 L 223.550 128.950 223.261 128.917 C 222.827 128.867,222.803 128.982,222.802 131.169 C 222.800 133.583,222.709 133.721,222.027 132.350 C 221.917 132.130,221.635 131.613,221.400 131.200 C 221.165 130.787,220.815 130.157,220.623 129.800 C 220.431 129.442,220.230 129.094,220.175 129.025 C 220.058 128.878,219.439 128.857,219.352 128.996 " stroke="none" fill="#000000" fill-rule="evenodd"></path></g></svg>
