<?xml version="1.0" encoding="UTF-8" standalone="no"?>
<!-- Created with Inkscape (http://www.inkscape.org/) -->

<svg
   version="1.1"
   id="svg1"
   width="529.75903"
   height="157.65039"
   viewBox="0 0 529.75903 157.65039"
   sodipodi:docname="probe.png"
   xmlns:inkscape="http://www.inkscape.org/namespaces/inkscape"
   xmlns:sodipodi="http://sodipodi.sourceforge.net/DTD/sodipodi-0.dtd"
   xmlns="http://www.w3.org/2000/svg"
   xmlns:svg="http://www.w3.org/2000/svg">
  <defs
     id="defs1" />
  <sodipodi:namedview
     id="namedview1"
     pagecolor="#ffffff"
     bordercolor="#000000"
     borderopacity="0.25"
     inkscape:showpageshadow="2"
     inkscape:pageopacity="0.0"
     inkscape:pagecheckerboard="0"
     inkscape:deskcolor="#d1d1d1" />
  <g
     inkscape:groupmode="layer"
     inkscape:label="Image"
     id="g1"
     transform="translate(-52.456505,-228.85004)">
    <path
       id="path27"
       style="fill:#000000"
       d="m 160.21549,228.85003 v 64.58398 64.58398 H 106.1315 c -42.822113,0 -53.997772,0.2603 -53.667962,1.25 0.325129,0.9757 12.524885,1.30602 55.583982,1.50782 l 55.16797,0.25976 v -61.14453 -61.14258 l 2.16406,2.88477 c 3.84999,5.128 9.26705,10.51364 12.03516,11.9668 2.20156,1.15573 10.19033,1.41796 43.25,1.41796 h 40.55078 v 65.74219 65.74024 l 3.92578,-5.99024 c 6.32636,-9.65429 10.51918,-13.9178 17.17773,-17.4668 l 6.25586,-3.33398 32.07032,0.66797 c 17.63855,0.3676 36.00781,0.95002 40.82031,1.29492 l 8.75,0.62695 v -60.23047 -60.23046 l 3.91992,4.96093 c 2.46201,3.11467 5.88591,5.93973 9.19727,7.58985 l 5.27539,2.6289 h 39.80273 39.80469 v 60.44141 c 0,60.96314 0.2572,65.47134 3.4375,60.12305 5.91995,-9.95569 11.22029,-15.10461 17.5625,-17.0625 1.375,-0.4244 2.76,-1.17487 3.07812,-1.66797 1.47587,-2.2878 44.3866,-1.85659 81.17188,0.8164 7.37711,0.536 8.75,0.40148 8.75,-0.85742 0,-1.7009 -4.89344,-2.10353 -46.5,-3.83203 -30.94346,-1.2855 -41.17609,-0.70121 -47.93359,2.73828 -6.90853,3.5165 -10.29775,6.18345 -13.66016,10.74805 l -2.90625,3.94727 v -59.19727 -59.19727 h -41.18555 c -39.95564,0 -41.31492,-0.0641 -45.57617,-2.12695 -4.34282,-2.10232 -11.5961,-10.05184 -13.32813,-14.60742 -0.47397,-1.24666 -1.5481,-2.26563 -2.38671,-2.26563 -1.34995,0 -1.52344,7.11021 -1.52344,62.02735 v 62.02929 l -17.75,-0.77929 c -9.76249,-0.4281 -28.32501,-0.77735 -41.25,-0.77735 h -23.5 l -6.10742,4.28907 c -3.35817,2.35949 -7.97068,6.58276 -10.25,9.38476 l -4.14258,5.09571 v -62.13477 -62.13477 h -42.52344 -42.52148 l -4.51172,-4.1582 c -2.48113,-2.28703 -6.74695,-7.49994 -9.47852,-11.58398 z" />
  </g>
</svg>
